G75*
%MOIN*%
%OFA0B0*%
%FSLAX24Y24*%
%IPPOS*%
%LPD*%
%AMOC8*
5,1,8,0,0,1.08239X$1,22.5*
%
%ADD10C,0.0000*%
%ADD11R,0.1733X0.1024*%
%ADD12R,0.0749X0.0670*%
%ADD13R,0.2481X0.2166*%
%ADD14R,0.0670X0.0434*%
%ADD15C,0.0900*%
%ADD16C,0.0740*%
%ADD17R,0.0440X0.0920*%
%ADD18R,0.0552X0.0670*%
%ADD19R,0.0634X0.0634*%
%ADD20R,0.1306X0.1306*%
%ADD21R,0.0670X0.0552*%
%ADD22R,0.0552X0.0631*%
%ADD23C,0.2340*%
%ADD24OC8,0.0640*%
%ADD25C,0.0820*%
D10*
X000150Y000150D02*
X000150Y021520D01*
X039142Y021520D01*
X039142Y000150D01*
X000150Y000150D01*
D11*
X002016Y007150D03*
X005284Y007150D03*
X005284Y012150D03*
X002016Y012150D03*
D12*
X007650Y010701D03*
X007650Y009599D03*
X007650Y007701D03*
X007650Y006599D03*
X032150Y017099D03*
X032150Y018201D03*
D13*
X011634Y008650D03*
D14*
X008760Y007752D03*
X008760Y009548D03*
D15*
X007580Y015969D02*
X006720Y015969D01*
X005260Y016720D02*
X005260Y017580D01*
X006720Y018331D02*
X007580Y018331D01*
D16*
X027650Y018150D03*
X027650Y019150D03*
X027650Y017150D03*
X027650Y016150D03*
X027650Y015150D03*
X027650Y014150D03*
X027650Y013150D03*
X027650Y012150D03*
X027650Y011150D03*
X027650Y010150D03*
X027650Y009150D03*
X027650Y008150D03*
X033650Y008150D03*
X033650Y009150D03*
X033650Y010150D03*
X033650Y011150D03*
X033650Y012150D03*
X033650Y013150D03*
X033650Y014150D03*
X033650Y015150D03*
X033650Y016150D03*
X033650Y017150D03*
X033650Y018150D03*
X033650Y019150D03*
D17*
X021050Y015870D03*
X020450Y015870D03*
X019850Y015870D03*
X019250Y015870D03*
X017050Y015870D03*
X016450Y015870D03*
X015850Y015870D03*
X015250Y015870D03*
X013050Y015870D03*
X012450Y015870D03*
X011850Y015870D03*
X011250Y015870D03*
X011250Y013430D03*
X011850Y013430D03*
X012450Y013430D03*
X013050Y013430D03*
X015250Y013430D03*
X015850Y013430D03*
X016450Y013430D03*
X017050Y013430D03*
X019250Y013430D03*
X019850Y013430D03*
X020450Y013430D03*
X021050Y013430D03*
D18*
X023776Y013150D03*
X024524Y013150D03*
X025776Y013150D03*
X026524Y013150D03*
X026524Y014150D03*
X025776Y014150D03*
X024524Y014150D03*
X023776Y014150D03*
X023776Y015150D03*
X024524Y015150D03*
X025776Y015150D03*
X026524Y015150D03*
X026524Y018150D03*
X025776Y018150D03*
X024524Y018150D03*
X023776Y018150D03*
X023776Y019150D03*
X024524Y019150D03*
X025776Y019150D03*
X026524Y019150D03*
X026524Y011150D03*
X025776Y011150D03*
X024524Y011150D03*
X023776Y011150D03*
X025776Y009150D03*
X026524Y009150D03*
X026524Y008150D03*
X025776Y008150D03*
X031276Y008150D03*
X032024Y008150D03*
D19*
X022906Y008134D03*
X022906Y006166D03*
X017197Y006166D03*
X017197Y007150D03*
X017197Y008134D03*
D20*
X020150Y009552D03*
X020150Y004748D03*
D21*
X016150Y005024D03*
X016150Y004276D03*
X014650Y004276D03*
X014650Y005024D03*
D22*
X029276Y008150D03*
X030024Y008150D03*
X030024Y009150D03*
X029276Y009150D03*
D23*
X036650Y002650D03*
X036650Y019150D03*
X002650Y019150D03*
X002650Y002650D03*
D24*
X036150Y008150D03*
X037150Y008150D03*
X037150Y009150D03*
X036150Y009150D03*
X036150Y010150D03*
X037150Y010150D03*
D25*
X022060Y018760D02*
X022060Y019540D01*
X020090Y019540D02*
X020090Y018760D01*
X018120Y018760D02*
X018120Y019540D01*
X016150Y019540D02*
X016150Y018760D01*
X014180Y018760D02*
X014180Y019540D01*
X012210Y019540D02*
X012210Y018760D01*
X010240Y018760D02*
X010240Y019540D01*
M02*
