G75*
%MOIN*%
%OFA0B0*%
%FSLAX24Y24*%
%IPPOS*%
%LPD*%
%AMOC8*
5,1,8,0,0,1.08239X$1,22.5*
%
%ADD10C,0.0000*%
%ADD11C,0.0900*%
%ADD12C,0.0740*%
%ADD13R,0.0634X0.0634*%
%ADD14R,0.1306X0.1306*%
%ADD15C,0.2340*%
%ADD16OC8,0.0640*%
%ADD17C,0.0820*%
D10*
X000150Y000150D02*
X000150Y021520D01*
X039142Y021520D01*
X039142Y000150D01*
X000150Y000150D01*
D11*
X006720Y015969D02*
X007580Y015969D01*
X005260Y016720D02*
X005260Y017580D01*
X006720Y018331D02*
X007580Y018331D01*
D12*
X027650Y018150D03*
X027650Y019150D03*
X027650Y017150D03*
X027650Y016150D03*
X027650Y015150D03*
X027650Y014150D03*
X027650Y013150D03*
X027650Y012150D03*
X027650Y011150D03*
X027650Y010150D03*
X027650Y009150D03*
X027650Y008150D03*
X033650Y008150D03*
X033650Y009150D03*
X033650Y010150D03*
X033650Y011150D03*
X033650Y012150D03*
X033650Y013150D03*
X033650Y014150D03*
X033650Y015150D03*
X033650Y016150D03*
X033650Y017150D03*
X033650Y018150D03*
X033650Y019150D03*
D13*
X022906Y008134D03*
X022906Y006166D03*
X017197Y006166D03*
X017197Y007150D03*
X017197Y008134D03*
D14*
X020150Y009552D03*
X020150Y004748D03*
D15*
X036650Y002650D03*
X036650Y019150D03*
X002650Y019150D03*
X002650Y002650D03*
D16*
X036150Y008150D03*
X037150Y008150D03*
X037150Y009150D03*
X036150Y009150D03*
X036150Y010150D03*
X037150Y010150D03*
D17*
X022060Y018760D02*
X022060Y019540D01*
X020090Y019540D02*
X020090Y018760D01*
X018120Y018760D02*
X018120Y019540D01*
X016150Y019540D02*
X016150Y018760D01*
X014180Y018760D02*
X014180Y019540D01*
X012210Y019540D02*
X012210Y018760D01*
X010240Y018760D02*
X010240Y019540D01*
M02*
