G75*
%MOIN*%
%OFA0B0*%
%FSLAX24Y24*%
%IPPOS*%
%LPD*%
%AMOC8*
5,1,8,0,0,1.08239X$1,22.5*
%
%ADD10C,0.0000*%
%ADD11C,0.0040*%
%ADD12C,0.0080*%
%ADD13R,0.0669X0.0295*%
%ADD14R,0.1140X0.0340*%
%ADD15R,0.0300X0.0340*%
%ADD16C,0.0079*%
%ADD17C,0.0039*%
%ADD18R,0.0197X0.0984*%
%ADD19R,0.1181X0.0197*%
%ADD20R,0.0984X0.0079*%
%ADD21C,0.0050*%
%ADD22R,0.0276X0.0689*%
%ADD23C,0.0060*%
%ADD24R,0.0140X0.0560*%
%ADD25R,0.0560X0.0140*%
%ADD26R,0.0295X0.0571*%
%ADD27C,0.0098*%
%ADD28C,0.0180*%
%ADD29R,0.0200X0.0200*%
%ADD30R,0.1000X0.1100*%
%ADD31C,0.0070*%
D10*
X000150Y000150D02*
X000150Y021520D01*
X039142Y021520D01*
X039142Y000150D01*
X000150Y000150D01*
D11*
X003924Y005910D02*
X004078Y005910D01*
X004155Y005987D01*
X004308Y005910D02*
X004615Y005910D01*
X004461Y005910D02*
X004461Y006371D01*
X004308Y006217D01*
X004155Y006294D02*
X004078Y006371D01*
X003924Y006371D01*
X003848Y006294D01*
X003848Y005987D01*
X003924Y005910D01*
X007340Y006770D02*
X007340Y007530D01*
X007960Y007530D02*
X007960Y006770D01*
X008170Y006826D02*
X008246Y006749D01*
X008553Y006749D01*
X008630Y006826D01*
X008630Y006979D01*
X008553Y007056D01*
X008400Y007210D02*
X008400Y007517D01*
X008630Y007440D02*
X008170Y007440D01*
X008400Y007210D01*
X008246Y007056D02*
X008170Y006979D01*
X008170Y006826D01*
X007960Y009770D02*
X007960Y010530D01*
X007340Y010530D02*
X007340Y009770D01*
X007130Y009747D02*
X007130Y009900D01*
X007053Y009977D01*
X007053Y010130D02*
X007130Y010207D01*
X007130Y010361D01*
X007053Y010437D01*
X006977Y010437D01*
X006900Y010361D01*
X006900Y010284D01*
X006900Y010361D02*
X006823Y010437D01*
X006746Y010437D01*
X006670Y010361D01*
X006670Y010207D01*
X006746Y010130D01*
X006746Y009977D02*
X006670Y009900D01*
X006670Y009747D01*
X006746Y009670D01*
X007053Y009670D01*
X007130Y009747D01*
X009670Y010170D02*
X009823Y010170D01*
X009747Y010170D02*
X009747Y010630D01*
X009823Y010630D02*
X009670Y010630D01*
X009977Y010554D02*
X009977Y010247D01*
X010054Y010170D01*
X010207Y010170D01*
X010284Y010247D01*
X010437Y010170D02*
X010744Y010170D01*
X010591Y010170D02*
X010591Y010630D01*
X010437Y010477D01*
X010284Y010554D02*
X010207Y010630D01*
X010054Y010630D01*
X009977Y010554D01*
X004615Y010910D02*
X004308Y010910D01*
X004615Y011217D01*
X004615Y011294D01*
X004538Y011371D01*
X004385Y011371D01*
X004308Y011294D01*
X004155Y011294D02*
X004078Y011371D01*
X003924Y011371D01*
X003848Y011294D01*
X003848Y010987D01*
X003924Y010910D01*
X004078Y010910D01*
X004155Y010987D01*
X010930Y013981D02*
X011008Y014296D01*
X013292Y014296D01*
X013370Y013981D01*
X013292Y014296D02*
X013292Y015319D01*
X011937Y015074D02*
X011937Y014997D01*
X011861Y014920D01*
X011937Y014843D01*
X011937Y014767D01*
X011861Y014690D01*
X011707Y014690D01*
X011630Y014767D01*
X011784Y014920D02*
X011861Y014920D01*
X011937Y015074D02*
X011861Y015150D01*
X011707Y015150D01*
X011630Y015074D01*
X011477Y015150D02*
X011170Y015150D01*
X011323Y015150D02*
X011323Y014690D01*
X011008Y014296D02*
X011008Y015319D01*
X015008Y014296D02*
X014930Y013981D01*
X015008Y014296D02*
X017292Y014296D01*
X017370Y013981D01*
X017292Y014296D02*
X017292Y015319D01*
X015937Y014690D02*
X015630Y014690D01*
X015784Y014690D02*
X015784Y015150D01*
X015630Y014997D01*
X015477Y015150D02*
X015170Y015150D01*
X015323Y015150D02*
X015323Y014690D01*
X015008Y014296D02*
X015008Y015319D01*
X019008Y015319D02*
X019008Y014296D01*
X018930Y013981D01*
X019008Y014296D02*
X021292Y014296D01*
X021370Y013981D01*
X021292Y014296D02*
X021292Y015319D01*
X022170Y015323D02*
X022400Y015323D01*
X022477Y015400D01*
X022477Y015554D01*
X022400Y015630D01*
X022170Y015630D01*
X022170Y015170D01*
X022323Y015323D02*
X022477Y015170D01*
X022630Y015247D02*
X022630Y015323D01*
X022707Y015400D01*
X022861Y015400D01*
X022937Y015323D01*
X022937Y015247D01*
X022861Y015170D01*
X022707Y015170D01*
X022630Y015247D01*
X022707Y015400D02*
X022630Y015477D01*
X022630Y015554D01*
X022707Y015630D01*
X022861Y015630D01*
X022937Y015554D01*
X022937Y015477D01*
X022861Y015400D01*
X022937Y014630D02*
X022630Y014630D01*
X022477Y014554D02*
X022477Y014400D01*
X022400Y014323D01*
X022170Y014323D01*
X022170Y014170D02*
X022170Y014630D01*
X022400Y014630D01*
X022477Y014554D01*
X022323Y014323D02*
X022477Y014170D01*
X022630Y014170D02*
X022630Y014247D01*
X022937Y014554D01*
X022937Y014630D01*
X022784Y013630D02*
X022784Y013170D01*
X022937Y013170D02*
X022630Y013170D01*
X022477Y013170D02*
X022323Y013323D01*
X022400Y013323D02*
X022170Y013323D01*
X022170Y013170D02*
X022170Y013630D01*
X022400Y013630D01*
X022477Y013554D01*
X022477Y013400D01*
X022400Y013323D01*
X022630Y013477D02*
X022784Y013630D01*
X023091Y013477D02*
X023244Y013630D01*
X023244Y013170D01*
X023091Y013170D02*
X023398Y013170D01*
X023321Y011630D02*
X023168Y011630D01*
X023091Y011554D01*
X023321Y011630D02*
X023398Y011554D01*
X023398Y011477D01*
X023091Y011170D01*
X023398Y011170D01*
X022937Y011170D02*
X022630Y011170D01*
X022477Y011170D02*
X022323Y011323D01*
X022400Y011323D02*
X022170Y011323D01*
X022170Y011170D02*
X022170Y011630D01*
X022400Y011630D01*
X022477Y011554D01*
X022477Y011400D01*
X022400Y011323D01*
X022630Y011477D02*
X022784Y011630D01*
X022784Y011170D01*
X025670Y010130D02*
X025670Y009670D01*
X025670Y009823D02*
X025900Y009823D01*
X025977Y009900D01*
X025977Y010054D01*
X025900Y010130D01*
X025670Y010130D01*
X025823Y009823D02*
X025977Y009670D01*
X026130Y009670D02*
X026437Y009670D01*
X026284Y009670D02*
X026284Y010130D01*
X026130Y009977D01*
X026591Y009900D02*
X026591Y009747D01*
X026668Y009670D01*
X026821Y009670D01*
X026898Y009747D01*
X026898Y009823D01*
X026821Y009900D01*
X026591Y009900D01*
X026744Y010054D01*
X026898Y010130D01*
X028670Y010054D02*
X028670Y009747D01*
X028747Y009670D01*
X028900Y009670D01*
X028977Y009747D01*
X029130Y009747D02*
X029130Y009670D01*
X029130Y009747D02*
X029437Y010054D01*
X029437Y010130D01*
X029130Y010130D01*
X028977Y010054D02*
X028900Y010130D01*
X028747Y010130D01*
X028670Y010054D01*
X029500Y009410D02*
X029800Y009410D01*
X029800Y008890D02*
X029510Y008890D01*
X029500Y008410D02*
X029800Y008410D01*
X029800Y007890D02*
X029510Y007890D01*
X029437Y007630D02*
X029284Y007554D01*
X029130Y007400D01*
X029361Y007400D01*
X029437Y007323D01*
X029437Y007247D01*
X029361Y007170D01*
X029207Y007170D01*
X029130Y007247D01*
X029130Y007400D01*
X028977Y007247D02*
X028900Y007170D01*
X028747Y007170D01*
X028670Y007247D01*
X028670Y007554D01*
X028747Y007630D01*
X028900Y007630D01*
X028977Y007554D01*
X030789Y007630D02*
X030789Y007170D01*
X030789Y007323D02*
X031019Y007323D01*
X031096Y007400D01*
X031096Y007554D01*
X031019Y007630D01*
X030789Y007630D01*
X031249Y007477D02*
X031403Y007630D01*
X031403Y007170D01*
X031556Y007170D02*
X031249Y007170D01*
X031096Y007170D02*
X030942Y007323D01*
X031710Y007247D02*
X031786Y007170D01*
X031940Y007170D01*
X032017Y007247D01*
X032017Y007400D01*
X031940Y007477D01*
X031863Y007477D01*
X031710Y007400D01*
X031710Y007630D01*
X032017Y007630D01*
X034680Y007054D02*
X034680Y006747D01*
X034757Y006670D01*
X034910Y006670D01*
X034987Y006747D01*
X034987Y006900D01*
X034833Y006900D01*
X034680Y007054D02*
X034757Y007130D01*
X034910Y007130D01*
X034987Y007054D01*
X035140Y007130D02*
X035447Y006670D01*
X035447Y007130D01*
X035601Y007130D02*
X035831Y007130D01*
X035908Y007054D01*
X035908Y006747D01*
X035831Y006670D01*
X035601Y006670D01*
X035601Y007130D01*
X035140Y007130D02*
X035140Y006670D01*
X035217Y006380D02*
X035140Y006304D01*
X035140Y005997D01*
X035217Y005920D01*
X035371Y005920D01*
X035447Y005997D01*
X035447Y006304D01*
X035371Y006380D01*
X035217Y006380D01*
X034987Y006380D02*
X034987Y005920D01*
X034680Y005920D02*
X034680Y006380D01*
X034833Y006227D01*
X034987Y006380D01*
X035601Y006304D02*
X035601Y006227D01*
X035677Y006150D01*
X035831Y006150D01*
X035908Y006073D01*
X035908Y005997D01*
X035831Y005920D01*
X035677Y005920D01*
X035601Y005997D01*
X035601Y006304D02*
X035677Y006380D01*
X035831Y006380D01*
X035908Y006304D01*
X036061Y006380D02*
X036215Y006380D01*
X036138Y006380D02*
X036138Y005920D01*
X036061Y005920D02*
X036215Y005920D01*
X036828Y005997D02*
X036905Y005920D01*
X037059Y005920D01*
X037135Y005997D01*
X037135Y006073D01*
X037059Y006150D01*
X036905Y006150D01*
X036828Y006227D01*
X036828Y006304D01*
X036905Y006380D01*
X037059Y006380D01*
X037135Y006304D01*
X037289Y006304D02*
X037289Y005997D01*
X037366Y005920D01*
X037519Y005920D01*
X037596Y005997D01*
X037749Y006073D02*
X038056Y006380D01*
X037979Y006670D02*
X037903Y006747D01*
X037979Y006670D02*
X038133Y006670D01*
X038210Y006747D01*
X038210Y006823D01*
X038133Y006900D01*
X037979Y006900D01*
X037903Y006977D01*
X037903Y007054D01*
X037979Y007130D01*
X038133Y007130D01*
X038210Y007054D01*
X037749Y007130D02*
X037442Y007130D01*
X037442Y006670D01*
X037749Y006670D01*
X037596Y006900D02*
X037442Y006900D01*
X037289Y006900D02*
X037289Y007054D01*
X037212Y007130D01*
X036982Y007130D01*
X036982Y006670D01*
X036982Y006823D02*
X037212Y006823D01*
X037289Y006900D01*
X037135Y006823D02*
X037289Y006670D01*
X037366Y006380D02*
X037289Y006304D01*
X037366Y006380D02*
X037519Y006380D01*
X037596Y006304D01*
X037749Y006380D02*
X037749Y005920D01*
X037826Y006150D02*
X038056Y005920D01*
X037979Y005630D02*
X037826Y005630D01*
X037749Y005554D01*
X037749Y005477D01*
X037826Y005400D01*
X037979Y005400D01*
X038056Y005323D01*
X038056Y005247D01*
X037979Y005170D01*
X037826Y005170D01*
X037749Y005247D01*
X037596Y005170D02*
X037442Y005170D01*
X037519Y005170D02*
X037519Y005630D01*
X037442Y005630D02*
X037596Y005630D01*
X037289Y005630D02*
X037289Y005170D01*
X036982Y005170D02*
X036982Y005630D01*
X037135Y005477D01*
X037289Y005630D01*
X037979Y005630D02*
X038056Y005554D01*
X038210Y005554D02*
X038210Y005247D01*
X038286Y005170D01*
X038440Y005170D01*
X038517Y005247D01*
X038517Y005554D01*
X038440Y005630D01*
X038286Y005630D01*
X038210Y005554D01*
X035908Y005554D02*
X035831Y005630D01*
X035677Y005630D01*
X035601Y005554D01*
X035601Y005247D01*
X035677Y005170D01*
X035831Y005170D01*
X035908Y005247D01*
X035447Y005247D02*
X035371Y005170D01*
X035217Y005170D01*
X035140Y005247D01*
X035140Y005554D01*
X035217Y005630D01*
X035371Y005630D01*
X035447Y005554D01*
X034987Y005630D02*
X034987Y005323D01*
X034833Y005170D01*
X034680Y005323D01*
X034680Y005630D01*
X026898Y007554D02*
X026591Y007247D01*
X026591Y007170D01*
X026437Y007170D02*
X026130Y007170D01*
X025977Y007170D02*
X025823Y007323D01*
X025900Y007323D02*
X025670Y007323D01*
X025670Y007170D02*
X025670Y007630D01*
X025900Y007630D01*
X025977Y007554D01*
X025977Y007400D01*
X025900Y007323D01*
X026130Y007477D02*
X026284Y007630D01*
X026284Y007170D01*
X026898Y007554D02*
X026898Y007630D01*
X026591Y007630D01*
X023976Y007694D02*
X023976Y008001D01*
X023976Y007847D02*
X023516Y007847D01*
X023670Y007694D01*
X023516Y007540D02*
X023976Y007540D01*
X023823Y007387D01*
X023976Y007233D01*
X023516Y007233D01*
X023593Y007080D02*
X023516Y007003D01*
X023516Y006850D01*
X023593Y006773D01*
X023670Y006773D01*
X023746Y006850D01*
X023746Y007003D01*
X023823Y007080D01*
X023900Y007080D01*
X023976Y007003D01*
X023976Y006850D01*
X023900Y006773D01*
X028670Y011170D02*
X028670Y011630D01*
X028900Y011630D01*
X028977Y011554D01*
X028977Y011400D01*
X028900Y011323D01*
X028670Y011323D01*
X028823Y011323D02*
X028977Y011170D01*
X029130Y011247D02*
X029130Y011400D01*
X029361Y011400D01*
X029437Y011323D01*
X029437Y011247D01*
X029361Y011170D01*
X029207Y011170D01*
X029130Y011247D01*
X029130Y011400D02*
X029284Y011554D01*
X029437Y011630D01*
X029361Y013170D02*
X029207Y013170D01*
X029130Y013247D01*
X029130Y013400D02*
X029284Y013477D01*
X029361Y013477D01*
X029437Y013400D01*
X029437Y013247D01*
X029361Y013170D01*
X029130Y013400D02*
X029130Y013630D01*
X029437Y013630D01*
X028977Y013554D02*
X028977Y013400D01*
X028900Y013323D01*
X028670Y013323D01*
X028670Y013170D02*
X028670Y013630D01*
X028900Y013630D01*
X028977Y013554D01*
X028823Y013323D02*
X028977Y013170D01*
X028977Y014170D02*
X028823Y014323D01*
X028900Y014323D02*
X028670Y014323D01*
X028670Y014170D02*
X028670Y014630D01*
X028900Y014630D01*
X028977Y014554D01*
X028977Y014400D01*
X028900Y014323D01*
X029130Y014170D02*
X029437Y014170D01*
X029284Y014170D02*
X029284Y014630D01*
X029130Y014477D01*
X029130Y015170D02*
X029437Y015477D01*
X029437Y015554D01*
X029361Y015630D01*
X029207Y015630D01*
X029130Y015554D01*
X028977Y015554D02*
X028977Y015400D01*
X028900Y015323D01*
X028670Y015323D01*
X028670Y015170D02*
X028670Y015630D01*
X028900Y015630D01*
X028977Y015554D01*
X028823Y015323D02*
X028977Y015170D01*
X029130Y015170D02*
X029437Y015170D01*
X026437Y017247D02*
X026361Y017170D01*
X026207Y017170D01*
X026130Y017247D01*
X025977Y017170D02*
X025823Y017323D01*
X025900Y017323D02*
X025670Y017323D01*
X025670Y017170D02*
X025670Y017630D01*
X025900Y017630D01*
X025977Y017554D01*
X025977Y017400D01*
X025900Y017323D01*
X026130Y017554D02*
X026207Y017630D01*
X026361Y017630D01*
X026437Y017554D01*
X026437Y017477D01*
X026361Y017400D01*
X026437Y017323D01*
X026437Y017247D01*
X026361Y017400D02*
X026284Y017400D01*
X024437Y017400D02*
X024207Y017400D01*
X024130Y017477D01*
X024130Y017554D01*
X024207Y017630D01*
X024361Y017630D01*
X024437Y017554D01*
X024437Y017247D01*
X024361Y017170D01*
X024207Y017170D01*
X024130Y017247D01*
X023977Y017170D02*
X023823Y017323D01*
X023900Y017323D02*
X023670Y017323D01*
X023670Y017170D02*
X023670Y017630D01*
X023900Y017630D01*
X023977Y017554D01*
X023977Y017400D01*
X023900Y017323D01*
X019937Y015074D02*
X019861Y015150D01*
X019707Y015150D01*
X019630Y015074D01*
X019477Y015150D02*
X019170Y015150D01*
X019323Y015150D02*
X019323Y014690D01*
X019630Y014690D02*
X019937Y014997D01*
X019937Y015074D01*
X019937Y014690D02*
X019630Y014690D01*
X023170Y020170D02*
X023170Y020630D01*
X023400Y020630D01*
X023477Y020554D01*
X023477Y020400D01*
X023400Y020323D01*
X023170Y020323D01*
X023323Y020323D02*
X023477Y020170D01*
X023630Y020170D02*
X023937Y020170D01*
X023784Y020170D02*
X023784Y020630D01*
X023630Y020477D01*
X024091Y020554D02*
X024091Y020247D01*
X024398Y020554D01*
X024398Y020247D01*
X024321Y020170D01*
X024168Y020170D01*
X024091Y020247D01*
X024091Y020554D02*
X024168Y020630D01*
X024321Y020630D01*
X024398Y020554D01*
X025670Y020630D02*
X025670Y020170D01*
X025670Y020323D02*
X025900Y020323D01*
X025977Y020400D01*
X025977Y020554D01*
X025900Y020630D01*
X025670Y020630D01*
X025823Y020323D02*
X025977Y020170D01*
X026130Y020400D02*
X026437Y020400D01*
X026361Y020170D02*
X026361Y020630D01*
X026130Y020400D01*
X031840Y018030D02*
X031840Y017270D01*
X032460Y017270D02*
X032460Y018030D01*
X032670Y018017D02*
X032670Y017710D01*
X032900Y017710D01*
X032823Y017863D01*
X032823Y017940D01*
X032900Y018017D01*
X033053Y018017D01*
X033130Y017940D01*
X033130Y017786D01*
X033053Y017710D01*
X033053Y017556D02*
X033130Y017479D01*
X033130Y017326D01*
X033053Y017249D01*
X032746Y017249D01*
X032670Y017326D01*
X032670Y017479D01*
X032746Y017556D01*
X015630Y005321D02*
X015630Y005168D01*
X015553Y005091D01*
X015630Y004937D02*
X015630Y004630D01*
X015630Y004477D02*
X015477Y004323D01*
X015477Y004400D02*
X015477Y004170D01*
X015630Y004170D02*
X015170Y004170D01*
X015170Y004400D01*
X015246Y004477D01*
X015400Y004477D01*
X015477Y004400D01*
X015323Y004630D02*
X015170Y004784D01*
X015630Y004784D01*
X015246Y005091D02*
X015170Y005168D01*
X015170Y005321D01*
X015246Y005398D01*
X015323Y005398D01*
X015400Y005321D01*
X015477Y005398D01*
X015553Y005398D01*
X015630Y005321D01*
X015400Y005321D02*
X015400Y005244D01*
X014130Y005321D02*
X013670Y005321D01*
X013900Y005091D01*
X013900Y005398D01*
X014130Y004937D02*
X014130Y004630D01*
X014130Y004477D02*
X013977Y004323D01*
X013977Y004400D02*
X013977Y004170D01*
X014130Y004170D02*
X013670Y004170D01*
X013670Y004400D01*
X013746Y004477D01*
X013900Y004477D01*
X013977Y004400D01*
X013823Y004630D02*
X013670Y004784D01*
X014130Y004784D01*
X009553Y020249D02*
X009630Y020326D01*
X009630Y020403D01*
X009553Y020479D01*
X009170Y020479D01*
X009170Y020403D02*
X009170Y020556D01*
X009323Y020710D02*
X009170Y020863D01*
X009630Y020863D01*
X009630Y020710D02*
X009630Y021017D01*
D12*
X002020Y019150D02*
X002022Y019200D01*
X002028Y019250D01*
X002038Y019299D01*
X002052Y019347D01*
X002069Y019394D01*
X002090Y019439D01*
X002115Y019483D01*
X002143Y019524D01*
X002175Y019563D01*
X002209Y019600D01*
X002246Y019634D01*
X002286Y019664D01*
X002328Y019691D01*
X002372Y019715D01*
X002418Y019736D01*
X002465Y019752D01*
X002513Y019765D01*
X002563Y019774D01*
X002612Y019779D01*
X002663Y019780D01*
X002713Y019777D01*
X002762Y019770D01*
X002811Y019759D01*
X002859Y019744D01*
X002905Y019726D01*
X002950Y019704D01*
X002993Y019678D01*
X003034Y019649D01*
X003073Y019617D01*
X003109Y019582D01*
X003141Y019544D01*
X003171Y019504D01*
X003198Y019461D01*
X003221Y019417D01*
X003240Y019371D01*
X003256Y019323D01*
X003268Y019274D01*
X003276Y019225D01*
X003280Y019175D01*
X003280Y019125D01*
X003276Y019075D01*
X003268Y019026D01*
X003256Y018977D01*
X003240Y018929D01*
X003221Y018883D01*
X003198Y018839D01*
X003171Y018796D01*
X003141Y018756D01*
X003109Y018718D01*
X003073Y018683D01*
X003034Y018651D01*
X002993Y018622D01*
X002950Y018596D01*
X002905Y018574D01*
X002859Y018556D01*
X002811Y018541D01*
X002762Y018530D01*
X002713Y018523D01*
X002663Y018520D01*
X002612Y018521D01*
X002563Y018526D01*
X002513Y018535D01*
X002465Y018548D01*
X002418Y018564D01*
X002372Y018585D01*
X002328Y018609D01*
X002286Y018636D01*
X002246Y018666D01*
X002209Y018700D01*
X002175Y018737D01*
X002143Y018776D01*
X002115Y018817D01*
X002090Y018861D01*
X002069Y018906D01*
X002052Y018953D01*
X002038Y019001D01*
X002028Y019050D01*
X002022Y019100D01*
X002020Y019150D01*
X001937Y014178D02*
X001367Y013607D01*
X001367Y012721D01*
X001367Y011579D01*
X001367Y010693D01*
X001937Y010122D01*
X005933Y010122D01*
X005933Y011579D01*
X005933Y012721D01*
X005933Y014178D01*
X001937Y014178D01*
X005501Y012701D02*
X005523Y012618D01*
X005542Y012534D01*
X005558Y012450D01*
X005569Y012365D01*
X005577Y012279D01*
X005581Y012193D01*
X005581Y012107D01*
X005577Y012021D01*
X005569Y011935D01*
X005558Y011850D01*
X005542Y011766D01*
X005523Y011682D01*
X005501Y011599D01*
X005474Y011516D01*
X005444Y011435D01*
X005410Y011355D01*
X005372Y011277D01*
X005331Y011200D01*
X005287Y011126D01*
X005239Y011053D01*
X005188Y010983D01*
X005134Y010915D01*
X005077Y010849D01*
X005017Y010786D01*
X004955Y010726D01*
X004889Y010669D01*
X004822Y010615D01*
X004751Y010564D01*
X004679Y010516D01*
X004604Y010471D01*
X004528Y010430D01*
X004450Y010392D01*
X004370Y010358D01*
X004289Y010328D01*
X004206Y010301D01*
X004123Y010278D01*
X004038Y010258D01*
X003953Y010243D01*
X003867Y010231D01*
X003780Y010223D01*
X003693Y010219D01*
X003607Y010219D01*
X003520Y010223D01*
X003433Y010231D01*
X003347Y010243D01*
X003262Y010258D01*
X003177Y010278D01*
X003094Y010301D01*
X003011Y010328D01*
X002930Y010358D01*
X002850Y010392D01*
X002772Y010430D01*
X002696Y010471D01*
X002621Y010516D01*
X002549Y010564D01*
X002478Y010615D01*
X002411Y010669D01*
X002345Y010726D01*
X002283Y010786D01*
X002223Y010849D01*
X002166Y010915D01*
X002112Y010983D01*
X002061Y011053D01*
X002013Y011126D01*
X001969Y011200D01*
X001928Y011277D01*
X001890Y011355D01*
X001856Y011435D01*
X001826Y011516D01*
X001799Y011599D01*
X001777Y011682D01*
X001758Y011766D01*
X001742Y011850D01*
X001731Y011935D01*
X001723Y012021D01*
X001719Y012107D01*
X001719Y012193D01*
X001723Y012279D01*
X001731Y012365D01*
X001742Y012450D01*
X001758Y012534D01*
X001777Y012618D01*
X001799Y012701D01*
X001826Y012784D01*
X001856Y012865D01*
X001890Y012945D01*
X001928Y013023D01*
X001969Y013100D01*
X002013Y013174D01*
X002061Y013247D01*
X002112Y013317D01*
X002166Y013385D01*
X002223Y013451D01*
X002283Y013514D01*
X002345Y013574D01*
X002411Y013631D01*
X002478Y013685D01*
X002549Y013736D01*
X002621Y013784D01*
X002696Y013829D01*
X002772Y013870D01*
X002850Y013908D01*
X002930Y013942D01*
X003011Y013972D01*
X003094Y013999D01*
X003177Y014022D01*
X003262Y014042D01*
X003347Y014057D01*
X003433Y014069D01*
X003520Y014077D01*
X003607Y014081D01*
X003693Y014081D01*
X003780Y014077D01*
X003867Y014069D01*
X003953Y014057D01*
X004038Y014042D01*
X004123Y014022D01*
X004206Y013999D01*
X004289Y013972D01*
X004370Y013942D01*
X004450Y013908D01*
X004528Y013870D01*
X004604Y013829D01*
X004679Y013784D01*
X004751Y013736D01*
X004822Y013685D01*
X004889Y013631D01*
X004955Y013574D01*
X005017Y013514D01*
X005077Y013451D01*
X005134Y013385D01*
X005188Y013317D01*
X005239Y013247D01*
X005287Y013174D01*
X005331Y013100D01*
X005372Y013023D01*
X005410Y012945D01*
X005444Y012865D01*
X005474Y012784D01*
X005501Y012701D01*
X009800Y009940D02*
X012160Y009940D01*
X012160Y007360D01*
X009800Y007360D01*
X009800Y009940D01*
X012200Y009660D02*
X012200Y007640D01*
X012480Y007640D01*
X012660Y007820D01*
X012660Y009480D01*
X012480Y009660D01*
X012200Y009660D01*
X005933Y009178D02*
X005933Y007721D01*
X005933Y006579D01*
X005933Y005122D01*
X001937Y005122D01*
X001367Y005693D01*
X001367Y006579D01*
X001367Y007721D01*
X001367Y008607D01*
X001937Y009178D01*
X005933Y009178D01*
X001799Y007701D02*
X001777Y007618D01*
X001758Y007534D01*
X001742Y007450D01*
X001731Y007365D01*
X001723Y007279D01*
X001719Y007193D01*
X001719Y007107D01*
X001723Y007021D01*
X001731Y006935D01*
X001742Y006850D01*
X001758Y006766D01*
X001777Y006682D01*
X001799Y006599D01*
X005501Y006599D02*
X005523Y006682D01*
X005542Y006766D01*
X005558Y006850D01*
X005569Y006935D01*
X005577Y007021D01*
X005581Y007107D01*
X005581Y007193D01*
X005577Y007279D01*
X005569Y007365D01*
X005558Y007450D01*
X005542Y007534D01*
X005523Y007618D01*
X005501Y007701D01*
X005501Y006599D02*
X005474Y006516D01*
X005444Y006435D01*
X005410Y006355D01*
X005372Y006277D01*
X005331Y006200D01*
X005287Y006126D01*
X005239Y006053D01*
X005188Y005983D01*
X005134Y005915D01*
X005077Y005849D01*
X005017Y005786D01*
X004955Y005726D01*
X004889Y005669D01*
X004822Y005615D01*
X004751Y005564D01*
X004679Y005516D01*
X004604Y005471D01*
X004528Y005430D01*
X004450Y005392D01*
X004370Y005358D01*
X004289Y005328D01*
X004206Y005301D01*
X004123Y005278D01*
X004038Y005258D01*
X003953Y005243D01*
X003867Y005231D01*
X003780Y005223D01*
X003693Y005219D01*
X003607Y005219D01*
X003520Y005223D01*
X003433Y005231D01*
X003347Y005243D01*
X003262Y005258D01*
X003177Y005278D01*
X003094Y005301D01*
X003011Y005328D01*
X002930Y005358D01*
X002850Y005392D01*
X002772Y005430D01*
X002696Y005471D01*
X002621Y005516D01*
X002549Y005564D01*
X002478Y005615D01*
X002411Y005669D01*
X002345Y005726D01*
X002283Y005786D01*
X002223Y005849D01*
X002166Y005915D01*
X002112Y005983D01*
X002061Y006053D01*
X002013Y006126D01*
X001969Y006200D01*
X001928Y006277D01*
X001890Y006355D01*
X001856Y006435D01*
X001826Y006516D01*
X001799Y006599D01*
X001799Y007701D02*
X001826Y007784D01*
X001856Y007865D01*
X001890Y007945D01*
X001928Y008023D01*
X001969Y008100D01*
X002013Y008174D01*
X002061Y008247D01*
X002112Y008317D01*
X002166Y008385D01*
X002223Y008451D01*
X002283Y008514D01*
X002345Y008574D01*
X002411Y008631D01*
X002478Y008685D01*
X002549Y008736D01*
X002621Y008784D01*
X002696Y008829D01*
X002772Y008870D01*
X002850Y008908D01*
X002930Y008942D01*
X003011Y008972D01*
X003094Y008999D01*
X003177Y009022D01*
X003262Y009042D01*
X003347Y009057D01*
X003433Y009069D01*
X003520Y009077D01*
X003607Y009081D01*
X003693Y009081D01*
X003780Y009077D01*
X003867Y009069D01*
X003953Y009057D01*
X004038Y009042D01*
X004123Y009022D01*
X004206Y008999D01*
X004289Y008972D01*
X004370Y008942D01*
X004450Y008908D01*
X004528Y008870D01*
X004604Y008829D01*
X004679Y008784D01*
X004751Y008736D01*
X004822Y008685D01*
X004889Y008631D01*
X004955Y008574D01*
X005017Y008514D01*
X005077Y008451D01*
X005134Y008385D01*
X005188Y008317D01*
X005239Y008247D01*
X005287Y008174D01*
X005331Y008100D01*
X005372Y008023D01*
X005410Y007945D01*
X005444Y007865D01*
X005474Y007784D01*
X005501Y007701D01*
X002020Y002650D02*
X002022Y002700D01*
X002028Y002750D01*
X002038Y002799D01*
X002052Y002847D01*
X002069Y002894D01*
X002090Y002939D01*
X002115Y002983D01*
X002143Y003024D01*
X002175Y003063D01*
X002209Y003100D01*
X002246Y003134D01*
X002286Y003164D01*
X002328Y003191D01*
X002372Y003215D01*
X002418Y003236D01*
X002465Y003252D01*
X002513Y003265D01*
X002563Y003274D01*
X002612Y003279D01*
X002663Y003280D01*
X002713Y003277D01*
X002762Y003270D01*
X002811Y003259D01*
X002859Y003244D01*
X002905Y003226D01*
X002950Y003204D01*
X002993Y003178D01*
X003034Y003149D01*
X003073Y003117D01*
X003109Y003082D01*
X003141Y003044D01*
X003171Y003004D01*
X003198Y002961D01*
X003221Y002917D01*
X003240Y002871D01*
X003256Y002823D01*
X003268Y002774D01*
X003276Y002725D01*
X003280Y002675D01*
X003280Y002625D01*
X003276Y002575D01*
X003268Y002526D01*
X003256Y002477D01*
X003240Y002429D01*
X003221Y002383D01*
X003198Y002339D01*
X003171Y002296D01*
X003141Y002256D01*
X003109Y002218D01*
X003073Y002183D01*
X003034Y002151D01*
X002993Y002122D01*
X002950Y002096D01*
X002905Y002074D01*
X002859Y002056D01*
X002811Y002041D01*
X002762Y002030D01*
X002713Y002023D01*
X002663Y002020D01*
X002612Y002021D01*
X002563Y002026D01*
X002513Y002035D01*
X002465Y002048D01*
X002418Y002064D01*
X002372Y002085D01*
X002328Y002109D01*
X002286Y002136D01*
X002246Y002166D01*
X002209Y002200D01*
X002175Y002237D01*
X002143Y002276D01*
X002115Y002317D01*
X002090Y002361D01*
X002069Y002406D01*
X002052Y002453D01*
X002038Y002501D01*
X002028Y002550D01*
X002022Y002600D01*
X002020Y002650D01*
X010899Y013950D02*
X010899Y015350D01*
X013401Y015350D01*
X013401Y013950D01*
X010899Y013950D01*
X014899Y013950D02*
X014899Y015350D01*
X017401Y015350D01*
X017401Y013950D01*
X014899Y013950D01*
X018899Y013950D02*
X018899Y015350D01*
X021401Y015350D01*
X021401Y013950D01*
X018899Y013950D01*
X036020Y019150D02*
X036022Y019200D01*
X036028Y019250D01*
X036038Y019299D01*
X036052Y019347D01*
X036069Y019394D01*
X036090Y019439D01*
X036115Y019483D01*
X036143Y019524D01*
X036175Y019563D01*
X036209Y019600D01*
X036246Y019634D01*
X036286Y019664D01*
X036328Y019691D01*
X036372Y019715D01*
X036418Y019736D01*
X036465Y019752D01*
X036513Y019765D01*
X036563Y019774D01*
X036612Y019779D01*
X036663Y019780D01*
X036713Y019777D01*
X036762Y019770D01*
X036811Y019759D01*
X036859Y019744D01*
X036905Y019726D01*
X036950Y019704D01*
X036993Y019678D01*
X037034Y019649D01*
X037073Y019617D01*
X037109Y019582D01*
X037141Y019544D01*
X037171Y019504D01*
X037198Y019461D01*
X037221Y019417D01*
X037240Y019371D01*
X037256Y019323D01*
X037268Y019274D01*
X037276Y019225D01*
X037280Y019175D01*
X037280Y019125D01*
X037276Y019075D01*
X037268Y019026D01*
X037256Y018977D01*
X037240Y018929D01*
X037221Y018883D01*
X037198Y018839D01*
X037171Y018796D01*
X037141Y018756D01*
X037109Y018718D01*
X037073Y018683D01*
X037034Y018651D01*
X036993Y018622D01*
X036950Y018596D01*
X036905Y018574D01*
X036859Y018556D01*
X036811Y018541D01*
X036762Y018530D01*
X036713Y018523D01*
X036663Y018520D01*
X036612Y018521D01*
X036563Y018526D01*
X036513Y018535D01*
X036465Y018548D01*
X036418Y018564D01*
X036372Y018585D01*
X036328Y018609D01*
X036286Y018636D01*
X036246Y018666D01*
X036209Y018700D01*
X036175Y018737D01*
X036143Y018776D01*
X036115Y018817D01*
X036090Y018861D01*
X036069Y018906D01*
X036052Y018953D01*
X036038Y019001D01*
X036028Y019050D01*
X036022Y019100D01*
X036020Y019150D01*
X036020Y002650D02*
X036022Y002700D01*
X036028Y002750D01*
X036038Y002799D01*
X036052Y002847D01*
X036069Y002894D01*
X036090Y002939D01*
X036115Y002983D01*
X036143Y003024D01*
X036175Y003063D01*
X036209Y003100D01*
X036246Y003134D01*
X036286Y003164D01*
X036328Y003191D01*
X036372Y003215D01*
X036418Y003236D01*
X036465Y003252D01*
X036513Y003265D01*
X036563Y003274D01*
X036612Y003279D01*
X036663Y003280D01*
X036713Y003277D01*
X036762Y003270D01*
X036811Y003259D01*
X036859Y003244D01*
X036905Y003226D01*
X036950Y003204D01*
X036993Y003178D01*
X037034Y003149D01*
X037073Y003117D01*
X037109Y003082D01*
X037141Y003044D01*
X037171Y003004D01*
X037198Y002961D01*
X037221Y002917D01*
X037240Y002871D01*
X037256Y002823D01*
X037268Y002774D01*
X037276Y002725D01*
X037280Y002675D01*
X037280Y002625D01*
X037276Y002575D01*
X037268Y002526D01*
X037256Y002477D01*
X037240Y002429D01*
X037221Y002383D01*
X037198Y002339D01*
X037171Y002296D01*
X037141Y002256D01*
X037109Y002218D01*
X037073Y002183D01*
X037034Y002151D01*
X036993Y002122D01*
X036950Y002096D01*
X036905Y002074D01*
X036859Y002056D01*
X036811Y002041D01*
X036762Y002030D01*
X036713Y002023D01*
X036663Y002020D01*
X036612Y002021D01*
X036563Y002026D01*
X036513Y002035D01*
X036465Y002048D01*
X036418Y002064D01*
X036372Y002085D01*
X036328Y002109D01*
X036286Y002136D01*
X036246Y002166D01*
X036209Y002200D01*
X036175Y002237D01*
X036143Y002276D01*
X036115Y002317D01*
X036090Y002361D01*
X036069Y002406D01*
X036052Y002453D01*
X036038Y002501D01*
X036028Y002550D01*
X036022Y002600D01*
X036020Y002650D01*
D13*
X032150Y017128D03*
X032150Y018172D03*
X007650Y010672D03*
X007650Y009628D03*
X007650Y007672D03*
X007650Y006628D03*
D14*
X009190Y007750D03*
X009190Y009550D03*
D15*
X009610Y008650D03*
D16*
X012200Y008616D02*
X012660Y008616D01*
X012660Y008539D02*
X012200Y008539D01*
X012200Y008462D02*
X012660Y008462D01*
X012660Y008385D02*
X012200Y008385D01*
X012200Y008308D02*
X012660Y008308D01*
X012660Y008231D02*
X012200Y008231D01*
X012200Y008153D02*
X012660Y008153D01*
X012660Y008076D02*
X012200Y008076D01*
X012200Y007999D02*
X012660Y007999D01*
X012660Y007922D02*
X012200Y007922D01*
X012200Y007845D02*
X012660Y007845D01*
X012660Y007820D02*
X012480Y007640D01*
X012200Y007640D01*
X012200Y009660D01*
X012480Y009660D01*
X012660Y009480D01*
X012660Y007820D01*
X012608Y007768D02*
X012200Y007768D01*
X012200Y007691D02*
X012531Y007691D01*
X012660Y008694D02*
X012200Y008694D01*
X012200Y008771D02*
X012660Y008771D01*
X012660Y008848D02*
X012200Y008848D01*
X012200Y008925D02*
X012660Y008925D01*
X012660Y009002D02*
X012200Y009002D01*
X012200Y009079D02*
X012660Y009079D01*
X012660Y009157D02*
X012200Y009157D01*
X012200Y009234D02*
X012660Y009234D01*
X012660Y009311D02*
X012200Y009311D01*
X012200Y009388D02*
X012660Y009388D01*
X012660Y009465D02*
X012200Y009465D01*
X012200Y009542D02*
X012598Y009542D01*
X012520Y009620D02*
X012200Y009620D01*
D17*
X008725Y015870D02*
X005575Y015870D01*
X005575Y016067D01*
X006225Y016067D01*
X006225Y015870D02*
X005575Y015870D01*
X005575Y016067D01*
X008725Y016067D01*
X008075Y016067D01*
X008075Y015870D02*
X008725Y015870D01*
X008725Y016067D01*
X008725Y016658D01*
X006075Y016658D01*
X005575Y016658D02*
X005575Y016067D01*
X005575Y016658D02*
X005378Y016658D01*
X005378Y021382D01*
X005378Y018158D01*
X005890Y018233D02*
X005890Y017839D01*
X006658Y017839D01*
X006658Y018233D01*
X006658Y018626D02*
X006658Y019020D01*
X006658Y019414D02*
X006658Y019807D01*
X006658Y020201D02*
X006658Y020595D01*
X006660Y020638D01*
X006665Y020680D01*
X006675Y020722D01*
X006688Y020763D01*
X006704Y020803D01*
X006724Y020841D01*
X006747Y020877D01*
X006773Y020911D01*
X006802Y020943D01*
X006834Y020972D01*
X006868Y020998D01*
X006904Y021021D01*
X006942Y021041D01*
X006982Y021057D01*
X007023Y021070D01*
X007065Y021080D01*
X007107Y021085D01*
X007150Y021087D01*
X007193Y021085D01*
X007235Y021080D01*
X007277Y021070D01*
X007318Y021057D01*
X007358Y021041D01*
X007396Y021021D01*
X007432Y020998D01*
X007466Y020972D01*
X007498Y020943D01*
X007527Y020911D01*
X007553Y020877D01*
X007576Y020841D01*
X007596Y020803D01*
X007612Y020763D01*
X007625Y020722D01*
X007635Y020680D01*
X007640Y020638D01*
X007642Y020595D01*
X007642Y020201D01*
X007642Y019807D02*
X007642Y019414D01*
X007642Y019020D02*
X007642Y018626D01*
X007642Y018233D02*
X007642Y017839D01*
X008410Y017839D01*
X008410Y018233D01*
X008410Y018626D02*
X008410Y019020D01*
X008410Y019414D02*
X008410Y019807D01*
X008725Y020004D02*
X008725Y016658D01*
X008922Y016658D01*
X008922Y021382D01*
X008410Y021382D01*
X008410Y020989D01*
X008410Y021382D02*
X005890Y021382D01*
X005890Y020989D01*
X005890Y021382D02*
X005378Y021382D01*
X005890Y020595D02*
X005890Y020201D01*
X005575Y020004D02*
X005575Y016658D01*
X008725Y016658D01*
X007642Y017839D02*
X007347Y017839D01*
X006953Y017839D02*
X006658Y017839D01*
X005890Y018626D02*
X005890Y019020D01*
X005890Y019414D02*
X005890Y019807D01*
X005378Y020004D02*
X008725Y020004D01*
X008922Y020004D01*
X008410Y020201D02*
X008410Y020595D01*
D18*
X005260Y017150D03*
D19*
X007150Y015969D03*
D20*
X007150Y018331D03*
D21*
X009485Y019675D02*
X009785Y019675D01*
X009635Y019675D02*
X009635Y020125D01*
X009485Y019975D01*
X011485Y020050D02*
X011560Y020125D01*
X011710Y020125D01*
X011785Y020050D01*
X011785Y019975D01*
X011485Y019675D01*
X011785Y019675D01*
X013425Y019750D02*
X013500Y019675D01*
X013650Y019675D01*
X013725Y019750D01*
X013725Y019825D01*
X013650Y019900D01*
X013575Y019900D01*
X013650Y019900D02*
X013725Y019975D01*
X013725Y020050D01*
X013650Y020125D01*
X013500Y020125D01*
X013425Y020050D01*
X015425Y019900D02*
X015725Y019900D01*
X015650Y019675D02*
X015650Y020125D01*
X015425Y019900D01*
X017365Y019900D02*
X017515Y019975D01*
X017590Y019975D01*
X017665Y019900D01*
X017665Y019750D01*
X017590Y019675D01*
X017440Y019675D01*
X017365Y019750D01*
X017365Y019900D02*
X017365Y020125D01*
X017665Y020125D01*
X019365Y019900D02*
X019365Y019750D01*
X019440Y019675D01*
X019590Y019675D01*
X019665Y019750D01*
X019665Y019825D01*
X019590Y019900D01*
X019365Y019900D01*
X019515Y020050D01*
X019665Y020125D01*
X021365Y020125D02*
X021665Y020125D01*
X021665Y020050D01*
X021365Y019750D01*
X021365Y019675D01*
X027150Y020650D02*
X029150Y020650D01*
X029150Y019150D01*
X032150Y019150D01*
X032150Y020650D01*
X032150Y021150D01*
X029150Y021150D01*
X029150Y020650D01*
X027150Y020650D02*
X027150Y007650D01*
X034150Y007650D01*
X034150Y020650D01*
X032150Y020650D01*
X022748Y009591D02*
X017552Y009591D01*
X017552Y004709D01*
X022748Y004709D01*
X022748Y009591D01*
X020741Y008174D02*
X020741Y006126D01*
X018969Y007150D02*
X018971Y007219D01*
X018977Y007287D01*
X018987Y007355D01*
X019001Y007422D01*
X019019Y007489D01*
X019040Y007554D01*
X019066Y007618D01*
X019095Y007680D01*
X019127Y007740D01*
X019163Y007799D01*
X019203Y007855D01*
X019245Y007909D01*
X019291Y007960D01*
X019340Y008009D01*
X019391Y008055D01*
X019445Y008097D01*
X019501Y008137D01*
X019559Y008173D01*
X019620Y008205D01*
X019682Y008234D01*
X019746Y008260D01*
X019811Y008281D01*
X019878Y008299D01*
X019945Y008313D01*
X020013Y008323D01*
X020081Y008329D01*
X020150Y008331D01*
X020219Y008329D01*
X020287Y008323D01*
X020355Y008313D01*
X020422Y008299D01*
X020489Y008281D01*
X020554Y008260D01*
X020618Y008234D01*
X020680Y008205D01*
X020740Y008173D01*
X020799Y008137D01*
X020855Y008097D01*
X020909Y008055D01*
X020960Y008009D01*
X021009Y007960D01*
X021055Y007909D01*
X021097Y007855D01*
X021137Y007799D01*
X021173Y007740D01*
X021205Y007680D01*
X021234Y007618D01*
X021260Y007554D01*
X021281Y007489D01*
X021299Y007422D01*
X021313Y007355D01*
X021323Y007287D01*
X021329Y007219D01*
X021331Y007150D01*
X021329Y007081D01*
X021323Y007013D01*
X021313Y006945D01*
X021299Y006878D01*
X021281Y006811D01*
X021260Y006746D01*
X021234Y006682D01*
X021205Y006620D01*
X021173Y006559D01*
X021137Y006501D01*
X021097Y006445D01*
X021055Y006391D01*
X021009Y006340D01*
X020960Y006291D01*
X020909Y006245D01*
X020855Y006203D01*
X020799Y006163D01*
X020741Y006127D01*
X020680Y006095D01*
X020618Y006066D01*
X020554Y006040D01*
X020489Y006019D01*
X020422Y006001D01*
X020355Y005987D01*
X020287Y005977D01*
X020219Y005971D01*
X020150Y005969D01*
X020081Y005971D01*
X020013Y005977D01*
X019945Y005987D01*
X019878Y006001D01*
X019811Y006019D01*
X019746Y006040D01*
X019682Y006066D01*
X019620Y006095D01*
X019559Y006127D01*
X019501Y006163D01*
X019445Y006203D01*
X019391Y006245D01*
X019340Y006291D01*
X019291Y006340D01*
X019245Y006391D01*
X019203Y006445D01*
X019163Y006501D01*
X019127Y006559D01*
X019095Y006620D01*
X019066Y006682D01*
X019040Y006746D01*
X019019Y006811D01*
X019001Y006878D01*
X018987Y006945D01*
X018977Y007013D01*
X018971Y007081D01*
X018969Y007150D01*
X034925Y007825D02*
X034925Y007975D01*
X034925Y007900D02*
X035300Y007900D01*
X035375Y007825D01*
X035375Y007750D01*
X035300Y007675D01*
X035375Y008135D02*
X034925Y008135D01*
X034925Y008361D01*
X035000Y008436D01*
X035150Y008436D01*
X035225Y008361D01*
X035225Y008135D01*
X035375Y008596D02*
X035375Y008896D01*
X035375Y008746D02*
X034925Y008746D01*
X035075Y008596D01*
D22*
X021050Y013557D03*
X020450Y013557D03*
X019850Y013557D03*
X019250Y013557D03*
X017050Y013557D03*
X016450Y013557D03*
X015850Y013557D03*
X015250Y013557D03*
X013050Y013557D03*
X012450Y013557D03*
X011850Y013557D03*
X011250Y013557D03*
X011250Y015743D03*
X011850Y015743D03*
X012450Y015743D03*
X013050Y015743D03*
X015250Y015743D03*
X015850Y015743D03*
X016450Y015743D03*
X017050Y015743D03*
X019250Y015743D03*
X019850Y015743D03*
X020450Y015743D03*
X021050Y015743D03*
D23*
X020890Y016700D02*
X019290Y016700D01*
X018920Y016700D01*
X017320Y016700D01*
X017320Y017450D01*
X018920Y017450D01*
X018920Y019250D01*
X018770Y019250D01*
X017470Y019250D01*
X017320Y019250D01*
X017320Y017450D01*
X017470Y017700D02*
X017470Y018950D01*
X017620Y018950D01*
X017470Y019400D02*
X017140Y019400D01*
X016800Y019400D01*
X015500Y019400D01*
X014830Y019400D01*
X013530Y019400D01*
X013200Y019400D01*
X012860Y019400D01*
X011560Y019400D01*
X010890Y019400D01*
X009590Y019400D01*
X009240Y019400D01*
X009240Y020400D01*
X009240Y021600D01*
X013200Y021600D01*
X013200Y020400D01*
X009240Y020400D01*
X009440Y020500D02*
X009440Y021500D01*
X011040Y021500D01*
X011040Y020500D01*
X009440Y020500D01*
X009650Y020850D02*
X010850Y021100D01*
X010800Y021150D02*
X009600Y020900D01*
X009677Y020776D02*
X009651Y020793D01*
X009628Y020812D01*
X009608Y020835D01*
X009591Y020859D01*
X009577Y020886D01*
X009566Y020915D01*
X009560Y020944D01*
X009557Y020974D01*
X009558Y021005D01*
X009563Y021034D01*
X009572Y021063D01*
X009585Y021091D01*
X009601Y021116D01*
X009620Y021140D01*
X009660Y020790D02*
X009708Y020754D01*
X009759Y020721D01*
X009811Y020691D01*
X009865Y020665D01*
X009921Y020642D01*
X009978Y020622D01*
X010036Y020606D01*
X010095Y020594D01*
X010155Y020586D01*
X010215Y020581D01*
X010275Y020580D01*
X010335Y020583D01*
X010395Y020590D01*
X010455Y020600D01*
X010513Y020614D01*
X010571Y020632D01*
X010627Y020653D01*
X010682Y020678D01*
X010735Y020706D01*
X010787Y020737D01*
X010836Y020772D01*
X010818Y020758D02*
X010840Y020780D01*
X010859Y020803D01*
X010875Y020829D01*
X010888Y020856D01*
X010898Y020885D01*
X010905Y020914D01*
X010909Y020945D01*
X010909Y020975D01*
X010905Y021005D01*
X010898Y021035D01*
X010888Y021063D01*
X010875Y021091D01*
X010859Y021116D01*
X010840Y021140D01*
X011410Y021500D02*
X011410Y020500D01*
X013010Y020500D01*
X013010Y021500D01*
X011410Y021500D01*
X011590Y021140D02*
X011571Y021116D01*
X011555Y021091D01*
X011542Y021063D01*
X011533Y021034D01*
X011528Y021005D01*
X011527Y020974D01*
X011530Y020944D01*
X011536Y020915D01*
X011547Y020886D01*
X011561Y020859D01*
X011578Y020835D01*
X011598Y020812D01*
X011621Y020793D01*
X011647Y020776D01*
X011620Y020850D02*
X012820Y021100D01*
X012770Y021150D02*
X011570Y020900D01*
X011570Y021120D02*
X011605Y021161D01*
X011644Y021200D01*
X011684Y021236D01*
X011728Y021269D01*
X011773Y021299D01*
X011820Y021327D01*
X011869Y021350D01*
X011920Y021371D01*
X011971Y021388D01*
X012024Y021402D01*
X012077Y021412D01*
X012131Y021418D01*
X012186Y021421D01*
X012240Y021420D01*
X012295Y021415D01*
X012348Y021407D01*
X012402Y021396D01*
X012454Y021380D01*
X012505Y021362D01*
X012555Y021339D01*
X012603Y021314D01*
X012649Y021285D01*
X012693Y021254D01*
X012735Y021219D01*
X012775Y021182D01*
X012812Y021142D01*
X012810Y021140D02*
X012829Y021116D01*
X012845Y021091D01*
X012858Y021063D01*
X012868Y021035D01*
X012875Y021005D01*
X012879Y020975D01*
X012879Y020945D01*
X012875Y020914D01*
X012868Y020885D01*
X012858Y020856D01*
X012845Y020829D01*
X012829Y020803D01*
X012810Y020780D01*
X012788Y020758D01*
X013200Y020400D02*
X017140Y020400D01*
X023060Y020400D01*
X023060Y019800D01*
X023060Y019400D01*
X022710Y019400D01*
X021420Y019400D01*
X021410Y019400D02*
X020750Y019400D01*
X020740Y019400D02*
X019440Y019400D01*
X018770Y019400D01*
X017470Y019400D01*
X017140Y019400D02*
X017140Y020400D01*
X017140Y021600D01*
X023060Y021600D01*
X023060Y020400D01*
X022860Y020500D02*
X021260Y020500D01*
X021260Y021500D01*
X022860Y021500D01*
X022860Y020500D01*
X022638Y020758D02*
X022660Y020780D01*
X022679Y020803D01*
X022695Y020829D01*
X022708Y020856D01*
X022718Y020885D01*
X022725Y020914D01*
X022729Y020945D01*
X022729Y020975D01*
X022725Y021005D01*
X022718Y021035D01*
X022708Y021063D01*
X022695Y021091D01*
X022679Y021116D01*
X022660Y021140D01*
X022670Y021100D02*
X021470Y020850D01*
X021420Y020900D02*
X022620Y021150D01*
X022656Y020772D02*
X022607Y020737D01*
X022555Y020706D01*
X022502Y020678D01*
X022447Y020653D01*
X022391Y020632D01*
X022333Y020614D01*
X022275Y020600D01*
X022215Y020590D01*
X022155Y020583D01*
X022095Y020580D01*
X022035Y020581D01*
X021975Y020586D01*
X021915Y020594D01*
X021856Y020606D01*
X021798Y020622D01*
X021741Y020642D01*
X021685Y020665D01*
X021631Y020691D01*
X021579Y020721D01*
X021528Y020754D01*
X021480Y020790D01*
X021497Y020776D02*
X021471Y020793D01*
X021448Y020812D01*
X021428Y020835D01*
X021411Y020859D01*
X021397Y020886D01*
X021386Y020915D01*
X021380Y020944D01*
X021377Y020974D01*
X021378Y021005D01*
X021383Y021034D01*
X021392Y021063D01*
X021405Y021091D01*
X021421Y021116D01*
X021440Y021140D01*
X020890Y021500D02*
X020890Y020500D01*
X019290Y020500D01*
X019290Y021500D01*
X020890Y021500D01*
X020650Y021150D02*
X019450Y020900D01*
X019500Y020850D02*
X020700Y021100D01*
X020690Y021140D02*
X020709Y021116D01*
X020725Y021091D01*
X020738Y021063D01*
X020748Y021035D01*
X020755Y021005D01*
X020759Y020975D01*
X020759Y020945D01*
X020755Y020914D01*
X020748Y020885D01*
X020738Y020856D01*
X020725Y020829D01*
X020709Y020803D01*
X020690Y020780D01*
X020668Y020758D01*
X020692Y021142D02*
X020655Y021182D01*
X020615Y021219D01*
X020573Y021254D01*
X020529Y021285D01*
X020483Y021314D01*
X020435Y021339D01*
X020385Y021361D01*
X020334Y021380D01*
X020282Y021396D01*
X020228Y021407D01*
X020175Y021415D01*
X020120Y021420D01*
X020066Y021421D01*
X020012Y021418D01*
X019957Y021412D01*
X019904Y021402D01*
X019851Y021388D01*
X019800Y021371D01*
X019749Y021350D01*
X019700Y021327D01*
X019653Y021299D01*
X019608Y021269D01*
X019565Y021236D01*
X019524Y021200D01*
X019485Y021161D01*
X019450Y021120D01*
X019470Y021140D02*
X019451Y021116D01*
X019435Y021091D01*
X019422Y021063D01*
X019413Y021034D01*
X019408Y021005D01*
X019407Y020974D01*
X019410Y020944D01*
X019416Y020915D01*
X019427Y020886D01*
X019441Y020859D01*
X019458Y020835D01*
X019478Y020812D01*
X019501Y020793D01*
X019527Y020776D01*
X018920Y020500D02*
X017320Y020500D01*
X017320Y021500D01*
X018920Y021500D01*
X018920Y020500D01*
X018708Y020758D02*
X018730Y020780D01*
X018749Y020803D01*
X018765Y020829D01*
X018778Y020856D01*
X018788Y020885D01*
X018795Y020914D01*
X018799Y020945D01*
X018799Y020975D01*
X018795Y021005D01*
X018788Y021035D01*
X018778Y021063D01*
X018765Y021091D01*
X018749Y021116D01*
X018730Y021140D01*
X018740Y021100D02*
X017540Y020850D01*
X017490Y020900D02*
X018690Y021150D01*
X018726Y020772D02*
X018677Y020737D01*
X018625Y020706D01*
X018572Y020678D01*
X018517Y020653D01*
X018461Y020632D01*
X018403Y020614D01*
X018345Y020600D01*
X018285Y020590D01*
X018225Y020583D01*
X018165Y020580D01*
X018105Y020581D01*
X018045Y020586D01*
X017985Y020594D01*
X017926Y020606D01*
X017868Y020622D01*
X017811Y020642D01*
X017755Y020665D01*
X017701Y020691D01*
X017649Y020721D01*
X017598Y020754D01*
X017550Y020790D01*
X017567Y020776D02*
X017541Y020793D01*
X017518Y020812D01*
X017498Y020835D01*
X017481Y020859D01*
X017467Y020886D01*
X017456Y020915D01*
X017450Y020944D01*
X017447Y020974D01*
X017448Y021005D01*
X017453Y021034D01*
X017462Y021063D01*
X017475Y021091D01*
X017491Y021116D01*
X017510Y021140D01*
X016950Y021500D02*
X016950Y020500D01*
X015350Y020500D01*
X015350Y021500D01*
X016950Y021500D01*
X017140Y021600D02*
X013200Y021600D01*
X013380Y021500D02*
X014980Y021500D01*
X014980Y020500D01*
X013380Y020500D01*
X013380Y021500D01*
X013560Y021140D02*
X013541Y021116D01*
X013525Y021091D01*
X013512Y021063D01*
X013503Y021034D01*
X013498Y021005D01*
X013497Y020974D01*
X013500Y020944D01*
X013506Y020915D01*
X013517Y020886D01*
X013531Y020859D01*
X013548Y020835D01*
X013568Y020812D01*
X013591Y020793D01*
X013617Y020776D01*
X013590Y020850D02*
X014790Y021100D01*
X014740Y021150D02*
X013540Y020900D01*
X013200Y020400D02*
X013200Y019400D01*
X013200Y016700D01*
X013380Y016700D01*
X013380Y017450D01*
X014980Y017450D01*
X014980Y019250D01*
X014830Y019250D01*
X013530Y019250D01*
X013380Y019250D01*
X013380Y017450D01*
X013530Y017700D02*
X013530Y018950D01*
X013680Y018950D01*
X013010Y019250D02*
X012860Y019250D01*
X011560Y019250D01*
X011410Y019250D01*
X011410Y017450D01*
X013010Y017450D01*
X013010Y016700D01*
X013200Y016700D01*
X013380Y016700D02*
X014980Y016700D01*
X015350Y016700D01*
X016950Y016700D01*
X016950Y017450D01*
X015350Y017450D01*
X015350Y019250D01*
X015500Y019250D01*
X016800Y019250D01*
X016950Y019250D01*
X016950Y017450D01*
X016800Y017700D02*
X015500Y017700D01*
X015500Y018950D01*
X015650Y018950D01*
X014830Y018950D02*
X014680Y018950D01*
X014830Y018950D02*
X014830Y017700D01*
X013530Y017700D01*
X013010Y017450D02*
X013010Y019250D01*
X012860Y018950D02*
X012710Y018950D01*
X012860Y018950D02*
X012860Y017700D01*
X011560Y017700D01*
X011560Y018950D01*
X011710Y018950D01*
X011040Y019250D02*
X010890Y019250D01*
X009590Y019250D01*
X009440Y019250D01*
X009440Y017450D01*
X009440Y016700D01*
X011040Y016700D01*
X011410Y016700D01*
X013010Y016700D01*
X011410Y016700D02*
X011410Y017450D01*
X011040Y017450D02*
X011040Y019250D01*
X010890Y018950D02*
X010740Y018950D01*
X010890Y018950D02*
X010890Y017700D01*
X009590Y017700D01*
X009590Y018950D01*
X009740Y018950D01*
X009240Y019400D02*
X009240Y016700D01*
X009440Y016700D01*
X009440Y017450D02*
X011040Y017450D01*
X011040Y016700D01*
X014980Y016700D02*
X014980Y017450D01*
X015350Y017450D02*
X015350Y016700D01*
X016950Y016700D02*
X017140Y016700D01*
X017140Y019400D01*
X016800Y018950D02*
X016650Y018950D01*
X016800Y018950D02*
X016800Y017700D01*
X017470Y017700D02*
X018770Y017700D01*
X018770Y018950D01*
X018620Y018950D01*
X019290Y019250D02*
X019440Y019250D01*
X020740Y019250D01*
X020890Y019250D01*
X020890Y017450D01*
X020890Y016700D01*
X021260Y016700D01*
X022860Y016700D01*
X022860Y017450D01*
X021260Y017450D01*
X021260Y019250D01*
X021420Y019250D01*
X022710Y019250D01*
X022860Y019250D01*
X022860Y017450D01*
X023060Y017550D02*
X023060Y019400D01*
X023260Y019700D02*
X023060Y019800D01*
X023260Y019700D02*
X023260Y021600D01*
X023060Y021600D01*
X022662Y021142D02*
X022625Y021182D01*
X022585Y021219D01*
X022543Y021254D01*
X022499Y021285D01*
X022453Y021314D01*
X022405Y021339D01*
X022355Y021361D01*
X022304Y021380D01*
X022252Y021396D01*
X022198Y021407D01*
X022145Y021415D01*
X022090Y021420D01*
X022036Y021421D01*
X021982Y021418D01*
X021927Y021412D01*
X021874Y021402D01*
X021821Y021388D01*
X021770Y021371D01*
X021719Y021350D01*
X021670Y021327D01*
X021623Y021299D01*
X021578Y021269D01*
X021535Y021236D01*
X021494Y021200D01*
X021455Y021161D01*
X021420Y021120D01*
X020686Y020772D02*
X020637Y020737D01*
X020585Y020706D01*
X020532Y020678D01*
X020477Y020653D01*
X020421Y020632D01*
X020363Y020614D01*
X020305Y020600D01*
X020245Y020590D01*
X020185Y020583D01*
X020125Y020580D01*
X020065Y020581D01*
X020005Y020586D01*
X019945Y020594D01*
X019886Y020606D01*
X019828Y020622D01*
X019771Y020642D01*
X019715Y020665D01*
X019661Y020691D01*
X019609Y020721D01*
X019558Y020754D01*
X019510Y020790D01*
X018732Y021142D02*
X018695Y021182D01*
X018655Y021219D01*
X018613Y021254D01*
X018569Y021285D01*
X018523Y021314D01*
X018475Y021339D01*
X018425Y021361D01*
X018374Y021380D01*
X018322Y021396D01*
X018268Y021407D01*
X018215Y021415D01*
X018160Y021420D01*
X018106Y021421D01*
X018052Y021418D01*
X017997Y021412D01*
X017944Y021402D01*
X017891Y021388D01*
X017840Y021371D01*
X017789Y021350D01*
X017740Y021327D01*
X017693Y021299D01*
X017648Y021269D01*
X017605Y021236D01*
X017564Y021200D01*
X017525Y021161D01*
X017490Y021120D01*
X016760Y021100D02*
X015560Y020850D01*
X015510Y020900D02*
X016710Y021150D01*
X016750Y021140D02*
X016769Y021116D01*
X016785Y021091D01*
X016798Y021063D01*
X016808Y021035D01*
X016815Y021005D01*
X016819Y020975D01*
X016819Y020945D01*
X016815Y020914D01*
X016808Y020885D01*
X016798Y020856D01*
X016785Y020829D01*
X016769Y020803D01*
X016750Y020780D01*
X016728Y020758D01*
X016752Y021142D02*
X016715Y021182D01*
X016675Y021219D01*
X016633Y021254D01*
X016589Y021285D01*
X016543Y021314D01*
X016495Y021339D01*
X016445Y021362D01*
X016394Y021380D01*
X016342Y021396D01*
X016288Y021407D01*
X016235Y021415D01*
X016180Y021420D01*
X016126Y021421D01*
X016071Y021418D01*
X016017Y021412D01*
X015964Y021402D01*
X015911Y021388D01*
X015860Y021371D01*
X015809Y021350D01*
X015760Y021327D01*
X015713Y021299D01*
X015668Y021269D01*
X015624Y021236D01*
X015584Y021200D01*
X015545Y021161D01*
X015510Y021120D01*
X015530Y021140D02*
X015511Y021116D01*
X015495Y021091D01*
X015482Y021063D01*
X015473Y021034D01*
X015468Y021005D01*
X015467Y020974D01*
X015470Y020944D01*
X015476Y020915D01*
X015487Y020886D01*
X015501Y020859D01*
X015518Y020835D01*
X015538Y020812D01*
X015561Y020793D01*
X015587Y020776D01*
X014758Y020758D02*
X014780Y020780D01*
X014799Y020803D01*
X014815Y020829D01*
X014828Y020856D01*
X014838Y020885D01*
X014845Y020914D01*
X014849Y020945D01*
X014849Y020975D01*
X014845Y021005D01*
X014838Y021035D01*
X014828Y021063D01*
X014815Y021091D01*
X014799Y021116D01*
X014780Y021140D01*
X014776Y020772D02*
X014727Y020737D01*
X014675Y020706D01*
X014622Y020678D01*
X014567Y020653D01*
X014511Y020632D01*
X014453Y020614D01*
X014395Y020600D01*
X014335Y020590D01*
X014275Y020583D01*
X014215Y020580D01*
X014155Y020581D01*
X014095Y020586D01*
X014035Y020594D01*
X013976Y020606D01*
X013918Y020622D01*
X013861Y020642D01*
X013805Y020665D01*
X013751Y020691D01*
X013699Y020721D01*
X013648Y020754D01*
X013600Y020790D01*
X013540Y021120D02*
X013575Y021161D01*
X013614Y021200D01*
X013654Y021236D01*
X013698Y021269D01*
X013743Y021299D01*
X013790Y021327D01*
X013839Y021350D01*
X013890Y021371D01*
X013941Y021388D01*
X013994Y021402D01*
X014047Y021412D01*
X014101Y021418D01*
X014156Y021421D01*
X014210Y021420D01*
X014265Y021415D01*
X014318Y021407D01*
X014372Y021396D01*
X014424Y021380D01*
X014475Y021362D01*
X014525Y021339D01*
X014573Y021314D01*
X014619Y021285D01*
X014663Y021254D01*
X014705Y021219D01*
X014745Y021182D01*
X014782Y021142D01*
X015570Y020790D02*
X015618Y020754D01*
X015669Y020721D01*
X015721Y020691D01*
X015775Y020665D01*
X015831Y020642D01*
X015888Y020622D01*
X015946Y020606D01*
X016005Y020594D01*
X016065Y020586D01*
X016125Y020581D01*
X016185Y020580D01*
X016245Y020583D01*
X016305Y020590D01*
X016365Y020600D01*
X016423Y020614D01*
X016481Y020632D01*
X016537Y020653D01*
X016592Y020678D01*
X016645Y020706D01*
X016697Y020737D01*
X016746Y020772D01*
X019290Y019250D02*
X019290Y017450D01*
X020890Y017450D01*
X020740Y017700D02*
X019440Y017700D01*
X019440Y018950D01*
X019590Y018950D01*
X020590Y018950D02*
X020740Y018950D01*
X020740Y017700D01*
X021260Y017450D02*
X021260Y016700D01*
X022860Y016700D02*
X023060Y016700D01*
X023060Y017100D01*
X023060Y017550D01*
X023260Y017650D01*
X023260Y017000D01*
X023060Y017100D01*
X022710Y017700D02*
X022710Y018950D01*
X022560Y018950D01*
X021550Y018950D02*
X021410Y018950D01*
X021410Y017700D01*
X022710Y017700D01*
X023870Y017900D02*
X024430Y017900D01*
X024430Y018400D02*
X023870Y018400D01*
X023870Y018900D02*
X024430Y018900D01*
X024430Y019400D02*
X023870Y019400D01*
X025870Y019400D02*
X026430Y019400D01*
X026430Y018900D02*
X025870Y018900D01*
X025870Y018400D02*
X026430Y018400D01*
X026430Y017900D02*
X025870Y017900D01*
X025870Y015400D02*
X026430Y015400D01*
X026430Y014900D02*
X025870Y014900D01*
X025870Y014400D02*
X026430Y014400D01*
X026430Y013900D02*
X025870Y013900D01*
X025870Y013400D02*
X026430Y013400D01*
X026430Y012900D02*
X025870Y012900D01*
X024430Y012900D02*
X023870Y012900D01*
X023870Y013400D02*
X024430Y013400D01*
X024430Y013900D02*
X023870Y013900D01*
X023870Y014400D02*
X024430Y014400D01*
X024430Y014900D02*
X023870Y014900D01*
X023870Y015400D02*
X024430Y015400D01*
X019290Y016700D02*
X019290Y017450D01*
X018920Y017450D02*
X018920Y016700D01*
X017320Y016700D02*
X017140Y016700D01*
X010842Y021142D02*
X010805Y021182D01*
X010765Y021219D01*
X010723Y021254D01*
X010679Y021285D01*
X010633Y021314D01*
X010585Y021339D01*
X010535Y021362D01*
X010484Y021380D01*
X010432Y021396D01*
X010378Y021407D01*
X010325Y021415D01*
X010270Y021420D01*
X010216Y021421D01*
X010161Y021418D01*
X010107Y021412D01*
X010054Y021402D01*
X010001Y021388D01*
X009950Y021371D01*
X009899Y021350D01*
X009850Y021327D01*
X009803Y021299D01*
X009758Y021269D01*
X009714Y021236D01*
X009674Y021200D01*
X009635Y021161D01*
X009600Y021120D01*
X011630Y020790D02*
X011678Y020754D01*
X011729Y020721D01*
X011781Y020691D01*
X011835Y020665D01*
X011891Y020642D01*
X011948Y020622D01*
X012006Y020606D01*
X012065Y020594D01*
X012125Y020586D01*
X012185Y020581D01*
X012245Y020580D01*
X012305Y020583D01*
X012365Y020590D01*
X012425Y020600D01*
X012483Y020614D01*
X012541Y020632D01*
X012597Y020653D01*
X012652Y020678D01*
X012705Y020706D01*
X012757Y020737D01*
X012806Y020772D01*
X001300Y019150D02*
X001302Y019223D01*
X001308Y019296D01*
X001318Y019368D01*
X001332Y019440D01*
X001349Y019511D01*
X001371Y019581D01*
X001396Y019650D01*
X001425Y019717D01*
X001457Y019782D01*
X001493Y019846D01*
X001533Y019908D01*
X001575Y019967D01*
X001621Y020024D01*
X001670Y020078D01*
X001722Y020130D01*
X001776Y020179D01*
X001833Y020225D01*
X001892Y020267D01*
X001954Y020307D01*
X002018Y020343D01*
X002083Y020375D01*
X002150Y020404D01*
X002219Y020429D01*
X002289Y020451D01*
X002360Y020468D01*
X002432Y020482D01*
X002504Y020492D01*
X002577Y020498D01*
X002650Y020500D01*
X002723Y020498D01*
X002796Y020492D01*
X002868Y020482D01*
X002940Y020468D01*
X003011Y020451D01*
X003081Y020429D01*
X003150Y020404D01*
X003217Y020375D01*
X003282Y020343D01*
X003346Y020307D01*
X003408Y020267D01*
X003467Y020225D01*
X003524Y020179D01*
X003578Y020130D01*
X003630Y020078D01*
X003679Y020024D01*
X003725Y019967D01*
X003767Y019908D01*
X003807Y019846D01*
X003843Y019782D01*
X003875Y019717D01*
X003904Y019650D01*
X003929Y019581D01*
X003951Y019511D01*
X003968Y019440D01*
X003982Y019368D01*
X003992Y019296D01*
X003998Y019223D01*
X004000Y019150D01*
X003998Y019077D01*
X003992Y019004D01*
X003982Y018932D01*
X003968Y018860D01*
X003951Y018789D01*
X003929Y018719D01*
X003904Y018650D01*
X003875Y018583D01*
X003843Y018518D01*
X003807Y018454D01*
X003767Y018392D01*
X003725Y018333D01*
X003679Y018276D01*
X003630Y018222D01*
X003578Y018170D01*
X003524Y018121D01*
X003467Y018075D01*
X003408Y018033D01*
X003346Y017993D01*
X003282Y017957D01*
X003217Y017925D01*
X003150Y017896D01*
X003081Y017871D01*
X003011Y017849D01*
X002940Y017832D01*
X002868Y017818D01*
X002796Y017808D01*
X002723Y017802D01*
X002650Y017800D01*
X002577Y017802D01*
X002504Y017808D01*
X002432Y017818D01*
X002360Y017832D01*
X002289Y017849D01*
X002219Y017871D01*
X002150Y017896D01*
X002083Y017925D01*
X002018Y017957D01*
X001954Y017993D01*
X001892Y018033D01*
X001833Y018075D01*
X001776Y018121D01*
X001722Y018170D01*
X001670Y018222D01*
X001621Y018276D01*
X001575Y018333D01*
X001533Y018392D01*
X001493Y018454D01*
X001457Y018518D01*
X001425Y018583D01*
X001396Y018650D01*
X001371Y018719D01*
X001349Y018789D01*
X001332Y018860D01*
X001318Y018932D01*
X001308Y019004D01*
X001302Y019077D01*
X001300Y019150D01*
X023870Y011400D02*
X024430Y011400D01*
X024430Y010900D02*
X023870Y010900D01*
X025870Y010900D02*
X026430Y010900D01*
X026430Y011400D02*
X025870Y011400D01*
X025870Y009400D02*
X026430Y009400D01*
X026430Y008900D02*
X025870Y008900D01*
X025870Y008400D02*
X026430Y008400D01*
X026430Y007900D02*
X025870Y007900D01*
X031370Y007900D02*
X031930Y007900D01*
X031930Y008400D02*
X031370Y008400D01*
X035650Y008400D02*
X035650Y007900D01*
X035900Y007650D01*
X037400Y007650D01*
X037650Y007900D01*
X037650Y008400D01*
X037400Y008650D01*
X035900Y008650D01*
X035650Y008900D01*
X035650Y009400D01*
X035900Y009650D01*
X035650Y009900D01*
X035650Y010400D01*
X035900Y010650D01*
X037400Y010650D01*
X037650Y010400D01*
X037650Y009900D01*
X037400Y009650D01*
X035900Y009650D01*
X037400Y009650D02*
X037650Y009400D01*
X037650Y008900D01*
X037400Y008650D01*
X035900Y008650D02*
X035650Y008400D01*
X035300Y002650D02*
X035302Y002723D01*
X035308Y002796D01*
X035318Y002868D01*
X035332Y002940D01*
X035349Y003011D01*
X035371Y003081D01*
X035396Y003150D01*
X035425Y003217D01*
X035457Y003282D01*
X035493Y003346D01*
X035533Y003408D01*
X035575Y003467D01*
X035621Y003524D01*
X035670Y003578D01*
X035722Y003630D01*
X035776Y003679D01*
X035833Y003725D01*
X035892Y003767D01*
X035954Y003807D01*
X036018Y003843D01*
X036083Y003875D01*
X036150Y003904D01*
X036219Y003929D01*
X036289Y003951D01*
X036360Y003968D01*
X036432Y003982D01*
X036504Y003992D01*
X036577Y003998D01*
X036650Y004000D01*
X036723Y003998D01*
X036796Y003992D01*
X036868Y003982D01*
X036940Y003968D01*
X037011Y003951D01*
X037081Y003929D01*
X037150Y003904D01*
X037217Y003875D01*
X037282Y003843D01*
X037346Y003807D01*
X037408Y003767D01*
X037467Y003725D01*
X037524Y003679D01*
X037578Y003630D01*
X037630Y003578D01*
X037679Y003524D01*
X037725Y003467D01*
X037767Y003408D01*
X037807Y003346D01*
X037843Y003282D01*
X037875Y003217D01*
X037904Y003150D01*
X037929Y003081D01*
X037951Y003011D01*
X037968Y002940D01*
X037982Y002868D01*
X037992Y002796D01*
X037998Y002723D01*
X038000Y002650D01*
X037998Y002577D01*
X037992Y002504D01*
X037982Y002432D01*
X037968Y002360D01*
X037951Y002289D01*
X037929Y002219D01*
X037904Y002150D01*
X037875Y002083D01*
X037843Y002018D01*
X037807Y001954D01*
X037767Y001892D01*
X037725Y001833D01*
X037679Y001776D01*
X037630Y001722D01*
X037578Y001670D01*
X037524Y001621D01*
X037467Y001575D01*
X037408Y001533D01*
X037346Y001493D01*
X037282Y001457D01*
X037217Y001425D01*
X037150Y001396D01*
X037081Y001371D01*
X037011Y001349D01*
X036940Y001332D01*
X036868Y001318D01*
X036796Y001308D01*
X036723Y001302D01*
X036650Y001300D01*
X036577Y001302D01*
X036504Y001308D01*
X036432Y001318D01*
X036360Y001332D01*
X036289Y001349D01*
X036219Y001371D01*
X036150Y001396D01*
X036083Y001425D01*
X036018Y001457D01*
X035954Y001493D01*
X035892Y001533D01*
X035833Y001575D01*
X035776Y001621D01*
X035722Y001670D01*
X035670Y001722D01*
X035621Y001776D01*
X035575Y001833D01*
X035533Y001892D01*
X035493Y001954D01*
X035457Y002018D01*
X035425Y002083D01*
X035396Y002150D01*
X035371Y002219D01*
X035349Y002289D01*
X035332Y002360D01*
X035318Y002432D01*
X035308Y002504D01*
X035302Y002577D01*
X035300Y002650D01*
X016400Y004370D02*
X016400Y004930D01*
X015900Y004930D02*
X015900Y004370D01*
X014900Y004370D02*
X014900Y004930D01*
X014400Y004930D02*
X014400Y004370D01*
X001300Y002650D02*
X001302Y002723D01*
X001308Y002796D01*
X001318Y002868D01*
X001332Y002940D01*
X001349Y003011D01*
X001371Y003081D01*
X001396Y003150D01*
X001425Y003217D01*
X001457Y003282D01*
X001493Y003346D01*
X001533Y003408D01*
X001575Y003467D01*
X001621Y003524D01*
X001670Y003578D01*
X001722Y003630D01*
X001776Y003679D01*
X001833Y003725D01*
X001892Y003767D01*
X001954Y003807D01*
X002018Y003843D01*
X002083Y003875D01*
X002150Y003904D01*
X002219Y003929D01*
X002289Y003951D01*
X002360Y003968D01*
X002432Y003982D01*
X002504Y003992D01*
X002577Y003998D01*
X002650Y004000D01*
X002723Y003998D01*
X002796Y003992D01*
X002868Y003982D01*
X002940Y003968D01*
X003011Y003951D01*
X003081Y003929D01*
X003150Y003904D01*
X003217Y003875D01*
X003282Y003843D01*
X003346Y003807D01*
X003408Y003767D01*
X003467Y003725D01*
X003524Y003679D01*
X003578Y003630D01*
X003630Y003578D01*
X003679Y003524D01*
X003725Y003467D01*
X003767Y003408D01*
X003807Y003346D01*
X003843Y003282D01*
X003875Y003217D01*
X003904Y003150D01*
X003929Y003081D01*
X003951Y003011D01*
X003968Y002940D01*
X003982Y002868D01*
X003992Y002796D01*
X003998Y002723D01*
X004000Y002650D01*
X003998Y002577D01*
X003992Y002504D01*
X003982Y002432D01*
X003968Y002360D01*
X003951Y002289D01*
X003929Y002219D01*
X003904Y002150D01*
X003875Y002083D01*
X003843Y002018D01*
X003807Y001954D01*
X003767Y001892D01*
X003725Y001833D01*
X003679Y001776D01*
X003630Y001722D01*
X003578Y001670D01*
X003524Y001621D01*
X003467Y001575D01*
X003408Y001533D01*
X003346Y001493D01*
X003282Y001457D01*
X003217Y001425D01*
X003150Y001396D01*
X003081Y001371D01*
X003011Y001349D01*
X002940Y001332D01*
X002868Y001318D01*
X002796Y001308D01*
X002723Y001302D01*
X002650Y001300D01*
X002577Y001302D01*
X002504Y001308D01*
X002432Y001318D01*
X002360Y001332D01*
X002289Y001349D01*
X002219Y001371D01*
X002150Y001396D01*
X002083Y001425D01*
X002018Y001457D01*
X001954Y001493D01*
X001892Y001533D01*
X001833Y001575D01*
X001776Y001621D01*
X001722Y001670D01*
X001670Y001722D01*
X001621Y001776D01*
X001575Y001833D01*
X001533Y001892D01*
X001493Y001954D01*
X001457Y002018D01*
X001425Y002083D01*
X001396Y002150D01*
X001371Y002219D01*
X001349Y002289D01*
X001332Y002360D01*
X001318Y002432D01*
X001308Y002504D01*
X001302Y002577D01*
X001300Y002650D01*
X035300Y019150D02*
X035302Y019223D01*
X035308Y019296D01*
X035318Y019368D01*
X035332Y019440D01*
X035349Y019511D01*
X035371Y019581D01*
X035396Y019650D01*
X035425Y019717D01*
X035457Y019782D01*
X035493Y019846D01*
X035533Y019908D01*
X035575Y019967D01*
X035621Y020024D01*
X035670Y020078D01*
X035722Y020130D01*
X035776Y020179D01*
X035833Y020225D01*
X035892Y020267D01*
X035954Y020307D01*
X036018Y020343D01*
X036083Y020375D01*
X036150Y020404D01*
X036219Y020429D01*
X036289Y020451D01*
X036360Y020468D01*
X036432Y020482D01*
X036504Y020492D01*
X036577Y020498D01*
X036650Y020500D01*
X036723Y020498D01*
X036796Y020492D01*
X036868Y020482D01*
X036940Y020468D01*
X037011Y020451D01*
X037081Y020429D01*
X037150Y020404D01*
X037217Y020375D01*
X037282Y020343D01*
X037346Y020307D01*
X037408Y020267D01*
X037467Y020225D01*
X037524Y020179D01*
X037578Y020130D01*
X037630Y020078D01*
X037679Y020024D01*
X037725Y019967D01*
X037767Y019908D01*
X037807Y019846D01*
X037843Y019782D01*
X037875Y019717D01*
X037904Y019650D01*
X037929Y019581D01*
X037951Y019511D01*
X037968Y019440D01*
X037982Y019368D01*
X037992Y019296D01*
X037998Y019223D01*
X038000Y019150D01*
X037998Y019077D01*
X037992Y019004D01*
X037982Y018932D01*
X037968Y018860D01*
X037951Y018789D01*
X037929Y018719D01*
X037904Y018650D01*
X037875Y018583D01*
X037843Y018518D01*
X037807Y018454D01*
X037767Y018392D01*
X037725Y018333D01*
X037679Y018276D01*
X037630Y018222D01*
X037578Y018170D01*
X037524Y018121D01*
X037467Y018075D01*
X037408Y018033D01*
X037346Y017993D01*
X037282Y017957D01*
X037217Y017925D01*
X037150Y017896D01*
X037081Y017871D01*
X037011Y017849D01*
X036940Y017832D01*
X036868Y017818D01*
X036796Y017808D01*
X036723Y017802D01*
X036650Y017800D01*
X036577Y017802D01*
X036504Y017808D01*
X036432Y017818D01*
X036360Y017832D01*
X036289Y017849D01*
X036219Y017871D01*
X036150Y017896D01*
X036083Y017925D01*
X036018Y017957D01*
X035954Y017993D01*
X035892Y018033D01*
X035833Y018075D01*
X035776Y018121D01*
X035722Y018170D01*
X035670Y018222D01*
X035621Y018276D01*
X035575Y018333D01*
X035533Y018392D01*
X035493Y018454D01*
X035457Y018518D01*
X035425Y018583D01*
X035396Y018650D01*
X035371Y018719D01*
X035349Y018789D01*
X035332Y018860D01*
X035318Y018932D01*
X035308Y019004D01*
X035302Y019077D01*
X035300Y019150D01*
D24*
X026490Y019150D03*
X025810Y019150D03*
X024490Y019150D03*
X023810Y019150D03*
X023810Y018150D03*
X024490Y018150D03*
X025810Y018150D03*
X026490Y018150D03*
X026490Y015150D03*
X025810Y015150D03*
X024490Y015150D03*
X023810Y015150D03*
X023810Y014150D03*
X024490Y014150D03*
X025810Y014150D03*
X026490Y014150D03*
X026490Y013150D03*
X025810Y013150D03*
X024490Y013150D03*
X023810Y013150D03*
X023810Y011150D03*
X024490Y011150D03*
X025810Y011150D03*
X026490Y011150D03*
X026490Y009150D03*
X025810Y009150D03*
X025810Y008150D03*
X026490Y008150D03*
X031310Y008150D03*
X031990Y008150D03*
D25*
X016150Y004990D03*
X016150Y004310D03*
X014650Y004310D03*
X014650Y004990D03*
D26*
X029368Y008150D03*
X029938Y008150D03*
X029938Y009150D03*
X029368Y009150D03*
D27*
X037940Y002698D02*
X037056Y002698D01*
X037056Y002699D02*
X037050Y002737D01*
X037040Y002775D01*
X037026Y002811D01*
X037009Y002846D01*
X036989Y002879D01*
X036965Y002910D01*
X036939Y002939D01*
X036910Y002965D01*
X036879Y002989D01*
X036846Y003009D01*
X036811Y003026D01*
X036775Y003040D01*
X036737Y003050D01*
X036699Y003056D01*
X036698Y003940D01*
X036699Y003940D01*
X036770Y003935D01*
X036841Y003927D01*
X036912Y003914D01*
X036981Y003898D01*
X037050Y003878D01*
X037117Y003854D01*
X037183Y003826D01*
X037247Y003795D01*
X037310Y003760D01*
X037370Y003722D01*
X037428Y003680D01*
X037484Y003635D01*
X037537Y003588D01*
X037588Y003537D01*
X037635Y003484D01*
X037680Y003428D01*
X037722Y003370D01*
X037760Y003310D01*
X037795Y003247D01*
X037826Y003183D01*
X037854Y003117D01*
X037878Y003050D01*
X037898Y002981D01*
X037914Y002912D01*
X037927Y002841D01*
X037935Y002770D01*
X037940Y002699D01*
X037848Y002699D01*
X037843Y002767D01*
X037835Y002836D01*
X037822Y002903D01*
X037806Y002970D01*
X037785Y003035D01*
X037761Y003100D01*
X037734Y003163D01*
X037703Y003224D01*
X037668Y003283D01*
X037630Y003340D01*
X037589Y003395D01*
X037545Y003448D01*
X037498Y003498D01*
X037448Y003545D01*
X037395Y003589D01*
X037340Y003630D01*
X037283Y003668D01*
X037224Y003703D01*
X037163Y003734D01*
X037100Y003761D01*
X037035Y003785D01*
X036970Y003806D01*
X036903Y003822D01*
X036836Y003835D01*
X036767Y003843D01*
X036699Y003848D01*
X036699Y003756D01*
X036764Y003751D01*
X036829Y003742D01*
X036894Y003730D01*
X036957Y003713D01*
X037020Y003693D01*
X037081Y003670D01*
X037141Y003642D01*
X037199Y003611D01*
X037255Y003577D01*
X037309Y003540D01*
X037360Y003499D01*
X037409Y003456D01*
X037456Y003409D01*
X037499Y003360D01*
X037540Y003309D01*
X037577Y003255D01*
X037611Y003199D01*
X037642Y003141D01*
X037670Y003081D01*
X037693Y003020D01*
X037713Y002957D01*
X037730Y002894D01*
X037742Y002829D01*
X037751Y002764D01*
X037756Y002699D01*
X037664Y002699D01*
X037659Y002761D01*
X037650Y002823D01*
X037638Y002884D01*
X037621Y002944D01*
X037602Y003003D01*
X037578Y003061D01*
X037551Y003117D01*
X037521Y003172D01*
X037487Y003224D01*
X037450Y003274D01*
X037410Y003322D01*
X037368Y003368D01*
X037322Y003410D01*
X037274Y003450D01*
X037224Y003487D01*
X037172Y003521D01*
X037117Y003551D01*
X037061Y003578D01*
X037003Y003602D01*
X036944Y003621D01*
X036884Y003638D01*
X036823Y003650D01*
X036761Y003659D01*
X036699Y003664D01*
X036699Y003572D01*
X036758Y003567D01*
X036816Y003558D01*
X036873Y003546D01*
X036930Y003530D01*
X036985Y003510D01*
X037039Y003487D01*
X037092Y003461D01*
X037142Y003431D01*
X037191Y003398D01*
X037237Y003362D01*
X037282Y003323D01*
X037323Y003282D01*
X037362Y003237D01*
X037398Y003191D01*
X037431Y003142D01*
X037461Y003092D01*
X037487Y003039D01*
X037510Y002985D01*
X037530Y002930D01*
X037546Y002873D01*
X037558Y002816D01*
X037567Y002758D01*
X037572Y002699D01*
X037480Y002699D01*
X037475Y002754D01*
X037466Y002808D01*
X037454Y002861D01*
X037438Y002914D01*
X037419Y002965D01*
X037396Y003015D01*
X037371Y003064D01*
X037342Y003110D01*
X037310Y003155D01*
X037275Y003198D01*
X037238Y003238D01*
X037198Y003275D01*
X037155Y003310D01*
X037110Y003342D01*
X037064Y003371D01*
X037015Y003396D01*
X036965Y003419D01*
X036914Y003438D01*
X036861Y003454D01*
X036808Y003466D01*
X036754Y003475D01*
X036699Y003480D01*
X036699Y003387D01*
X036752Y003382D01*
X036804Y003373D01*
X036856Y003360D01*
X036906Y003343D01*
X036955Y003323D01*
X037003Y003299D01*
X037049Y003272D01*
X037092Y003242D01*
X037134Y003209D01*
X037173Y003173D01*
X037209Y003134D01*
X037242Y003092D01*
X037272Y003049D01*
X037299Y003003D01*
X037323Y002955D01*
X037343Y002906D01*
X037360Y002856D01*
X037373Y002804D01*
X037382Y002752D01*
X037387Y002699D01*
X037295Y002699D01*
X037290Y002747D01*
X037281Y002794D01*
X037268Y002841D01*
X037252Y002887D01*
X037233Y002931D01*
X037210Y002974D01*
X037184Y003015D01*
X037156Y003053D01*
X037124Y003090D01*
X037090Y003124D01*
X037053Y003156D01*
X037015Y003184D01*
X036974Y003210D01*
X036931Y003233D01*
X036887Y003252D01*
X036841Y003268D01*
X036794Y003281D01*
X036747Y003290D01*
X036699Y003295D01*
X036699Y003203D01*
X036744Y003197D01*
X036789Y003187D01*
X036832Y003174D01*
X036874Y003158D01*
X036915Y003137D01*
X036954Y003114D01*
X036991Y003088D01*
X037026Y003058D01*
X037058Y003026D01*
X037088Y002991D01*
X037114Y002954D01*
X037137Y002915D01*
X037158Y002874D01*
X037174Y002832D01*
X037187Y002789D01*
X037197Y002744D01*
X037203Y002699D01*
X037110Y002699D01*
X037104Y002740D01*
X037094Y002781D01*
X037080Y002821D01*
X037063Y002859D01*
X037043Y002895D01*
X037019Y002930D01*
X036992Y002962D01*
X036962Y002992D01*
X036930Y003019D01*
X036895Y003043D01*
X036859Y003063D01*
X036821Y003080D01*
X036781Y003094D01*
X036740Y003104D01*
X036699Y003110D01*
X035360Y002602D02*
X036244Y002602D01*
X036244Y002601D02*
X036250Y002563D01*
X036260Y002525D01*
X036274Y002489D01*
X036291Y002454D01*
X036311Y002421D01*
X036335Y002390D01*
X036361Y002361D01*
X036390Y002335D01*
X036421Y002311D01*
X036454Y002291D01*
X036489Y002274D01*
X036525Y002260D01*
X036563Y002250D01*
X036601Y002244D01*
X036602Y001360D01*
X036601Y001360D01*
X036530Y001365D01*
X036459Y001373D01*
X036388Y001386D01*
X036319Y001402D01*
X036250Y001422D01*
X036183Y001446D01*
X036117Y001474D01*
X036053Y001505D01*
X035990Y001540D01*
X035930Y001578D01*
X035872Y001620D01*
X035816Y001665D01*
X035763Y001712D01*
X035712Y001763D01*
X035665Y001816D01*
X035620Y001872D01*
X035578Y001930D01*
X035540Y001990D01*
X035505Y002053D01*
X035474Y002117D01*
X035446Y002183D01*
X035422Y002250D01*
X035402Y002319D01*
X035386Y002388D01*
X035373Y002459D01*
X035365Y002530D01*
X035360Y002601D01*
X035452Y002601D01*
X035457Y002533D01*
X035465Y002464D01*
X035478Y002397D01*
X035494Y002330D01*
X035515Y002265D01*
X035539Y002200D01*
X035566Y002137D01*
X035597Y002076D01*
X035632Y002017D01*
X035670Y001960D01*
X035711Y001905D01*
X035755Y001852D01*
X035802Y001802D01*
X035852Y001755D01*
X035905Y001711D01*
X035960Y001670D01*
X036017Y001632D01*
X036076Y001597D01*
X036137Y001566D01*
X036200Y001539D01*
X036265Y001515D01*
X036330Y001494D01*
X036397Y001478D01*
X036464Y001465D01*
X036533Y001457D01*
X036601Y001452D01*
X036601Y001544D01*
X036536Y001549D01*
X036471Y001558D01*
X036406Y001570D01*
X036343Y001587D01*
X036280Y001607D01*
X036219Y001630D01*
X036159Y001658D01*
X036101Y001689D01*
X036045Y001723D01*
X035991Y001760D01*
X035940Y001801D01*
X035891Y001844D01*
X035844Y001891D01*
X035801Y001940D01*
X035760Y001991D01*
X035723Y002045D01*
X035689Y002101D01*
X035658Y002159D01*
X035630Y002219D01*
X035607Y002280D01*
X035587Y002343D01*
X035570Y002406D01*
X035558Y002471D01*
X035549Y002536D01*
X035544Y002601D01*
X035636Y002601D01*
X035641Y002539D01*
X035650Y002477D01*
X035662Y002416D01*
X035679Y002356D01*
X035698Y002297D01*
X035722Y002239D01*
X035749Y002183D01*
X035779Y002128D01*
X035813Y002076D01*
X035850Y002026D01*
X035890Y001978D01*
X035932Y001932D01*
X035978Y001890D01*
X036026Y001850D01*
X036076Y001813D01*
X036128Y001779D01*
X036183Y001749D01*
X036239Y001722D01*
X036297Y001698D01*
X036356Y001679D01*
X036416Y001662D01*
X036477Y001650D01*
X036539Y001641D01*
X036601Y001636D01*
X036601Y001728D01*
X036542Y001733D01*
X036484Y001742D01*
X036427Y001754D01*
X036370Y001770D01*
X036315Y001790D01*
X036261Y001813D01*
X036208Y001839D01*
X036158Y001869D01*
X036109Y001902D01*
X036063Y001938D01*
X036018Y001977D01*
X035977Y002018D01*
X035938Y002063D01*
X035902Y002109D01*
X035869Y002158D01*
X035839Y002208D01*
X035813Y002261D01*
X035790Y002315D01*
X035770Y002370D01*
X035754Y002427D01*
X035742Y002484D01*
X035733Y002542D01*
X035728Y002601D01*
X035820Y002601D01*
X035825Y002546D01*
X035834Y002492D01*
X035846Y002439D01*
X035862Y002386D01*
X035881Y002335D01*
X035904Y002285D01*
X035929Y002236D01*
X035958Y002190D01*
X035990Y002145D01*
X036025Y002102D01*
X036062Y002062D01*
X036102Y002025D01*
X036145Y001990D01*
X036190Y001958D01*
X036236Y001929D01*
X036285Y001904D01*
X036335Y001881D01*
X036386Y001862D01*
X036439Y001846D01*
X036492Y001834D01*
X036546Y001825D01*
X036601Y001820D01*
X036601Y001913D01*
X036548Y001918D01*
X036496Y001927D01*
X036444Y001940D01*
X036394Y001957D01*
X036345Y001977D01*
X036297Y002001D01*
X036251Y002028D01*
X036208Y002058D01*
X036166Y002091D01*
X036127Y002127D01*
X036091Y002166D01*
X036058Y002208D01*
X036028Y002251D01*
X036001Y002297D01*
X035977Y002345D01*
X035957Y002394D01*
X035940Y002444D01*
X035927Y002496D01*
X035918Y002548D01*
X035913Y002601D01*
X036005Y002601D01*
X036010Y002553D01*
X036019Y002506D01*
X036032Y002459D01*
X036048Y002413D01*
X036067Y002369D01*
X036090Y002326D01*
X036116Y002285D01*
X036144Y002247D01*
X036176Y002210D01*
X036210Y002176D01*
X036247Y002144D01*
X036285Y002116D01*
X036326Y002090D01*
X036369Y002067D01*
X036413Y002048D01*
X036459Y002032D01*
X036506Y002019D01*
X036553Y002010D01*
X036601Y002005D01*
X036601Y002097D01*
X036556Y002103D01*
X036511Y002113D01*
X036468Y002126D01*
X036426Y002142D01*
X036385Y002163D01*
X036346Y002186D01*
X036309Y002212D01*
X036274Y002242D01*
X036242Y002274D01*
X036212Y002309D01*
X036186Y002346D01*
X036163Y002385D01*
X036142Y002426D01*
X036126Y002468D01*
X036113Y002511D01*
X036103Y002556D01*
X036097Y002601D01*
X036190Y002601D01*
X036196Y002560D01*
X036206Y002519D01*
X036220Y002479D01*
X036237Y002441D01*
X036257Y002405D01*
X036281Y002370D01*
X036308Y002338D01*
X036338Y002308D01*
X036370Y002281D01*
X036405Y002257D01*
X036441Y002237D01*
X036479Y002220D01*
X036519Y002206D01*
X036560Y002196D01*
X036601Y002190D01*
X037940Y019198D02*
X037056Y019198D01*
X037056Y019199D02*
X037050Y019237D01*
X037040Y019275D01*
X037026Y019311D01*
X037009Y019346D01*
X036989Y019379D01*
X036965Y019410D01*
X036939Y019439D01*
X036910Y019465D01*
X036879Y019489D01*
X036846Y019509D01*
X036811Y019526D01*
X036775Y019540D01*
X036737Y019550D01*
X036699Y019556D01*
X036698Y020440D01*
X036699Y020440D01*
X036770Y020435D01*
X036841Y020427D01*
X036912Y020414D01*
X036981Y020398D01*
X037050Y020378D01*
X037117Y020354D01*
X037183Y020326D01*
X037247Y020295D01*
X037310Y020260D01*
X037370Y020222D01*
X037428Y020180D01*
X037484Y020135D01*
X037537Y020088D01*
X037588Y020037D01*
X037635Y019984D01*
X037680Y019928D01*
X037722Y019870D01*
X037760Y019810D01*
X037795Y019747D01*
X037826Y019683D01*
X037854Y019617D01*
X037878Y019550D01*
X037898Y019481D01*
X037914Y019412D01*
X037927Y019341D01*
X037935Y019270D01*
X037940Y019199D01*
X037848Y019199D01*
X037843Y019267D01*
X037835Y019336D01*
X037822Y019403D01*
X037806Y019470D01*
X037785Y019535D01*
X037761Y019600D01*
X037734Y019663D01*
X037703Y019724D01*
X037668Y019783D01*
X037630Y019840D01*
X037589Y019895D01*
X037545Y019948D01*
X037498Y019998D01*
X037448Y020045D01*
X037395Y020089D01*
X037340Y020130D01*
X037283Y020168D01*
X037224Y020203D01*
X037163Y020234D01*
X037100Y020261D01*
X037035Y020285D01*
X036970Y020306D01*
X036903Y020322D01*
X036836Y020335D01*
X036767Y020343D01*
X036699Y020348D01*
X036699Y020256D01*
X036764Y020251D01*
X036829Y020242D01*
X036894Y020230D01*
X036957Y020213D01*
X037020Y020193D01*
X037081Y020170D01*
X037141Y020142D01*
X037199Y020111D01*
X037255Y020077D01*
X037309Y020040D01*
X037360Y019999D01*
X037409Y019956D01*
X037456Y019909D01*
X037499Y019860D01*
X037540Y019809D01*
X037577Y019755D01*
X037611Y019699D01*
X037642Y019641D01*
X037670Y019581D01*
X037693Y019520D01*
X037713Y019457D01*
X037730Y019394D01*
X037742Y019329D01*
X037751Y019264D01*
X037756Y019199D01*
X037664Y019199D01*
X037659Y019261D01*
X037650Y019323D01*
X037638Y019384D01*
X037621Y019444D01*
X037602Y019503D01*
X037578Y019561D01*
X037551Y019617D01*
X037521Y019672D01*
X037487Y019724D01*
X037450Y019774D01*
X037410Y019822D01*
X037368Y019868D01*
X037322Y019910D01*
X037274Y019950D01*
X037224Y019987D01*
X037172Y020021D01*
X037117Y020051D01*
X037061Y020078D01*
X037003Y020102D01*
X036944Y020121D01*
X036884Y020138D01*
X036823Y020150D01*
X036761Y020159D01*
X036699Y020164D01*
X036699Y020072D01*
X036758Y020067D01*
X036816Y020058D01*
X036873Y020046D01*
X036930Y020030D01*
X036985Y020010D01*
X037039Y019987D01*
X037092Y019961D01*
X037142Y019931D01*
X037191Y019898D01*
X037237Y019862D01*
X037282Y019823D01*
X037323Y019782D01*
X037362Y019737D01*
X037398Y019691D01*
X037431Y019642D01*
X037461Y019592D01*
X037487Y019539D01*
X037510Y019485D01*
X037530Y019430D01*
X037546Y019373D01*
X037558Y019316D01*
X037567Y019258D01*
X037572Y019199D01*
X037480Y019199D01*
X037475Y019254D01*
X037466Y019308D01*
X037454Y019361D01*
X037438Y019414D01*
X037419Y019465D01*
X037396Y019515D01*
X037371Y019564D01*
X037342Y019610D01*
X037310Y019655D01*
X037275Y019698D01*
X037238Y019738D01*
X037198Y019775D01*
X037155Y019810D01*
X037110Y019842D01*
X037064Y019871D01*
X037015Y019896D01*
X036965Y019919D01*
X036914Y019938D01*
X036861Y019954D01*
X036808Y019966D01*
X036754Y019975D01*
X036699Y019980D01*
X036699Y019887D01*
X036752Y019882D01*
X036804Y019873D01*
X036856Y019860D01*
X036906Y019843D01*
X036955Y019823D01*
X037003Y019799D01*
X037049Y019772D01*
X037092Y019742D01*
X037134Y019709D01*
X037173Y019673D01*
X037209Y019634D01*
X037242Y019592D01*
X037272Y019549D01*
X037299Y019503D01*
X037323Y019455D01*
X037343Y019406D01*
X037360Y019356D01*
X037373Y019304D01*
X037382Y019252D01*
X037387Y019199D01*
X037295Y019199D01*
X037290Y019247D01*
X037281Y019294D01*
X037268Y019341D01*
X037252Y019387D01*
X037233Y019431D01*
X037210Y019474D01*
X037184Y019515D01*
X037156Y019553D01*
X037124Y019590D01*
X037090Y019624D01*
X037053Y019656D01*
X037015Y019684D01*
X036974Y019710D01*
X036931Y019733D01*
X036887Y019752D01*
X036841Y019768D01*
X036794Y019781D01*
X036747Y019790D01*
X036699Y019795D01*
X036699Y019703D01*
X036744Y019697D01*
X036789Y019687D01*
X036832Y019674D01*
X036874Y019658D01*
X036915Y019637D01*
X036954Y019614D01*
X036991Y019588D01*
X037026Y019558D01*
X037058Y019526D01*
X037088Y019491D01*
X037114Y019454D01*
X037137Y019415D01*
X037158Y019374D01*
X037174Y019332D01*
X037187Y019289D01*
X037197Y019244D01*
X037203Y019199D01*
X037110Y019199D01*
X037104Y019240D01*
X037094Y019281D01*
X037080Y019321D01*
X037063Y019359D01*
X037043Y019395D01*
X037019Y019430D01*
X036992Y019462D01*
X036962Y019492D01*
X036930Y019519D01*
X036895Y019543D01*
X036859Y019563D01*
X036821Y019580D01*
X036781Y019594D01*
X036740Y019604D01*
X036699Y019610D01*
X035360Y019102D02*
X036244Y019102D01*
X036244Y019101D02*
X036250Y019063D01*
X036260Y019025D01*
X036274Y018989D01*
X036291Y018954D01*
X036311Y018921D01*
X036335Y018890D01*
X036361Y018861D01*
X036390Y018835D01*
X036421Y018811D01*
X036454Y018791D01*
X036489Y018774D01*
X036525Y018760D01*
X036563Y018750D01*
X036601Y018744D01*
X036602Y017860D01*
X036601Y017860D01*
X036530Y017865D01*
X036459Y017873D01*
X036388Y017886D01*
X036319Y017902D01*
X036250Y017922D01*
X036183Y017946D01*
X036117Y017974D01*
X036053Y018005D01*
X035990Y018040D01*
X035930Y018078D01*
X035872Y018120D01*
X035816Y018165D01*
X035763Y018212D01*
X035712Y018263D01*
X035665Y018316D01*
X035620Y018372D01*
X035578Y018430D01*
X035540Y018490D01*
X035505Y018553D01*
X035474Y018617D01*
X035446Y018683D01*
X035422Y018750D01*
X035402Y018819D01*
X035386Y018888D01*
X035373Y018959D01*
X035365Y019030D01*
X035360Y019101D01*
X035452Y019101D01*
X035457Y019033D01*
X035465Y018964D01*
X035478Y018897D01*
X035494Y018830D01*
X035515Y018765D01*
X035539Y018700D01*
X035566Y018637D01*
X035597Y018576D01*
X035632Y018517D01*
X035670Y018460D01*
X035711Y018405D01*
X035755Y018352D01*
X035802Y018302D01*
X035852Y018255D01*
X035905Y018211D01*
X035960Y018170D01*
X036017Y018132D01*
X036076Y018097D01*
X036137Y018066D01*
X036200Y018039D01*
X036265Y018015D01*
X036330Y017994D01*
X036397Y017978D01*
X036464Y017965D01*
X036533Y017957D01*
X036601Y017952D01*
X036601Y018044D01*
X036536Y018049D01*
X036471Y018058D01*
X036406Y018070D01*
X036343Y018087D01*
X036280Y018107D01*
X036219Y018130D01*
X036159Y018158D01*
X036101Y018189D01*
X036045Y018223D01*
X035991Y018260D01*
X035940Y018301D01*
X035891Y018344D01*
X035844Y018391D01*
X035801Y018440D01*
X035760Y018491D01*
X035723Y018545D01*
X035689Y018601D01*
X035658Y018659D01*
X035630Y018719D01*
X035607Y018780D01*
X035587Y018843D01*
X035570Y018906D01*
X035558Y018971D01*
X035549Y019036D01*
X035544Y019101D01*
X035636Y019101D01*
X035641Y019039D01*
X035650Y018977D01*
X035662Y018916D01*
X035679Y018856D01*
X035698Y018797D01*
X035722Y018739D01*
X035749Y018683D01*
X035779Y018628D01*
X035813Y018576D01*
X035850Y018526D01*
X035890Y018478D01*
X035932Y018432D01*
X035978Y018390D01*
X036026Y018350D01*
X036076Y018313D01*
X036128Y018279D01*
X036183Y018249D01*
X036239Y018222D01*
X036297Y018198D01*
X036356Y018179D01*
X036416Y018162D01*
X036477Y018150D01*
X036539Y018141D01*
X036601Y018136D01*
X036601Y018228D01*
X036542Y018233D01*
X036484Y018242D01*
X036427Y018254D01*
X036370Y018270D01*
X036315Y018290D01*
X036261Y018313D01*
X036208Y018339D01*
X036158Y018369D01*
X036109Y018402D01*
X036063Y018438D01*
X036018Y018477D01*
X035977Y018518D01*
X035938Y018563D01*
X035902Y018609D01*
X035869Y018658D01*
X035839Y018708D01*
X035813Y018761D01*
X035790Y018815D01*
X035770Y018870D01*
X035754Y018927D01*
X035742Y018984D01*
X035733Y019042D01*
X035728Y019101D01*
X035820Y019101D01*
X035825Y019046D01*
X035834Y018992D01*
X035846Y018939D01*
X035862Y018886D01*
X035881Y018835D01*
X035904Y018785D01*
X035929Y018736D01*
X035958Y018690D01*
X035990Y018645D01*
X036025Y018602D01*
X036062Y018562D01*
X036102Y018525D01*
X036145Y018490D01*
X036190Y018458D01*
X036236Y018429D01*
X036285Y018404D01*
X036335Y018381D01*
X036386Y018362D01*
X036439Y018346D01*
X036492Y018334D01*
X036546Y018325D01*
X036601Y018320D01*
X036601Y018413D01*
X036548Y018418D01*
X036496Y018427D01*
X036444Y018440D01*
X036394Y018457D01*
X036345Y018477D01*
X036297Y018501D01*
X036251Y018528D01*
X036208Y018558D01*
X036166Y018591D01*
X036127Y018627D01*
X036091Y018666D01*
X036058Y018708D01*
X036028Y018751D01*
X036001Y018797D01*
X035977Y018845D01*
X035957Y018894D01*
X035940Y018944D01*
X035927Y018996D01*
X035918Y019048D01*
X035913Y019101D01*
X036005Y019101D01*
X036010Y019053D01*
X036019Y019006D01*
X036032Y018959D01*
X036048Y018913D01*
X036067Y018869D01*
X036090Y018826D01*
X036116Y018785D01*
X036144Y018747D01*
X036176Y018710D01*
X036210Y018676D01*
X036247Y018644D01*
X036285Y018616D01*
X036326Y018590D01*
X036369Y018567D01*
X036413Y018548D01*
X036459Y018532D01*
X036506Y018519D01*
X036553Y018510D01*
X036601Y018505D01*
X036601Y018597D01*
X036556Y018603D01*
X036511Y018613D01*
X036468Y018626D01*
X036426Y018642D01*
X036385Y018663D01*
X036346Y018686D01*
X036309Y018712D01*
X036274Y018742D01*
X036242Y018774D01*
X036212Y018809D01*
X036186Y018846D01*
X036163Y018885D01*
X036142Y018926D01*
X036126Y018968D01*
X036113Y019011D01*
X036103Y019056D01*
X036097Y019101D01*
X036190Y019101D01*
X036196Y019060D01*
X036206Y019019D01*
X036220Y018979D01*
X036237Y018941D01*
X036257Y018905D01*
X036281Y018870D01*
X036308Y018838D01*
X036338Y018808D01*
X036370Y018781D01*
X036405Y018757D01*
X036441Y018737D01*
X036479Y018720D01*
X036519Y018706D01*
X036560Y018696D01*
X036601Y018690D01*
X003940Y019198D02*
X003056Y019198D01*
X003056Y019199D02*
X003050Y019237D01*
X003040Y019275D01*
X003026Y019311D01*
X003009Y019346D01*
X002989Y019379D01*
X002965Y019410D01*
X002939Y019439D01*
X002910Y019465D01*
X002879Y019489D01*
X002846Y019509D01*
X002811Y019526D01*
X002775Y019540D01*
X002737Y019550D01*
X002699Y019556D01*
X002698Y020440D01*
X002699Y020440D01*
X002770Y020435D01*
X002841Y020427D01*
X002912Y020414D01*
X002981Y020398D01*
X003050Y020378D01*
X003117Y020354D01*
X003183Y020326D01*
X003247Y020295D01*
X003310Y020260D01*
X003370Y020222D01*
X003428Y020180D01*
X003484Y020135D01*
X003537Y020088D01*
X003588Y020037D01*
X003635Y019984D01*
X003680Y019928D01*
X003722Y019870D01*
X003760Y019810D01*
X003795Y019747D01*
X003826Y019683D01*
X003854Y019617D01*
X003878Y019550D01*
X003898Y019481D01*
X003914Y019412D01*
X003927Y019341D01*
X003935Y019270D01*
X003940Y019199D01*
X003848Y019199D01*
X003843Y019267D01*
X003835Y019336D01*
X003822Y019403D01*
X003806Y019470D01*
X003785Y019535D01*
X003761Y019600D01*
X003734Y019663D01*
X003703Y019724D01*
X003668Y019783D01*
X003630Y019840D01*
X003589Y019895D01*
X003545Y019948D01*
X003498Y019998D01*
X003448Y020045D01*
X003395Y020089D01*
X003340Y020130D01*
X003283Y020168D01*
X003224Y020203D01*
X003163Y020234D01*
X003100Y020261D01*
X003035Y020285D01*
X002970Y020306D01*
X002903Y020322D01*
X002836Y020335D01*
X002767Y020343D01*
X002699Y020348D01*
X002699Y020256D01*
X002764Y020251D01*
X002829Y020242D01*
X002894Y020230D01*
X002957Y020213D01*
X003020Y020193D01*
X003081Y020170D01*
X003141Y020142D01*
X003199Y020111D01*
X003255Y020077D01*
X003309Y020040D01*
X003360Y019999D01*
X003409Y019956D01*
X003456Y019909D01*
X003499Y019860D01*
X003540Y019809D01*
X003577Y019755D01*
X003611Y019699D01*
X003642Y019641D01*
X003670Y019581D01*
X003693Y019520D01*
X003713Y019457D01*
X003730Y019394D01*
X003742Y019329D01*
X003751Y019264D01*
X003756Y019199D01*
X003664Y019199D01*
X003659Y019261D01*
X003650Y019323D01*
X003638Y019384D01*
X003621Y019444D01*
X003602Y019503D01*
X003578Y019561D01*
X003551Y019617D01*
X003521Y019672D01*
X003487Y019724D01*
X003450Y019774D01*
X003410Y019822D01*
X003368Y019868D01*
X003322Y019910D01*
X003274Y019950D01*
X003224Y019987D01*
X003172Y020021D01*
X003117Y020051D01*
X003061Y020078D01*
X003003Y020102D01*
X002944Y020121D01*
X002884Y020138D01*
X002823Y020150D01*
X002761Y020159D01*
X002699Y020164D01*
X002699Y020072D01*
X002758Y020067D01*
X002816Y020058D01*
X002873Y020046D01*
X002930Y020030D01*
X002985Y020010D01*
X003039Y019987D01*
X003092Y019961D01*
X003142Y019931D01*
X003191Y019898D01*
X003237Y019862D01*
X003282Y019823D01*
X003323Y019782D01*
X003362Y019737D01*
X003398Y019691D01*
X003431Y019642D01*
X003461Y019592D01*
X003487Y019539D01*
X003510Y019485D01*
X003530Y019430D01*
X003546Y019373D01*
X003558Y019316D01*
X003567Y019258D01*
X003572Y019199D01*
X003480Y019199D01*
X003475Y019254D01*
X003466Y019308D01*
X003454Y019361D01*
X003438Y019414D01*
X003419Y019465D01*
X003396Y019515D01*
X003371Y019564D01*
X003342Y019610D01*
X003310Y019655D01*
X003275Y019698D01*
X003238Y019738D01*
X003198Y019775D01*
X003155Y019810D01*
X003110Y019842D01*
X003064Y019871D01*
X003015Y019896D01*
X002965Y019919D01*
X002914Y019938D01*
X002861Y019954D01*
X002808Y019966D01*
X002754Y019975D01*
X002699Y019980D01*
X002699Y019887D01*
X002752Y019882D01*
X002804Y019873D01*
X002856Y019860D01*
X002906Y019843D01*
X002955Y019823D01*
X003003Y019799D01*
X003049Y019772D01*
X003092Y019742D01*
X003134Y019709D01*
X003173Y019673D01*
X003209Y019634D01*
X003242Y019592D01*
X003272Y019549D01*
X003299Y019503D01*
X003323Y019455D01*
X003343Y019406D01*
X003360Y019356D01*
X003373Y019304D01*
X003382Y019252D01*
X003387Y019199D01*
X003295Y019199D01*
X003290Y019247D01*
X003281Y019294D01*
X003268Y019341D01*
X003252Y019387D01*
X003233Y019431D01*
X003210Y019474D01*
X003184Y019515D01*
X003156Y019553D01*
X003124Y019590D01*
X003090Y019624D01*
X003053Y019656D01*
X003015Y019684D01*
X002974Y019710D01*
X002931Y019733D01*
X002887Y019752D01*
X002841Y019768D01*
X002794Y019781D01*
X002747Y019790D01*
X002699Y019795D01*
X002699Y019703D01*
X002744Y019697D01*
X002789Y019687D01*
X002832Y019674D01*
X002874Y019658D01*
X002915Y019637D01*
X002954Y019614D01*
X002991Y019588D01*
X003026Y019558D01*
X003058Y019526D01*
X003088Y019491D01*
X003114Y019454D01*
X003137Y019415D01*
X003158Y019374D01*
X003174Y019332D01*
X003187Y019289D01*
X003197Y019244D01*
X003203Y019199D01*
X003110Y019199D01*
X003104Y019240D01*
X003094Y019281D01*
X003080Y019321D01*
X003063Y019359D01*
X003043Y019395D01*
X003019Y019430D01*
X002992Y019462D01*
X002962Y019492D01*
X002930Y019519D01*
X002895Y019543D01*
X002859Y019563D01*
X002821Y019580D01*
X002781Y019594D01*
X002740Y019604D01*
X002699Y019610D01*
X001360Y019102D02*
X002244Y019102D01*
X002244Y019101D02*
X002250Y019063D01*
X002260Y019025D01*
X002274Y018989D01*
X002291Y018954D01*
X002311Y018921D01*
X002335Y018890D01*
X002361Y018861D01*
X002390Y018835D01*
X002421Y018811D01*
X002454Y018791D01*
X002489Y018774D01*
X002525Y018760D01*
X002563Y018750D01*
X002601Y018744D01*
X002602Y017860D01*
X002601Y017860D01*
X002530Y017865D01*
X002459Y017873D01*
X002388Y017886D01*
X002319Y017902D01*
X002250Y017922D01*
X002183Y017946D01*
X002117Y017974D01*
X002053Y018005D01*
X001990Y018040D01*
X001930Y018078D01*
X001872Y018120D01*
X001816Y018165D01*
X001763Y018212D01*
X001712Y018263D01*
X001665Y018316D01*
X001620Y018372D01*
X001578Y018430D01*
X001540Y018490D01*
X001505Y018553D01*
X001474Y018617D01*
X001446Y018683D01*
X001422Y018750D01*
X001402Y018819D01*
X001386Y018888D01*
X001373Y018959D01*
X001365Y019030D01*
X001360Y019101D01*
X001452Y019101D01*
X001457Y019033D01*
X001465Y018964D01*
X001478Y018897D01*
X001494Y018830D01*
X001515Y018765D01*
X001539Y018700D01*
X001566Y018637D01*
X001597Y018576D01*
X001632Y018517D01*
X001670Y018460D01*
X001711Y018405D01*
X001755Y018352D01*
X001802Y018302D01*
X001852Y018255D01*
X001905Y018211D01*
X001960Y018170D01*
X002017Y018132D01*
X002076Y018097D01*
X002137Y018066D01*
X002200Y018039D01*
X002265Y018015D01*
X002330Y017994D01*
X002397Y017978D01*
X002464Y017965D01*
X002533Y017957D01*
X002601Y017952D01*
X002601Y018044D01*
X002536Y018049D01*
X002471Y018058D01*
X002406Y018070D01*
X002343Y018087D01*
X002280Y018107D01*
X002219Y018130D01*
X002159Y018158D01*
X002101Y018189D01*
X002045Y018223D01*
X001991Y018260D01*
X001940Y018301D01*
X001891Y018344D01*
X001844Y018391D01*
X001801Y018440D01*
X001760Y018491D01*
X001723Y018545D01*
X001689Y018601D01*
X001658Y018659D01*
X001630Y018719D01*
X001607Y018780D01*
X001587Y018843D01*
X001570Y018906D01*
X001558Y018971D01*
X001549Y019036D01*
X001544Y019101D01*
X001636Y019101D01*
X001641Y019039D01*
X001650Y018977D01*
X001662Y018916D01*
X001679Y018856D01*
X001698Y018797D01*
X001722Y018739D01*
X001749Y018683D01*
X001779Y018628D01*
X001813Y018576D01*
X001850Y018526D01*
X001890Y018478D01*
X001932Y018432D01*
X001978Y018390D01*
X002026Y018350D01*
X002076Y018313D01*
X002128Y018279D01*
X002183Y018249D01*
X002239Y018222D01*
X002297Y018198D01*
X002356Y018179D01*
X002416Y018162D01*
X002477Y018150D01*
X002539Y018141D01*
X002601Y018136D01*
X002601Y018228D01*
X002542Y018233D01*
X002484Y018242D01*
X002427Y018254D01*
X002370Y018270D01*
X002315Y018290D01*
X002261Y018313D01*
X002208Y018339D01*
X002158Y018369D01*
X002109Y018402D01*
X002063Y018438D01*
X002018Y018477D01*
X001977Y018518D01*
X001938Y018563D01*
X001902Y018609D01*
X001869Y018658D01*
X001839Y018708D01*
X001813Y018761D01*
X001790Y018815D01*
X001770Y018870D01*
X001754Y018927D01*
X001742Y018984D01*
X001733Y019042D01*
X001728Y019101D01*
X001820Y019101D01*
X001825Y019046D01*
X001834Y018992D01*
X001846Y018939D01*
X001862Y018886D01*
X001881Y018835D01*
X001904Y018785D01*
X001929Y018736D01*
X001958Y018690D01*
X001990Y018645D01*
X002025Y018602D01*
X002062Y018562D01*
X002102Y018525D01*
X002145Y018490D01*
X002190Y018458D01*
X002236Y018429D01*
X002285Y018404D01*
X002335Y018381D01*
X002386Y018362D01*
X002439Y018346D01*
X002492Y018334D01*
X002546Y018325D01*
X002601Y018320D01*
X002601Y018413D01*
X002548Y018418D01*
X002496Y018427D01*
X002444Y018440D01*
X002394Y018457D01*
X002345Y018477D01*
X002297Y018501D01*
X002251Y018528D01*
X002208Y018558D01*
X002166Y018591D01*
X002127Y018627D01*
X002091Y018666D01*
X002058Y018708D01*
X002028Y018751D01*
X002001Y018797D01*
X001977Y018845D01*
X001957Y018894D01*
X001940Y018944D01*
X001927Y018996D01*
X001918Y019048D01*
X001913Y019101D01*
X002005Y019101D01*
X002010Y019053D01*
X002019Y019006D01*
X002032Y018959D01*
X002048Y018913D01*
X002067Y018869D01*
X002090Y018826D01*
X002116Y018785D01*
X002144Y018747D01*
X002176Y018710D01*
X002210Y018676D01*
X002247Y018644D01*
X002285Y018616D01*
X002326Y018590D01*
X002369Y018567D01*
X002413Y018548D01*
X002459Y018532D01*
X002506Y018519D01*
X002553Y018510D01*
X002601Y018505D01*
X002601Y018597D01*
X002556Y018603D01*
X002511Y018613D01*
X002468Y018626D01*
X002426Y018642D01*
X002385Y018663D01*
X002346Y018686D01*
X002309Y018712D01*
X002274Y018742D01*
X002242Y018774D01*
X002212Y018809D01*
X002186Y018846D01*
X002163Y018885D01*
X002142Y018926D01*
X002126Y018968D01*
X002113Y019011D01*
X002103Y019056D01*
X002097Y019101D01*
X002190Y019101D01*
X002196Y019060D01*
X002206Y019019D01*
X002220Y018979D01*
X002237Y018941D01*
X002257Y018905D01*
X002281Y018870D01*
X002308Y018838D01*
X002338Y018808D01*
X002370Y018781D01*
X002405Y018757D01*
X002441Y018737D01*
X002479Y018720D01*
X002519Y018706D01*
X002560Y018696D01*
X002601Y018690D01*
X003940Y002698D02*
X003056Y002698D01*
X003056Y002699D02*
X003050Y002737D01*
X003040Y002775D01*
X003026Y002811D01*
X003009Y002846D01*
X002989Y002879D01*
X002965Y002910D01*
X002939Y002939D01*
X002910Y002965D01*
X002879Y002989D01*
X002846Y003009D01*
X002811Y003026D01*
X002775Y003040D01*
X002737Y003050D01*
X002699Y003056D01*
X002698Y003940D01*
X002699Y003940D01*
X002770Y003935D01*
X002841Y003927D01*
X002912Y003914D01*
X002981Y003898D01*
X003050Y003878D01*
X003117Y003854D01*
X003183Y003826D01*
X003247Y003795D01*
X003310Y003760D01*
X003370Y003722D01*
X003428Y003680D01*
X003484Y003635D01*
X003537Y003588D01*
X003588Y003537D01*
X003635Y003484D01*
X003680Y003428D01*
X003722Y003370D01*
X003760Y003310D01*
X003795Y003247D01*
X003826Y003183D01*
X003854Y003117D01*
X003878Y003050D01*
X003898Y002981D01*
X003914Y002912D01*
X003927Y002841D01*
X003935Y002770D01*
X003940Y002699D01*
X003848Y002699D01*
X003843Y002767D01*
X003835Y002836D01*
X003822Y002903D01*
X003806Y002970D01*
X003785Y003035D01*
X003761Y003100D01*
X003734Y003163D01*
X003703Y003224D01*
X003668Y003283D01*
X003630Y003340D01*
X003589Y003395D01*
X003545Y003448D01*
X003498Y003498D01*
X003448Y003545D01*
X003395Y003589D01*
X003340Y003630D01*
X003283Y003668D01*
X003224Y003703D01*
X003163Y003734D01*
X003100Y003761D01*
X003035Y003785D01*
X002970Y003806D01*
X002903Y003822D01*
X002836Y003835D01*
X002767Y003843D01*
X002699Y003848D01*
X002699Y003756D01*
X002764Y003751D01*
X002829Y003742D01*
X002894Y003730D01*
X002957Y003713D01*
X003020Y003693D01*
X003081Y003670D01*
X003141Y003642D01*
X003199Y003611D01*
X003255Y003577D01*
X003309Y003540D01*
X003360Y003499D01*
X003409Y003456D01*
X003456Y003409D01*
X003499Y003360D01*
X003540Y003309D01*
X003577Y003255D01*
X003611Y003199D01*
X003642Y003141D01*
X003670Y003081D01*
X003693Y003020D01*
X003713Y002957D01*
X003730Y002894D01*
X003742Y002829D01*
X003751Y002764D01*
X003756Y002699D01*
X003664Y002699D01*
X003659Y002761D01*
X003650Y002823D01*
X003638Y002884D01*
X003621Y002944D01*
X003602Y003003D01*
X003578Y003061D01*
X003551Y003117D01*
X003521Y003172D01*
X003487Y003224D01*
X003450Y003274D01*
X003410Y003322D01*
X003368Y003368D01*
X003322Y003410D01*
X003274Y003450D01*
X003224Y003487D01*
X003172Y003521D01*
X003117Y003551D01*
X003061Y003578D01*
X003003Y003602D01*
X002944Y003621D01*
X002884Y003638D01*
X002823Y003650D01*
X002761Y003659D01*
X002699Y003664D01*
X002699Y003572D01*
X002758Y003567D01*
X002816Y003558D01*
X002873Y003546D01*
X002930Y003530D01*
X002985Y003510D01*
X003039Y003487D01*
X003092Y003461D01*
X003142Y003431D01*
X003191Y003398D01*
X003237Y003362D01*
X003282Y003323D01*
X003323Y003282D01*
X003362Y003237D01*
X003398Y003191D01*
X003431Y003142D01*
X003461Y003092D01*
X003487Y003039D01*
X003510Y002985D01*
X003530Y002930D01*
X003546Y002873D01*
X003558Y002816D01*
X003567Y002758D01*
X003572Y002699D01*
X003480Y002699D01*
X003475Y002754D01*
X003466Y002808D01*
X003454Y002861D01*
X003438Y002914D01*
X003419Y002965D01*
X003396Y003015D01*
X003371Y003064D01*
X003342Y003110D01*
X003310Y003155D01*
X003275Y003198D01*
X003238Y003238D01*
X003198Y003275D01*
X003155Y003310D01*
X003110Y003342D01*
X003064Y003371D01*
X003015Y003396D01*
X002965Y003419D01*
X002914Y003438D01*
X002861Y003454D01*
X002808Y003466D01*
X002754Y003475D01*
X002699Y003480D01*
X002699Y003387D01*
X002752Y003382D01*
X002804Y003373D01*
X002856Y003360D01*
X002906Y003343D01*
X002955Y003323D01*
X003003Y003299D01*
X003049Y003272D01*
X003092Y003242D01*
X003134Y003209D01*
X003173Y003173D01*
X003209Y003134D01*
X003242Y003092D01*
X003272Y003049D01*
X003299Y003003D01*
X003323Y002955D01*
X003343Y002906D01*
X003360Y002856D01*
X003373Y002804D01*
X003382Y002752D01*
X003387Y002699D01*
X003295Y002699D01*
X003290Y002747D01*
X003281Y002794D01*
X003268Y002841D01*
X003252Y002887D01*
X003233Y002931D01*
X003210Y002974D01*
X003184Y003015D01*
X003156Y003053D01*
X003124Y003090D01*
X003090Y003124D01*
X003053Y003156D01*
X003015Y003184D01*
X002974Y003210D01*
X002931Y003233D01*
X002887Y003252D01*
X002841Y003268D01*
X002794Y003281D01*
X002747Y003290D01*
X002699Y003295D01*
X002699Y003203D01*
X002744Y003197D01*
X002789Y003187D01*
X002832Y003174D01*
X002874Y003158D01*
X002915Y003137D01*
X002954Y003114D01*
X002991Y003088D01*
X003026Y003058D01*
X003058Y003026D01*
X003088Y002991D01*
X003114Y002954D01*
X003137Y002915D01*
X003158Y002874D01*
X003174Y002832D01*
X003187Y002789D01*
X003197Y002744D01*
X003203Y002699D01*
X003110Y002699D01*
X003104Y002740D01*
X003094Y002781D01*
X003080Y002821D01*
X003063Y002859D01*
X003043Y002895D01*
X003019Y002930D01*
X002992Y002962D01*
X002962Y002992D01*
X002930Y003019D01*
X002895Y003043D01*
X002859Y003063D01*
X002821Y003080D01*
X002781Y003094D01*
X002740Y003104D01*
X002699Y003110D01*
X001360Y002602D02*
X002244Y002602D01*
X002244Y002601D02*
X002250Y002563D01*
X002260Y002525D01*
X002274Y002489D01*
X002291Y002454D01*
X002311Y002421D01*
X002335Y002390D01*
X002361Y002361D01*
X002390Y002335D01*
X002421Y002311D01*
X002454Y002291D01*
X002489Y002274D01*
X002525Y002260D01*
X002563Y002250D01*
X002601Y002244D01*
X002602Y001360D01*
X002601Y001360D01*
X002530Y001365D01*
X002459Y001373D01*
X002388Y001386D01*
X002319Y001402D01*
X002250Y001422D01*
X002183Y001446D01*
X002117Y001474D01*
X002053Y001505D01*
X001990Y001540D01*
X001930Y001578D01*
X001872Y001620D01*
X001816Y001665D01*
X001763Y001712D01*
X001712Y001763D01*
X001665Y001816D01*
X001620Y001872D01*
X001578Y001930D01*
X001540Y001990D01*
X001505Y002053D01*
X001474Y002117D01*
X001446Y002183D01*
X001422Y002250D01*
X001402Y002319D01*
X001386Y002388D01*
X001373Y002459D01*
X001365Y002530D01*
X001360Y002601D01*
X001452Y002601D01*
X001457Y002533D01*
X001465Y002464D01*
X001478Y002397D01*
X001494Y002330D01*
X001515Y002265D01*
X001539Y002200D01*
X001566Y002137D01*
X001597Y002076D01*
X001632Y002017D01*
X001670Y001960D01*
X001711Y001905D01*
X001755Y001852D01*
X001802Y001802D01*
X001852Y001755D01*
X001905Y001711D01*
X001960Y001670D01*
X002017Y001632D01*
X002076Y001597D01*
X002137Y001566D01*
X002200Y001539D01*
X002265Y001515D01*
X002330Y001494D01*
X002397Y001478D01*
X002464Y001465D01*
X002533Y001457D01*
X002601Y001452D01*
X002601Y001544D01*
X002536Y001549D01*
X002471Y001558D01*
X002406Y001570D01*
X002343Y001587D01*
X002280Y001607D01*
X002219Y001630D01*
X002159Y001658D01*
X002101Y001689D01*
X002045Y001723D01*
X001991Y001760D01*
X001940Y001801D01*
X001891Y001844D01*
X001844Y001891D01*
X001801Y001940D01*
X001760Y001991D01*
X001723Y002045D01*
X001689Y002101D01*
X001658Y002159D01*
X001630Y002219D01*
X001607Y002280D01*
X001587Y002343D01*
X001570Y002406D01*
X001558Y002471D01*
X001549Y002536D01*
X001544Y002601D01*
X001636Y002601D01*
X001641Y002539D01*
X001650Y002477D01*
X001662Y002416D01*
X001679Y002356D01*
X001698Y002297D01*
X001722Y002239D01*
X001749Y002183D01*
X001779Y002128D01*
X001813Y002076D01*
X001850Y002026D01*
X001890Y001978D01*
X001932Y001932D01*
X001978Y001890D01*
X002026Y001850D01*
X002076Y001813D01*
X002128Y001779D01*
X002183Y001749D01*
X002239Y001722D01*
X002297Y001698D01*
X002356Y001679D01*
X002416Y001662D01*
X002477Y001650D01*
X002539Y001641D01*
X002601Y001636D01*
X002601Y001728D01*
X002542Y001733D01*
X002484Y001742D01*
X002427Y001754D01*
X002370Y001770D01*
X002315Y001790D01*
X002261Y001813D01*
X002208Y001839D01*
X002158Y001869D01*
X002109Y001902D01*
X002063Y001938D01*
X002018Y001977D01*
X001977Y002018D01*
X001938Y002063D01*
X001902Y002109D01*
X001869Y002158D01*
X001839Y002208D01*
X001813Y002261D01*
X001790Y002315D01*
X001770Y002370D01*
X001754Y002427D01*
X001742Y002484D01*
X001733Y002542D01*
X001728Y002601D01*
X001820Y002601D01*
X001825Y002546D01*
X001834Y002492D01*
X001846Y002439D01*
X001862Y002386D01*
X001881Y002335D01*
X001904Y002285D01*
X001929Y002236D01*
X001958Y002190D01*
X001990Y002145D01*
X002025Y002102D01*
X002062Y002062D01*
X002102Y002025D01*
X002145Y001990D01*
X002190Y001958D01*
X002236Y001929D01*
X002285Y001904D01*
X002335Y001881D01*
X002386Y001862D01*
X002439Y001846D01*
X002492Y001834D01*
X002546Y001825D01*
X002601Y001820D01*
X002601Y001913D01*
X002548Y001918D01*
X002496Y001927D01*
X002444Y001940D01*
X002394Y001957D01*
X002345Y001977D01*
X002297Y002001D01*
X002251Y002028D01*
X002208Y002058D01*
X002166Y002091D01*
X002127Y002127D01*
X002091Y002166D01*
X002058Y002208D01*
X002028Y002251D01*
X002001Y002297D01*
X001977Y002345D01*
X001957Y002394D01*
X001940Y002444D01*
X001927Y002496D01*
X001918Y002548D01*
X001913Y002601D01*
X002005Y002601D01*
X002010Y002553D01*
X002019Y002506D01*
X002032Y002459D01*
X002048Y002413D01*
X002067Y002369D01*
X002090Y002326D01*
X002116Y002285D01*
X002144Y002247D01*
X002176Y002210D01*
X002210Y002176D01*
X002247Y002144D01*
X002285Y002116D01*
X002326Y002090D01*
X002369Y002067D01*
X002413Y002048D01*
X002459Y002032D01*
X002506Y002019D01*
X002553Y002010D01*
X002601Y002005D01*
X002601Y002097D01*
X002556Y002103D01*
X002511Y002113D01*
X002468Y002126D01*
X002426Y002142D01*
X002385Y002163D01*
X002346Y002186D01*
X002309Y002212D01*
X002274Y002242D01*
X002242Y002274D01*
X002212Y002309D01*
X002186Y002346D01*
X002163Y002385D01*
X002142Y002426D01*
X002126Y002468D01*
X002113Y002511D01*
X002103Y002556D01*
X002097Y002601D01*
X002190Y002601D01*
X002196Y002560D01*
X002206Y002519D01*
X002220Y002479D01*
X002237Y002441D01*
X002257Y002405D01*
X002281Y002370D01*
X002308Y002338D01*
X002338Y002308D01*
X002370Y002281D01*
X002405Y002257D01*
X002441Y002237D01*
X002479Y002220D01*
X002519Y002206D01*
X002560Y002196D01*
X002601Y002190D01*
D28*
X002350Y002650D02*
X002352Y002684D01*
X002358Y002718D01*
X002367Y002751D01*
X002381Y002782D01*
X002398Y002812D01*
X002418Y002840D01*
X002441Y002865D01*
X002467Y002888D01*
X002495Y002907D01*
X002525Y002923D01*
X002557Y002935D01*
X002590Y002944D01*
X002624Y002949D01*
X002659Y002950D01*
X002693Y002947D01*
X002726Y002940D01*
X002759Y002930D01*
X002790Y002915D01*
X002819Y002898D01*
X002846Y002877D01*
X002871Y002853D01*
X002893Y002826D01*
X002911Y002798D01*
X002926Y002767D01*
X002938Y002735D01*
X002946Y002701D01*
X002950Y002667D01*
X002950Y002633D01*
X002946Y002599D01*
X002938Y002565D01*
X002926Y002533D01*
X002911Y002502D01*
X002893Y002474D01*
X002871Y002447D01*
X002846Y002423D01*
X002819Y002402D01*
X002790Y002385D01*
X002759Y002370D01*
X002726Y002360D01*
X002693Y002353D01*
X002659Y002350D01*
X002624Y002351D01*
X002590Y002356D01*
X002557Y002365D01*
X002525Y002377D01*
X002495Y002393D01*
X002467Y002412D01*
X002441Y002435D01*
X002418Y002460D01*
X002398Y002488D01*
X002381Y002518D01*
X002367Y002549D01*
X002358Y002582D01*
X002352Y002616D01*
X002350Y002650D01*
X002350Y019150D02*
X002352Y019184D01*
X002358Y019218D01*
X002367Y019251D01*
X002381Y019282D01*
X002398Y019312D01*
X002418Y019340D01*
X002441Y019365D01*
X002467Y019388D01*
X002495Y019407D01*
X002525Y019423D01*
X002557Y019435D01*
X002590Y019444D01*
X002624Y019449D01*
X002659Y019450D01*
X002693Y019447D01*
X002726Y019440D01*
X002759Y019430D01*
X002790Y019415D01*
X002819Y019398D01*
X002846Y019377D01*
X002871Y019353D01*
X002893Y019326D01*
X002911Y019298D01*
X002926Y019267D01*
X002938Y019235D01*
X002946Y019201D01*
X002950Y019167D01*
X002950Y019133D01*
X002946Y019099D01*
X002938Y019065D01*
X002926Y019033D01*
X002911Y019002D01*
X002893Y018974D01*
X002871Y018947D01*
X002846Y018923D01*
X002819Y018902D01*
X002790Y018885D01*
X002759Y018870D01*
X002726Y018860D01*
X002693Y018853D01*
X002659Y018850D01*
X002624Y018851D01*
X002590Y018856D01*
X002557Y018865D01*
X002525Y018877D01*
X002495Y018893D01*
X002467Y018912D01*
X002441Y018935D01*
X002418Y018960D01*
X002398Y018988D01*
X002381Y019018D01*
X002367Y019049D01*
X002358Y019082D01*
X002352Y019116D01*
X002350Y019150D01*
X036350Y019150D02*
X036352Y019184D01*
X036358Y019218D01*
X036367Y019251D01*
X036381Y019282D01*
X036398Y019312D01*
X036418Y019340D01*
X036441Y019365D01*
X036467Y019388D01*
X036495Y019407D01*
X036525Y019423D01*
X036557Y019435D01*
X036590Y019444D01*
X036624Y019449D01*
X036659Y019450D01*
X036693Y019447D01*
X036726Y019440D01*
X036759Y019430D01*
X036790Y019415D01*
X036819Y019398D01*
X036846Y019377D01*
X036871Y019353D01*
X036893Y019326D01*
X036911Y019298D01*
X036926Y019267D01*
X036938Y019235D01*
X036946Y019201D01*
X036950Y019167D01*
X036950Y019133D01*
X036946Y019099D01*
X036938Y019065D01*
X036926Y019033D01*
X036911Y019002D01*
X036893Y018974D01*
X036871Y018947D01*
X036846Y018923D01*
X036819Y018902D01*
X036790Y018885D01*
X036759Y018870D01*
X036726Y018860D01*
X036693Y018853D01*
X036659Y018850D01*
X036624Y018851D01*
X036590Y018856D01*
X036557Y018865D01*
X036525Y018877D01*
X036495Y018893D01*
X036467Y018912D01*
X036441Y018935D01*
X036418Y018960D01*
X036398Y018988D01*
X036381Y019018D01*
X036367Y019049D01*
X036358Y019082D01*
X036352Y019116D01*
X036350Y019150D01*
X036350Y002650D02*
X036352Y002684D01*
X036358Y002718D01*
X036367Y002751D01*
X036381Y002782D01*
X036398Y002812D01*
X036418Y002840D01*
X036441Y002865D01*
X036467Y002888D01*
X036495Y002907D01*
X036525Y002923D01*
X036557Y002935D01*
X036590Y002944D01*
X036624Y002949D01*
X036659Y002950D01*
X036693Y002947D01*
X036726Y002940D01*
X036759Y002930D01*
X036790Y002915D01*
X036819Y002898D01*
X036846Y002877D01*
X036871Y002853D01*
X036893Y002826D01*
X036911Y002798D01*
X036926Y002767D01*
X036938Y002735D01*
X036946Y002701D01*
X036950Y002667D01*
X036950Y002633D01*
X036946Y002599D01*
X036938Y002565D01*
X036926Y002533D01*
X036911Y002502D01*
X036893Y002474D01*
X036871Y002447D01*
X036846Y002423D01*
X036819Y002402D01*
X036790Y002385D01*
X036759Y002370D01*
X036726Y002360D01*
X036693Y002353D01*
X036659Y002350D01*
X036624Y002351D01*
X036590Y002356D01*
X036557Y002365D01*
X036525Y002377D01*
X036495Y002393D01*
X036467Y002412D01*
X036441Y002435D01*
X036418Y002460D01*
X036398Y002488D01*
X036381Y002518D01*
X036367Y002549D01*
X036358Y002582D01*
X036352Y002616D01*
X036350Y002650D01*
D29*
X036150Y008150D03*
X037150Y008150D03*
X037150Y009150D03*
X036150Y009150D03*
X036150Y010150D03*
X037150Y010150D03*
D30*
X022060Y018700D03*
X020090Y018700D03*
X018120Y018700D03*
X016150Y018700D03*
X014180Y018700D03*
X012210Y018700D03*
X010240Y018700D03*
D31*
X010120Y016466D02*
X010120Y015835D01*
X009910Y015835D02*
X010330Y015835D01*
X009910Y016255D02*
X010120Y016466D01*
X009685Y016466D02*
X009265Y015835D01*
X009685Y015835D02*
X009265Y016466D01*
M02*
