G75*
%MOIN*%
%OFA0B0*%
%FSLAX24Y24*%
%IPPOS*%
%LPD*%
%AMOC8*
5,1,8,0,0,1.08239X$1,22.5*
%
%ADD10C,0.0000*%
%ADD11C,0.0860*%
%ADD12C,0.0700*%
%ADD13R,0.0594X0.0594*%
%ADD14R,0.1266X0.1266*%
%ADD15C,0.2300*%
%ADD16OC8,0.0600*%
%ADD17C,0.0780*%
%ADD18C,0.0100*%
%ADD19C,0.0356*%
%ADD20C,0.0760*%
%ADD21C,0.0160*%
D10*
X000150Y000150D02*
X000150Y021520D01*
X039142Y021520D01*
X039142Y000150D01*
X000150Y000150D01*
D11*
X006720Y015969D02*
X007580Y015969D01*
X005260Y016720D02*
X005260Y017580D01*
X006720Y018331D02*
X007580Y018331D01*
D12*
X027650Y018150D03*
X027650Y019150D03*
X027650Y017150D03*
X027650Y016150D03*
X027650Y015150D03*
X027650Y014150D03*
X027650Y013150D03*
X027650Y012150D03*
X027650Y011150D03*
X027650Y010150D03*
X027650Y009150D03*
X027650Y008150D03*
X033650Y008150D03*
X033650Y009150D03*
X033650Y010150D03*
X033650Y011150D03*
X033650Y012150D03*
X033650Y013150D03*
X033650Y014150D03*
X033650Y015150D03*
X033650Y016150D03*
X033650Y017150D03*
X033650Y018150D03*
X033650Y019150D03*
D13*
X022906Y008134D03*
X022906Y006166D03*
X017197Y006166D03*
X017197Y007150D03*
X017197Y008134D03*
D14*
X020150Y009552D03*
X020150Y004748D03*
D15*
X036650Y002650D03*
X036650Y019150D03*
X002650Y019150D03*
X002650Y002650D03*
D16*
X036150Y008150D03*
X037150Y008150D03*
X037150Y009150D03*
X036150Y009150D03*
X036150Y010150D03*
X037150Y010150D03*
D17*
X022060Y018760D02*
X022060Y019540D01*
X020090Y019540D02*
X020090Y018760D01*
X018120Y018760D02*
X018120Y019540D01*
X016150Y019540D02*
X016150Y018760D01*
X014180Y018760D02*
X014180Y019540D01*
X012210Y019540D02*
X012210Y018760D01*
X010240Y018760D02*
X010240Y019540D01*
D18*
X010878Y019777D02*
X011572Y019777D01*
X011531Y019679D02*
X010919Y019679D01*
X010920Y019675D02*
X010816Y019925D01*
X010625Y020116D01*
X010375Y020220D01*
X010105Y020220D01*
X009855Y020116D01*
X009664Y019925D01*
X009560Y019675D01*
X009560Y019386D01*
X009480Y019193D01*
X009480Y018928D01*
X007241Y016689D01*
X006577Y016689D01*
X006312Y016579D01*
X006110Y016377D01*
X006000Y016112D01*
X006000Y015826D01*
X006110Y015561D01*
X006312Y015359D01*
X006577Y015249D01*
X007723Y015249D01*
X007988Y015359D01*
X008190Y015561D01*
X008300Y015826D01*
X008300Y015852D01*
X010530Y018082D01*
X010718Y018270D01*
X010722Y018280D01*
X010816Y018375D01*
X010920Y018625D01*
X010920Y019675D01*
X010920Y019580D02*
X011530Y019580D01*
X011530Y019675D02*
X011634Y019925D01*
X011825Y020116D01*
X012075Y020220D01*
X012345Y020220D01*
X012595Y020116D01*
X012786Y019925D01*
X012890Y019675D01*
X012890Y018625D01*
X012786Y018375D01*
X012595Y018184D01*
X012345Y018080D01*
X012075Y018080D01*
X011825Y018184D01*
X011634Y018375D01*
X011530Y018625D01*
X011530Y019675D01*
X011530Y019482D02*
X010920Y019482D01*
X010920Y019383D02*
X011530Y019383D01*
X011530Y019285D02*
X010920Y019285D01*
X010920Y019186D02*
X011530Y019186D01*
X011530Y019088D02*
X010920Y019088D01*
X010920Y018989D02*
X011530Y018989D01*
X011530Y018891D02*
X010920Y018891D01*
X010920Y018792D02*
X011530Y018792D01*
X011530Y018694D02*
X010920Y018694D01*
X010908Y018595D02*
X011542Y018595D01*
X011583Y018497D02*
X010867Y018497D01*
X010826Y018398D02*
X011624Y018398D01*
X011709Y018300D02*
X010741Y018300D01*
X010649Y018201D02*
X011807Y018201D01*
X012020Y018103D02*
X010550Y018103D01*
X010452Y018004D02*
X023481Y018004D01*
X023579Y018103D02*
X022250Y018103D01*
X022195Y018080D02*
X021925Y018080D01*
X021675Y018184D01*
X021484Y018375D01*
X021380Y018625D01*
X021380Y019675D01*
X021484Y019925D01*
X021675Y020116D01*
X021925Y020220D01*
X022195Y020220D01*
X022445Y020116D01*
X022636Y019925D01*
X022740Y019675D01*
X022740Y018625D01*
X022636Y018375D01*
X022445Y018184D01*
X022195Y018080D01*
X022463Y018201D02*
X023678Y018201D01*
X023776Y018300D02*
X022561Y018300D01*
X022646Y018398D02*
X023875Y018398D01*
X023973Y018497D02*
X022687Y018497D01*
X022728Y018595D02*
X024072Y018595D01*
X024170Y018694D02*
X022740Y018694D01*
X022740Y018792D02*
X024269Y018792D01*
X024367Y018891D02*
X022740Y018891D01*
X022740Y018989D02*
X024466Y018989D01*
X024564Y019088D02*
X022740Y019088D01*
X022740Y019186D02*
X024663Y019186D01*
X024682Y019205D02*
X021940Y016464D01*
X021836Y016360D01*
X021780Y016224D01*
X021780Y013942D01*
X021753Y013915D01*
X021682Y013743D01*
X021682Y013557D01*
X021753Y013385D01*
X021885Y013253D01*
X022057Y013182D01*
X022159Y013182D01*
X021997Y013020D01*
X020142Y013020D01*
X020115Y013047D01*
X019943Y013118D01*
X019757Y013118D01*
X019585Y013047D01*
X019453Y012915D01*
X019382Y012743D01*
X019382Y012557D01*
X019397Y012520D01*
X017503Y012520D01*
X017518Y012557D01*
X017518Y012743D01*
X017447Y012915D01*
X017315Y013047D01*
X017143Y013118D01*
X016957Y013118D01*
X016785Y013047D01*
X016653Y012915D01*
X016582Y012743D01*
X016582Y012557D01*
X016653Y012385D01*
X016680Y012358D01*
X016680Y012343D01*
X016318Y012705D01*
X016318Y012743D01*
X016247Y012915D01*
X016115Y013047D01*
X015943Y013118D01*
X015757Y013118D01*
X015585Y013047D01*
X015453Y012915D01*
X015382Y012743D01*
X015382Y012557D01*
X015453Y012385D01*
X015585Y012253D01*
X015757Y012182D01*
X015795Y012182D01*
X016457Y011520D01*
X014703Y011520D01*
X013518Y012705D01*
X013518Y012743D01*
X013447Y012915D01*
X013315Y013047D01*
X013143Y013118D01*
X012957Y013118D01*
X012785Y013047D01*
X012653Y012915D01*
X012582Y012743D01*
X012582Y012557D01*
X012653Y012385D01*
X012785Y012253D01*
X012957Y012182D01*
X012995Y012182D01*
X014157Y011020D01*
X014003Y011020D01*
X012318Y012705D01*
X012318Y012743D01*
X012247Y012915D01*
X012115Y013047D01*
X011943Y013118D01*
X011757Y013118D01*
X011585Y013047D01*
X011453Y012915D01*
X011382Y012743D01*
X011382Y012557D01*
X011453Y012385D01*
X011585Y012253D01*
X011757Y012182D01*
X011795Y012182D01*
X013640Y010336D01*
X013776Y010280D01*
X019243Y010280D01*
X019227Y010242D01*
X019227Y008861D01*
X019271Y008754D01*
X019353Y008673D01*
X019459Y008629D01*
X020841Y008629D01*
X020947Y008673D01*
X021029Y008754D01*
X021073Y008861D01*
X021073Y010242D01*
X021057Y010280D01*
X022224Y010280D01*
X022360Y010336D01*
X022464Y010440D01*
X022803Y010780D01*
X024858Y010780D01*
X024885Y010753D01*
X025057Y010682D01*
X025243Y010682D01*
X025415Y010753D01*
X025547Y010885D01*
X025618Y011057D01*
X025618Y011243D01*
X025547Y011415D01*
X025415Y011547D01*
X025243Y011618D01*
X025057Y011618D01*
X024885Y011547D01*
X024858Y011520D01*
X023043Y011520D01*
X024303Y012780D01*
X024858Y012780D01*
X024885Y012753D01*
X025057Y012682D01*
X025243Y012682D01*
X025415Y012753D01*
X025547Y012885D01*
X025618Y013057D01*
X025618Y013243D01*
X025547Y013415D01*
X025415Y013547D01*
X025243Y013618D01*
X025057Y013618D01*
X024885Y013547D01*
X024858Y013520D01*
X024076Y013520D01*
X024020Y013497D01*
X024020Y013780D01*
X024858Y013780D01*
X024885Y013753D01*
X025057Y013682D01*
X025243Y013682D01*
X025415Y013753D01*
X025547Y013885D01*
X025618Y014057D01*
X025618Y014243D01*
X025547Y014415D01*
X025415Y014547D01*
X025243Y014618D01*
X025057Y014618D01*
X024885Y014547D01*
X024858Y014520D01*
X023576Y014520D01*
X023520Y014497D01*
X023520Y014780D01*
X024858Y014780D01*
X024885Y014753D01*
X025057Y014682D01*
X025243Y014682D01*
X025415Y014753D01*
X025547Y014885D01*
X025618Y015057D01*
X025618Y015243D01*
X025547Y015415D01*
X025415Y015547D01*
X025243Y015618D01*
X025057Y015618D01*
X024885Y015547D01*
X024858Y015520D01*
X023076Y015520D01*
X023020Y015497D01*
X025205Y017682D01*
X025243Y017682D01*
X025415Y017753D01*
X025547Y017885D01*
X025618Y018057D01*
X025618Y018243D01*
X025547Y018415D01*
X025415Y018547D01*
X025243Y018618D01*
X025141Y018618D01*
X025205Y018682D01*
X025243Y018682D01*
X025415Y018753D01*
X025547Y018885D01*
X025618Y019057D01*
X025618Y019243D01*
X025547Y019415D01*
X025415Y019547D01*
X025243Y019618D01*
X025057Y019618D01*
X024885Y019547D01*
X024753Y019415D01*
X024682Y019243D01*
X024682Y019205D01*
X024699Y019285D02*
X022740Y019285D01*
X022740Y019383D02*
X024740Y019383D01*
X024820Y019482D02*
X022740Y019482D01*
X022740Y019580D02*
X024965Y019580D01*
X025335Y019580D02*
X027175Y019580D01*
X027107Y019513D02*
X027010Y019277D01*
X027010Y019023D01*
X027107Y018787D01*
X027245Y018650D01*
X027107Y018513D01*
X027010Y018277D01*
X027010Y018023D01*
X027107Y017787D01*
X027287Y017607D01*
X027378Y017570D01*
X027324Y017531D01*
X027269Y017476D01*
X027222Y017412D01*
X027187Y017342D01*
X027162Y017267D01*
X027151Y017198D01*
X027602Y017198D01*
X027602Y017102D01*
X027698Y017102D01*
X027698Y017198D01*
X028149Y017198D01*
X028138Y017267D01*
X028113Y017342D01*
X028078Y017412D01*
X028031Y017476D01*
X027976Y017531D01*
X027922Y017570D01*
X028013Y017607D01*
X028193Y017787D01*
X028290Y018023D01*
X028290Y018277D01*
X028193Y018513D01*
X028055Y018650D01*
X028193Y018787D01*
X028290Y019023D01*
X028290Y019277D01*
X028193Y019513D01*
X028013Y019693D01*
X027777Y019790D01*
X027523Y019790D01*
X027287Y019693D01*
X027107Y019513D01*
X027095Y019482D02*
X025480Y019482D01*
X025560Y019383D02*
X027054Y019383D01*
X027013Y019285D02*
X025601Y019285D01*
X025618Y019186D02*
X027010Y019186D01*
X027010Y019088D02*
X025618Y019088D01*
X025590Y018989D02*
X027024Y018989D01*
X027065Y018891D02*
X025549Y018891D01*
X025454Y018792D02*
X027106Y018792D01*
X027201Y018694D02*
X025271Y018694D01*
X025299Y018595D02*
X027190Y018595D01*
X027101Y018497D02*
X025465Y018497D01*
X025554Y018398D02*
X027060Y018398D01*
X027019Y018300D02*
X025595Y018300D01*
X025618Y018201D02*
X027010Y018201D01*
X027010Y018103D02*
X025618Y018103D01*
X025596Y018004D02*
X027018Y018004D01*
X027059Y017906D02*
X025555Y017906D01*
X025469Y017807D02*
X027099Y017807D01*
X027186Y017709D02*
X025308Y017709D01*
X025133Y017610D02*
X027285Y017610D01*
X027304Y017512D02*
X025035Y017512D01*
X024936Y017413D02*
X027223Y017413D01*
X027178Y017315D02*
X024838Y017315D01*
X024739Y017216D02*
X027154Y017216D01*
X027151Y017102D02*
X027162Y017033D01*
X027187Y016958D01*
X027222Y016888D01*
X027269Y016824D01*
X027324Y016769D01*
X027388Y016722D01*
X027458Y016687D01*
X027533Y016662D01*
X027602Y016651D01*
X027602Y017102D01*
X027151Y017102D01*
X027167Y017019D02*
X024542Y017019D01*
X024444Y016921D02*
X027206Y016921D01*
X027271Y016822D02*
X024345Y016822D01*
X024247Y016724D02*
X027386Y016724D01*
X027458Y016613D02*
X027388Y016578D01*
X027324Y016531D01*
X027269Y016476D01*
X027222Y016412D01*
X027187Y016342D01*
X027162Y016267D01*
X027151Y016198D01*
X027602Y016198D01*
X027602Y016102D01*
X027151Y016102D01*
X027162Y016033D01*
X027187Y015958D01*
X027222Y015888D01*
X027269Y015824D01*
X027324Y015769D01*
X027378Y015730D01*
X027287Y015693D01*
X027107Y015513D01*
X027010Y015277D01*
X027010Y015023D01*
X027107Y014787D01*
X027245Y014650D01*
X027107Y014513D01*
X027010Y014277D01*
X027010Y014023D01*
X027107Y013787D01*
X027245Y013650D01*
X027107Y013513D01*
X027010Y013277D01*
X027010Y013023D01*
X027107Y012787D01*
X027245Y012650D01*
X027107Y012513D01*
X027010Y012277D01*
X027010Y012023D01*
X027107Y011787D01*
X027245Y011650D01*
X027107Y011513D01*
X027010Y011277D01*
X027010Y011023D01*
X027107Y010787D01*
X027245Y010650D01*
X027107Y010513D01*
X027010Y010277D01*
X027010Y010023D01*
X027107Y009787D01*
X027245Y009650D01*
X027107Y009513D01*
X027010Y009277D01*
X027010Y009023D01*
X027107Y008787D01*
X027245Y008650D01*
X027107Y008513D01*
X027010Y008277D01*
X027010Y008023D01*
X027107Y007787D01*
X027287Y007607D01*
X027523Y007510D01*
X027777Y007510D01*
X028013Y007607D01*
X028193Y007787D01*
X028290Y008023D01*
X028290Y008277D01*
X028193Y008513D01*
X028055Y008650D01*
X028193Y008787D01*
X028290Y009023D01*
X028290Y009277D01*
X028193Y009513D01*
X028055Y009650D01*
X028193Y009787D01*
X028290Y010023D01*
X028290Y010277D01*
X028193Y010513D01*
X028055Y010650D01*
X028193Y010787D01*
X028290Y011023D01*
X028290Y011277D01*
X028193Y011513D01*
X028055Y011650D01*
X028193Y011787D01*
X028290Y012023D01*
X028290Y012277D01*
X028193Y012513D01*
X028055Y012650D01*
X028193Y012787D01*
X028290Y013023D01*
X028290Y013277D01*
X028193Y013513D01*
X028055Y013650D01*
X028193Y013787D01*
X028290Y014023D01*
X028290Y014277D01*
X028193Y014513D01*
X028055Y014650D01*
X028193Y014787D01*
X028290Y015023D01*
X028290Y015277D01*
X028193Y015513D01*
X028013Y015693D01*
X027922Y015730D01*
X027976Y015769D01*
X028031Y015824D01*
X028078Y015888D01*
X028113Y015958D01*
X028138Y016033D01*
X028149Y016102D01*
X027698Y016102D01*
X027698Y016198D01*
X028149Y016198D01*
X028138Y016267D01*
X028113Y016342D01*
X028078Y016412D01*
X028031Y016476D01*
X027976Y016531D01*
X027912Y016578D01*
X027842Y016613D01*
X027767Y016638D01*
X027698Y016649D01*
X027698Y016198D01*
X027602Y016198D01*
X027602Y016649D01*
X027533Y016638D01*
X027458Y016613D01*
X027494Y016625D02*
X024148Y016625D01*
X024050Y016527D02*
X027319Y016527D01*
X027234Y016428D02*
X023951Y016428D01*
X023853Y016330D02*
X027183Y016330D01*
X027157Y016231D02*
X023754Y016231D01*
X023656Y016133D02*
X027602Y016133D01*
X027698Y016133D02*
X033010Y016133D01*
X033010Y016231D02*
X028143Y016231D01*
X028117Y016330D02*
X033032Y016330D01*
X033010Y016277D02*
X033010Y016023D01*
X033107Y015787D01*
X033245Y015650D01*
X033107Y015513D01*
X033010Y015277D01*
X033010Y015023D01*
X033107Y014787D01*
X033245Y014650D01*
X033107Y014513D01*
X033010Y014277D01*
X033010Y014023D01*
X033107Y013787D01*
X033245Y013650D01*
X033107Y013513D01*
X033010Y013277D01*
X033010Y013023D01*
X033107Y012787D01*
X033245Y012650D01*
X033107Y012513D01*
X033010Y012277D01*
X033010Y012023D01*
X033107Y011787D01*
X033245Y011650D01*
X033107Y011513D01*
X033010Y011277D01*
X033010Y011023D01*
X033107Y010787D01*
X033245Y010650D01*
X033107Y010513D01*
X033010Y010277D01*
X033010Y010023D01*
X033107Y009787D01*
X033245Y009650D01*
X033107Y009513D01*
X033010Y009277D01*
X033010Y009023D01*
X033107Y008787D01*
X033245Y008650D01*
X033107Y008513D01*
X033010Y008277D01*
X033010Y008033D01*
X031512Y006536D01*
X023486Y006536D01*
X023449Y006627D01*
X023367Y006708D01*
X023260Y006753D01*
X022551Y006753D01*
X022445Y006708D01*
X022363Y006627D01*
X022319Y006520D01*
X022319Y005811D01*
X022363Y005705D01*
X022445Y005623D01*
X022551Y005579D01*
X023260Y005579D01*
X023367Y005623D01*
X023449Y005705D01*
X023486Y005796D01*
X031739Y005796D01*
X031875Y005852D01*
X031979Y005956D01*
X031979Y005956D01*
X033533Y007510D01*
X033777Y007510D01*
X034013Y007607D01*
X034193Y007787D01*
X034290Y008023D01*
X034290Y008277D01*
X034193Y008513D01*
X034055Y008650D01*
X034193Y008787D01*
X034290Y009023D01*
X034290Y009277D01*
X034193Y009513D01*
X034055Y009650D01*
X034185Y009780D01*
X034497Y009780D01*
X034780Y009497D01*
X034780Y007576D01*
X034836Y007440D01*
X034940Y007336D01*
X035440Y006836D01*
X035576Y006780D01*
X036724Y006780D01*
X036860Y006836D01*
X036964Y006940D01*
X037464Y007440D01*
X037520Y007576D01*
X037520Y007686D01*
X037740Y007906D01*
X037740Y008394D01*
X037484Y008650D01*
X037614Y008780D01*
X037724Y008780D01*
X037860Y008836D01*
X038360Y009336D01*
X038464Y009440D01*
X038520Y009576D01*
X038520Y010724D01*
X038464Y010860D01*
X037964Y011360D01*
X037860Y011464D01*
X037724Y011520D01*
X034185Y011520D01*
X034055Y011650D01*
X034193Y011787D01*
X034290Y012023D01*
X034290Y012277D01*
X034193Y012513D01*
X034055Y012650D01*
X034193Y012787D01*
X034290Y013023D01*
X034290Y013277D01*
X034193Y013513D01*
X034055Y013650D01*
X034193Y013787D01*
X034290Y014023D01*
X034290Y014277D01*
X034193Y014513D01*
X034055Y014650D01*
X034193Y014787D01*
X034290Y015023D01*
X034290Y015277D01*
X034193Y015513D01*
X034055Y015650D01*
X034193Y015787D01*
X034290Y016023D01*
X034290Y016277D01*
X034193Y016513D01*
X034055Y016650D01*
X034185Y016780D01*
X034997Y016780D01*
X036780Y014997D01*
X036780Y013442D01*
X036753Y013415D01*
X036682Y013243D01*
X036682Y013057D01*
X036753Y012885D01*
X036885Y012753D01*
X037057Y012682D01*
X037243Y012682D01*
X037415Y012753D01*
X037547Y012885D01*
X037618Y013057D01*
X037618Y013243D01*
X037547Y013415D01*
X037520Y013442D01*
X037520Y015224D01*
X037464Y015360D01*
X035464Y017360D01*
X035360Y017464D01*
X035224Y017520D01*
X034185Y017520D01*
X034013Y017693D01*
X033922Y017730D01*
X033976Y017769D01*
X034031Y017824D01*
X034078Y017888D01*
X034113Y017958D01*
X034138Y018033D01*
X034149Y018102D01*
X033698Y018102D01*
X033698Y018198D01*
X034149Y018198D01*
X034138Y018267D01*
X034113Y018342D01*
X034078Y018412D01*
X034031Y018476D01*
X033976Y018531D01*
X033922Y018570D01*
X034013Y018607D01*
X034193Y018787D01*
X034290Y019023D01*
X034290Y019277D01*
X034193Y019513D01*
X034013Y019693D01*
X033777Y019790D01*
X033523Y019790D01*
X033287Y019693D01*
X033107Y019513D01*
X033010Y019277D01*
X033010Y019023D01*
X033107Y018787D01*
X033287Y018607D01*
X033378Y018570D01*
X033324Y018531D01*
X033269Y018476D01*
X033222Y018412D01*
X033187Y018342D01*
X033162Y018267D01*
X033151Y018198D01*
X033602Y018198D01*
X033602Y018102D01*
X033151Y018102D01*
X033162Y018033D01*
X033187Y017958D01*
X033222Y017888D01*
X033269Y017824D01*
X033324Y017769D01*
X033378Y017730D01*
X033287Y017693D01*
X033107Y017513D01*
X033010Y017277D01*
X033010Y017023D01*
X033107Y016787D01*
X033245Y016650D01*
X033107Y016513D01*
X033010Y016277D01*
X033072Y016428D02*
X028066Y016428D01*
X027981Y016527D02*
X033121Y016527D01*
X033220Y016625D02*
X027806Y016625D01*
X027767Y016662D02*
X027842Y016687D01*
X027912Y016722D01*
X027976Y016769D01*
X028031Y016824D01*
X028078Y016888D01*
X028113Y016958D01*
X028138Y017033D01*
X028149Y017102D01*
X027698Y017102D01*
X027698Y016651D01*
X027767Y016662D01*
X027698Y016625D02*
X027602Y016625D01*
X027602Y016527D02*
X027698Y016527D01*
X027698Y016428D02*
X027602Y016428D01*
X027602Y016330D02*
X027698Y016330D01*
X027698Y016231D02*
X027602Y016231D01*
X027162Y016034D02*
X023557Y016034D01*
X023459Y015936D02*
X027198Y015936D01*
X027259Y015837D02*
X023360Y015837D01*
X023262Y015739D02*
X027366Y015739D01*
X027235Y015640D02*
X023163Y015640D01*
X023065Y015542D02*
X024880Y015542D01*
X025420Y015542D02*
X027136Y015542D01*
X027079Y015443D02*
X025519Y015443D01*
X025576Y015345D02*
X027038Y015345D01*
X027010Y015246D02*
X025617Y015246D01*
X025618Y015148D02*
X027010Y015148D01*
X027010Y015049D02*
X025615Y015049D01*
X025574Y014951D02*
X027040Y014951D01*
X027081Y014852D02*
X025514Y014852D01*
X025416Y014754D02*
X027141Y014754D01*
X027240Y014655D02*
X023520Y014655D01*
X023520Y014557D02*
X024908Y014557D01*
X024884Y014754D02*
X023520Y014754D01*
X023020Y015497D02*
X023020Y015497D01*
X021780Y015542D02*
X008171Y015542D01*
X008223Y015640D02*
X021780Y015640D01*
X021780Y015739D02*
X008264Y015739D01*
X008300Y015837D02*
X021780Y015837D01*
X021780Y015936D02*
X008383Y015936D01*
X008482Y016034D02*
X021780Y016034D01*
X021780Y016133D02*
X008580Y016133D01*
X008679Y016231D02*
X021783Y016231D01*
X021824Y016330D02*
X008777Y016330D01*
X008876Y016428D02*
X021905Y016428D01*
X022003Y016527D02*
X008974Y016527D01*
X009073Y016625D02*
X022102Y016625D01*
X022200Y016724D02*
X009171Y016724D01*
X009270Y016822D02*
X022299Y016822D01*
X022397Y016921D02*
X009368Y016921D01*
X009467Y017019D02*
X022496Y017019D01*
X022594Y017118D02*
X009565Y017118D01*
X009664Y017216D02*
X022693Y017216D01*
X022791Y017315D02*
X009762Y017315D01*
X009861Y017413D02*
X022890Y017413D01*
X022988Y017512D02*
X009959Y017512D01*
X010058Y017610D02*
X023087Y017610D01*
X023185Y017709D02*
X010156Y017709D01*
X010255Y017807D02*
X023284Y017807D01*
X023382Y017906D02*
X010353Y017906D01*
X009246Y018694D02*
X008034Y018694D01*
X008022Y018709D02*
X007958Y018774D01*
X007884Y018827D01*
X007803Y018869D01*
X007716Y018897D01*
X007626Y018911D01*
X007179Y018911D01*
X007179Y018360D01*
X008160Y018360D01*
X008160Y018377D01*
X008146Y018467D01*
X008118Y018554D01*
X008076Y018635D01*
X008022Y018709D01*
X007932Y018792D02*
X009345Y018792D01*
X009443Y018891D02*
X007735Y018891D01*
X008096Y018595D02*
X009148Y018595D01*
X009049Y018497D02*
X008136Y018497D01*
X008157Y018398D02*
X008951Y018398D01*
X008852Y018300D02*
X008160Y018300D01*
X008160Y018302D02*
X007179Y018302D01*
X007179Y017751D01*
X007626Y017751D01*
X007716Y017765D01*
X007803Y017794D01*
X007884Y017835D01*
X007958Y017889D01*
X008022Y017953D01*
X008076Y018027D01*
X008118Y018108D01*
X008146Y018195D01*
X008160Y018285D01*
X008160Y018302D01*
X008147Y018201D02*
X008754Y018201D01*
X008655Y018103D02*
X008115Y018103D01*
X008059Y018004D02*
X008557Y018004D01*
X008458Y017906D02*
X007975Y017906D01*
X007829Y017807D02*
X008360Y017807D01*
X008261Y017709D02*
X005827Y017709D01*
X005826Y017716D02*
X005798Y017803D01*
X005756Y017884D01*
X005703Y017958D01*
X005638Y018022D01*
X005564Y018076D01*
X005483Y018118D01*
X005396Y018146D01*
X005306Y018160D01*
X005289Y018160D01*
X005289Y017179D01*
X005231Y017179D01*
X005231Y017121D01*
X004680Y017121D01*
X004680Y016674D01*
X004695Y016584D01*
X004723Y016497D01*
X004764Y016416D01*
X004818Y016342D01*
X004882Y016278D01*
X004956Y016224D01*
X005038Y016182D01*
X005124Y016154D01*
X005215Y016140D01*
X005231Y016140D01*
X005231Y017121D01*
X005289Y017121D01*
X005289Y016140D01*
X005306Y016140D01*
X005396Y016154D01*
X005483Y016182D01*
X005564Y016224D01*
X005638Y016278D01*
X005703Y016342D01*
X005756Y016416D01*
X005798Y016497D01*
X005826Y016584D01*
X005840Y016674D01*
X005840Y017121D01*
X005289Y017121D01*
X005289Y017179D01*
X005840Y017179D01*
X005840Y017626D01*
X005826Y017716D01*
X005795Y017807D02*
X006471Y017807D01*
X006497Y017794D02*
X006584Y017765D01*
X006674Y017751D01*
X007121Y017751D01*
X007121Y018302D01*
X007179Y018302D01*
X007179Y018360D01*
X007121Y018360D01*
X007121Y018302D01*
X006140Y018302D01*
X006140Y018285D01*
X006154Y018195D01*
X006182Y018108D01*
X006224Y018027D01*
X006278Y017953D01*
X006342Y017889D01*
X006416Y017835D01*
X006497Y017794D01*
X006325Y017906D02*
X005741Y017906D01*
X005656Y018004D02*
X006241Y018004D01*
X006185Y018103D02*
X005512Y018103D01*
X005289Y018103D02*
X005231Y018103D01*
X005231Y018160D02*
X005215Y018160D01*
X005124Y018146D01*
X005038Y018118D01*
X004956Y018076D01*
X004882Y018022D01*
X004818Y017958D01*
X004764Y017884D01*
X004723Y017803D01*
X004695Y017716D01*
X004680Y017626D01*
X004680Y017179D01*
X005231Y017179D01*
X005231Y018160D01*
X005231Y018004D02*
X005289Y018004D01*
X005289Y017906D02*
X005231Y017906D01*
X005231Y017807D02*
X005289Y017807D01*
X005289Y017709D02*
X005231Y017709D01*
X005231Y017610D02*
X005289Y017610D01*
X005289Y017512D02*
X005231Y017512D01*
X005231Y017413D02*
X005289Y017413D01*
X005289Y017315D02*
X005231Y017315D01*
X005231Y017216D02*
X005289Y017216D01*
X005289Y017118D02*
X005231Y017118D01*
X005231Y017019D02*
X005289Y017019D01*
X005289Y016921D02*
X005231Y016921D01*
X005231Y016822D02*
X005289Y016822D01*
X005289Y016724D02*
X005231Y016724D01*
X005231Y016625D02*
X005289Y016625D01*
X005289Y016527D02*
X005231Y016527D01*
X005231Y016428D02*
X005289Y016428D01*
X005289Y016330D02*
X005231Y016330D01*
X005231Y016231D02*
X005289Y016231D01*
X005574Y016231D02*
X006049Y016231D01*
X006008Y016133D02*
X000440Y016133D01*
X000440Y016231D02*
X004946Y016231D01*
X004830Y016330D02*
X000440Y016330D01*
X000440Y016428D02*
X004758Y016428D01*
X004713Y016527D02*
X000440Y016527D01*
X000440Y016625D02*
X004688Y016625D01*
X004680Y016724D02*
X000440Y016724D01*
X000440Y016822D02*
X004680Y016822D01*
X004680Y016921D02*
X000440Y016921D01*
X000440Y017019D02*
X004680Y017019D01*
X004680Y017118D02*
X000440Y017118D01*
X000440Y017216D02*
X004680Y017216D01*
X004680Y017315D02*
X000440Y017315D01*
X000440Y017413D02*
X004680Y017413D01*
X004680Y017512D02*
X000440Y017512D01*
X000440Y017610D02*
X004680Y017610D01*
X004693Y017709D02*
X000440Y017709D01*
X000440Y017807D02*
X004725Y017807D01*
X004780Y017906D02*
X003026Y017906D01*
X002966Y017887D02*
X003088Y017925D01*
X003206Y017973D01*
X003319Y018034D01*
X003425Y018105D01*
X003524Y018186D01*
X003614Y018276D01*
X003695Y018375D01*
X003766Y018481D01*
X003827Y018594D01*
X003875Y018712D01*
X003913Y018834D01*
X003937Y018959D01*
X003950Y019086D01*
X003950Y019100D01*
X002700Y019100D01*
X002700Y019200D01*
X003950Y019200D01*
X003950Y019214D01*
X003937Y019341D01*
X003913Y019466D01*
X003875Y019588D01*
X003827Y019706D01*
X003766Y019819D01*
X003695Y019925D01*
X003614Y020024D01*
X003524Y020114D01*
X003425Y020195D01*
X003319Y020266D01*
X003206Y020327D01*
X003088Y020375D01*
X002966Y020413D01*
X002841Y020437D01*
X002714Y020450D01*
X002700Y020450D01*
X002700Y019200D01*
X002600Y019200D01*
X002600Y020450D01*
X002586Y020450D01*
X002459Y020437D01*
X002334Y020413D01*
X002212Y020375D01*
X002094Y020327D01*
X001981Y020266D01*
X001875Y020195D01*
X001776Y020114D01*
X001686Y020024D01*
X001605Y019925D01*
X001534Y019819D01*
X001473Y019706D01*
X001425Y019588D01*
X001387Y019466D01*
X001363Y019341D01*
X001350Y019214D01*
X001350Y019200D01*
X002600Y019200D01*
X002600Y019100D01*
X002700Y019100D01*
X002700Y017850D01*
X002714Y017850D01*
X002841Y017863D01*
X002966Y017887D01*
X002700Y017906D02*
X002600Y017906D01*
X002600Y017850D02*
X002600Y019100D01*
X001350Y019100D01*
X001350Y019086D01*
X001363Y018959D01*
X001387Y018834D01*
X001425Y018712D01*
X001473Y018594D01*
X001534Y018481D01*
X001605Y018375D01*
X001686Y018276D01*
X001776Y018186D01*
X001875Y018105D01*
X001981Y018034D01*
X002094Y017973D01*
X002212Y017925D01*
X002334Y017887D01*
X002459Y017863D01*
X002586Y017850D01*
X002600Y017850D01*
X002600Y018004D02*
X002700Y018004D01*
X002700Y018103D02*
X002600Y018103D01*
X002600Y018201D02*
X002700Y018201D01*
X002700Y018300D02*
X002600Y018300D01*
X002600Y018398D02*
X002700Y018398D01*
X002700Y018497D02*
X002600Y018497D01*
X002600Y018595D02*
X002700Y018595D01*
X002700Y018694D02*
X002600Y018694D01*
X002600Y018792D02*
X002700Y018792D01*
X002700Y018891D02*
X002600Y018891D01*
X002600Y018989D02*
X002700Y018989D01*
X002700Y019088D02*
X002600Y019088D01*
X002600Y019186D02*
X000440Y019186D01*
X000440Y019088D02*
X001350Y019088D01*
X001360Y018989D02*
X000440Y018989D01*
X000440Y018891D02*
X001376Y018891D01*
X001400Y018792D02*
X000440Y018792D01*
X000440Y018694D02*
X001432Y018694D01*
X001473Y018595D02*
X000440Y018595D01*
X000440Y018497D02*
X001525Y018497D01*
X001589Y018398D02*
X000440Y018398D01*
X000440Y018300D02*
X001666Y018300D01*
X001760Y018201D02*
X000440Y018201D01*
X000440Y018103D02*
X001878Y018103D01*
X002036Y018004D02*
X000440Y018004D01*
X000440Y017906D02*
X002274Y017906D01*
X003264Y018004D02*
X004864Y018004D01*
X005008Y018103D02*
X003422Y018103D01*
X003540Y018201D02*
X006153Y018201D01*
X006140Y018300D02*
X003634Y018300D01*
X003711Y018398D02*
X006143Y018398D01*
X006140Y018377D02*
X006140Y018360D01*
X007121Y018360D01*
X007121Y018911D01*
X006674Y018911D01*
X006584Y018897D01*
X006497Y018869D01*
X006416Y018827D01*
X006342Y018774D01*
X006278Y018709D01*
X006224Y018635D01*
X006182Y018554D01*
X006154Y018467D01*
X006140Y018377D01*
X006164Y018497D02*
X003775Y018497D01*
X003827Y018595D02*
X006204Y018595D01*
X006266Y018694D02*
X003868Y018694D01*
X003900Y018792D02*
X006368Y018792D01*
X006565Y018891D02*
X003924Y018891D01*
X003940Y018989D02*
X009480Y018989D01*
X009480Y019088D02*
X003950Y019088D01*
X003943Y019285D02*
X009518Y019285D01*
X009480Y019186D02*
X002700Y019186D01*
X002700Y019285D02*
X002600Y019285D01*
X002600Y019383D02*
X002700Y019383D01*
X002700Y019482D02*
X002600Y019482D01*
X002600Y019580D02*
X002700Y019580D01*
X002700Y019679D02*
X002600Y019679D01*
X002600Y019777D02*
X002700Y019777D01*
X002700Y019876D02*
X002600Y019876D01*
X002600Y019974D02*
X002700Y019974D01*
X002700Y020073D02*
X002600Y020073D01*
X002600Y020171D02*
X002700Y020171D01*
X002700Y020270D02*
X002600Y020270D01*
X002600Y020368D02*
X002700Y020368D01*
X003106Y020368D02*
X036194Y020368D01*
X036212Y020375D02*
X036094Y020327D01*
X035981Y020266D01*
X035875Y020195D01*
X035776Y020114D01*
X035686Y020024D01*
X035605Y019925D01*
X035534Y019819D01*
X035473Y019706D01*
X035425Y019588D01*
X035387Y019466D01*
X035363Y019341D01*
X035350Y019214D01*
X035350Y019200D01*
X036600Y019200D01*
X036600Y020450D01*
X036586Y020450D01*
X036459Y020437D01*
X036334Y020413D01*
X036212Y020375D01*
X035987Y020270D02*
X003313Y020270D01*
X003455Y020171D02*
X009987Y020171D01*
X009811Y020073D02*
X003566Y020073D01*
X003655Y019974D02*
X009712Y019974D01*
X009643Y019876D02*
X003729Y019876D01*
X003789Y019777D02*
X009602Y019777D01*
X009561Y019679D02*
X003838Y019679D01*
X003878Y019580D02*
X009560Y019580D01*
X009560Y019482D02*
X003908Y019482D01*
X003929Y019383D02*
X009559Y019383D01*
X010768Y019974D02*
X011682Y019974D01*
X011613Y019876D02*
X010837Y019876D01*
X010669Y020073D02*
X011781Y020073D01*
X011957Y020171D02*
X010493Y020171D01*
X012463Y020171D02*
X013927Y020171D01*
X014045Y020220D02*
X013795Y020116D01*
X013604Y019925D01*
X013500Y019675D01*
X013500Y018625D01*
X013604Y018375D01*
X013795Y018184D01*
X014045Y018080D01*
X014315Y018080D01*
X014565Y018184D01*
X014756Y018375D01*
X014860Y018625D01*
X014860Y019675D01*
X014756Y019925D01*
X014565Y020116D01*
X014315Y020220D01*
X014045Y020220D01*
X013751Y020073D02*
X012639Y020073D01*
X012738Y019974D02*
X013652Y019974D01*
X013583Y019876D02*
X012807Y019876D01*
X012848Y019777D02*
X013542Y019777D01*
X013501Y019679D02*
X012889Y019679D01*
X012890Y019580D02*
X013500Y019580D01*
X013500Y019482D02*
X012890Y019482D01*
X012890Y019383D02*
X013500Y019383D01*
X013500Y019285D02*
X012890Y019285D01*
X012890Y019186D02*
X013500Y019186D01*
X013500Y019088D02*
X012890Y019088D01*
X012890Y018989D02*
X013500Y018989D01*
X013500Y018891D02*
X012890Y018891D01*
X012890Y018792D02*
X013500Y018792D01*
X013500Y018694D02*
X012890Y018694D01*
X012878Y018595D02*
X013512Y018595D01*
X013553Y018497D02*
X012837Y018497D01*
X012796Y018398D02*
X013594Y018398D01*
X013679Y018300D02*
X012711Y018300D01*
X012613Y018201D02*
X013777Y018201D01*
X013990Y018103D02*
X012400Y018103D01*
X014370Y018103D02*
X015960Y018103D01*
X016015Y018080D02*
X015765Y018184D01*
X015574Y018375D01*
X015470Y018625D01*
X015470Y019675D01*
X015574Y019925D01*
X015765Y020116D01*
X016015Y020220D01*
X016285Y020220D01*
X016535Y020116D01*
X016726Y019925D01*
X016830Y019675D01*
X016830Y018625D01*
X016726Y018375D01*
X016535Y018184D01*
X016285Y018080D01*
X016015Y018080D01*
X015747Y018201D02*
X014583Y018201D01*
X014681Y018300D02*
X015649Y018300D01*
X015564Y018398D02*
X014766Y018398D01*
X014807Y018497D02*
X015523Y018497D01*
X015482Y018595D02*
X014848Y018595D01*
X014860Y018694D02*
X015470Y018694D01*
X015470Y018792D02*
X014860Y018792D01*
X014860Y018891D02*
X015470Y018891D01*
X015470Y018989D02*
X014860Y018989D01*
X014860Y019088D02*
X015470Y019088D01*
X015470Y019186D02*
X014860Y019186D01*
X014860Y019285D02*
X015470Y019285D01*
X015470Y019383D02*
X014860Y019383D01*
X014860Y019482D02*
X015470Y019482D01*
X015470Y019580D02*
X014860Y019580D01*
X014859Y019679D02*
X015471Y019679D01*
X015512Y019777D02*
X014818Y019777D01*
X014777Y019876D02*
X015553Y019876D01*
X015622Y019974D02*
X014708Y019974D01*
X014609Y020073D02*
X015721Y020073D01*
X015897Y020171D02*
X014433Y020171D01*
X016403Y020171D02*
X017867Y020171D01*
X017985Y020220D02*
X017735Y020116D01*
X017544Y019925D01*
X017440Y019675D01*
X017440Y018625D01*
X017544Y018375D01*
X017735Y018184D01*
X017985Y018080D01*
X018255Y018080D01*
X018505Y018184D01*
X018696Y018375D01*
X018800Y018625D01*
X018800Y019675D01*
X018696Y019925D01*
X018505Y020116D01*
X018255Y020220D01*
X017985Y020220D01*
X017691Y020073D02*
X016579Y020073D01*
X016678Y019974D02*
X017592Y019974D01*
X017523Y019876D02*
X016747Y019876D01*
X016788Y019777D02*
X017482Y019777D01*
X017441Y019679D02*
X016829Y019679D01*
X016830Y019580D02*
X017440Y019580D01*
X017440Y019482D02*
X016830Y019482D01*
X016830Y019383D02*
X017440Y019383D01*
X017440Y019285D02*
X016830Y019285D01*
X016830Y019186D02*
X017440Y019186D01*
X017440Y019088D02*
X016830Y019088D01*
X016830Y018989D02*
X017440Y018989D01*
X017440Y018891D02*
X016830Y018891D01*
X016830Y018792D02*
X017440Y018792D01*
X017440Y018694D02*
X016830Y018694D01*
X016818Y018595D02*
X017452Y018595D01*
X017493Y018497D02*
X016777Y018497D01*
X016736Y018398D02*
X017534Y018398D01*
X017619Y018300D02*
X016651Y018300D01*
X016553Y018201D02*
X017717Y018201D01*
X017930Y018103D02*
X016340Y018103D01*
X018310Y018103D02*
X019900Y018103D01*
X019955Y018080D02*
X019705Y018184D01*
X019514Y018375D01*
X019410Y018625D01*
X019410Y019675D01*
X019514Y019925D01*
X019705Y020116D01*
X019955Y020220D01*
X020225Y020220D01*
X020475Y020116D01*
X020666Y019925D01*
X020770Y019675D01*
X020770Y018625D01*
X020666Y018375D01*
X020475Y018184D01*
X020225Y018080D01*
X019955Y018080D01*
X019687Y018201D02*
X018523Y018201D01*
X018621Y018300D02*
X019589Y018300D01*
X019504Y018398D02*
X018706Y018398D01*
X018747Y018497D02*
X019463Y018497D01*
X019422Y018595D02*
X018788Y018595D01*
X018800Y018694D02*
X019410Y018694D01*
X019410Y018792D02*
X018800Y018792D01*
X018800Y018891D02*
X019410Y018891D01*
X019410Y018989D02*
X018800Y018989D01*
X018800Y019088D02*
X019410Y019088D01*
X019410Y019186D02*
X018800Y019186D01*
X018800Y019285D02*
X019410Y019285D01*
X019410Y019383D02*
X018800Y019383D01*
X018800Y019482D02*
X019410Y019482D01*
X019410Y019580D02*
X018800Y019580D01*
X018799Y019679D02*
X019411Y019679D01*
X019452Y019777D02*
X018758Y019777D01*
X018717Y019876D02*
X019493Y019876D01*
X019562Y019974D02*
X018648Y019974D01*
X018549Y020073D02*
X019661Y020073D01*
X019837Y020171D02*
X018373Y020171D01*
X020343Y020171D02*
X021807Y020171D01*
X021631Y020073D02*
X020519Y020073D01*
X020618Y019974D02*
X021532Y019974D01*
X021463Y019876D02*
X020687Y019876D01*
X020728Y019777D02*
X021422Y019777D01*
X021381Y019679D02*
X020769Y019679D01*
X020770Y019580D02*
X021380Y019580D01*
X021380Y019482D02*
X020770Y019482D01*
X020770Y019383D02*
X021380Y019383D01*
X021380Y019285D02*
X020770Y019285D01*
X020770Y019186D02*
X021380Y019186D01*
X021380Y019088D02*
X020770Y019088D01*
X020770Y018989D02*
X021380Y018989D01*
X021380Y018891D02*
X020770Y018891D01*
X020770Y018792D02*
X021380Y018792D01*
X021380Y018694D02*
X020770Y018694D01*
X020758Y018595D02*
X021392Y018595D01*
X021433Y018497D02*
X020717Y018497D01*
X020676Y018398D02*
X021474Y018398D01*
X021559Y018300D02*
X020591Y018300D01*
X020493Y018201D02*
X021657Y018201D01*
X021870Y018103D02*
X020280Y018103D01*
X022739Y019679D02*
X027273Y019679D01*
X027492Y019777D02*
X022698Y019777D01*
X022657Y019876D02*
X035571Y019876D01*
X035511Y019777D02*
X033808Y019777D01*
X034027Y019679D02*
X035462Y019679D01*
X035422Y019580D02*
X034125Y019580D01*
X034205Y019482D02*
X035392Y019482D01*
X035371Y019383D02*
X034246Y019383D01*
X034287Y019285D02*
X035357Y019285D01*
X035350Y019100D02*
X035350Y019086D01*
X035363Y018959D01*
X035387Y018834D01*
X035425Y018712D01*
X035473Y018594D01*
X035534Y018481D01*
X035605Y018375D01*
X035686Y018276D01*
X035776Y018186D01*
X035875Y018105D01*
X035981Y018034D01*
X036094Y017973D01*
X036212Y017925D01*
X036334Y017887D01*
X036459Y017863D01*
X036586Y017850D01*
X036600Y017850D01*
X036600Y019100D01*
X036700Y019100D01*
X036700Y019200D01*
X037950Y019200D01*
X037950Y019214D01*
X037937Y019341D01*
X037913Y019466D01*
X037875Y019588D01*
X037827Y019706D01*
X037766Y019819D01*
X037695Y019925D01*
X037614Y020024D01*
X037524Y020114D01*
X037425Y020195D01*
X037319Y020266D01*
X037206Y020327D01*
X037088Y020375D01*
X036966Y020413D01*
X036841Y020437D01*
X036714Y020450D01*
X036700Y020450D01*
X036700Y019200D01*
X036600Y019200D01*
X036600Y019100D01*
X035350Y019100D01*
X035350Y019088D02*
X034290Y019088D01*
X034290Y019186D02*
X036600Y019186D01*
X036600Y019088D02*
X036700Y019088D01*
X036700Y019100D02*
X036700Y017850D01*
X036714Y017850D01*
X036841Y017863D01*
X036966Y017887D01*
X037088Y017925D01*
X037206Y017973D01*
X037319Y018034D01*
X037425Y018105D01*
X037524Y018186D01*
X037614Y018276D01*
X037695Y018375D01*
X037766Y018481D01*
X037827Y018594D01*
X037875Y018712D01*
X037913Y018834D01*
X037937Y018959D01*
X037950Y019086D01*
X037950Y019100D01*
X036700Y019100D01*
X036700Y019186D02*
X038852Y019186D01*
X038852Y019088D02*
X037950Y019088D01*
X037940Y018989D02*
X038852Y018989D01*
X038852Y018891D02*
X037924Y018891D01*
X037900Y018792D02*
X038852Y018792D01*
X038852Y018694D02*
X037868Y018694D01*
X037827Y018595D02*
X038852Y018595D01*
X038852Y018497D02*
X037775Y018497D01*
X037711Y018398D02*
X038852Y018398D01*
X038852Y018300D02*
X037634Y018300D01*
X037540Y018201D02*
X038852Y018201D01*
X038852Y018103D02*
X037422Y018103D01*
X037264Y018004D02*
X038852Y018004D01*
X038852Y017906D02*
X037026Y017906D01*
X036700Y017906D02*
X036600Y017906D01*
X036600Y018004D02*
X036700Y018004D01*
X036700Y018103D02*
X036600Y018103D01*
X036600Y018201D02*
X036700Y018201D01*
X036700Y018300D02*
X036600Y018300D01*
X036600Y018398D02*
X036700Y018398D01*
X036700Y018497D02*
X036600Y018497D01*
X036600Y018595D02*
X036700Y018595D01*
X036700Y018694D02*
X036600Y018694D01*
X036600Y018792D02*
X036700Y018792D01*
X036700Y018891D02*
X036600Y018891D01*
X036600Y018989D02*
X036700Y018989D01*
X036700Y019285D02*
X036600Y019285D01*
X036600Y019383D02*
X036700Y019383D01*
X036700Y019482D02*
X036600Y019482D01*
X036600Y019580D02*
X036700Y019580D01*
X036700Y019679D02*
X036600Y019679D01*
X036600Y019777D02*
X036700Y019777D01*
X036700Y019876D02*
X036600Y019876D01*
X036600Y019974D02*
X036700Y019974D01*
X036700Y020073D02*
X036600Y020073D01*
X036600Y020171D02*
X036700Y020171D01*
X036700Y020270D02*
X036600Y020270D01*
X036600Y020368D02*
X036700Y020368D01*
X037106Y020368D02*
X038852Y020368D01*
X038852Y020270D02*
X037313Y020270D01*
X037455Y020171D02*
X038852Y020171D01*
X038852Y020073D02*
X037566Y020073D01*
X037655Y019974D02*
X038852Y019974D01*
X038852Y019876D02*
X037729Y019876D01*
X037789Y019777D02*
X038852Y019777D01*
X038852Y019679D02*
X037838Y019679D01*
X037878Y019580D02*
X038852Y019580D01*
X038852Y019482D02*
X037908Y019482D01*
X037929Y019383D02*
X038852Y019383D01*
X038852Y019285D02*
X037943Y019285D01*
X038852Y020467D02*
X000440Y020467D01*
X000440Y020565D02*
X038852Y020565D01*
X038852Y020664D02*
X000440Y020664D01*
X000440Y020762D02*
X038852Y020762D01*
X038852Y020861D02*
X000440Y020861D01*
X000440Y020959D02*
X038852Y020959D01*
X038852Y021058D02*
X000440Y021058D01*
X000440Y021156D02*
X038852Y021156D01*
X038852Y021230D02*
X000440Y021230D01*
X000440Y000440D01*
X038852Y000440D01*
X038852Y021230D01*
X035845Y020171D02*
X022313Y020171D01*
X022489Y020073D02*
X035734Y020073D01*
X035645Y019974D02*
X022588Y019974D01*
X024641Y017118D02*
X027602Y017118D01*
X027698Y017118D02*
X033010Y017118D01*
X033010Y017216D02*
X028146Y017216D01*
X028122Y017315D02*
X033025Y017315D01*
X033066Y017413D02*
X028077Y017413D01*
X027996Y017512D02*
X033107Y017512D01*
X033205Y017610D02*
X028015Y017610D01*
X028114Y017709D02*
X033326Y017709D01*
X033286Y017807D02*
X028201Y017807D01*
X028241Y017906D02*
X033213Y017906D01*
X033172Y018004D02*
X028282Y018004D01*
X028290Y018103D02*
X033602Y018103D01*
X033698Y018103D02*
X035878Y018103D01*
X035760Y018201D02*
X034148Y018201D01*
X034127Y018300D02*
X035666Y018300D01*
X035589Y018398D02*
X034085Y018398D01*
X034011Y018497D02*
X035525Y018497D01*
X035473Y018595D02*
X033983Y018595D01*
X034099Y018694D02*
X035432Y018694D01*
X035400Y018792D02*
X034194Y018792D01*
X034235Y018891D02*
X035376Y018891D01*
X035360Y018989D02*
X034276Y018989D01*
X033317Y018595D02*
X028110Y018595D01*
X028099Y018694D02*
X033201Y018694D01*
X033106Y018792D02*
X028194Y018792D01*
X028235Y018891D02*
X033065Y018891D01*
X033024Y018989D02*
X028276Y018989D01*
X028290Y019088D02*
X033010Y019088D01*
X033010Y019186D02*
X028290Y019186D01*
X028287Y019285D02*
X033013Y019285D01*
X033054Y019383D02*
X028246Y019383D01*
X028205Y019482D02*
X033095Y019482D01*
X033175Y019580D02*
X028125Y019580D01*
X028027Y019679D02*
X033273Y019679D01*
X033492Y019777D02*
X027808Y019777D01*
X028199Y018497D02*
X033289Y018497D01*
X033215Y018398D02*
X028240Y018398D01*
X028281Y018300D02*
X033173Y018300D01*
X033152Y018201D02*
X028290Y018201D01*
X028133Y017019D02*
X033011Y017019D01*
X033052Y016921D02*
X028094Y016921D01*
X028029Y016822D02*
X033093Y016822D01*
X033171Y016724D02*
X027914Y016724D01*
X027698Y016724D02*
X027602Y016724D01*
X027602Y016822D02*
X027698Y016822D01*
X027698Y016921D02*
X027602Y016921D01*
X027602Y017019D02*
X027698Y017019D01*
X028138Y016034D02*
X033010Y016034D01*
X033046Y015936D02*
X028102Y015936D01*
X028041Y015837D02*
X033087Y015837D01*
X033156Y015739D02*
X027934Y015739D01*
X028065Y015640D02*
X033235Y015640D01*
X033136Y015542D02*
X028164Y015542D01*
X028221Y015443D02*
X033079Y015443D01*
X033038Y015345D02*
X028262Y015345D01*
X028290Y015246D02*
X033010Y015246D01*
X033010Y015148D02*
X028290Y015148D01*
X028290Y015049D02*
X033010Y015049D01*
X033040Y014951D02*
X028260Y014951D01*
X028219Y014852D02*
X033081Y014852D01*
X033141Y014754D02*
X028159Y014754D01*
X028060Y014655D02*
X033240Y014655D01*
X033151Y014557D02*
X028149Y014557D01*
X028215Y014458D02*
X033085Y014458D01*
X033044Y014360D02*
X028256Y014360D01*
X028290Y014261D02*
X033010Y014261D01*
X033010Y014163D02*
X028290Y014163D01*
X028290Y014064D02*
X033010Y014064D01*
X033034Y013966D02*
X028266Y013966D01*
X028226Y013867D02*
X033074Y013867D01*
X033126Y013769D02*
X028174Y013769D01*
X028075Y013670D02*
X033225Y013670D01*
X033166Y013572D02*
X028134Y013572D01*
X028209Y013473D02*
X033091Y013473D01*
X033050Y013375D02*
X028250Y013375D01*
X028290Y013276D02*
X033010Y013276D01*
X033010Y013178D02*
X028290Y013178D01*
X028290Y013079D02*
X033010Y013079D01*
X033027Y012981D02*
X028273Y012981D01*
X028232Y012882D02*
X033068Y012882D01*
X033111Y012784D02*
X028189Y012784D01*
X028090Y012685D02*
X033210Y012685D01*
X033181Y012587D02*
X028119Y012587D01*
X028203Y012488D02*
X033097Y012488D01*
X033057Y012390D02*
X028243Y012390D01*
X028284Y012291D02*
X033016Y012291D01*
X033010Y012193D02*
X028290Y012193D01*
X028290Y012094D02*
X033010Y012094D01*
X033021Y011996D02*
X028279Y011996D01*
X028238Y011897D02*
X033062Y011897D01*
X033103Y011799D02*
X028197Y011799D01*
X028105Y011700D02*
X033195Y011700D01*
X033196Y011602D02*
X028104Y011602D01*
X028196Y011503D02*
X033104Y011503D01*
X033063Y011405D02*
X028237Y011405D01*
X028278Y011306D02*
X033022Y011306D01*
X033010Y011208D02*
X028290Y011208D01*
X028290Y011109D02*
X033010Y011109D01*
X033015Y011011D02*
X028285Y011011D01*
X028244Y010912D02*
X033056Y010912D01*
X033097Y010814D02*
X028203Y010814D01*
X028120Y010715D02*
X033180Y010715D01*
X033211Y010617D02*
X028089Y010617D01*
X028187Y010518D02*
X033113Y010518D01*
X033069Y010420D02*
X028231Y010420D01*
X028272Y010321D02*
X033028Y010321D01*
X033010Y010223D02*
X028290Y010223D01*
X028290Y010124D02*
X033010Y010124D01*
X033010Y010026D02*
X028290Y010026D01*
X028250Y009927D02*
X033050Y009927D01*
X033090Y009829D02*
X028210Y009829D01*
X028135Y009730D02*
X033165Y009730D01*
X033226Y009632D02*
X028074Y009632D01*
X028172Y009533D02*
X033128Y009533D01*
X033075Y009435D02*
X028225Y009435D01*
X028266Y009336D02*
X033034Y009336D01*
X033010Y009238D02*
X028290Y009238D01*
X028290Y009139D02*
X033010Y009139D01*
X033010Y009041D02*
X028290Y009041D01*
X028257Y008942D02*
X033043Y008942D01*
X033084Y008844D02*
X028216Y008844D01*
X028150Y008745D02*
X033150Y008745D01*
X033241Y008647D02*
X028059Y008647D01*
X028157Y008548D02*
X033143Y008548D01*
X033081Y008450D02*
X028219Y008450D01*
X028259Y008351D02*
X033041Y008351D01*
X033010Y008253D02*
X028290Y008253D01*
X028290Y008154D02*
X033010Y008154D01*
X033010Y008056D02*
X028290Y008056D01*
X028263Y007957D02*
X032934Y007957D01*
X032835Y007859D02*
X028222Y007859D01*
X028165Y007760D02*
X032737Y007760D01*
X032638Y007662D02*
X028067Y007662D01*
X027905Y007563D02*
X032540Y007563D01*
X032441Y007465D02*
X024988Y007465D01*
X025086Y007563D02*
X027395Y007563D01*
X027233Y007662D02*
X025185Y007662D01*
X025205Y007682D02*
X025243Y007682D01*
X025415Y007753D01*
X025547Y007885D01*
X025618Y008057D01*
X025618Y008243D01*
X025547Y008415D01*
X025415Y008547D01*
X025243Y008618D01*
X025057Y008618D01*
X024885Y008547D01*
X024753Y008415D01*
X024682Y008243D01*
X024682Y008205D01*
X023997Y007520D01*
X022076Y007520D01*
X021940Y007464D01*
X021836Y007360D01*
X021836Y007360D01*
X021012Y006536D01*
X017778Y006536D01*
X017740Y006627D01*
X017658Y006708D01*
X017590Y006737D01*
X017614Y006761D01*
X017634Y006795D01*
X017644Y006833D01*
X017644Y007102D01*
X017246Y007102D01*
X017246Y007198D01*
X017644Y007198D01*
X017644Y007467D01*
X017634Y007505D01*
X017614Y007539D01*
X017590Y007563D01*
X024040Y007563D01*
X024138Y007662D02*
X017728Y007662D01*
X017740Y007673D02*
X017778Y007764D01*
X021708Y007764D01*
X021844Y007821D01*
X022459Y008436D01*
X022459Y008183D01*
X022857Y008183D01*
X022857Y008086D01*
X022459Y008086D01*
X022459Y007818D01*
X022469Y007780D01*
X022489Y007745D01*
X022517Y007717D01*
X022551Y007698D01*
X022589Y007687D01*
X022857Y007687D01*
X022857Y008086D01*
X022954Y008086D01*
X022954Y007687D01*
X023223Y007687D01*
X023261Y007698D01*
X023295Y007717D01*
X023323Y007745D01*
X023343Y007780D01*
X023353Y007818D01*
X023353Y008086D01*
X022954Y008086D01*
X022954Y008183D01*
X022857Y008183D01*
X022857Y008581D01*
X022604Y008581D01*
X022803Y008780D01*
X024858Y008780D01*
X024885Y008753D01*
X025057Y008682D01*
X025243Y008682D01*
X025415Y008753D01*
X025547Y008885D01*
X025618Y009057D01*
X025618Y009243D01*
X025547Y009415D01*
X025415Y009547D01*
X025243Y009618D01*
X025057Y009618D01*
X024885Y009547D01*
X024858Y009520D01*
X022576Y009520D01*
X022440Y009464D01*
X022336Y009360D01*
X021481Y008504D01*
X017778Y008504D01*
X017740Y008595D01*
X017658Y008677D01*
X017552Y008721D01*
X016843Y008721D01*
X016736Y008677D01*
X016655Y008595D01*
X016610Y008489D01*
X016610Y007780D01*
X016655Y007673D01*
X016736Y007592D01*
X016805Y007563D01*
X016780Y007539D01*
X016761Y007505D01*
X016750Y007467D01*
X016750Y007198D01*
X017149Y007198D01*
X017149Y007102D01*
X016750Y007102D01*
X016750Y006833D01*
X016761Y006795D01*
X016780Y006761D01*
X016805Y006737D01*
X016736Y006708D01*
X016655Y006627D01*
X016610Y006520D01*
X016610Y005811D01*
X016655Y005705D01*
X016736Y005623D01*
X016843Y005579D01*
X017552Y005579D01*
X017658Y005623D01*
X017740Y005705D01*
X017778Y005796D01*
X021239Y005796D01*
X021375Y005852D01*
X022303Y006780D01*
X024224Y006780D01*
X024360Y006836D01*
X025205Y007682D01*
X025422Y007760D02*
X027135Y007760D01*
X027078Y007859D02*
X025521Y007859D01*
X025577Y007957D02*
X027037Y007957D01*
X027010Y008056D02*
X025618Y008056D01*
X025618Y008154D02*
X027010Y008154D01*
X027010Y008253D02*
X025614Y008253D01*
X025573Y008351D02*
X027041Y008351D01*
X027081Y008450D02*
X025512Y008450D01*
X025412Y008548D02*
X027143Y008548D01*
X027241Y008647D02*
X022670Y008647D01*
X022768Y008745D02*
X024904Y008745D01*
X024888Y008548D02*
X023298Y008548D01*
X023295Y008551D02*
X023261Y008571D01*
X023223Y008581D01*
X022954Y008581D01*
X022954Y008183D01*
X023353Y008183D01*
X023353Y008451D01*
X023343Y008489D01*
X023323Y008523D01*
X023295Y008551D01*
X023353Y008450D02*
X024788Y008450D01*
X024727Y008351D02*
X023353Y008351D01*
X023353Y008253D02*
X024686Y008253D01*
X024631Y008154D02*
X022954Y008154D01*
X022857Y008154D02*
X022177Y008154D01*
X022079Y008056D02*
X022459Y008056D01*
X022459Y007957D02*
X021980Y007957D01*
X021882Y007859D02*
X022459Y007859D01*
X022481Y007760D02*
X017776Y007760D01*
X017740Y007673D02*
X017658Y007592D01*
X017590Y007563D01*
X017644Y007465D02*
X021943Y007465D01*
X021843Y007366D02*
X017644Y007366D01*
X017644Y007268D02*
X021744Y007268D01*
X021646Y007169D02*
X017246Y007169D01*
X017149Y007169D02*
X000440Y007169D01*
X000440Y007071D02*
X016750Y007071D01*
X016750Y006972D02*
X000440Y006972D01*
X000440Y006874D02*
X016750Y006874D01*
X016772Y006775D02*
X000440Y006775D01*
X000440Y006677D02*
X016704Y006677D01*
X016634Y006578D02*
X000440Y006578D01*
X000440Y006480D02*
X016610Y006480D01*
X016610Y006381D02*
X000440Y006381D01*
X000440Y006283D02*
X016610Y006283D01*
X016610Y006184D02*
X000440Y006184D01*
X000440Y006086D02*
X016610Y006086D01*
X016610Y005987D02*
X000440Y005987D01*
X000440Y005889D02*
X016610Y005889D01*
X016619Y005790D02*
X000440Y005790D01*
X000440Y005692D02*
X016668Y005692D01*
X016809Y005593D02*
X000440Y005593D01*
X000440Y005495D02*
X019250Y005495D01*
X019271Y005546D02*
X019227Y005439D01*
X019227Y004058D01*
X019271Y003951D01*
X019353Y003870D01*
X019459Y003825D01*
X020841Y003825D01*
X020947Y003870D01*
X021029Y003951D01*
X021073Y004058D01*
X021073Y005439D01*
X021029Y005546D01*
X020947Y005627D01*
X020841Y005671D01*
X019459Y005671D01*
X019353Y005627D01*
X019271Y005546D01*
X019318Y005593D02*
X017586Y005593D01*
X017727Y005692D02*
X022376Y005692D01*
X022328Y005790D02*
X017775Y005790D01*
X019227Y005396D02*
X000440Y005396D01*
X000440Y005298D02*
X019227Y005298D01*
X019227Y005199D02*
X000440Y005199D01*
X000440Y005101D02*
X019227Y005101D01*
X019227Y005002D02*
X000440Y005002D01*
X000440Y004904D02*
X019227Y004904D01*
X019227Y004805D02*
X000440Y004805D01*
X000440Y004707D02*
X019227Y004707D01*
X019227Y004608D02*
X000440Y004608D01*
X000440Y004510D02*
X019227Y004510D01*
X019227Y004411D02*
X000440Y004411D01*
X000440Y004313D02*
X019227Y004313D01*
X019227Y004214D02*
X000440Y004214D01*
X000440Y004116D02*
X019227Y004116D01*
X019244Y004017D02*
X000440Y004017D01*
X000440Y003919D02*
X002364Y003919D01*
X002334Y003913D02*
X002459Y003937D01*
X002586Y003950D01*
X002600Y003950D01*
X002600Y002700D01*
X002700Y002700D01*
X003950Y002700D01*
X003950Y002714D01*
X003937Y002841D01*
X003913Y002966D01*
X003875Y003088D01*
X003827Y003206D01*
X003766Y003319D01*
X003695Y003425D01*
X003614Y003524D01*
X003524Y003614D01*
X003425Y003695D01*
X003319Y003766D01*
X003206Y003827D01*
X003088Y003875D01*
X002966Y003913D01*
X002841Y003937D01*
X002714Y003950D01*
X002700Y003950D01*
X002700Y002700D01*
X002700Y002600D01*
X003950Y002600D01*
X003950Y002586D01*
X003937Y002459D01*
X003913Y002334D01*
X003875Y002212D01*
X003827Y002094D01*
X003766Y001981D01*
X003695Y001875D01*
X003614Y001776D01*
X003524Y001686D01*
X003425Y001605D01*
X003319Y001534D01*
X003206Y001473D01*
X003088Y001425D01*
X002966Y001387D01*
X002841Y001363D01*
X002714Y001350D01*
X002700Y001350D01*
X002700Y002600D01*
X002600Y002600D01*
X002600Y001350D01*
X002586Y001350D01*
X002459Y001363D01*
X002334Y001387D01*
X002212Y001425D01*
X002094Y001473D01*
X001981Y001534D01*
X001875Y001605D01*
X001776Y001686D01*
X001686Y001776D01*
X001605Y001875D01*
X001534Y001981D01*
X001473Y002094D01*
X001425Y002212D01*
X001387Y002334D01*
X001363Y002459D01*
X001350Y002586D01*
X001350Y002600D01*
X002600Y002600D01*
X002600Y002700D01*
X001350Y002700D01*
X001350Y002714D01*
X001363Y002841D01*
X001387Y002966D01*
X001425Y003088D01*
X001473Y003206D01*
X001534Y003319D01*
X001605Y003425D01*
X001686Y003524D01*
X001776Y003614D01*
X001875Y003695D01*
X001981Y003766D01*
X002094Y003827D01*
X002212Y003875D01*
X002334Y003913D01*
X002600Y003919D02*
X002700Y003919D01*
X002700Y003820D02*
X002600Y003820D01*
X002600Y003722D02*
X002700Y003722D01*
X002700Y003623D02*
X002600Y003623D01*
X002600Y003525D02*
X002700Y003525D01*
X002700Y003426D02*
X002600Y003426D01*
X002600Y003328D02*
X002700Y003328D01*
X002700Y003229D02*
X002600Y003229D01*
X002600Y003131D02*
X002700Y003131D01*
X002700Y003032D02*
X002600Y003032D01*
X002600Y002934D02*
X002700Y002934D01*
X002700Y002835D02*
X002600Y002835D01*
X002600Y002737D02*
X002700Y002737D01*
X002700Y002638D02*
X036600Y002638D01*
X036600Y002600D02*
X036600Y002700D01*
X036600Y003950D01*
X036586Y003950D01*
X036459Y003937D01*
X036334Y003913D01*
X036212Y003875D01*
X036094Y003827D01*
X035981Y003766D01*
X035875Y003695D01*
X035776Y003614D01*
X035686Y003524D01*
X035605Y003425D01*
X035534Y003319D01*
X035473Y003206D01*
X035425Y003088D01*
X035387Y002966D01*
X035363Y002841D01*
X035350Y002714D01*
X035350Y002700D01*
X036600Y002700D01*
X036700Y002700D01*
X037950Y002700D01*
X037950Y002714D01*
X037937Y002841D01*
X037913Y002966D01*
X037875Y003088D01*
X037827Y003206D01*
X037766Y003319D01*
X037695Y003425D01*
X037614Y003524D01*
X037524Y003614D01*
X037425Y003695D01*
X037319Y003766D01*
X037206Y003827D01*
X037088Y003875D01*
X036966Y003913D01*
X036841Y003937D01*
X036714Y003950D01*
X036700Y003950D01*
X036700Y002700D01*
X036700Y002600D01*
X037950Y002600D01*
X037950Y002586D01*
X037937Y002459D01*
X037913Y002334D01*
X037875Y002212D01*
X037827Y002094D01*
X037766Y001981D01*
X037695Y001875D01*
X037614Y001776D01*
X037524Y001686D01*
X037425Y001605D01*
X037319Y001534D01*
X037206Y001473D01*
X037088Y001425D01*
X036966Y001387D01*
X036841Y001363D01*
X036714Y001350D01*
X036700Y001350D01*
X036700Y002600D01*
X036600Y002600D01*
X036600Y001350D01*
X036586Y001350D01*
X036459Y001363D01*
X036334Y001387D01*
X036212Y001425D01*
X036094Y001473D01*
X035981Y001534D01*
X035875Y001605D01*
X035776Y001686D01*
X035686Y001776D01*
X035605Y001875D01*
X035534Y001981D01*
X035473Y002094D01*
X035425Y002212D01*
X035387Y002334D01*
X035363Y002459D01*
X035350Y002586D01*
X035350Y002600D01*
X036600Y002600D01*
X036600Y002540D02*
X036700Y002540D01*
X036700Y002638D02*
X038852Y002638D01*
X038852Y002540D02*
X037945Y002540D01*
X037934Y002441D02*
X038852Y002441D01*
X038852Y002343D02*
X037914Y002343D01*
X037885Y002244D02*
X038852Y002244D01*
X038852Y002146D02*
X037848Y002146D01*
X037802Y002047D02*
X038852Y002047D01*
X038852Y001949D02*
X037745Y001949D01*
X037675Y001850D02*
X038852Y001850D01*
X038852Y001752D02*
X037590Y001752D01*
X037484Y001653D02*
X038852Y001653D01*
X038852Y001555D02*
X037350Y001555D01*
X037165Y001456D02*
X038852Y001456D01*
X038852Y001358D02*
X036790Y001358D01*
X036700Y001358D02*
X036600Y001358D01*
X036509Y001358D02*
X002790Y001358D01*
X002700Y001358D02*
X002600Y001358D01*
X002509Y001358D02*
X000440Y001358D01*
X000440Y001456D02*
X002135Y001456D01*
X001950Y001555D02*
X000440Y001555D01*
X000440Y001653D02*
X001816Y001653D01*
X001710Y001752D02*
X000440Y001752D01*
X000440Y001850D02*
X001625Y001850D01*
X001555Y001949D02*
X000440Y001949D01*
X000440Y002047D02*
X001498Y002047D01*
X001452Y002146D02*
X000440Y002146D01*
X000440Y002244D02*
X001415Y002244D01*
X001386Y002343D02*
X000440Y002343D01*
X000440Y002441D02*
X001366Y002441D01*
X001355Y002540D02*
X000440Y002540D01*
X000440Y002638D02*
X002600Y002638D01*
X002600Y002540D02*
X002700Y002540D01*
X002700Y002441D02*
X002600Y002441D01*
X002600Y002343D02*
X002700Y002343D01*
X002700Y002244D02*
X002600Y002244D01*
X002600Y002146D02*
X002700Y002146D01*
X002700Y002047D02*
X002600Y002047D01*
X002600Y001949D02*
X002700Y001949D01*
X002700Y001850D02*
X002600Y001850D01*
X002600Y001752D02*
X002700Y001752D01*
X002700Y001653D02*
X002600Y001653D01*
X002600Y001555D02*
X002700Y001555D01*
X002700Y001456D02*
X002600Y001456D01*
X003165Y001456D02*
X036135Y001456D01*
X035950Y001555D02*
X003350Y001555D01*
X003484Y001653D02*
X035816Y001653D01*
X035710Y001752D02*
X003590Y001752D01*
X003675Y001850D02*
X035625Y001850D01*
X035555Y001949D02*
X003745Y001949D01*
X003802Y002047D02*
X035498Y002047D01*
X035452Y002146D02*
X003848Y002146D01*
X003885Y002244D02*
X035415Y002244D01*
X035386Y002343D02*
X003914Y002343D01*
X003934Y002441D02*
X035366Y002441D01*
X035355Y002540D02*
X003945Y002540D01*
X003948Y002737D02*
X035352Y002737D01*
X035362Y002835D02*
X003938Y002835D01*
X003919Y002934D02*
X035381Y002934D01*
X035407Y003032D02*
X003893Y003032D01*
X003858Y003131D02*
X035442Y003131D01*
X035485Y003229D02*
X003815Y003229D01*
X003761Y003328D02*
X035539Y003328D01*
X035605Y003426D02*
X003695Y003426D01*
X003614Y003525D02*
X035686Y003525D01*
X035786Y003623D02*
X003514Y003623D01*
X003386Y003722D02*
X035914Y003722D01*
X036081Y003820D02*
X003219Y003820D01*
X002936Y003919D02*
X019304Y003919D01*
X020996Y003919D02*
X036364Y003919D01*
X036600Y003919D02*
X036700Y003919D01*
X036700Y003820D02*
X036600Y003820D01*
X036600Y003722D02*
X036700Y003722D01*
X036700Y003623D02*
X036600Y003623D01*
X036600Y003525D02*
X036700Y003525D01*
X036700Y003426D02*
X036600Y003426D01*
X036600Y003328D02*
X036700Y003328D01*
X036700Y003229D02*
X036600Y003229D01*
X036600Y003131D02*
X036700Y003131D01*
X036700Y003032D02*
X036600Y003032D01*
X036600Y002934D02*
X036700Y002934D01*
X036700Y002835D02*
X036600Y002835D01*
X036600Y002737D02*
X036700Y002737D01*
X036700Y002441D02*
X036600Y002441D01*
X036600Y002343D02*
X036700Y002343D01*
X036700Y002244D02*
X036600Y002244D01*
X036600Y002146D02*
X036700Y002146D01*
X036700Y002047D02*
X036600Y002047D01*
X036600Y001949D02*
X036700Y001949D01*
X036700Y001850D02*
X036600Y001850D01*
X036600Y001752D02*
X036700Y001752D01*
X036700Y001653D02*
X036600Y001653D01*
X036600Y001555D02*
X036700Y001555D01*
X036700Y001456D02*
X036600Y001456D01*
X038852Y001259D02*
X000440Y001259D01*
X000440Y001161D02*
X038852Y001161D01*
X038852Y001062D02*
X000440Y001062D01*
X000440Y000964D02*
X038852Y000964D01*
X038852Y000865D02*
X000440Y000865D01*
X000440Y000767D02*
X038852Y000767D01*
X038852Y000668D02*
X000440Y000668D01*
X000440Y000570D02*
X038852Y000570D01*
X038852Y000471D02*
X000440Y000471D01*
X000440Y002737D02*
X001352Y002737D01*
X001362Y002835D02*
X000440Y002835D01*
X000440Y002934D02*
X001381Y002934D01*
X001407Y003032D02*
X000440Y003032D01*
X000440Y003131D02*
X001442Y003131D01*
X001485Y003229D02*
X000440Y003229D01*
X000440Y003328D02*
X001539Y003328D01*
X001605Y003426D02*
X000440Y003426D01*
X000440Y003525D02*
X001686Y003525D01*
X001786Y003623D02*
X000440Y003623D01*
X000440Y003722D02*
X001914Y003722D01*
X002081Y003820D02*
X000440Y003820D01*
X000440Y007268D02*
X016750Y007268D01*
X016750Y007366D02*
X000440Y007366D01*
X000440Y007465D02*
X016750Y007465D01*
X016804Y007563D02*
X000440Y007563D01*
X000440Y007662D02*
X016666Y007662D01*
X016619Y007760D02*
X000440Y007760D01*
X000440Y007859D02*
X016610Y007859D01*
X016610Y007957D02*
X000440Y007957D01*
X000440Y008056D02*
X016610Y008056D01*
X016610Y008154D02*
X000440Y008154D01*
X000440Y008253D02*
X016610Y008253D01*
X016610Y008351D02*
X000440Y008351D01*
X000440Y008450D02*
X016610Y008450D01*
X016635Y008548D02*
X000440Y008548D01*
X000440Y008647D02*
X016706Y008647D01*
X017689Y008647D02*
X019416Y008647D01*
X019280Y008745D02*
X000440Y008745D01*
X000440Y008844D02*
X019234Y008844D01*
X019227Y008942D02*
X000440Y008942D01*
X000440Y009041D02*
X019227Y009041D01*
X019227Y009139D02*
X000440Y009139D01*
X000440Y009238D02*
X019227Y009238D01*
X019227Y009336D02*
X000440Y009336D01*
X000440Y009435D02*
X019227Y009435D01*
X019227Y009533D02*
X000440Y009533D01*
X000440Y009632D02*
X019227Y009632D01*
X019227Y009730D02*
X000440Y009730D01*
X000440Y009829D02*
X019227Y009829D01*
X019227Y009927D02*
X000440Y009927D01*
X000440Y010026D02*
X019227Y010026D01*
X019227Y010124D02*
X000440Y010124D01*
X000440Y010223D02*
X019227Y010223D01*
X021073Y010223D02*
X027010Y010223D01*
X027010Y010124D02*
X021073Y010124D01*
X021073Y010026D02*
X027010Y010026D01*
X027050Y009927D02*
X021073Y009927D01*
X021073Y009829D02*
X027090Y009829D01*
X027165Y009730D02*
X021073Y009730D01*
X021073Y009632D02*
X027226Y009632D01*
X027128Y009533D02*
X025429Y009533D01*
X025527Y009435D02*
X027075Y009435D01*
X027034Y009336D02*
X025580Y009336D01*
X025618Y009238D02*
X027010Y009238D01*
X027010Y009139D02*
X025618Y009139D01*
X025611Y009041D02*
X027010Y009041D01*
X027043Y008942D02*
X025571Y008942D01*
X025506Y008844D02*
X027084Y008844D01*
X027150Y008745D02*
X025396Y008745D01*
X024871Y009533D02*
X021073Y009533D01*
X021073Y009435D02*
X022411Y009435D01*
X022313Y009336D02*
X021073Y009336D01*
X021073Y009238D02*
X022214Y009238D01*
X022116Y009139D02*
X021073Y009139D01*
X021073Y009041D02*
X022017Y009041D01*
X021919Y008942D02*
X021073Y008942D01*
X021066Y008844D02*
X021820Y008844D01*
X021722Y008745D02*
X021020Y008745D01*
X020884Y008647D02*
X021623Y008647D01*
X021525Y008548D02*
X017760Y008548D01*
X017644Y007071D02*
X021547Y007071D01*
X021449Y006972D02*
X017644Y006972D01*
X017644Y006874D02*
X021350Y006874D01*
X021252Y006775D02*
X017622Y006775D01*
X017690Y006677D02*
X021153Y006677D01*
X021055Y006578D02*
X017760Y006578D01*
X020982Y005593D02*
X022517Y005593D01*
X022319Y005889D02*
X021412Y005889D01*
X021510Y005987D02*
X022319Y005987D01*
X022319Y006086D02*
X021609Y006086D01*
X021707Y006184D02*
X022319Y006184D01*
X022319Y006283D02*
X021806Y006283D01*
X021904Y006381D02*
X022319Y006381D01*
X022319Y006480D02*
X022003Y006480D01*
X022101Y006578D02*
X022343Y006578D01*
X022413Y006677D02*
X022200Y006677D01*
X022298Y006775D02*
X031752Y006775D01*
X031850Y006874D02*
X024397Y006874D01*
X024495Y006972D02*
X031949Y006972D01*
X032047Y007071D02*
X024594Y007071D01*
X024692Y007169D02*
X032146Y007169D01*
X032244Y007268D02*
X024791Y007268D01*
X024889Y007366D02*
X032343Y007366D01*
X032897Y006874D02*
X035403Y006874D01*
X035305Y006972D02*
X032995Y006972D01*
X033094Y007071D02*
X035206Y007071D01*
X035108Y007169D02*
X033192Y007169D01*
X033291Y007268D02*
X035009Y007268D01*
X034911Y007366D02*
X033389Y007366D01*
X033488Y007465D02*
X034826Y007465D01*
X034786Y007563D02*
X033905Y007563D01*
X034067Y007662D02*
X034780Y007662D01*
X034780Y007760D02*
X034165Y007760D01*
X034222Y007859D02*
X034780Y007859D01*
X034780Y007957D02*
X034263Y007957D01*
X034290Y008056D02*
X034780Y008056D01*
X034780Y008154D02*
X034290Y008154D01*
X034290Y008253D02*
X034780Y008253D01*
X034780Y008351D02*
X034259Y008351D01*
X034219Y008450D02*
X034780Y008450D01*
X034780Y008548D02*
X034157Y008548D01*
X034059Y008647D02*
X034780Y008647D01*
X034780Y008745D02*
X034150Y008745D01*
X034216Y008844D02*
X034780Y008844D01*
X034780Y008942D02*
X034257Y008942D01*
X034290Y009041D02*
X034780Y009041D01*
X034780Y009139D02*
X034290Y009139D01*
X034290Y009238D02*
X034780Y009238D01*
X034780Y009336D02*
X034266Y009336D01*
X034225Y009435D02*
X034780Y009435D01*
X034744Y009533D02*
X034172Y009533D01*
X034074Y009632D02*
X034645Y009632D01*
X034547Y009730D02*
X034135Y009730D01*
X034724Y010520D02*
X034860Y010464D01*
X034964Y010360D01*
X035464Y009860D01*
X035520Y009724D01*
X035520Y007803D01*
X035803Y007520D01*
X036497Y007520D01*
X036721Y007744D01*
X036650Y007816D01*
X036394Y007560D01*
X035906Y007560D01*
X035560Y007906D01*
X035560Y008394D01*
X035816Y008650D01*
X035560Y008906D01*
X035560Y009394D01*
X035906Y009740D01*
X035924Y009740D01*
X035700Y009964D01*
X035700Y010100D01*
X036100Y010100D01*
X036100Y010200D01*
X036100Y010600D01*
X035964Y010600D01*
X035700Y010336D01*
X035700Y010200D01*
X036100Y010200D01*
X036200Y010200D01*
X036200Y010600D01*
X036336Y010600D01*
X036560Y010376D01*
X036560Y010394D01*
X036906Y010740D01*
X037394Y010740D01*
X037740Y010394D01*
X037740Y009906D01*
X037484Y009650D01*
X037556Y009579D01*
X037780Y009803D01*
X037780Y010497D01*
X037497Y010780D01*
X034185Y010780D01*
X034055Y010650D01*
X034185Y010520D01*
X034724Y010520D01*
X034728Y010518D02*
X035882Y010518D01*
X035783Y010420D02*
X034904Y010420D01*
X035002Y010321D02*
X035700Y010321D01*
X035700Y010223D02*
X035101Y010223D01*
X035199Y010124D02*
X036100Y010124D01*
X036100Y010223D02*
X036200Y010223D01*
X036200Y010321D02*
X036100Y010321D01*
X036100Y010420D02*
X036200Y010420D01*
X036200Y010518D02*
X036100Y010518D01*
X036418Y010518D02*
X036684Y010518D01*
X036782Y010617D02*
X034089Y010617D01*
X034120Y010715D02*
X036881Y010715D01*
X036585Y010420D02*
X036517Y010420D01*
X035835Y009829D02*
X035477Y009829D01*
X035517Y009730D02*
X035896Y009730D01*
X035797Y009632D02*
X035520Y009632D01*
X035520Y009533D02*
X035699Y009533D01*
X035600Y009435D02*
X035520Y009435D01*
X035520Y009336D02*
X035560Y009336D01*
X035560Y009238D02*
X035520Y009238D01*
X035520Y009139D02*
X035560Y009139D01*
X035560Y009041D02*
X035520Y009041D01*
X035520Y008942D02*
X035560Y008942D01*
X035520Y008844D02*
X035622Y008844D01*
X035721Y008745D02*
X035520Y008745D01*
X035520Y008647D02*
X035812Y008647D01*
X035714Y008548D02*
X035520Y008548D01*
X035520Y008450D02*
X035615Y008450D01*
X035560Y008351D02*
X035520Y008351D01*
X035520Y008253D02*
X035560Y008253D01*
X035560Y008154D02*
X035520Y008154D01*
X035520Y008056D02*
X035560Y008056D01*
X035560Y007957D02*
X035520Y007957D01*
X035520Y007859D02*
X035607Y007859D01*
X035563Y007760D02*
X035706Y007760D01*
X035662Y007662D02*
X035804Y007662D01*
X035760Y007563D02*
X035903Y007563D01*
X036397Y007563D02*
X036540Y007563D01*
X036496Y007662D02*
X036638Y007662D01*
X036594Y007760D02*
X036706Y007760D01*
X037291Y007268D02*
X038852Y007268D01*
X038852Y007366D02*
X037389Y007366D01*
X037474Y007465D02*
X038852Y007465D01*
X038852Y007563D02*
X037514Y007563D01*
X037520Y007662D02*
X038852Y007662D01*
X038852Y007760D02*
X037594Y007760D01*
X037693Y007859D02*
X038852Y007859D01*
X038852Y007957D02*
X037740Y007957D01*
X037740Y008056D02*
X038852Y008056D01*
X038852Y008154D02*
X037740Y008154D01*
X037740Y008253D02*
X038852Y008253D01*
X038852Y008351D02*
X037740Y008351D01*
X037685Y008450D02*
X038852Y008450D01*
X038852Y008548D02*
X037586Y008548D01*
X037488Y008647D02*
X038852Y008647D01*
X038852Y008745D02*
X037579Y008745D01*
X037867Y008844D02*
X038852Y008844D01*
X038852Y008942D02*
X037965Y008942D01*
X038064Y009041D02*
X038852Y009041D01*
X038852Y009139D02*
X038162Y009139D01*
X038261Y009238D02*
X038852Y009238D01*
X038852Y009336D02*
X038359Y009336D01*
X038458Y009435D02*
X038852Y009435D01*
X038852Y009533D02*
X038502Y009533D01*
X038520Y009632D02*
X038852Y009632D01*
X038852Y009730D02*
X038520Y009730D01*
X038520Y009829D02*
X038852Y009829D01*
X038852Y009927D02*
X038520Y009927D01*
X038520Y010026D02*
X038852Y010026D01*
X038852Y010124D02*
X038520Y010124D01*
X038520Y010223D02*
X038852Y010223D01*
X038852Y010321D02*
X038520Y010321D01*
X038520Y010420D02*
X038852Y010420D01*
X038852Y010518D02*
X038520Y010518D01*
X038520Y010617D02*
X038852Y010617D01*
X038852Y010715D02*
X038520Y010715D01*
X038483Y010814D02*
X038852Y010814D01*
X038852Y010912D02*
X038411Y010912D01*
X038313Y011011D02*
X038852Y011011D01*
X038852Y011109D02*
X038214Y011109D01*
X038116Y011208D02*
X038852Y011208D01*
X038852Y011306D02*
X038017Y011306D01*
X037919Y011405D02*
X038852Y011405D01*
X038852Y011503D02*
X037764Y011503D01*
X038852Y011602D02*
X034104Y011602D01*
X034105Y011700D02*
X038852Y011700D01*
X038852Y011799D02*
X034197Y011799D01*
X034238Y011897D02*
X038852Y011897D01*
X038852Y011996D02*
X034279Y011996D01*
X034290Y012094D02*
X038852Y012094D01*
X038852Y012193D02*
X034290Y012193D01*
X034284Y012291D02*
X038852Y012291D01*
X038852Y012390D02*
X034243Y012390D01*
X034203Y012488D02*
X038852Y012488D01*
X038852Y012587D02*
X034119Y012587D01*
X034090Y012685D02*
X037049Y012685D01*
X037251Y012685D02*
X038852Y012685D01*
X038852Y012784D02*
X037446Y012784D01*
X037544Y012882D02*
X038852Y012882D01*
X038852Y012981D02*
X037587Y012981D01*
X037618Y013079D02*
X038852Y013079D01*
X038852Y013178D02*
X037618Y013178D01*
X037604Y013276D02*
X038852Y013276D01*
X038852Y013375D02*
X037564Y013375D01*
X037520Y013473D02*
X038852Y013473D01*
X038852Y013572D02*
X037520Y013572D01*
X037520Y013670D02*
X038852Y013670D01*
X038852Y013769D02*
X037520Y013769D01*
X037520Y013867D02*
X038852Y013867D01*
X038852Y013966D02*
X037520Y013966D01*
X037520Y014064D02*
X038852Y014064D01*
X038852Y014163D02*
X037520Y014163D01*
X037520Y014261D02*
X038852Y014261D01*
X038852Y014360D02*
X037520Y014360D01*
X037520Y014458D02*
X038852Y014458D01*
X038852Y014557D02*
X037520Y014557D01*
X037520Y014655D02*
X038852Y014655D01*
X038852Y014754D02*
X037520Y014754D01*
X037520Y014852D02*
X038852Y014852D01*
X038852Y014951D02*
X037520Y014951D01*
X037520Y015049D02*
X038852Y015049D01*
X038852Y015148D02*
X037520Y015148D01*
X037511Y015246D02*
X038852Y015246D01*
X038852Y015345D02*
X037470Y015345D01*
X037380Y015443D02*
X038852Y015443D01*
X038852Y015542D02*
X037282Y015542D01*
X037183Y015640D02*
X038852Y015640D01*
X038852Y015739D02*
X037085Y015739D01*
X036986Y015837D02*
X038852Y015837D01*
X038852Y015936D02*
X036888Y015936D01*
X036789Y016034D02*
X038852Y016034D01*
X038852Y016133D02*
X036691Y016133D01*
X036592Y016231D02*
X038852Y016231D01*
X038852Y016330D02*
X036494Y016330D01*
X036395Y016428D02*
X038852Y016428D01*
X038852Y016527D02*
X036297Y016527D01*
X036198Y016625D02*
X038852Y016625D01*
X038852Y016724D02*
X036100Y016724D01*
X036001Y016822D02*
X038852Y016822D01*
X038852Y016921D02*
X035903Y016921D01*
X035804Y017019D02*
X038852Y017019D01*
X038852Y017118D02*
X035706Y017118D01*
X035607Y017216D02*
X038852Y017216D01*
X038852Y017315D02*
X035509Y017315D01*
X035410Y017413D02*
X038852Y017413D01*
X038852Y017512D02*
X035244Y017512D01*
X036036Y018004D02*
X034128Y018004D01*
X034087Y017906D02*
X036274Y017906D01*
X035053Y016724D02*
X034129Y016724D01*
X034080Y016625D02*
X035152Y016625D01*
X035250Y016527D02*
X034179Y016527D01*
X034228Y016428D02*
X035349Y016428D01*
X035447Y016330D02*
X034268Y016330D01*
X034290Y016231D02*
X035546Y016231D01*
X035644Y016133D02*
X034290Y016133D01*
X034290Y016034D02*
X035743Y016034D01*
X035841Y015936D02*
X034254Y015936D01*
X034213Y015837D02*
X035940Y015837D01*
X036038Y015739D02*
X034144Y015739D01*
X034065Y015640D02*
X036137Y015640D01*
X036235Y015542D02*
X034164Y015542D01*
X034221Y015443D02*
X036334Y015443D01*
X036432Y015345D02*
X034262Y015345D01*
X034290Y015246D02*
X036531Y015246D01*
X036629Y015148D02*
X034290Y015148D01*
X034290Y015049D02*
X036728Y015049D01*
X036780Y014951D02*
X034260Y014951D01*
X034219Y014852D02*
X036780Y014852D01*
X036780Y014754D02*
X034159Y014754D01*
X034060Y014655D02*
X036780Y014655D01*
X036780Y014557D02*
X034149Y014557D01*
X034215Y014458D02*
X036780Y014458D01*
X036780Y014360D02*
X034256Y014360D01*
X034290Y014261D02*
X036780Y014261D01*
X036780Y014163D02*
X034290Y014163D01*
X034290Y014064D02*
X036780Y014064D01*
X036780Y013966D02*
X034266Y013966D01*
X034226Y013867D02*
X036780Y013867D01*
X036780Y013769D02*
X034174Y013769D01*
X034075Y013670D02*
X036780Y013670D01*
X036780Y013572D02*
X034134Y013572D01*
X034209Y013473D02*
X036780Y013473D01*
X036736Y013375D02*
X034250Y013375D01*
X034290Y013276D02*
X036696Y013276D01*
X036682Y013178D02*
X034290Y013178D01*
X034290Y013079D02*
X036682Y013079D01*
X036713Y012981D02*
X034273Y012981D01*
X034232Y012882D02*
X036756Y012882D01*
X036854Y012784D02*
X034189Y012784D01*
X037419Y010715D02*
X037562Y010715D01*
X037518Y010617D02*
X037660Y010617D01*
X037616Y010518D02*
X037759Y010518D01*
X037780Y010420D02*
X037715Y010420D01*
X037740Y010321D02*
X037780Y010321D01*
X037780Y010223D02*
X037740Y010223D01*
X037740Y010124D02*
X037780Y010124D01*
X037780Y010026D02*
X037740Y010026D01*
X037740Y009927D02*
X037780Y009927D01*
X037780Y009829D02*
X037663Y009829D01*
X037707Y009730D02*
X037564Y009730D01*
X037608Y009632D02*
X037503Y009632D01*
X035737Y009927D02*
X035396Y009927D01*
X035298Y010026D02*
X035700Y010026D01*
X037192Y007169D02*
X038852Y007169D01*
X038852Y007071D02*
X037094Y007071D01*
X036995Y006972D02*
X038852Y006972D01*
X038852Y006874D02*
X036897Y006874D01*
X038852Y006775D02*
X032798Y006775D01*
X032700Y006677D02*
X038852Y006677D01*
X038852Y006578D02*
X032601Y006578D01*
X032503Y006480D02*
X038852Y006480D01*
X038852Y006381D02*
X032404Y006381D01*
X032306Y006283D02*
X038852Y006283D01*
X038852Y006184D02*
X032207Y006184D01*
X032109Y006086D02*
X038852Y006086D01*
X038852Y005987D02*
X032010Y005987D01*
X031912Y005889D02*
X038852Y005889D01*
X038852Y005790D02*
X023484Y005790D01*
X023436Y005692D02*
X038852Y005692D01*
X038852Y005593D02*
X023295Y005593D01*
X023469Y006578D02*
X031555Y006578D01*
X031653Y006677D02*
X023399Y006677D01*
X023331Y007760D02*
X024237Y007760D01*
X024335Y007859D02*
X023353Y007859D01*
X023353Y007957D02*
X024434Y007957D01*
X024532Y008056D02*
X023353Y008056D01*
X022954Y008056D02*
X022857Y008056D01*
X022857Y007957D02*
X022954Y007957D01*
X022954Y007859D02*
X022857Y007859D01*
X022857Y007760D02*
X022954Y007760D01*
X022954Y008253D02*
X022857Y008253D01*
X022857Y008351D02*
X022954Y008351D01*
X022954Y008450D02*
X022857Y008450D01*
X022857Y008548D02*
X022954Y008548D01*
X022459Y008351D02*
X022374Y008351D01*
X022459Y008253D02*
X022276Y008253D01*
X022323Y010321D02*
X027028Y010321D01*
X027069Y010420D02*
X022443Y010420D01*
X022541Y010518D02*
X027113Y010518D01*
X027211Y010617D02*
X022640Y010617D01*
X022738Y010715D02*
X024977Y010715D01*
X025323Y010715D02*
X027180Y010715D01*
X027097Y010814D02*
X025476Y010814D01*
X025558Y010912D02*
X027056Y010912D01*
X027015Y011011D02*
X025599Y011011D01*
X025618Y011109D02*
X027010Y011109D01*
X027010Y011208D02*
X025618Y011208D01*
X025592Y011306D02*
X027022Y011306D01*
X027063Y011405D02*
X025551Y011405D01*
X025459Y011503D02*
X027104Y011503D01*
X027196Y011602D02*
X025283Y011602D01*
X025017Y011602D02*
X023125Y011602D01*
X023223Y011700D02*
X027195Y011700D01*
X027103Y011799D02*
X023322Y011799D01*
X023420Y011897D02*
X027062Y011897D01*
X027021Y011996D02*
X023519Y011996D01*
X023617Y012094D02*
X027010Y012094D01*
X027010Y012193D02*
X023716Y012193D01*
X023814Y012291D02*
X027016Y012291D01*
X027057Y012390D02*
X023913Y012390D01*
X024011Y012488D02*
X027097Y012488D01*
X027181Y012587D02*
X024110Y012587D01*
X024208Y012685D02*
X025049Y012685D01*
X025251Y012685D02*
X027210Y012685D01*
X027111Y012784D02*
X025446Y012784D01*
X025544Y012882D02*
X027068Y012882D01*
X027027Y012981D02*
X025587Y012981D01*
X025618Y013079D02*
X027010Y013079D01*
X027010Y013178D02*
X025618Y013178D01*
X025604Y013276D02*
X027010Y013276D01*
X027050Y013375D02*
X025564Y013375D01*
X025489Y013473D02*
X027091Y013473D01*
X027166Y013572D02*
X025355Y013572D01*
X025431Y013769D02*
X027126Y013769D01*
X027074Y013867D02*
X025529Y013867D01*
X025580Y013966D02*
X027034Y013966D01*
X027010Y014064D02*
X025618Y014064D01*
X025618Y014163D02*
X027010Y014163D01*
X027010Y014261D02*
X025611Y014261D01*
X025570Y014360D02*
X027044Y014360D01*
X027085Y014458D02*
X025504Y014458D01*
X025392Y014557D02*
X027151Y014557D01*
X027225Y013670D02*
X024020Y013670D01*
X024020Y013572D02*
X024945Y013572D01*
X024869Y013769D02*
X024020Y013769D01*
X022154Y013178D02*
X000440Y013178D01*
X000440Y013276D02*
X021862Y013276D01*
X021763Y013375D02*
X000440Y013375D01*
X000440Y013473D02*
X021717Y013473D01*
X021682Y013572D02*
X000440Y013572D01*
X000440Y013670D02*
X021682Y013670D01*
X021692Y013769D02*
X000440Y013769D01*
X000440Y013867D02*
X021733Y013867D01*
X021780Y013966D02*
X000440Y013966D01*
X000440Y014064D02*
X021780Y014064D01*
X021780Y014163D02*
X000440Y014163D01*
X000440Y014261D02*
X021780Y014261D01*
X021780Y014360D02*
X000440Y014360D01*
X000440Y014458D02*
X021780Y014458D01*
X021780Y014557D02*
X000440Y014557D01*
X000440Y014655D02*
X021780Y014655D01*
X021780Y014754D02*
X000440Y014754D01*
X000440Y014852D02*
X021780Y014852D01*
X021780Y014951D02*
X000440Y014951D01*
X000440Y015049D02*
X021780Y015049D01*
X021780Y015148D02*
X000440Y015148D01*
X000440Y015246D02*
X021780Y015246D01*
X021780Y015345D02*
X007954Y015345D01*
X008072Y015443D02*
X021780Y015443D01*
X022056Y013079D02*
X020037Y013079D01*
X019663Y013079D02*
X017237Y013079D01*
X017381Y012981D02*
X019519Y012981D01*
X019439Y012882D02*
X017461Y012882D01*
X017501Y012784D02*
X019399Y012784D01*
X019382Y012685D02*
X017518Y012685D01*
X017518Y012587D02*
X019382Y012587D01*
X016863Y013079D02*
X016037Y013079D01*
X016181Y012981D02*
X016719Y012981D01*
X016639Y012882D02*
X016261Y012882D01*
X016301Y012784D02*
X016599Y012784D01*
X016582Y012685D02*
X016338Y012685D01*
X016437Y012587D02*
X016582Y012587D01*
X016610Y012488D02*
X016535Y012488D01*
X016634Y012390D02*
X016651Y012390D01*
X016080Y011897D02*
X014326Y011897D01*
X014228Y011996D02*
X015981Y011996D01*
X015883Y012094D02*
X014129Y012094D01*
X014031Y012193D02*
X015731Y012193D01*
X015547Y012291D02*
X013932Y012291D01*
X013834Y012390D02*
X015451Y012390D01*
X015410Y012488D02*
X013735Y012488D01*
X013637Y012587D02*
X015382Y012587D01*
X015382Y012685D02*
X013538Y012685D01*
X013501Y012784D02*
X015399Y012784D01*
X015439Y012882D02*
X013461Y012882D01*
X013381Y012981D02*
X015519Y012981D01*
X015663Y013079D02*
X013237Y013079D01*
X012863Y013079D02*
X012037Y013079D01*
X012181Y012981D02*
X012719Y012981D01*
X012639Y012882D02*
X012261Y012882D01*
X012301Y012784D02*
X012599Y012784D01*
X012582Y012685D02*
X012338Y012685D01*
X012437Y012587D02*
X012582Y012587D01*
X012610Y012488D02*
X012535Y012488D01*
X012634Y012390D02*
X012651Y012390D01*
X012732Y012291D02*
X012747Y012291D01*
X012831Y012193D02*
X012931Y012193D01*
X012929Y012094D02*
X013083Y012094D01*
X013028Y011996D02*
X013181Y011996D01*
X013126Y011897D02*
X013280Y011897D01*
X013225Y011799D02*
X013378Y011799D01*
X013323Y011700D02*
X013477Y011700D01*
X013422Y011602D02*
X013575Y011602D01*
X013520Y011503D02*
X013674Y011503D01*
X013619Y011405D02*
X013772Y011405D01*
X013717Y011306D02*
X013871Y011306D01*
X013816Y011208D02*
X013969Y011208D01*
X013914Y011109D02*
X014068Y011109D01*
X013459Y010518D02*
X000440Y010518D01*
X000440Y010420D02*
X013557Y010420D01*
X013677Y010321D02*
X000440Y010321D01*
X000440Y010617D02*
X013360Y010617D01*
X013262Y010715D02*
X000440Y010715D01*
X000440Y010814D02*
X013163Y010814D01*
X013065Y010912D02*
X000440Y010912D01*
X000440Y011011D02*
X012966Y011011D01*
X012868Y011109D02*
X000440Y011109D01*
X000440Y011208D02*
X012769Y011208D01*
X012671Y011306D02*
X000440Y011306D01*
X000440Y011405D02*
X012572Y011405D01*
X012474Y011503D02*
X000440Y011503D01*
X000440Y011602D02*
X012375Y011602D01*
X012277Y011700D02*
X000440Y011700D01*
X000440Y011799D02*
X012178Y011799D01*
X012080Y011897D02*
X000440Y011897D01*
X000440Y011996D02*
X011981Y011996D01*
X011883Y012094D02*
X000440Y012094D01*
X000440Y012193D02*
X011731Y012193D01*
X011547Y012291D02*
X000440Y012291D01*
X000440Y012390D02*
X011451Y012390D01*
X011410Y012488D02*
X000440Y012488D01*
X000440Y012587D02*
X011382Y012587D01*
X011382Y012685D02*
X000440Y012685D01*
X000440Y012784D02*
X011399Y012784D01*
X011439Y012882D02*
X000440Y012882D01*
X000440Y012981D02*
X011519Y012981D01*
X011663Y013079D02*
X000440Y013079D01*
X000440Y015345D02*
X006346Y015345D01*
X006228Y015443D02*
X000440Y015443D01*
X000440Y015542D02*
X006129Y015542D01*
X006077Y015640D02*
X000440Y015640D01*
X000440Y015739D02*
X006036Y015739D01*
X006000Y015837D02*
X000440Y015837D01*
X000440Y015936D02*
X006000Y015936D01*
X006000Y016034D02*
X000440Y016034D01*
X005690Y016330D02*
X006090Y016330D01*
X006161Y016428D02*
X005762Y016428D01*
X005807Y016527D02*
X006259Y016527D01*
X006423Y016625D02*
X005832Y016625D01*
X005840Y016724D02*
X007276Y016724D01*
X007375Y016822D02*
X005840Y016822D01*
X005840Y016921D02*
X007473Y016921D01*
X007572Y017019D02*
X005840Y017019D01*
X005840Y017118D02*
X007670Y017118D01*
X007769Y017216D02*
X005840Y017216D01*
X005840Y017315D02*
X007867Y017315D01*
X007966Y017413D02*
X005840Y017413D01*
X005840Y017512D02*
X008064Y017512D01*
X008163Y017610D02*
X005840Y017610D01*
X007121Y017807D02*
X007179Y017807D01*
X007179Y017906D02*
X007121Y017906D01*
X007121Y018004D02*
X007179Y018004D01*
X007179Y018103D02*
X007121Y018103D01*
X007121Y018201D02*
X007179Y018201D01*
X007179Y018300D02*
X007121Y018300D01*
X007121Y018398D02*
X007179Y018398D01*
X007179Y018497D02*
X007121Y018497D01*
X007121Y018595D02*
X007179Y018595D01*
X007179Y018694D02*
X007121Y018694D01*
X007121Y018792D02*
X007179Y018792D01*
X007179Y018891D02*
X007121Y018891D01*
X002194Y020368D02*
X000440Y020368D01*
X000440Y020270D02*
X001987Y020270D01*
X001845Y020171D02*
X000440Y020171D01*
X000440Y020073D02*
X001734Y020073D01*
X001645Y019974D02*
X000440Y019974D01*
X000440Y019876D02*
X001571Y019876D01*
X001511Y019777D02*
X000440Y019777D01*
X000440Y019679D02*
X001462Y019679D01*
X001422Y019580D02*
X000440Y019580D01*
X000440Y019482D02*
X001392Y019482D01*
X001371Y019383D02*
X000440Y019383D01*
X000440Y019285D02*
X001357Y019285D01*
X014425Y011799D02*
X016178Y011799D01*
X016277Y011700D02*
X014523Y011700D01*
X014622Y011602D02*
X016375Y011602D01*
X021050Y005495D02*
X038852Y005495D01*
X038852Y005396D02*
X021073Y005396D01*
X021073Y005298D02*
X038852Y005298D01*
X038852Y005199D02*
X021073Y005199D01*
X021073Y005101D02*
X038852Y005101D01*
X038852Y005002D02*
X021073Y005002D01*
X021073Y004904D02*
X038852Y004904D01*
X038852Y004805D02*
X021073Y004805D01*
X021073Y004707D02*
X038852Y004707D01*
X038852Y004608D02*
X021073Y004608D01*
X021073Y004510D02*
X038852Y004510D01*
X038852Y004411D02*
X021073Y004411D01*
X021073Y004313D02*
X038852Y004313D01*
X038852Y004214D02*
X021073Y004214D01*
X021073Y004116D02*
X038852Y004116D01*
X038852Y004017D02*
X021056Y004017D01*
X036936Y003919D02*
X038852Y003919D01*
X038852Y003820D02*
X037219Y003820D01*
X037386Y003722D02*
X038852Y003722D01*
X038852Y003623D02*
X037514Y003623D01*
X037614Y003525D02*
X038852Y003525D01*
X038852Y003426D02*
X037695Y003426D01*
X037761Y003328D02*
X038852Y003328D01*
X038852Y003229D02*
X037815Y003229D01*
X037858Y003131D02*
X038852Y003131D01*
X038852Y003032D02*
X037893Y003032D01*
X037919Y002934D02*
X038852Y002934D01*
X038852Y002835D02*
X037938Y002835D01*
X037948Y002737D02*
X038852Y002737D01*
X038852Y017610D02*
X034095Y017610D01*
X033974Y017709D02*
X038852Y017709D01*
X038852Y017807D02*
X034014Y017807D01*
D19*
X037150Y013150D03*
X032150Y010150D03*
X025150Y009150D03*
X025150Y008150D03*
X025150Y011150D03*
X025150Y013150D03*
X025150Y014150D03*
X025150Y015150D03*
X022150Y013650D03*
X019850Y012650D03*
X018650Y012650D03*
X017050Y012650D03*
X015850Y012650D03*
X014650Y012650D03*
X013050Y012650D03*
X011850Y012650D03*
X010650Y012650D03*
X004150Y016150D03*
X003150Y016150D03*
X002150Y016150D03*
X002150Y017150D03*
X003150Y017150D03*
X004150Y017150D03*
X025150Y018150D03*
X025150Y019150D03*
D20*
X010240Y019150D02*
X010150Y019060D01*
X010150Y018650D01*
X007469Y015969D01*
X007150Y015969D01*
D21*
X011850Y012650D02*
X013850Y010650D01*
X022150Y010650D01*
X022650Y011150D01*
X025150Y011150D01*
X024150Y013150D02*
X022150Y011150D01*
X014550Y011150D01*
X013050Y012650D01*
X015850Y012650D02*
X016850Y011650D01*
X022150Y011650D01*
X023650Y013150D01*
X023650Y014150D01*
X025150Y014150D01*
X025150Y013150D02*
X024150Y013150D01*
X023150Y013150D02*
X022150Y012150D01*
X017150Y012150D01*
X017050Y012250D01*
X017050Y012650D01*
X019850Y012650D02*
X022150Y012650D01*
X022650Y013150D01*
X022650Y015650D01*
X025150Y018150D01*
X025150Y019150D02*
X022150Y016150D01*
X022150Y013650D01*
X023150Y013150D02*
X023150Y015150D01*
X025150Y015150D01*
X033650Y017150D02*
X035150Y017150D01*
X037150Y015150D01*
X037150Y013150D01*
X037650Y011150D02*
X033650Y011150D01*
X033650Y010150D02*
X034650Y010150D01*
X035150Y009650D01*
X035150Y007650D01*
X035650Y007150D01*
X036650Y007150D01*
X037150Y007650D01*
X037150Y008150D01*
X037150Y009150D02*
X037650Y009150D01*
X038150Y009650D01*
X038150Y010650D01*
X037650Y011150D01*
X033650Y008150D02*
X031666Y006166D01*
X022906Y006166D01*
X022150Y007150D02*
X024150Y007150D01*
X025150Y008150D01*
X025150Y009150D02*
X022650Y009150D01*
X021634Y008134D01*
X017197Y008134D01*
X017197Y006166D02*
X021166Y006166D01*
X022150Y007150D01*
M02*
