G75*
%MOIN*%
%OFA0B0*%
%FSLAX24Y24*%
%IPPOS*%
%LPD*%
%AMOC8*
5,1,8,0,0,1.08239X$1,22.5*
%
%ADD10C,0.0000*%
%ADD11R,0.1693X0.0984*%
%ADD12R,0.0709X0.0630*%
%ADD13R,0.2441X0.2126*%
%ADD14R,0.0630X0.0394*%
%ADD15C,0.0860*%
%ADD16C,0.0700*%
%ADD17R,0.0400X0.0880*%
%ADD18R,0.0512X0.0630*%
%ADD19R,0.0594X0.0594*%
%ADD20R,0.1266X0.1266*%
%ADD21R,0.0630X0.0512*%
%ADD22R,0.0512X0.0591*%
%ADD23C,0.2300*%
%ADD24OC8,0.0600*%
%ADD25C,0.0780*%
%ADD26C,0.0400*%
%ADD27C,0.0100*%
%ADD28C,0.0356*%
%ADD29C,0.0700*%
%ADD30C,0.0760*%
%ADD31C,0.0160*%
%ADD32C,0.0240*%
D10*
X000150Y000150D02*
X000150Y021520D01*
X039142Y021520D01*
X039142Y000150D01*
X000150Y000150D01*
D11*
X002016Y007150D03*
X005284Y007150D03*
X005284Y012150D03*
X002016Y012150D03*
D12*
X007650Y010701D03*
X007650Y009599D03*
X007650Y007701D03*
X007650Y006599D03*
X032150Y017099D03*
X032150Y018201D03*
D13*
X011634Y008650D03*
D14*
X008760Y007752D03*
X008760Y009548D03*
D15*
X007580Y015969D02*
X006720Y015969D01*
X005260Y016720D02*
X005260Y017580D01*
X006720Y018331D02*
X007580Y018331D01*
D16*
X027650Y018150D03*
X027650Y019150D03*
X027650Y017150D03*
X027650Y016150D03*
X027650Y015150D03*
X027650Y014150D03*
X027650Y013150D03*
X027650Y012150D03*
X027650Y011150D03*
X027650Y010150D03*
X027650Y009150D03*
X027650Y008150D03*
X033650Y008150D03*
X033650Y009150D03*
X033650Y010150D03*
X033650Y011150D03*
X033650Y012150D03*
X033650Y013150D03*
X033650Y014150D03*
X033650Y015150D03*
X033650Y016150D03*
X033650Y017150D03*
X033650Y018150D03*
X033650Y019150D03*
D17*
X021050Y015870D03*
X020450Y015870D03*
X019850Y015870D03*
X019250Y015870D03*
X017050Y015870D03*
X016450Y015870D03*
X015850Y015870D03*
X015250Y015870D03*
X013050Y015870D03*
X012450Y015870D03*
X011850Y015870D03*
X011250Y015870D03*
X011250Y013430D03*
X011850Y013430D03*
X012450Y013430D03*
X013050Y013430D03*
X015250Y013430D03*
X015850Y013430D03*
X016450Y013430D03*
X017050Y013430D03*
X019250Y013430D03*
X019850Y013430D03*
X020450Y013430D03*
X021050Y013430D03*
D18*
X023776Y013150D03*
X024524Y013150D03*
X025776Y013150D03*
X026524Y013150D03*
X026524Y014150D03*
X025776Y014150D03*
X024524Y014150D03*
X023776Y014150D03*
X023776Y015150D03*
X024524Y015150D03*
X025776Y015150D03*
X026524Y015150D03*
X026524Y018150D03*
X025776Y018150D03*
X024524Y018150D03*
X023776Y018150D03*
X023776Y019150D03*
X024524Y019150D03*
X025776Y019150D03*
X026524Y019150D03*
X026524Y011150D03*
X025776Y011150D03*
X024524Y011150D03*
X023776Y011150D03*
X025776Y009150D03*
X026524Y009150D03*
X026524Y008150D03*
X025776Y008150D03*
X031276Y008150D03*
X032024Y008150D03*
D19*
X022906Y008134D03*
X022906Y006166D03*
X017197Y006166D03*
X017197Y007150D03*
X017197Y008134D03*
D20*
X020150Y009552D03*
X020150Y004748D03*
D21*
X016150Y005024D03*
X016150Y004276D03*
X014650Y004276D03*
X014650Y005024D03*
D22*
X029276Y008150D03*
X030024Y008150D03*
X030024Y009150D03*
X029276Y009150D03*
D23*
X036650Y002650D03*
X036650Y019150D03*
X002650Y019150D03*
X002650Y002650D03*
D24*
X036150Y008150D03*
X037150Y008150D03*
X037150Y009150D03*
X036150Y009150D03*
X036150Y010150D03*
X037150Y010150D03*
D25*
X022060Y018760D02*
X022060Y019540D01*
X020090Y019540D02*
X020090Y018760D01*
X018120Y018760D02*
X018120Y019540D01*
X016150Y019540D02*
X016150Y018760D01*
X014180Y018760D02*
X014180Y019540D01*
X012210Y019540D02*
X012210Y018760D01*
X010240Y018760D02*
X010240Y019540D01*
D26*
X011850Y018790D02*
X012210Y019150D01*
X011850Y018790D02*
X011850Y015870D01*
X011250Y015870D01*
X012450Y015870D02*
X013050Y015870D01*
X014180Y017000D01*
X014180Y019150D01*
X015850Y018850D02*
X016150Y019150D01*
X015850Y018850D02*
X015850Y015870D01*
X015250Y015870D01*
X016450Y015870D02*
X017050Y015870D01*
X018120Y016940D01*
X018120Y019150D01*
X019850Y018910D02*
X020090Y019150D01*
X019850Y018910D02*
X019850Y015870D01*
X019250Y015870D01*
X020450Y015870D02*
X021050Y015870D01*
X022060Y016880D01*
X022060Y019150D01*
X026524Y019150D02*
X027650Y019150D01*
X027650Y018150D02*
X026524Y018150D01*
X026524Y015150D02*
X027650Y015150D01*
X027650Y014150D02*
X026524Y014150D01*
X026524Y013150D02*
X027650Y013150D01*
X027650Y011150D02*
X026524Y011150D01*
X031276Y008150D02*
X031276Y006650D01*
X034650Y006650D01*
X036150Y008150D01*
X031276Y008150D02*
X031276Y014327D01*
X033099Y016150D01*
X033650Y016150D01*
X033099Y016150D02*
X032150Y017099D01*
X020450Y013430D02*
X020450Y011950D01*
X020150Y011650D01*
X018650Y011650D01*
X019250Y011830D01*
X019250Y013430D01*
X016450Y013430D02*
X016450Y011950D01*
X016150Y011650D01*
X015250Y011650D01*
X015250Y013430D01*
X012450Y013430D02*
X012450Y011950D01*
X012150Y011650D01*
X011250Y011650D01*
X011250Y013430D01*
X008709Y009599D02*
X007650Y009599D01*
X002067Y009599D01*
X002016Y009650D01*
X007650Y007701D02*
X008709Y007701D01*
X008760Y007752D01*
X012363Y004150D01*
X014524Y004150D01*
X014650Y004276D01*
X016150Y004276D01*
X016524Y004276D01*
X018150Y002650D01*
X029150Y002650D01*
X031276Y004776D01*
X031276Y006650D01*
X008760Y009548D02*
X008709Y009599D01*
D27*
X009133Y010034D02*
X009239Y009990D01*
X009321Y009909D01*
X009365Y009802D01*
X009365Y009293D01*
X009321Y009187D01*
X009239Y009105D01*
X009133Y009061D01*
X008865Y009061D01*
X008858Y009058D01*
X008663Y009058D01*
X008655Y009061D01*
X008388Y009061D01*
X008281Y009105D01*
X008277Y009109D01*
X008239Y009109D01*
X008169Y009038D01*
X008062Y008994D01*
X007238Y008994D01*
X007131Y009038D01*
X007061Y009109D01*
X002656Y009109D01*
X002656Y007932D01*
X002920Y007932D01*
X003027Y007888D01*
X003108Y007806D01*
X003153Y007700D01*
X003153Y006600D01*
X003108Y006494D01*
X003027Y006412D01*
X002920Y006368D01*
X001112Y006368D01*
X001005Y006412D01*
X000924Y006494D01*
X000880Y006600D01*
X000880Y007700D01*
X000924Y007806D01*
X001005Y007888D01*
X001112Y007932D01*
X001376Y007932D01*
X001376Y011368D01*
X001112Y011368D01*
X001005Y011412D01*
X000924Y011494D01*
X000880Y011600D01*
X000880Y012700D01*
X000924Y012806D01*
X001005Y012888D01*
X001112Y012932D01*
X002027Y012932D01*
X003607Y014513D01*
X003787Y014693D01*
X004023Y014790D01*
X005066Y014790D01*
X006030Y015754D01*
X006000Y015826D01*
X006000Y016112D01*
X006110Y016377D01*
X006312Y016579D01*
X006577Y016689D01*
X007723Y016689D01*
X007988Y016579D01*
X008190Y016377D01*
X008300Y016112D01*
X008300Y015826D01*
X008190Y015561D01*
X007988Y015359D01*
X007723Y015249D01*
X007335Y015249D01*
X005694Y013607D01*
X005458Y013510D01*
X004415Y013510D01*
X003153Y012248D01*
X003153Y011600D01*
X003108Y011494D01*
X003027Y011412D01*
X002920Y011368D01*
X002656Y011368D01*
X002656Y010089D01*
X007061Y010089D01*
X007131Y010160D01*
X007238Y010204D01*
X008062Y010204D01*
X008169Y010160D01*
X008239Y010089D01*
X008807Y010089D01*
X008938Y010034D01*
X009133Y010034D01*
X009154Y010026D02*
X019227Y010026D01*
X019227Y010124D02*
X008204Y010124D01*
X008096Y010266D02*
X008124Y010294D01*
X008144Y010328D01*
X008154Y010366D01*
X008154Y010651D01*
X007700Y010651D01*
X007700Y010236D01*
X008024Y010236D01*
X008062Y010246D01*
X008096Y010266D01*
X008140Y010321D02*
X019260Y010321D01*
X019271Y010349D02*
X019227Y010242D01*
X019227Y008861D01*
X019271Y008754D01*
X019353Y008673D01*
X019459Y008629D01*
X020841Y008629D01*
X020947Y008673D01*
X021029Y008754D01*
X021073Y008861D01*
X021073Y010242D01*
X021029Y010349D01*
X020947Y010430D01*
X020841Y010475D01*
X019459Y010475D01*
X019353Y010430D01*
X019271Y010349D01*
X019342Y010420D02*
X008154Y010420D01*
X008154Y010518D02*
X027113Y010518D01*
X027107Y010513D02*
X027010Y010277D01*
X027010Y010023D01*
X027107Y009787D01*
X027245Y009650D01*
X027115Y009520D01*
X027070Y009520D01*
X027070Y009523D01*
X027026Y009629D01*
X026944Y009711D01*
X026838Y009755D01*
X026210Y009755D01*
X026150Y009730D01*
X026090Y009755D01*
X025462Y009755D01*
X025356Y009711D01*
X025274Y009629D01*
X025266Y009609D01*
X025243Y009618D01*
X025057Y009618D01*
X024885Y009547D01*
X024753Y009415D01*
X024682Y009243D01*
X024682Y009057D01*
X024753Y008885D01*
X024885Y008753D01*
X025057Y008682D01*
X025243Y008682D01*
X025266Y008691D01*
X025274Y008671D01*
X025295Y008650D01*
X025274Y008629D01*
X025266Y008609D01*
X025243Y008618D01*
X025057Y008618D01*
X024885Y008547D01*
X024753Y008415D01*
X024682Y008243D01*
X024682Y008057D01*
X024753Y007885D01*
X024885Y007753D01*
X025057Y007682D01*
X025243Y007682D01*
X025266Y007691D01*
X025274Y007671D01*
X025356Y007589D01*
X025462Y007545D01*
X026090Y007545D01*
X026150Y007570D01*
X026210Y007545D01*
X026838Y007545D01*
X026944Y007589D01*
X027026Y007671D01*
X027070Y007777D01*
X027070Y007780D01*
X027115Y007780D01*
X027287Y007607D01*
X027523Y007510D01*
X027777Y007510D01*
X028013Y007607D01*
X028185Y007780D01*
X028737Y007780D01*
X028774Y007690D01*
X028856Y007609D01*
X028962Y007565D01*
X029590Y007565D01*
X029696Y007609D01*
X029778Y007690D01*
X029784Y007705D01*
X029974Y007705D01*
X029974Y008100D01*
X030074Y008100D01*
X030074Y007705D01*
X030300Y007705D01*
X030338Y007715D01*
X030372Y007735D01*
X030400Y007763D01*
X030420Y007797D01*
X030430Y007835D01*
X030430Y008100D01*
X030074Y008100D01*
X030074Y008200D01*
X029974Y008200D01*
X029974Y008595D01*
X029784Y008595D01*
X029778Y008610D01*
X029737Y008650D01*
X029778Y008690D01*
X029784Y008705D01*
X029974Y008705D01*
X029974Y009100D01*
X030074Y009100D01*
X030074Y008705D01*
X030300Y008705D01*
X030338Y008715D01*
X030372Y008735D01*
X030400Y008763D01*
X030420Y008797D01*
X030430Y008835D01*
X030430Y009100D01*
X030074Y009100D01*
X030074Y009200D01*
X029974Y009200D01*
X029974Y009595D01*
X029784Y009595D01*
X029778Y009610D01*
X029696Y009691D01*
X029590Y009735D01*
X028962Y009735D01*
X028856Y009691D01*
X028774Y009610D01*
X028737Y009520D01*
X028185Y009520D01*
X028055Y009650D01*
X028193Y009787D01*
X028290Y010023D01*
X028290Y010277D01*
X028193Y010513D01*
X028055Y010650D01*
X028193Y010787D01*
X028290Y011023D01*
X028290Y011277D01*
X028193Y011513D01*
X028055Y011650D01*
X028193Y011787D01*
X028290Y012023D01*
X028290Y012277D01*
X028193Y012513D01*
X028055Y012650D01*
X028193Y012787D01*
X028290Y013023D01*
X028290Y013277D01*
X028193Y013513D01*
X028055Y013650D01*
X028193Y013787D01*
X028290Y014023D01*
X028290Y014277D01*
X028193Y014513D01*
X028055Y014650D01*
X028193Y014787D01*
X028290Y015023D01*
X028290Y015277D01*
X028193Y015513D01*
X028013Y015693D01*
X027922Y015730D01*
X027976Y015769D01*
X028031Y015824D01*
X028078Y015888D01*
X028113Y015958D01*
X028138Y016033D01*
X028149Y016102D01*
X027698Y016102D01*
X027698Y016198D01*
X027602Y016198D01*
X027602Y016102D01*
X027151Y016102D01*
X027162Y016033D01*
X027187Y015958D01*
X027222Y015888D01*
X027269Y015824D01*
X027324Y015769D01*
X027378Y015730D01*
X027287Y015693D01*
X027235Y015640D01*
X027015Y015640D01*
X026944Y015711D01*
X026838Y015755D01*
X026210Y015755D01*
X026150Y015730D01*
X026090Y015755D01*
X025462Y015755D01*
X025356Y015711D01*
X025274Y015629D01*
X025266Y015609D01*
X025243Y015618D01*
X025057Y015618D01*
X025034Y015609D01*
X025026Y015629D01*
X024944Y015711D01*
X024838Y015755D01*
X024210Y015755D01*
X024104Y015711D01*
X024022Y015629D01*
X024016Y015615D01*
X023826Y015615D01*
X023826Y015200D01*
X023726Y015200D01*
X023726Y015615D01*
X023500Y015615D01*
X023462Y015605D01*
X023428Y015585D01*
X023400Y015557D01*
X023380Y015523D01*
X023370Y015485D01*
X023370Y015200D01*
X023726Y015200D01*
X023726Y015100D01*
X023826Y015100D01*
X023826Y014685D01*
X024016Y014685D01*
X024022Y014671D01*
X024043Y014650D01*
X024022Y014629D01*
X024016Y014615D01*
X023826Y014615D01*
X023826Y014200D01*
X023726Y014200D01*
X023726Y014615D01*
X023500Y014615D01*
X023462Y014605D01*
X023428Y014585D01*
X023400Y014557D01*
X023380Y014523D01*
X023370Y014485D01*
X023370Y014200D01*
X023726Y014200D01*
X023726Y014100D01*
X023826Y014100D01*
X023826Y013685D01*
X024016Y013685D01*
X024022Y013671D01*
X024043Y013650D01*
X024022Y013629D01*
X024016Y013615D01*
X023826Y013615D01*
X023826Y013200D01*
X023726Y013200D01*
X023726Y013615D01*
X023500Y013615D01*
X023462Y013605D01*
X023428Y013585D01*
X023400Y013557D01*
X023380Y013523D01*
X023370Y013485D01*
X023370Y013200D01*
X023726Y013200D01*
X023726Y013100D01*
X023826Y013100D01*
X023826Y012685D01*
X024016Y012685D01*
X024022Y012671D01*
X024104Y012589D01*
X024210Y012545D01*
X024838Y012545D01*
X024944Y012589D01*
X025026Y012671D01*
X025034Y012691D01*
X025057Y012682D01*
X025243Y012682D01*
X025266Y012691D01*
X025274Y012671D01*
X025356Y012589D01*
X025462Y012545D01*
X026090Y012545D01*
X026150Y012570D01*
X026210Y012545D01*
X026838Y012545D01*
X026944Y012589D01*
X027015Y012660D01*
X027235Y012660D01*
X027245Y012650D01*
X027107Y012513D01*
X027010Y012277D01*
X027010Y012023D01*
X027107Y011787D01*
X027245Y011650D01*
X027235Y011640D01*
X027015Y011640D01*
X026944Y011711D01*
X026838Y011755D01*
X026210Y011755D01*
X026150Y011730D01*
X026090Y011755D01*
X025462Y011755D01*
X025356Y011711D01*
X025274Y011629D01*
X025266Y011609D01*
X025243Y011618D01*
X025057Y011618D01*
X025034Y011609D01*
X025026Y011629D01*
X024944Y011711D01*
X024838Y011755D01*
X024210Y011755D01*
X024104Y011711D01*
X024022Y011629D01*
X024016Y011615D01*
X023826Y011615D01*
X023826Y011200D01*
X023726Y011200D01*
X023726Y011615D01*
X023500Y011615D01*
X023462Y011605D01*
X023428Y011585D01*
X023400Y011557D01*
X023380Y011523D01*
X023370Y011485D01*
X023370Y011200D01*
X023726Y011200D01*
X023726Y011100D01*
X023826Y011100D01*
X023826Y010685D01*
X024016Y010685D01*
X024022Y010671D01*
X024104Y010589D01*
X024210Y010545D01*
X024838Y010545D01*
X024944Y010589D01*
X025026Y010671D01*
X025034Y010691D01*
X025057Y010682D01*
X025243Y010682D01*
X025266Y010691D01*
X025274Y010671D01*
X025356Y010589D01*
X025462Y010545D01*
X026090Y010545D01*
X026150Y010570D01*
X026210Y010545D01*
X026838Y010545D01*
X026944Y010589D01*
X027015Y010660D01*
X027235Y010660D01*
X027245Y010650D01*
X027107Y010513D01*
X027069Y010420D02*
X020958Y010420D01*
X021040Y010321D02*
X027028Y010321D01*
X027010Y010223D02*
X021073Y010223D01*
X021073Y010124D02*
X027010Y010124D01*
X027010Y010026D02*
X021073Y010026D01*
X021073Y009927D02*
X027050Y009927D01*
X027090Y009829D02*
X021073Y009829D01*
X021073Y009730D02*
X025402Y009730D01*
X025277Y009632D02*
X021073Y009632D01*
X021073Y009533D02*
X024871Y009533D01*
X024773Y009435D02*
X021073Y009435D01*
X021073Y009336D02*
X024720Y009336D01*
X024682Y009238D02*
X021073Y009238D01*
X021073Y009139D02*
X024682Y009139D01*
X024689Y009041D02*
X021073Y009041D01*
X021073Y008942D02*
X024729Y008942D01*
X024794Y008844D02*
X021066Y008844D01*
X021020Y008745D02*
X024904Y008745D01*
X024888Y008548D02*
X023298Y008548D01*
X023295Y008551D02*
X023261Y008571D01*
X023223Y008581D01*
X022954Y008581D01*
X022954Y008183D01*
X022857Y008183D01*
X022857Y008086D01*
X022459Y008086D01*
X022459Y007818D01*
X022469Y007780D01*
X022489Y007745D01*
X022517Y007717D01*
X022551Y007698D01*
X022589Y007687D01*
X022857Y007687D01*
X022857Y008086D01*
X022954Y008086D01*
X022954Y007687D01*
X023223Y007687D01*
X023261Y007698D01*
X023295Y007717D01*
X023323Y007745D01*
X023343Y007780D01*
X023353Y007818D01*
X023353Y008086D01*
X022954Y008086D01*
X022954Y008183D01*
X023353Y008183D01*
X023353Y008451D01*
X023343Y008489D01*
X023323Y008523D01*
X023295Y008551D01*
X023353Y008450D02*
X024788Y008450D01*
X024727Y008351D02*
X023353Y008351D01*
X023353Y008253D02*
X024686Y008253D01*
X024682Y008154D02*
X022954Y008154D01*
X022857Y008154D02*
X017784Y008154D01*
X017784Y008056D02*
X022459Y008056D01*
X022459Y007957D02*
X017784Y007957D01*
X017784Y007859D02*
X022459Y007859D01*
X022481Y007760D02*
X017776Y007760D01*
X017784Y007780D02*
X017784Y008489D01*
X017740Y008595D01*
X017658Y008677D01*
X017552Y008721D01*
X016843Y008721D01*
X016736Y008677D01*
X016655Y008595D01*
X016610Y008489D01*
X016610Y008071D01*
X014336Y005797D01*
X014280Y005661D01*
X014280Y005570D01*
X014277Y005570D01*
X014171Y005526D01*
X014089Y005444D01*
X014045Y005338D01*
X014045Y004710D01*
X014070Y004650D01*
X014066Y004640D01*
X012566Y004640D01*
X009365Y007840D01*
X009365Y008007D01*
X009321Y008113D01*
X009239Y008195D01*
X009133Y008239D01*
X008865Y008239D01*
X008858Y008242D01*
X008663Y008242D01*
X008655Y008239D01*
X008388Y008239D01*
X008281Y008195D01*
X008277Y008191D01*
X008239Y008191D01*
X008169Y008262D01*
X008062Y008306D01*
X007238Y008306D01*
X007131Y008262D01*
X007050Y008180D01*
X007006Y008074D01*
X007006Y007329D01*
X007050Y007222D01*
X007131Y007140D01*
X007238Y007096D01*
X008062Y007096D01*
X008169Y007140D01*
X008239Y007211D01*
X008608Y007211D01*
X012085Y003735D01*
X012265Y003660D01*
X014621Y003660D01*
X014791Y003730D01*
X015023Y003730D01*
X015129Y003774D01*
X015141Y003786D01*
X015659Y003786D01*
X015671Y003774D01*
X015777Y003730D01*
X016377Y003730D01*
X017735Y002372D01*
X017872Y002235D01*
X018053Y002160D01*
X029247Y002160D01*
X029428Y002235D01*
X031554Y004361D01*
X031691Y004498D01*
X031766Y004679D01*
X031766Y006160D01*
X034747Y006160D01*
X034928Y006235D01*
X035065Y006372D01*
X036253Y007560D01*
X036394Y007560D01*
X036650Y007816D01*
X036906Y007560D01*
X037394Y007560D01*
X037740Y007906D01*
X037740Y008394D01*
X037484Y008650D01*
X037740Y008906D01*
X037740Y009394D01*
X037484Y009650D01*
X037740Y009906D01*
X037740Y010394D01*
X037520Y010614D01*
X037520Y012858D01*
X037547Y012885D01*
X037618Y013057D01*
X037618Y013243D01*
X037547Y013415D01*
X037415Y013547D01*
X037243Y013618D01*
X037057Y013618D01*
X036885Y013547D01*
X036753Y013415D01*
X036682Y013243D01*
X036682Y013057D01*
X036753Y012885D01*
X036780Y012858D01*
X036780Y010614D01*
X036560Y010394D01*
X036560Y010376D01*
X036336Y010600D01*
X036200Y010600D01*
X036200Y010200D01*
X036100Y010200D01*
X036100Y010600D01*
X035964Y010600D01*
X035700Y010336D01*
X035700Y010200D01*
X036100Y010200D01*
X036100Y010100D01*
X035700Y010100D01*
X035700Y009964D01*
X035924Y009740D01*
X035906Y009740D01*
X035686Y009520D01*
X034185Y009520D01*
X034055Y009650D01*
X034193Y009787D01*
X034290Y010023D01*
X034290Y010277D01*
X034193Y010513D01*
X034055Y010650D01*
X034193Y010787D01*
X034290Y011023D01*
X034290Y011277D01*
X034193Y011513D01*
X034055Y011650D01*
X034193Y011787D01*
X034290Y012023D01*
X034290Y012277D01*
X034193Y012513D01*
X034055Y012650D01*
X034193Y012787D01*
X034290Y013023D01*
X034290Y013277D01*
X034193Y013513D01*
X034055Y013650D01*
X034193Y013787D01*
X034290Y014023D01*
X034290Y014277D01*
X034193Y014513D01*
X034055Y014650D01*
X034193Y014787D01*
X034290Y015023D01*
X034290Y015277D01*
X034193Y015513D01*
X034055Y015650D01*
X034193Y015787D01*
X034290Y016023D01*
X034290Y016277D01*
X034193Y016513D01*
X034055Y016650D01*
X034193Y016787D01*
X034290Y017023D01*
X034290Y017277D01*
X034193Y017513D01*
X034013Y017693D01*
X033922Y017730D01*
X033976Y017769D01*
X034031Y017824D01*
X034078Y017888D01*
X034113Y017958D01*
X034138Y018033D01*
X034149Y018102D01*
X033698Y018102D01*
X033698Y018198D01*
X034149Y018198D01*
X034138Y018267D01*
X034113Y018342D01*
X034078Y018412D01*
X034031Y018476D01*
X033976Y018531D01*
X033922Y018570D01*
X034013Y018607D01*
X034193Y018787D01*
X034290Y019023D01*
X034290Y019277D01*
X034193Y019513D01*
X034013Y019693D01*
X033777Y019790D01*
X033523Y019790D01*
X033287Y019693D01*
X033107Y019513D01*
X033010Y019277D01*
X033010Y019023D01*
X033107Y018787D01*
X033287Y018607D01*
X033378Y018570D01*
X033324Y018531D01*
X033269Y018476D01*
X033222Y018412D01*
X033187Y018342D01*
X033162Y018267D01*
X033151Y018198D01*
X033602Y018198D01*
X033602Y018102D01*
X033151Y018102D01*
X033162Y018033D01*
X033187Y017958D01*
X033222Y017888D01*
X033269Y017824D01*
X033324Y017769D01*
X033378Y017730D01*
X033287Y017693D01*
X033107Y017513D01*
X033010Y017277D01*
X033010Y017023D01*
X033074Y016867D01*
X032794Y017147D01*
X032794Y017471D01*
X032750Y017578D01*
X032669Y017660D01*
X032562Y017704D01*
X031738Y017704D01*
X031631Y017660D01*
X031550Y017578D01*
X031506Y017471D01*
X031506Y016726D01*
X031550Y016620D01*
X031631Y016538D01*
X031738Y016494D01*
X032062Y016494D01*
X032406Y016150D01*
X030861Y014605D01*
X030786Y014425D01*
X030786Y008641D01*
X030774Y008629D01*
X030730Y008523D01*
X030730Y007777D01*
X030774Y007671D01*
X030786Y007659D01*
X030786Y004979D01*
X028947Y003140D01*
X018353Y003140D01*
X016802Y004691D01*
X016755Y004711D01*
X016755Y005200D01*
X017134Y005579D01*
X017552Y005579D01*
X017658Y005623D01*
X017740Y005705D01*
X017784Y005811D01*
X017784Y006520D01*
X017740Y006627D01*
X017658Y006708D01*
X017590Y006737D01*
X017614Y006761D01*
X017634Y006795D01*
X017644Y006833D01*
X017644Y007102D01*
X017246Y007102D01*
X017246Y007198D01*
X017644Y007198D01*
X017644Y007467D01*
X017634Y007505D01*
X017614Y007539D01*
X017590Y007563D01*
X025419Y007563D01*
X025283Y007662D02*
X017728Y007662D01*
X017740Y007673D02*
X017784Y007780D01*
X017740Y007673D02*
X017658Y007592D01*
X017590Y007563D01*
X017644Y007465D02*
X030786Y007465D01*
X030786Y007563D02*
X027905Y007563D01*
X028067Y007662D02*
X028803Y007662D01*
X028745Y007760D02*
X028165Y007760D01*
X027395Y007563D02*
X026881Y007563D01*
X027017Y007662D02*
X027233Y007662D01*
X027135Y007760D02*
X027063Y007760D01*
X026167Y007563D02*
X026133Y007563D01*
X024878Y007760D02*
X023331Y007760D01*
X023353Y007859D02*
X024779Y007859D01*
X024723Y007957D02*
X023353Y007957D01*
X023353Y008056D02*
X024682Y008056D01*
X025292Y008647D02*
X020884Y008647D01*
X019416Y008647D02*
X017689Y008647D01*
X017760Y008548D02*
X022514Y008548D01*
X022517Y008551D02*
X022489Y008523D01*
X022469Y008489D01*
X022459Y008451D01*
X022459Y008183D01*
X022857Y008183D01*
X022857Y008581D01*
X022589Y008581D01*
X022551Y008571D01*
X022517Y008551D01*
X022459Y008450D02*
X017784Y008450D01*
X017784Y008351D02*
X022459Y008351D01*
X022459Y008253D02*
X017784Y008253D01*
X016706Y008647D02*
X011684Y008647D01*
X011684Y008600D02*
X011684Y008700D01*
X011584Y008700D01*
X011584Y008600D01*
X010264Y008600D01*
X010264Y007567D01*
X010274Y007529D01*
X010294Y007495D01*
X010322Y007467D01*
X010356Y007447D01*
X010394Y007437D01*
X011584Y007437D01*
X011584Y008600D01*
X011684Y008600D01*
X011684Y007437D01*
X012874Y007437D01*
X012913Y007447D01*
X012947Y007467D01*
X012975Y007495D01*
X012995Y007529D01*
X013005Y007567D01*
X013005Y008600D01*
X011684Y008600D01*
X011684Y008548D02*
X011584Y008548D01*
X011584Y008450D02*
X011684Y008450D01*
X011684Y008351D02*
X011584Y008351D01*
X011584Y008253D02*
X011684Y008253D01*
X011684Y008154D02*
X011584Y008154D01*
X011584Y008056D02*
X011684Y008056D01*
X011684Y007957D02*
X011584Y007957D01*
X011584Y007859D02*
X011684Y007859D01*
X011684Y007760D02*
X011584Y007760D01*
X011584Y007662D02*
X011684Y007662D01*
X011684Y007563D02*
X011584Y007563D01*
X011584Y007465D02*
X011684Y007465D01*
X012943Y007465D02*
X016004Y007465D01*
X016103Y007563D02*
X013004Y007563D01*
X013005Y007662D02*
X016201Y007662D01*
X016300Y007760D02*
X013005Y007760D01*
X013005Y007859D02*
X016398Y007859D01*
X016497Y007957D02*
X013005Y007957D01*
X013005Y008056D02*
X016595Y008056D01*
X016610Y008154D02*
X013005Y008154D01*
X013005Y008253D02*
X016610Y008253D01*
X016610Y008351D02*
X013005Y008351D01*
X013005Y008450D02*
X016610Y008450D01*
X016635Y008548D02*
X013005Y008548D01*
X013005Y008700D02*
X013005Y009733D01*
X012995Y009771D01*
X012975Y009805D01*
X012947Y009833D01*
X012913Y009853D01*
X012874Y009863D01*
X011684Y009863D01*
X011684Y008700D01*
X013005Y008700D01*
X013005Y008745D02*
X019280Y008745D01*
X019234Y008844D02*
X013005Y008844D01*
X013005Y008942D02*
X019227Y008942D01*
X019227Y009041D02*
X013005Y009041D01*
X013005Y009139D02*
X019227Y009139D01*
X019227Y009238D02*
X013005Y009238D01*
X013005Y009336D02*
X019227Y009336D01*
X019227Y009435D02*
X013005Y009435D01*
X013005Y009533D02*
X019227Y009533D01*
X019227Y009632D02*
X013005Y009632D01*
X013005Y009730D02*
X019227Y009730D01*
X019227Y009829D02*
X012951Y009829D01*
X011684Y009829D02*
X011584Y009829D01*
X011584Y009863D02*
X010394Y009863D01*
X010356Y009853D01*
X010322Y009833D01*
X010294Y009805D01*
X010274Y009771D01*
X010264Y009733D01*
X010264Y008700D01*
X011584Y008700D01*
X011584Y009863D01*
X011584Y009730D02*
X011684Y009730D01*
X011684Y009632D02*
X011584Y009632D01*
X011584Y009533D02*
X011684Y009533D01*
X011684Y009435D02*
X011584Y009435D01*
X011584Y009336D02*
X011684Y009336D01*
X011684Y009238D02*
X011584Y009238D01*
X011584Y009139D02*
X011684Y009139D01*
X011684Y009041D02*
X011584Y009041D01*
X011584Y008942D02*
X011684Y008942D01*
X011684Y008844D02*
X011584Y008844D01*
X011584Y008745D02*
X011684Y008745D01*
X011584Y008647D02*
X002656Y008647D01*
X002656Y008745D02*
X010264Y008745D01*
X010264Y008844D02*
X002656Y008844D01*
X002656Y008942D02*
X010264Y008942D01*
X010264Y009041D02*
X008171Y009041D01*
X007129Y009041D02*
X002656Y009041D01*
X002656Y008548D02*
X010264Y008548D01*
X010264Y008450D02*
X002656Y008450D01*
X002656Y008351D02*
X010264Y008351D01*
X010264Y008253D02*
X008178Y008253D01*
X007122Y008253D02*
X002656Y008253D01*
X002656Y008154D02*
X007039Y008154D01*
X007006Y008056D02*
X002656Y008056D01*
X002656Y007957D02*
X007006Y007957D01*
X007006Y007859D02*
X003056Y007859D01*
X003128Y007760D02*
X004343Y007760D01*
X004345Y007762D02*
X004317Y007734D01*
X004298Y007700D01*
X004287Y007662D01*
X004287Y007200D01*
X005234Y007200D01*
X005234Y007792D01*
X004418Y007792D01*
X004380Y007782D01*
X004345Y007762D01*
X004287Y007662D02*
X003153Y007662D01*
X003153Y007563D02*
X004287Y007563D01*
X004287Y007465D02*
X003153Y007465D01*
X003153Y007366D02*
X004287Y007366D01*
X004287Y007268D02*
X003153Y007268D01*
X003153Y007169D02*
X005234Y007169D01*
X005234Y007200D02*
X005234Y007100D01*
X005334Y007100D01*
X005334Y007200D01*
X006280Y007200D01*
X006280Y007662D01*
X006270Y007700D01*
X006250Y007734D01*
X006222Y007762D01*
X006188Y007782D01*
X006150Y007792D01*
X005334Y007792D01*
X005334Y007200D01*
X005234Y007200D01*
X005234Y007268D02*
X005334Y007268D01*
X005334Y007366D02*
X005234Y007366D01*
X005234Y007465D02*
X005334Y007465D01*
X005334Y007563D02*
X005234Y007563D01*
X005234Y007662D02*
X005334Y007662D01*
X005334Y007760D02*
X005234Y007760D01*
X006225Y007760D02*
X007006Y007760D01*
X007006Y007662D02*
X006280Y007662D01*
X006280Y007563D02*
X007006Y007563D01*
X007006Y007465D02*
X006280Y007465D01*
X006280Y007366D02*
X007006Y007366D01*
X007031Y007268D02*
X006280Y007268D01*
X006280Y007100D02*
X005334Y007100D01*
X005334Y006508D01*
X006150Y006508D01*
X006188Y006518D01*
X006222Y006538D01*
X006250Y006566D01*
X006270Y006600D01*
X006280Y006638D01*
X006280Y007100D01*
X006280Y007071D02*
X008749Y007071D01*
X008651Y007169D02*
X008197Y007169D01*
X008096Y007034D02*
X008062Y007054D01*
X008024Y007064D01*
X007700Y007064D01*
X007700Y006649D01*
X007600Y006649D01*
X007600Y007064D01*
X007276Y007064D01*
X007238Y007054D01*
X007204Y007034D01*
X007176Y007006D01*
X007156Y006972D01*
X006280Y006972D01*
X006280Y006874D02*
X007146Y006874D01*
X007146Y006934D02*
X007146Y006649D01*
X007600Y006649D01*
X007600Y006549D01*
X007146Y006549D01*
X007146Y006264D01*
X007156Y006226D01*
X007176Y006192D01*
X007204Y006164D01*
X007238Y006144D01*
X007276Y006134D01*
X007600Y006134D01*
X007600Y006549D01*
X007700Y006549D01*
X007700Y006649D01*
X008154Y006649D01*
X008154Y006934D01*
X008144Y006972D01*
X008848Y006972D01*
X008946Y006874D02*
X008154Y006874D01*
X008144Y006972D02*
X008124Y007006D01*
X008096Y007034D01*
X008154Y006775D02*
X009045Y006775D01*
X009143Y006677D02*
X008154Y006677D01*
X008154Y006549D02*
X008154Y006264D01*
X008144Y006226D01*
X008124Y006192D01*
X008096Y006164D01*
X008062Y006144D01*
X008024Y006134D01*
X007700Y006134D01*
X007700Y006549D01*
X008154Y006549D01*
X008154Y006480D02*
X009340Y006480D01*
X009242Y006578D02*
X007700Y006578D01*
X007700Y006480D02*
X007600Y006480D01*
X007600Y006578D02*
X006257Y006578D01*
X006280Y006677D02*
X007146Y006677D01*
X007146Y006775D02*
X006280Y006775D01*
X007103Y007169D02*
X005334Y007169D01*
X005334Y007071D02*
X005234Y007071D01*
X005234Y007100D02*
X005234Y006508D01*
X004418Y006508D01*
X004380Y006518D01*
X004345Y006538D01*
X004317Y006566D01*
X004298Y006600D01*
X004287Y006638D01*
X004287Y007100D01*
X005234Y007100D01*
X005234Y006972D02*
X005334Y006972D01*
X005334Y006874D02*
X005234Y006874D01*
X005234Y006775D02*
X005334Y006775D01*
X005334Y006677D02*
X005234Y006677D01*
X005234Y006578D02*
X005334Y006578D01*
X004310Y006578D02*
X003143Y006578D01*
X003153Y006677D02*
X004287Y006677D01*
X004287Y006775D02*
X003153Y006775D01*
X003153Y006874D02*
X004287Y006874D01*
X004287Y006972D02*
X003153Y006972D01*
X003153Y007071D02*
X004287Y007071D01*
X003094Y006480D02*
X007146Y006480D01*
X007146Y006381D02*
X002952Y006381D01*
X001080Y006381D02*
X000440Y006381D01*
X000440Y006283D02*
X007146Y006283D01*
X007183Y006184D02*
X000440Y006184D01*
X000440Y006086D02*
X009734Y006086D01*
X009636Y006184D02*
X008117Y006184D01*
X008154Y006283D02*
X009537Y006283D01*
X009439Y006381D02*
X008154Y006381D01*
X007700Y006381D02*
X007600Y006381D01*
X007600Y006283D02*
X007700Y006283D01*
X007700Y006184D02*
X007600Y006184D01*
X007600Y006677D02*
X007700Y006677D01*
X007700Y006775D02*
X007600Y006775D01*
X007600Y006874D02*
X007700Y006874D01*
X007700Y006972D02*
X007600Y006972D01*
X007156Y006972D02*
X007146Y006934D01*
X009365Y007859D02*
X010264Y007859D01*
X010264Y007957D02*
X009365Y007957D01*
X009345Y008056D02*
X010264Y008056D01*
X010264Y008154D02*
X009280Y008154D01*
X009445Y007760D02*
X010264Y007760D01*
X010264Y007662D02*
X009544Y007662D01*
X009642Y007563D02*
X010265Y007563D01*
X010326Y007465D02*
X009741Y007465D01*
X009839Y007366D02*
X015906Y007366D01*
X015807Y007268D02*
X009938Y007268D01*
X010036Y007169D02*
X015709Y007169D01*
X015610Y007071D02*
X010135Y007071D01*
X010233Y006972D02*
X015512Y006972D01*
X015413Y006874D02*
X010332Y006874D01*
X010430Y006775D02*
X015315Y006775D01*
X015216Y006677D02*
X010529Y006677D01*
X010628Y006578D02*
X015118Y006578D01*
X015019Y006480D02*
X010726Y006480D01*
X010825Y006381D02*
X014921Y006381D01*
X014822Y006283D02*
X010923Y006283D01*
X011022Y006184D02*
X014724Y006184D01*
X014625Y006086D02*
X011120Y006086D01*
X011219Y005987D02*
X014527Y005987D01*
X014428Y005889D02*
X011317Y005889D01*
X011416Y005790D02*
X014334Y005790D01*
X014293Y005692D02*
X011514Y005692D01*
X011613Y005593D02*
X014280Y005593D01*
X014140Y005495D02*
X011711Y005495D01*
X011810Y005396D02*
X014069Y005396D01*
X014045Y005298D02*
X011908Y005298D01*
X012007Y005199D02*
X014045Y005199D01*
X014045Y005101D02*
X012105Y005101D01*
X012204Y005002D02*
X014045Y005002D01*
X014045Y004904D02*
X012302Y004904D01*
X012401Y004805D02*
X014045Y004805D01*
X014047Y004707D02*
X012499Y004707D01*
X011606Y004214D02*
X000440Y004214D01*
X000440Y004116D02*
X011704Y004116D01*
X011803Y004017D02*
X000440Y004017D01*
X000440Y003919D02*
X002364Y003919D01*
X002334Y003913D02*
X002459Y003937D01*
X002586Y003950D01*
X002600Y003950D01*
X002600Y002700D01*
X002700Y002700D01*
X003950Y002700D01*
X003950Y002714D01*
X003937Y002841D01*
X003913Y002966D01*
X003875Y003088D01*
X003827Y003206D01*
X003766Y003319D01*
X003695Y003425D01*
X003614Y003524D01*
X003524Y003614D01*
X003425Y003695D01*
X003319Y003766D01*
X003206Y003827D01*
X003088Y003875D01*
X002966Y003913D01*
X002841Y003937D01*
X002714Y003950D01*
X002700Y003950D01*
X002700Y002700D01*
X002700Y002600D01*
X003950Y002600D01*
X003950Y002586D01*
X003937Y002459D01*
X003913Y002334D01*
X003875Y002212D01*
X003827Y002094D01*
X003766Y001981D01*
X003695Y001875D01*
X003614Y001776D01*
X003524Y001686D01*
X003425Y001605D01*
X003319Y001534D01*
X003206Y001473D01*
X003088Y001425D01*
X002966Y001387D01*
X002841Y001363D01*
X002714Y001350D01*
X002700Y001350D01*
X002700Y002600D01*
X002600Y002600D01*
X002600Y001350D01*
X002586Y001350D01*
X002459Y001363D01*
X002334Y001387D01*
X002212Y001425D01*
X002094Y001473D01*
X001981Y001534D01*
X001875Y001605D01*
X001776Y001686D01*
X001686Y001776D01*
X001605Y001875D01*
X001534Y001981D01*
X001473Y002094D01*
X001425Y002212D01*
X001387Y002334D01*
X001363Y002459D01*
X001350Y002586D01*
X001350Y002600D01*
X002600Y002600D01*
X002600Y002700D01*
X001350Y002700D01*
X001350Y002714D01*
X001363Y002841D01*
X001387Y002966D01*
X001425Y003088D01*
X001473Y003206D01*
X001534Y003319D01*
X001605Y003425D01*
X001686Y003524D01*
X001776Y003614D01*
X001875Y003695D01*
X001981Y003766D01*
X002094Y003827D01*
X002212Y003875D01*
X002334Y003913D01*
X002600Y003919D02*
X002700Y003919D01*
X002700Y003820D02*
X002600Y003820D01*
X002600Y003722D02*
X002700Y003722D01*
X002700Y003623D02*
X002600Y003623D01*
X002600Y003525D02*
X002700Y003525D01*
X002700Y003426D02*
X002600Y003426D01*
X002600Y003328D02*
X002700Y003328D01*
X002700Y003229D02*
X002600Y003229D01*
X002600Y003131D02*
X002700Y003131D01*
X002700Y003032D02*
X002600Y003032D01*
X002600Y002934D02*
X002700Y002934D01*
X002700Y002835D02*
X002600Y002835D01*
X002600Y002737D02*
X002700Y002737D01*
X002700Y002638D02*
X017469Y002638D01*
X017567Y002540D02*
X003945Y002540D01*
X003934Y002441D02*
X017666Y002441D01*
X017764Y002343D02*
X003914Y002343D01*
X003885Y002244D02*
X017863Y002244D01*
X017370Y002737D02*
X003948Y002737D01*
X003938Y002835D02*
X017272Y002835D01*
X017173Y002934D02*
X003919Y002934D01*
X003893Y003032D02*
X017075Y003032D01*
X016976Y003131D02*
X003858Y003131D01*
X003815Y003229D02*
X016878Y003229D01*
X016779Y003328D02*
X003761Y003328D01*
X003695Y003426D02*
X016681Y003426D01*
X016582Y003525D02*
X003614Y003525D01*
X003514Y003623D02*
X016484Y003623D01*
X016385Y003722D02*
X014770Y003722D01*
X015255Y004766D02*
X015255Y005338D01*
X015211Y005444D01*
X015129Y005526D01*
X015117Y005531D01*
X016785Y007198D01*
X017149Y007198D01*
X017149Y007102D01*
X016750Y007102D01*
X016750Y006833D01*
X016761Y006795D01*
X016780Y006761D01*
X016805Y006737D01*
X016736Y006708D01*
X016655Y006627D01*
X016610Y006520D01*
X016610Y006102D01*
X016078Y005570D01*
X015777Y005570D01*
X015671Y005526D01*
X015589Y005444D01*
X015545Y005338D01*
X015545Y004766D01*
X015255Y004766D01*
X015255Y004805D02*
X015545Y004805D01*
X015545Y004904D02*
X015255Y004904D01*
X015255Y005002D02*
X015545Y005002D01*
X015545Y005101D02*
X015255Y005101D01*
X015255Y005199D02*
X015545Y005199D01*
X015545Y005298D02*
X015255Y005298D01*
X015231Y005396D02*
X015569Y005396D01*
X015640Y005495D02*
X015160Y005495D01*
X015179Y005593D02*
X016101Y005593D01*
X016200Y005692D02*
X015278Y005692D01*
X015376Y005790D02*
X016298Y005790D01*
X016397Y005889D02*
X015475Y005889D01*
X015573Y005987D02*
X016495Y005987D01*
X016594Y006086D02*
X015672Y006086D01*
X015770Y006184D02*
X016610Y006184D01*
X016610Y006283D02*
X015869Y006283D01*
X015967Y006381D02*
X016610Y006381D01*
X016610Y006480D02*
X016066Y006480D01*
X016164Y006578D02*
X016634Y006578D01*
X016704Y006677D02*
X016263Y006677D01*
X016361Y006775D02*
X016772Y006775D01*
X016750Y006874D02*
X016460Y006874D01*
X016558Y006972D02*
X016750Y006972D01*
X016750Y007071D02*
X016657Y007071D01*
X016755Y007169D02*
X017149Y007169D01*
X017246Y007169D02*
X030786Y007169D01*
X030786Y007071D02*
X017644Y007071D01*
X017644Y006972D02*
X030786Y006972D01*
X030786Y006874D02*
X017644Y006874D01*
X017622Y006775D02*
X030786Y006775D01*
X030786Y006677D02*
X023399Y006677D01*
X023367Y006708D02*
X023260Y006753D01*
X022551Y006753D01*
X022445Y006708D01*
X022363Y006627D01*
X022319Y006520D01*
X022319Y005811D01*
X022363Y005705D01*
X022445Y005623D01*
X022551Y005579D01*
X023260Y005579D01*
X023367Y005623D01*
X023449Y005705D01*
X023493Y005811D01*
X023493Y006520D01*
X023449Y006627D01*
X023367Y006708D01*
X023469Y006578D02*
X030786Y006578D01*
X030786Y006480D02*
X023493Y006480D01*
X023493Y006381D02*
X030786Y006381D01*
X030786Y006283D02*
X023493Y006283D01*
X023493Y006184D02*
X030786Y006184D01*
X030786Y006086D02*
X023493Y006086D01*
X023493Y005987D02*
X030786Y005987D01*
X030786Y005889D02*
X023493Y005889D01*
X023484Y005790D02*
X030786Y005790D01*
X030786Y005692D02*
X023436Y005692D01*
X023295Y005593D02*
X030786Y005593D01*
X030786Y005495D02*
X021050Y005495D01*
X021029Y005546D02*
X020947Y005627D01*
X020841Y005671D01*
X019459Y005671D01*
X019353Y005627D01*
X019271Y005546D01*
X019227Y005439D01*
X019227Y004058D01*
X019271Y003951D01*
X019353Y003870D01*
X019459Y003825D01*
X020841Y003825D01*
X020947Y003870D01*
X021029Y003951D01*
X021073Y004058D01*
X021073Y005439D01*
X021029Y005546D01*
X020982Y005593D02*
X022517Y005593D01*
X022376Y005692D02*
X017727Y005692D01*
X017775Y005790D02*
X022328Y005790D01*
X022319Y005889D02*
X017784Y005889D01*
X017784Y005987D02*
X022319Y005987D01*
X022319Y006086D02*
X017784Y006086D01*
X017784Y006184D02*
X022319Y006184D01*
X022319Y006283D02*
X017784Y006283D01*
X017784Y006381D02*
X022319Y006381D01*
X022319Y006480D02*
X017784Y006480D01*
X017760Y006578D02*
X022343Y006578D01*
X022413Y006677D02*
X017690Y006677D01*
X017644Y007268D02*
X030786Y007268D01*
X030786Y007366D02*
X017644Y007366D01*
X017586Y005593D02*
X019318Y005593D01*
X019250Y005495D02*
X017049Y005495D01*
X016951Y005396D02*
X019227Y005396D01*
X019227Y005298D02*
X016852Y005298D01*
X016755Y005199D02*
X019227Y005199D01*
X019227Y005101D02*
X016755Y005101D01*
X016755Y005002D02*
X019227Y005002D01*
X019227Y004904D02*
X016755Y004904D01*
X016755Y004805D02*
X019227Y004805D01*
X019227Y004707D02*
X016765Y004707D01*
X016885Y004608D02*
X019227Y004608D01*
X019227Y004510D02*
X016983Y004510D01*
X017082Y004411D02*
X019227Y004411D01*
X019227Y004313D02*
X017180Y004313D01*
X017279Y004214D02*
X019227Y004214D01*
X019227Y004116D02*
X017377Y004116D01*
X017476Y004017D02*
X019244Y004017D01*
X019304Y003919D02*
X017574Y003919D01*
X017673Y003820D02*
X029627Y003820D01*
X029529Y003722D02*
X017771Y003722D01*
X017870Y003623D02*
X029430Y003623D01*
X029332Y003525D02*
X017968Y003525D01*
X018067Y003426D02*
X029233Y003426D01*
X029135Y003328D02*
X018165Y003328D01*
X018264Y003229D02*
X029036Y003229D01*
X029831Y002638D02*
X036600Y002638D01*
X036600Y002600D02*
X036600Y002700D01*
X036600Y003950D01*
X036586Y003950D01*
X036459Y003937D01*
X036334Y003913D01*
X036212Y003875D01*
X036094Y003827D01*
X035981Y003766D01*
X035875Y003695D01*
X035776Y003614D01*
X035686Y003524D01*
X035605Y003425D01*
X035534Y003319D01*
X035473Y003206D01*
X035425Y003088D01*
X035387Y002966D01*
X035363Y002841D01*
X035350Y002714D01*
X035350Y002700D01*
X036600Y002700D01*
X036700Y002700D01*
X037950Y002700D01*
X037950Y002714D01*
X037937Y002841D01*
X037913Y002966D01*
X037875Y003088D01*
X037827Y003206D01*
X037766Y003319D01*
X037695Y003425D01*
X037614Y003524D01*
X037524Y003614D01*
X037425Y003695D01*
X037319Y003766D01*
X037206Y003827D01*
X037088Y003875D01*
X036966Y003913D01*
X036841Y003937D01*
X036714Y003950D01*
X036700Y003950D01*
X036700Y002700D01*
X036700Y002600D01*
X037950Y002600D01*
X037950Y002586D01*
X037937Y002459D01*
X037913Y002334D01*
X037875Y002212D01*
X037827Y002094D01*
X037766Y001981D01*
X037695Y001875D01*
X037614Y001776D01*
X037524Y001686D01*
X037425Y001605D01*
X037319Y001534D01*
X037206Y001473D01*
X037088Y001425D01*
X036966Y001387D01*
X036841Y001363D01*
X036714Y001350D01*
X036700Y001350D01*
X036700Y002600D01*
X036600Y002600D01*
X036600Y001350D01*
X036586Y001350D01*
X036459Y001363D01*
X036334Y001387D01*
X036212Y001425D01*
X036094Y001473D01*
X035981Y001534D01*
X035875Y001605D01*
X035776Y001686D01*
X035686Y001776D01*
X035605Y001875D01*
X035534Y001981D01*
X035473Y002094D01*
X035425Y002212D01*
X035387Y002334D01*
X035363Y002459D01*
X035350Y002586D01*
X035350Y002600D01*
X036600Y002600D01*
X036600Y002540D02*
X036700Y002540D01*
X036700Y002638D02*
X038852Y002638D01*
X038852Y002540D02*
X037945Y002540D01*
X037934Y002441D02*
X038852Y002441D01*
X038852Y002343D02*
X037914Y002343D01*
X037885Y002244D02*
X038852Y002244D01*
X038852Y002146D02*
X037848Y002146D01*
X037802Y002047D02*
X038852Y002047D01*
X038852Y001949D02*
X037745Y001949D01*
X037675Y001850D02*
X038852Y001850D01*
X038852Y001752D02*
X037590Y001752D01*
X037484Y001653D02*
X038852Y001653D01*
X038852Y001555D02*
X037350Y001555D01*
X037165Y001456D02*
X038852Y001456D01*
X038852Y001358D02*
X036790Y001358D01*
X036700Y001358D02*
X036600Y001358D01*
X036509Y001358D02*
X002790Y001358D01*
X002700Y001358D02*
X002600Y001358D01*
X002509Y001358D02*
X000440Y001358D01*
X000440Y001456D02*
X002135Y001456D01*
X001950Y001555D02*
X000440Y001555D01*
X000440Y001653D02*
X001816Y001653D01*
X001710Y001752D02*
X000440Y001752D01*
X000440Y001850D02*
X001625Y001850D01*
X001555Y001949D02*
X000440Y001949D01*
X000440Y002047D02*
X001498Y002047D01*
X001452Y002146D02*
X000440Y002146D01*
X000440Y002244D02*
X001415Y002244D01*
X001386Y002343D02*
X000440Y002343D01*
X000440Y002441D02*
X001366Y002441D01*
X001355Y002540D02*
X000440Y002540D01*
X000440Y002638D02*
X002600Y002638D01*
X002600Y002540D02*
X002700Y002540D01*
X002700Y002441D02*
X002600Y002441D01*
X002600Y002343D02*
X002700Y002343D01*
X002700Y002244D02*
X002600Y002244D01*
X002600Y002146D02*
X002700Y002146D01*
X002700Y002047D02*
X002600Y002047D01*
X002600Y001949D02*
X002700Y001949D01*
X002700Y001850D02*
X002600Y001850D01*
X002600Y001752D02*
X002700Y001752D01*
X002700Y001653D02*
X002600Y001653D01*
X002600Y001555D02*
X002700Y001555D01*
X002700Y001456D02*
X002600Y001456D01*
X003165Y001456D02*
X036135Y001456D01*
X035950Y001555D02*
X003350Y001555D01*
X003484Y001653D02*
X035816Y001653D01*
X035710Y001752D02*
X003590Y001752D01*
X003675Y001850D02*
X035625Y001850D01*
X035555Y001949D02*
X003745Y001949D01*
X003802Y002047D02*
X035498Y002047D01*
X035452Y002146D02*
X003848Y002146D01*
X001352Y002737D02*
X000440Y002737D01*
X000440Y002835D02*
X001362Y002835D01*
X001381Y002934D02*
X000440Y002934D01*
X000440Y003032D02*
X001407Y003032D01*
X001442Y003131D02*
X000440Y003131D01*
X000440Y003229D02*
X001485Y003229D01*
X001539Y003328D02*
X000440Y003328D01*
X000440Y003426D02*
X001605Y003426D01*
X001686Y003525D02*
X000440Y003525D01*
X000440Y003623D02*
X001786Y003623D01*
X001914Y003722D02*
X000440Y003722D01*
X000440Y003820D02*
X002081Y003820D01*
X002936Y003919D02*
X011901Y003919D01*
X012000Y003820D02*
X003219Y003820D01*
X003386Y003722D02*
X012117Y003722D01*
X011507Y004313D02*
X000440Y004313D01*
X000440Y004411D02*
X011409Y004411D01*
X011310Y004510D02*
X000440Y004510D01*
X000440Y004608D02*
X011212Y004608D01*
X011113Y004707D02*
X000440Y004707D01*
X000440Y004805D02*
X011015Y004805D01*
X010916Y004904D02*
X000440Y004904D01*
X000440Y005002D02*
X010818Y005002D01*
X010719Y005101D02*
X000440Y005101D01*
X000440Y005199D02*
X010621Y005199D01*
X010522Y005298D02*
X000440Y005298D01*
X000440Y005396D02*
X010424Y005396D01*
X010325Y005495D02*
X000440Y005495D01*
X000440Y005593D02*
X010227Y005593D01*
X010128Y005692D02*
X000440Y005692D01*
X000440Y005790D02*
X010030Y005790D01*
X009931Y005889D02*
X000440Y005889D01*
X000440Y005987D02*
X009833Y005987D01*
X010264Y009139D02*
X009274Y009139D01*
X009342Y009238D02*
X010264Y009238D01*
X010264Y009336D02*
X009365Y009336D01*
X009365Y009435D02*
X010264Y009435D01*
X010264Y009533D02*
X009365Y009533D01*
X009365Y009632D02*
X010264Y009632D01*
X010264Y009730D02*
X009365Y009730D01*
X009354Y009829D02*
X010317Y009829D01*
X009303Y009927D02*
X019227Y009927D01*
X019227Y010223D02*
X002656Y010223D01*
X002656Y010321D02*
X007160Y010321D01*
X007156Y010328D02*
X007176Y010294D01*
X007204Y010266D01*
X007238Y010246D01*
X007276Y010236D01*
X007600Y010236D01*
X007600Y010651D01*
X007700Y010651D01*
X007700Y010751D01*
X008154Y010751D01*
X008154Y011036D01*
X008144Y011074D01*
X008124Y011108D01*
X008096Y011136D01*
X008062Y011156D01*
X008024Y011166D01*
X007700Y011166D01*
X007700Y010751D01*
X007600Y010751D01*
X007600Y010651D01*
X007146Y010651D01*
X007146Y010366D01*
X007156Y010328D01*
X007146Y010420D02*
X002656Y010420D01*
X002656Y010518D02*
X007146Y010518D01*
X007146Y010617D02*
X002656Y010617D01*
X002656Y010715D02*
X007600Y010715D01*
X007600Y010751D02*
X007146Y010751D01*
X007146Y011036D01*
X007156Y011074D01*
X007176Y011108D01*
X007204Y011136D01*
X007238Y011156D01*
X007276Y011166D01*
X007600Y011166D01*
X007600Y010751D01*
X007600Y010814D02*
X007700Y010814D01*
X007700Y010912D02*
X007600Y010912D01*
X007600Y011011D02*
X007700Y011011D01*
X007700Y011109D02*
X007600Y011109D01*
X007700Y010715D02*
X023428Y010715D01*
X023462Y010695D01*
X023500Y010685D01*
X023726Y010685D01*
X023726Y011100D01*
X023370Y011100D01*
X023370Y010815D01*
X023380Y010777D01*
X023400Y010743D01*
X023428Y010715D01*
X023371Y010814D02*
X008154Y010814D01*
X008154Y010912D02*
X023370Y010912D01*
X023370Y011011D02*
X008154Y011011D01*
X008124Y011109D02*
X023726Y011109D01*
X023726Y011011D02*
X023826Y011011D01*
X023826Y010912D02*
X023726Y010912D01*
X023726Y010814D02*
X023826Y010814D01*
X023826Y010715D02*
X023726Y010715D01*
X024076Y010617D02*
X008154Y010617D01*
X007700Y010617D02*
X007600Y010617D01*
X007600Y010518D02*
X007700Y010518D01*
X007700Y010420D02*
X007600Y010420D01*
X007600Y010321D02*
X007700Y010321D01*
X007096Y010124D02*
X002656Y010124D01*
X002656Y010814D02*
X007146Y010814D01*
X007146Y010912D02*
X002656Y010912D01*
X002656Y011011D02*
X007146Y011011D01*
X007176Y011109D02*
X002656Y011109D01*
X002656Y011208D02*
X023370Y011208D01*
X023370Y011306D02*
X002656Y011306D01*
X003009Y011405D02*
X023370Y011405D01*
X023375Y011503D02*
X003112Y011503D01*
X003153Y011602D02*
X004297Y011602D01*
X004298Y011600D02*
X004317Y011566D01*
X004345Y011538D01*
X004380Y011518D01*
X004418Y011508D01*
X005234Y011508D01*
X005234Y012100D01*
X005334Y012100D01*
X005334Y012200D01*
X006280Y012200D01*
X006280Y012662D01*
X006270Y012700D01*
X006250Y012734D01*
X006222Y012762D01*
X006188Y012782D01*
X006150Y012792D01*
X005334Y012792D01*
X005334Y012200D01*
X005234Y012200D01*
X005234Y012792D01*
X004418Y012792D01*
X004380Y012782D01*
X004345Y012762D01*
X004317Y012734D01*
X004298Y012700D01*
X004287Y012662D01*
X004287Y012200D01*
X005234Y012200D01*
X005234Y012100D01*
X004287Y012100D01*
X004287Y011638D01*
X004298Y011600D01*
X004287Y011700D02*
X003153Y011700D01*
X003153Y011799D02*
X004287Y011799D01*
X004287Y011897D02*
X003153Y011897D01*
X003153Y011996D02*
X004287Y011996D01*
X004287Y012094D02*
X003153Y012094D01*
X003153Y012193D02*
X005234Y012193D01*
X005234Y012291D02*
X005334Y012291D01*
X005334Y012193D02*
X011731Y012193D01*
X011757Y012182D02*
X011943Y012182D01*
X012115Y012253D01*
X012247Y012385D01*
X012318Y012557D01*
X012318Y012743D01*
X012287Y012817D01*
X012296Y012826D01*
X012302Y012840D01*
X012400Y012840D01*
X012400Y013380D01*
X012500Y013380D01*
X012500Y012840D01*
X012598Y012840D01*
X012604Y012826D01*
X012613Y012817D01*
X012582Y012743D01*
X012582Y012557D01*
X012653Y012385D01*
X012785Y012253D01*
X012957Y012182D01*
X013143Y012182D01*
X013315Y012253D01*
X013447Y012385D01*
X013518Y012557D01*
X013518Y012743D01*
X013487Y012817D01*
X013496Y012826D01*
X013540Y012932D01*
X013540Y013928D01*
X013535Y013940D01*
X013732Y013940D01*
X013882Y014002D01*
X013998Y014118D01*
X014060Y014268D01*
X014060Y016187D01*
X014340Y016467D01*
X014340Y014268D01*
X014402Y014118D01*
X014518Y014002D01*
X014668Y013940D01*
X014917Y013940D01*
X014910Y013928D01*
X014900Y013890D01*
X014900Y013480D01*
X015200Y013480D01*
X015200Y013380D01*
X015300Y013380D01*
X015300Y012840D01*
X015398Y012840D01*
X015404Y012826D01*
X015413Y012817D01*
X015382Y012743D01*
X015382Y012557D01*
X015453Y012385D01*
X015585Y012253D01*
X015757Y012182D01*
X015943Y012182D01*
X016115Y012253D01*
X016247Y012385D01*
X016318Y012557D01*
X016318Y012743D01*
X016287Y012817D01*
X016296Y012826D01*
X016302Y012840D01*
X016400Y012840D01*
X016400Y013380D01*
X016500Y013380D01*
X016500Y012840D01*
X016598Y012840D01*
X016604Y012826D01*
X016613Y012817D01*
X016582Y012743D01*
X016582Y012557D01*
X016653Y012385D01*
X016785Y012253D01*
X016957Y012182D01*
X017143Y012182D01*
X017315Y012253D01*
X017447Y012385D01*
X017518Y012557D01*
X017518Y012743D01*
X017487Y012817D01*
X017496Y012826D01*
X017540Y012932D01*
X017540Y013928D01*
X017535Y013940D01*
X017732Y013940D01*
X017882Y014002D01*
X017998Y014118D01*
X018060Y014268D01*
X018060Y016187D01*
X018340Y016467D01*
X018340Y014268D01*
X018402Y014118D01*
X018518Y014002D01*
X018668Y013940D01*
X018917Y013940D01*
X018910Y013928D01*
X018900Y013890D01*
X018900Y013480D01*
X019200Y013480D01*
X019200Y013380D01*
X019300Y013380D01*
X019300Y012840D01*
X019398Y012840D01*
X019404Y012826D01*
X019413Y012817D01*
X019382Y012743D01*
X019382Y012557D01*
X019453Y012385D01*
X019585Y012253D01*
X019757Y012182D01*
X019943Y012182D01*
X020115Y012253D01*
X020247Y012385D01*
X020318Y012557D01*
X020318Y012743D01*
X020287Y012817D01*
X020296Y012826D01*
X020302Y012840D01*
X020400Y012840D01*
X020400Y013380D01*
X020500Y013380D01*
X020500Y012840D01*
X020598Y012840D01*
X020604Y012826D01*
X020686Y012744D01*
X020792Y012700D01*
X021308Y012700D01*
X021414Y012744D01*
X021496Y012826D01*
X021540Y012932D01*
X021540Y013280D01*
X021858Y013280D01*
X021885Y013253D01*
X022057Y013182D01*
X022243Y013182D01*
X022415Y013253D01*
X022547Y013385D01*
X022618Y013557D01*
X022618Y013743D01*
X022547Y013915D01*
X022415Y014047D01*
X022243Y014118D01*
X022057Y014118D01*
X021956Y014076D01*
X021998Y014118D01*
X022060Y014268D01*
X022060Y016187D01*
X022338Y016465D01*
X022475Y016602D01*
X022550Y016783D01*
X022550Y018288D01*
X022636Y018375D01*
X022740Y018625D01*
X022740Y019675D01*
X022636Y019925D01*
X022445Y020116D01*
X022195Y020220D01*
X021925Y020220D01*
X021675Y020116D01*
X021484Y019925D01*
X021380Y019675D01*
X021380Y018625D01*
X021484Y018375D01*
X021570Y018288D01*
X021570Y017083D01*
X021547Y017060D01*
X020368Y017060D01*
X020340Y017048D01*
X020340Y018128D01*
X020475Y018184D01*
X020666Y018375D01*
X020770Y018625D01*
X020770Y019675D01*
X020666Y019925D01*
X020475Y020116D01*
X020225Y020220D01*
X019955Y020220D01*
X019705Y020116D01*
X019514Y019925D01*
X019410Y019675D01*
X019410Y019128D01*
X019360Y019007D01*
X019360Y017060D01*
X018668Y017060D01*
X018610Y017036D01*
X018610Y018288D01*
X018696Y018375D01*
X018800Y018625D01*
X018800Y019675D01*
X018696Y019925D01*
X018505Y020116D01*
X018255Y020220D01*
X017985Y020220D01*
X017735Y020116D01*
X017544Y019925D01*
X017440Y019675D01*
X017440Y018625D01*
X017544Y018375D01*
X017630Y018288D01*
X017630Y017143D01*
X017547Y017060D01*
X016368Y017060D01*
X016340Y017048D01*
X016340Y018103D01*
X016535Y018184D01*
X016726Y018375D01*
X016830Y018625D01*
X016830Y019675D01*
X016726Y019925D01*
X016535Y020116D01*
X016285Y020220D01*
X016015Y020220D01*
X015765Y020116D01*
X015574Y019925D01*
X015470Y019675D01*
X015470Y019163D01*
X015435Y019128D01*
X015360Y018947D01*
X015360Y017060D01*
X014670Y017060D01*
X014670Y018288D01*
X014756Y018375D01*
X014860Y018625D01*
X014860Y019675D01*
X014756Y019925D01*
X014565Y020116D01*
X014315Y020220D01*
X014045Y020220D01*
X013795Y020116D01*
X013604Y019925D01*
X013500Y019675D01*
X013500Y018625D01*
X013604Y018375D01*
X013690Y018288D01*
X013690Y017203D01*
X013547Y017060D01*
X012368Y017060D01*
X012340Y017048D01*
X012340Y018080D01*
X012345Y018080D01*
X012595Y018184D01*
X012786Y018375D01*
X012890Y018625D01*
X012890Y019675D01*
X012786Y019925D01*
X012595Y020116D01*
X012345Y020220D01*
X012075Y020220D01*
X011825Y020116D01*
X011634Y019925D01*
X011530Y019675D01*
X011530Y019163D01*
X011435Y019068D01*
X011360Y018887D01*
X011360Y017060D01*
X010668Y017060D01*
X010518Y016998D01*
X010402Y016882D01*
X010340Y016732D01*
X010340Y014268D01*
X010402Y014118D01*
X010518Y014002D01*
X010668Y013940D01*
X010917Y013940D01*
X010910Y013928D01*
X010900Y013890D01*
X010900Y013480D01*
X011200Y013480D01*
X011200Y013380D01*
X011300Y013380D01*
X011300Y012840D01*
X011398Y012840D01*
X011404Y012826D01*
X011413Y012817D01*
X011382Y012743D01*
X011382Y012557D01*
X011453Y012385D01*
X011585Y012253D01*
X011757Y012182D01*
X011969Y012193D02*
X012931Y012193D01*
X012747Y012291D02*
X012153Y012291D01*
X012249Y012390D02*
X012651Y012390D01*
X012610Y012488D02*
X012290Y012488D01*
X012318Y012587D02*
X012582Y012587D01*
X012582Y012685D02*
X012318Y012685D01*
X012301Y012784D02*
X012599Y012784D01*
X012500Y012882D02*
X012400Y012882D01*
X012400Y012981D02*
X012500Y012981D01*
X012500Y013079D02*
X012400Y013079D01*
X012400Y013178D02*
X012500Y013178D01*
X012500Y013276D02*
X012400Y013276D01*
X012400Y013375D02*
X012500Y013375D01*
X013540Y013375D02*
X014900Y013375D01*
X014900Y013380D02*
X014900Y012970D01*
X014910Y012932D01*
X014930Y012898D01*
X014958Y012870D01*
X014992Y012850D01*
X015030Y012840D01*
X015200Y012840D01*
X015200Y013380D01*
X014900Y013380D01*
X014900Y013276D02*
X013540Y013276D01*
X013540Y013178D02*
X014900Y013178D01*
X014900Y013079D02*
X013540Y013079D01*
X013540Y012981D02*
X014900Y012981D01*
X014946Y012882D02*
X013519Y012882D01*
X013501Y012784D02*
X015399Y012784D01*
X015382Y012685D02*
X013518Y012685D01*
X013518Y012587D02*
X015382Y012587D01*
X015410Y012488D02*
X013490Y012488D01*
X013449Y012390D02*
X015451Y012390D01*
X015547Y012291D02*
X013353Y012291D01*
X013169Y012193D02*
X015731Y012193D01*
X015969Y012193D02*
X016931Y012193D01*
X016747Y012291D02*
X016153Y012291D01*
X016249Y012390D02*
X016651Y012390D01*
X016610Y012488D02*
X016290Y012488D01*
X016318Y012587D02*
X016582Y012587D01*
X016582Y012685D02*
X016318Y012685D01*
X016301Y012784D02*
X016599Y012784D01*
X016500Y012882D02*
X016400Y012882D01*
X016400Y012981D02*
X016500Y012981D01*
X016500Y013079D02*
X016400Y013079D01*
X016400Y013178D02*
X016500Y013178D01*
X016500Y013276D02*
X016400Y013276D01*
X016400Y013375D02*
X016500Y013375D01*
X017540Y013375D02*
X018900Y013375D01*
X018900Y013380D02*
X018900Y012970D01*
X018910Y012932D01*
X018930Y012898D01*
X018958Y012870D01*
X018992Y012850D01*
X019030Y012840D01*
X019200Y012840D01*
X019200Y013380D01*
X018900Y013380D01*
X018900Y013276D02*
X017540Y013276D01*
X017540Y013178D02*
X018900Y013178D01*
X018900Y013079D02*
X017540Y013079D01*
X017540Y012981D02*
X018900Y012981D01*
X018946Y012882D02*
X017519Y012882D01*
X017501Y012784D02*
X019399Y012784D01*
X019382Y012685D02*
X017518Y012685D01*
X017518Y012587D02*
X019382Y012587D01*
X019410Y012488D02*
X017490Y012488D01*
X017449Y012390D02*
X019451Y012390D01*
X019547Y012291D02*
X017353Y012291D01*
X017169Y012193D02*
X019731Y012193D01*
X019969Y012193D02*
X027010Y012193D01*
X027016Y012291D02*
X020153Y012291D01*
X020249Y012390D02*
X027057Y012390D01*
X027097Y012488D02*
X020290Y012488D01*
X020318Y012587D02*
X024110Y012587D01*
X023826Y012685D02*
X023726Y012685D01*
X023726Y013100D01*
X023370Y013100D01*
X023370Y012815D01*
X023380Y012777D01*
X023400Y012743D01*
X023428Y012715D01*
X023462Y012695D01*
X023500Y012685D01*
X020318Y012685D01*
X020301Y012784D02*
X020646Y012784D01*
X020500Y012882D02*
X020400Y012882D01*
X020400Y012981D02*
X020500Y012981D01*
X020500Y013079D02*
X020400Y013079D01*
X020400Y013178D02*
X020500Y013178D01*
X020500Y013276D02*
X020400Y013276D01*
X020400Y013375D02*
X020500Y013375D01*
X021540Y013276D02*
X021862Y013276D01*
X021540Y013178D02*
X023726Y013178D01*
X023726Y013276D02*
X023826Y013276D01*
X023826Y013375D02*
X023726Y013375D01*
X023726Y013473D02*
X023826Y013473D01*
X023826Y013572D02*
X023726Y013572D01*
X023726Y013685D02*
X023726Y014100D01*
X023370Y014100D01*
X023370Y013815D01*
X023380Y013777D01*
X023400Y013743D01*
X023428Y013715D01*
X023462Y013695D01*
X023500Y013685D01*
X023726Y013685D01*
X023726Y013769D02*
X023826Y013769D01*
X023826Y013867D02*
X023726Y013867D01*
X023726Y013966D02*
X023826Y013966D01*
X023826Y014064D02*
X023726Y014064D01*
X023726Y014163D02*
X022016Y014163D01*
X022057Y014261D02*
X023370Y014261D01*
X023370Y014360D02*
X022060Y014360D01*
X022060Y014458D02*
X023370Y014458D01*
X023400Y014557D02*
X022060Y014557D01*
X022060Y014655D02*
X024038Y014655D01*
X023826Y014557D02*
X023726Y014557D01*
X023726Y014458D02*
X023826Y014458D01*
X023826Y014360D02*
X023726Y014360D01*
X023726Y014261D02*
X023826Y014261D01*
X023370Y014064D02*
X022374Y014064D01*
X022496Y013966D02*
X023370Y013966D01*
X023370Y013867D02*
X022567Y013867D01*
X022608Y013769D02*
X023385Y013769D01*
X023415Y013572D02*
X022618Y013572D01*
X022618Y013670D02*
X024023Y013670D01*
X023370Y013473D02*
X022583Y013473D01*
X022537Y013375D02*
X023370Y013375D01*
X023370Y013276D02*
X022438Y013276D01*
X021540Y013079D02*
X023370Y013079D01*
X023370Y012981D02*
X021540Y012981D01*
X021519Y012882D02*
X023370Y012882D01*
X023379Y012784D02*
X021454Y012784D01*
X023500Y012685D02*
X023726Y012685D01*
X023726Y012784D02*
X023826Y012784D01*
X023826Y012882D02*
X023726Y012882D01*
X023726Y012981D02*
X023826Y012981D01*
X023826Y013079D02*
X023726Y013079D01*
X024938Y012587D02*
X025362Y012587D01*
X025268Y012685D02*
X025251Y012685D01*
X025049Y012685D02*
X025032Y012685D01*
X024955Y011700D02*
X025345Y011700D01*
X024093Y011700D02*
X006280Y011700D01*
X006280Y011638D02*
X006280Y012100D01*
X005334Y012100D01*
X005334Y011508D01*
X006150Y011508D01*
X006188Y011518D01*
X006222Y011538D01*
X006250Y011566D01*
X006270Y011600D01*
X006280Y011638D01*
X006271Y011602D02*
X023457Y011602D01*
X023726Y011602D02*
X023826Y011602D01*
X023826Y011503D02*
X023726Y011503D01*
X023726Y011405D02*
X023826Y011405D01*
X023826Y011306D02*
X023726Y011306D01*
X023726Y011208D02*
X023826Y011208D01*
X024972Y010617D02*
X025328Y010617D01*
X026150Y009730D02*
X026150Y009730D01*
X026898Y009730D02*
X027165Y009730D01*
X027226Y009632D02*
X027023Y009632D01*
X027066Y009533D02*
X027128Y009533D01*
X028074Y009632D02*
X028796Y009632D01*
X028743Y009533D02*
X028172Y009533D01*
X028135Y009730D02*
X028950Y009730D01*
X029602Y009730D02*
X030786Y009730D01*
X030786Y009632D02*
X029756Y009632D01*
X029974Y009533D02*
X030074Y009533D01*
X030074Y009595D02*
X030074Y009200D01*
X030430Y009200D01*
X030430Y009465D01*
X030420Y009503D01*
X030400Y009537D01*
X030372Y009565D01*
X030338Y009585D01*
X030300Y009595D01*
X030074Y009595D01*
X030074Y009435D02*
X029974Y009435D01*
X029974Y009336D02*
X030074Y009336D01*
X030074Y009238D02*
X029974Y009238D01*
X030074Y009139D02*
X030786Y009139D01*
X030786Y009041D02*
X030430Y009041D01*
X030430Y008942D02*
X030786Y008942D01*
X030786Y008844D02*
X030430Y008844D01*
X030382Y008745D02*
X030786Y008745D01*
X030786Y008647D02*
X029741Y008647D01*
X029974Y008745D02*
X030074Y008745D01*
X030074Y008844D02*
X029974Y008844D01*
X029974Y008942D02*
X030074Y008942D01*
X030074Y009041D02*
X029974Y009041D01*
X030430Y009238D02*
X030786Y009238D01*
X030786Y009336D02*
X030430Y009336D01*
X030430Y009435D02*
X030786Y009435D01*
X030786Y009533D02*
X030402Y009533D01*
X030786Y009829D02*
X028210Y009829D01*
X028250Y009927D02*
X030786Y009927D01*
X030786Y010026D02*
X028290Y010026D01*
X028290Y010124D02*
X030786Y010124D01*
X030786Y010223D02*
X028290Y010223D01*
X028272Y010321D02*
X030786Y010321D01*
X030786Y010420D02*
X028231Y010420D01*
X028187Y010518D02*
X030786Y010518D01*
X030786Y010617D02*
X028089Y010617D01*
X028120Y010715D02*
X030786Y010715D01*
X030786Y010814D02*
X028203Y010814D01*
X028244Y010912D02*
X030786Y010912D01*
X030786Y011011D02*
X028285Y011011D01*
X028290Y011109D02*
X030786Y011109D01*
X030786Y011208D02*
X028290Y011208D01*
X028278Y011306D02*
X030786Y011306D01*
X030786Y011405D02*
X028237Y011405D01*
X028196Y011503D02*
X030786Y011503D01*
X030786Y011602D02*
X028104Y011602D01*
X028105Y011700D02*
X030786Y011700D01*
X030786Y011799D02*
X028197Y011799D01*
X028238Y011897D02*
X030786Y011897D01*
X030786Y011996D02*
X028279Y011996D01*
X028290Y012094D02*
X030786Y012094D01*
X030786Y012193D02*
X028290Y012193D01*
X028284Y012291D02*
X030786Y012291D01*
X030786Y012390D02*
X028243Y012390D01*
X028203Y012488D02*
X030786Y012488D01*
X030786Y012587D02*
X028119Y012587D01*
X028090Y012685D02*
X030786Y012685D01*
X030786Y012784D02*
X028189Y012784D01*
X028232Y012882D02*
X030786Y012882D01*
X030786Y012981D02*
X028273Y012981D01*
X028290Y013079D02*
X030786Y013079D01*
X030786Y013178D02*
X028290Y013178D01*
X028290Y013276D02*
X030786Y013276D01*
X030786Y013375D02*
X028250Y013375D01*
X028209Y013473D02*
X030786Y013473D01*
X030786Y013572D02*
X028134Y013572D01*
X028075Y013670D02*
X030786Y013670D01*
X030786Y013769D02*
X028174Y013769D01*
X028226Y013867D02*
X030786Y013867D01*
X030786Y013966D02*
X028266Y013966D01*
X028290Y014064D02*
X030786Y014064D01*
X030786Y014163D02*
X028290Y014163D01*
X028290Y014261D02*
X030786Y014261D01*
X030786Y014360D02*
X028256Y014360D01*
X028215Y014458D02*
X030800Y014458D01*
X030841Y014557D02*
X028149Y014557D01*
X028060Y014655D02*
X030911Y014655D01*
X031009Y014754D02*
X028159Y014754D01*
X028219Y014852D02*
X031108Y014852D01*
X031206Y014951D02*
X028260Y014951D01*
X028290Y015049D02*
X031305Y015049D01*
X031403Y015148D02*
X028290Y015148D01*
X028290Y015246D02*
X031502Y015246D01*
X031600Y015345D02*
X028262Y015345D01*
X028221Y015443D02*
X031699Y015443D01*
X031797Y015542D02*
X028164Y015542D01*
X028065Y015640D02*
X031896Y015640D01*
X031994Y015739D02*
X027934Y015739D01*
X028041Y015837D02*
X032093Y015837D01*
X032191Y015936D02*
X028102Y015936D01*
X028138Y016034D02*
X032290Y016034D01*
X032388Y016133D02*
X027698Y016133D01*
X027698Y016198D02*
X028149Y016198D01*
X028138Y016267D01*
X028113Y016342D01*
X028078Y016412D01*
X028031Y016476D01*
X027976Y016531D01*
X027912Y016578D01*
X027842Y016613D01*
X027767Y016638D01*
X027698Y016649D01*
X027698Y016198D01*
X027698Y016231D02*
X027602Y016231D01*
X027602Y016198D02*
X027602Y016649D01*
X027533Y016638D01*
X027458Y016613D01*
X027388Y016578D01*
X027324Y016531D01*
X027269Y016476D01*
X027222Y016412D01*
X027187Y016342D01*
X027162Y016267D01*
X027151Y016198D01*
X027602Y016198D01*
X027602Y016133D02*
X022060Y016133D01*
X022060Y016034D02*
X027162Y016034D01*
X027198Y015936D02*
X022060Y015936D01*
X022060Y015837D02*
X027259Y015837D01*
X027366Y015739D02*
X026877Y015739D01*
X027015Y015640D02*
X027235Y015640D01*
X027157Y016231D02*
X022104Y016231D01*
X022203Y016330D02*
X027183Y016330D01*
X027234Y016428D02*
X022301Y016428D01*
X022400Y016527D02*
X027319Y016527D01*
X027494Y016625D02*
X022485Y016625D01*
X022526Y016724D02*
X027386Y016724D01*
X027388Y016722D02*
X027458Y016687D01*
X027533Y016662D01*
X027602Y016651D01*
X027602Y017102D01*
X027698Y017102D01*
X027698Y017198D01*
X028149Y017198D01*
X028138Y017267D01*
X028113Y017342D01*
X028078Y017412D01*
X028031Y017476D01*
X027976Y017531D01*
X027922Y017570D01*
X028013Y017607D01*
X028193Y017787D01*
X028290Y018023D01*
X028290Y018277D01*
X028193Y018513D01*
X028055Y018650D01*
X028193Y018787D01*
X028290Y019023D01*
X028290Y019277D01*
X028193Y019513D01*
X028013Y019693D01*
X027777Y019790D01*
X027523Y019790D01*
X027287Y019693D01*
X027235Y019640D01*
X027015Y019640D01*
X026944Y019711D01*
X026838Y019755D01*
X026210Y019755D01*
X026150Y019730D01*
X026090Y019755D01*
X025462Y019755D01*
X025356Y019711D01*
X025274Y019629D01*
X025266Y019609D01*
X025243Y019618D01*
X025057Y019618D01*
X025034Y019609D01*
X025026Y019629D01*
X024944Y019711D01*
X024838Y019755D01*
X024210Y019755D01*
X024104Y019711D01*
X024022Y019629D01*
X024016Y019615D01*
X023826Y019615D01*
X023826Y019200D01*
X023726Y019200D01*
X023726Y019615D01*
X023500Y019615D01*
X023462Y019605D01*
X023428Y019585D01*
X023400Y019557D01*
X023380Y019523D01*
X023370Y019485D01*
X023370Y019200D01*
X023726Y019200D01*
X023726Y019100D01*
X023826Y019100D01*
X023826Y018685D01*
X024016Y018685D01*
X024022Y018671D01*
X024043Y018650D01*
X024022Y018629D01*
X024016Y018615D01*
X023826Y018615D01*
X023826Y018200D01*
X023726Y018200D01*
X023726Y018615D01*
X023500Y018615D01*
X023462Y018605D01*
X023428Y018585D01*
X023400Y018557D01*
X023380Y018523D01*
X023370Y018485D01*
X023370Y018200D01*
X023726Y018200D01*
X023726Y018100D01*
X023826Y018100D01*
X023826Y017685D01*
X024016Y017685D01*
X024022Y017671D01*
X024104Y017589D01*
X024210Y017545D01*
X024838Y017545D01*
X024944Y017589D01*
X025026Y017671D01*
X025034Y017691D01*
X025057Y017682D01*
X025243Y017682D01*
X025266Y017691D01*
X025274Y017671D01*
X025356Y017589D01*
X025462Y017545D01*
X026090Y017545D01*
X026150Y017570D01*
X026210Y017545D01*
X026838Y017545D01*
X026944Y017589D01*
X027015Y017660D01*
X027235Y017660D01*
X027287Y017607D01*
X027378Y017570D01*
X027324Y017531D01*
X027269Y017476D01*
X027222Y017412D01*
X027187Y017342D01*
X027162Y017267D01*
X027151Y017198D01*
X027602Y017198D01*
X027602Y017102D01*
X027151Y017102D01*
X027162Y017033D01*
X027187Y016958D01*
X027222Y016888D01*
X027269Y016824D01*
X027324Y016769D01*
X027388Y016722D01*
X027271Y016822D02*
X022550Y016822D01*
X022550Y016921D02*
X027206Y016921D01*
X027167Y017019D02*
X022550Y017019D01*
X022550Y017118D02*
X027602Y017118D01*
X027698Y017118D02*
X031506Y017118D01*
X031506Y017216D02*
X028146Y017216D01*
X028122Y017315D02*
X031506Y017315D01*
X031506Y017413D02*
X028077Y017413D01*
X027996Y017512D02*
X031522Y017512D01*
X031582Y017610D02*
X028015Y017610D01*
X028114Y017709D02*
X033326Y017709D01*
X033286Y017807D02*
X032632Y017807D01*
X032624Y017794D02*
X032644Y017828D01*
X032654Y017866D01*
X032654Y018151D01*
X032200Y018151D01*
X032200Y017736D01*
X032524Y017736D01*
X032562Y017746D01*
X032596Y017766D01*
X032624Y017794D01*
X032654Y017906D02*
X033213Y017906D01*
X033172Y018004D02*
X032654Y018004D01*
X032654Y018103D02*
X033602Y018103D01*
X033698Y018103D02*
X035878Y018103D01*
X035875Y018105D02*
X035981Y018034D01*
X036094Y017973D01*
X036212Y017925D01*
X036334Y017887D01*
X036459Y017863D01*
X036586Y017850D01*
X036600Y017850D01*
X036600Y019100D01*
X036700Y019100D01*
X036700Y019200D01*
X037950Y019200D01*
X037950Y019214D01*
X037937Y019341D01*
X037913Y019466D01*
X037875Y019588D01*
X037827Y019706D01*
X037766Y019819D01*
X037695Y019925D01*
X037614Y020024D01*
X037524Y020114D01*
X037425Y020195D01*
X037319Y020266D01*
X037206Y020327D01*
X037088Y020375D01*
X036966Y020413D01*
X036841Y020437D01*
X036714Y020450D01*
X036700Y020450D01*
X036700Y019200D01*
X036600Y019200D01*
X036600Y020450D01*
X036586Y020450D01*
X036459Y020437D01*
X036334Y020413D01*
X036212Y020375D01*
X036094Y020327D01*
X035981Y020266D01*
X035875Y020195D01*
X035776Y020114D01*
X035686Y020024D01*
X035605Y019925D01*
X035534Y019819D01*
X035473Y019706D01*
X035425Y019588D01*
X035387Y019466D01*
X035363Y019341D01*
X035350Y019214D01*
X035350Y019200D01*
X036600Y019200D01*
X036600Y019100D01*
X035350Y019100D01*
X035350Y019086D01*
X035363Y018959D01*
X035387Y018834D01*
X035425Y018712D01*
X035473Y018594D01*
X035534Y018481D01*
X035605Y018375D01*
X035686Y018276D01*
X035776Y018186D01*
X035875Y018105D01*
X035760Y018201D02*
X034148Y018201D01*
X034127Y018300D02*
X035666Y018300D01*
X035589Y018398D02*
X034085Y018398D01*
X034011Y018497D02*
X035525Y018497D01*
X035473Y018595D02*
X033983Y018595D01*
X034099Y018694D02*
X035432Y018694D01*
X035400Y018792D02*
X034194Y018792D01*
X034235Y018891D02*
X035376Y018891D01*
X035360Y018989D02*
X034276Y018989D01*
X034290Y019088D02*
X035350Y019088D01*
X035357Y019285D02*
X034287Y019285D01*
X034290Y019186D02*
X036600Y019186D01*
X036600Y019088D02*
X036700Y019088D01*
X036700Y019100D02*
X036700Y017850D01*
X036714Y017850D01*
X036841Y017863D01*
X036966Y017887D01*
X037088Y017925D01*
X037206Y017973D01*
X037319Y018034D01*
X037425Y018105D01*
X037524Y018186D01*
X037614Y018276D01*
X037695Y018375D01*
X037766Y018481D01*
X037827Y018594D01*
X037875Y018712D01*
X037913Y018834D01*
X037937Y018959D01*
X037950Y019086D01*
X037950Y019100D01*
X036700Y019100D01*
X036700Y019186D02*
X038852Y019186D01*
X038852Y019088D02*
X037950Y019088D01*
X037940Y018989D02*
X038852Y018989D01*
X038852Y018891D02*
X037924Y018891D01*
X037900Y018792D02*
X038852Y018792D01*
X038852Y018694D02*
X037868Y018694D01*
X037827Y018595D02*
X038852Y018595D01*
X038852Y018497D02*
X037775Y018497D01*
X037711Y018398D02*
X038852Y018398D01*
X038852Y018300D02*
X037634Y018300D01*
X037540Y018201D02*
X038852Y018201D01*
X038852Y018103D02*
X037422Y018103D01*
X037264Y018004D02*
X038852Y018004D01*
X038852Y017906D02*
X037026Y017906D01*
X036700Y017906D02*
X036600Y017906D01*
X036600Y018004D02*
X036700Y018004D01*
X036700Y018103D02*
X036600Y018103D01*
X036600Y018201D02*
X036700Y018201D01*
X036700Y018300D02*
X036600Y018300D01*
X036600Y018398D02*
X036700Y018398D01*
X036700Y018497D02*
X036600Y018497D01*
X036600Y018595D02*
X036700Y018595D01*
X036700Y018694D02*
X036600Y018694D01*
X036600Y018792D02*
X036700Y018792D01*
X036700Y018891D02*
X036600Y018891D01*
X036600Y018989D02*
X036700Y018989D01*
X036700Y019285D02*
X036600Y019285D01*
X036600Y019383D02*
X036700Y019383D01*
X036700Y019482D02*
X036600Y019482D01*
X036600Y019580D02*
X036700Y019580D01*
X036700Y019679D02*
X036600Y019679D01*
X036600Y019777D02*
X036700Y019777D01*
X036700Y019876D02*
X036600Y019876D01*
X036600Y019974D02*
X036700Y019974D01*
X036700Y020073D02*
X036600Y020073D01*
X036600Y020171D02*
X036700Y020171D01*
X036700Y020270D02*
X036600Y020270D01*
X036600Y020368D02*
X036700Y020368D01*
X037106Y020368D02*
X038852Y020368D01*
X038852Y020270D02*
X037313Y020270D01*
X037455Y020171D02*
X038852Y020171D01*
X038852Y020073D02*
X037566Y020073D01*
X037655Y019974D02*
X038852Y019974D01*
X038852Y019876D02*
X037729Y019876D01*
X037789Y019777D02*
X038852Y019777D01*
X038852Y019679D02*
X037838Y019679D01*
X037878Y019580D02*
X038852Y019580D01*
X038852Y019482D02*
X037908Y019482D01*
X037929Y019383D02*
X038852Y019383D01*
X038852Y019285D02*
X037943Y019285D01*
X038852Y020467D02*
X000440Y020467D01*
X000440Y020565D02*
X038852Y020565D01*
X038852Y020664D02*
X000440Y020664D01*
X000440Y020762D02*
X038852Y020762D01*
X038852Y020861D02*
X000440Y020861D01*
X000440Y020959D02*
X038852Y020959D01*
X038852Y021058D02*
X000440Y021058D01*
X000440Y021156D02*
X038852Y021156D01*
X038852Y021230D02*
X000440Y021230D01*
X000440Y000440D01*
X038852Y000440D01*
X038852Y021230D01*
X036194Y020368D02*
X003106Y020368D01*
X003088Y020375D02*
X002966Y020413D01*
X002841Y020437D01*
X002714Y020450D01*
X002700Y020450D01*
X002700Y019200D01*
X003950Y019200D01*
X003950Y019214D01*
X003937Y019341D01*
X003913Y019466D01*
X003875Y019588D01*
X003827Y019706D01*
X003766Y019819D01*
X003695Y019925D01*
X003614Y020024D01*
X003524Y020114D01*
X003425Y020195D01*
X003319Y020266D01*
X003206Y020327D01*
X003088Y020375D01*
X003313Y020270D02*
X035987Y020270D01*
X035845Y020171D02*
X022313Y020171D01*
X022489Y020073D02*
X035734Y020073D01*
X035645Y019974D02*
X022588Y019974D01*
X022657Y019876D02*
X035571Y019876D01*
X035511Y019777D02*
X033808Y019777D01*
X034027Y019679D02*
X035462Y019679D01*
X035422Y019580D02*
X034125Y019580D01*
X034205Y019482D02*
X035392Y019482D01*
X035371Y019383D02*
X034246Y019383D01*
X033492Y019777D02*
X027808Y019777D01*
X028027Y019679D02*
X033273Y019679D01*
X033175Y019580D02*
X028125Y019580D01*
X028205Y019482D02*
X033095Y019482D01*
X033054Y019383D02*
X028246Y019383D01*
X028287Y019285D02*
X033013Y019285D01*
X033010Y019186D02*
X028290Y019186D01*
X028290Y019088D02*
X033010Y019088D01*
X033024Y018989D02*
X028276Y018989D01*
X028235Y018891D02*
X033065Y018891D01*
X033106Y018792D02*
X028194Y018792D01*
X028099Y018694D02*
X033201Y018694D01*
X033317Y018595D02*
X032632Y018595D01*
X032624Y018608D02*
X032596Y018636D01*
X032562Y018656D01*
X032524Y018666D01*
X032200Y018666D01*
X032200Y018251D01*
X032654Y018251D01*
X032654Y018536D01*
X032644Y018574D01*
X032624Y018608D01*
X032654Y018497D02*
X033289Y018497D01*
X033215Y018398D02*
X032654Y018398D01*
X032654Y018300D02*
X033173Y018300D01*
X033152Y018201D02*
X032200Y018201D01*
X032200Y018151D02*
X032200Y018251D01*
X032100Y018251D01*
X032100Y018151D01*
X032200Y018151D01*
X032200Y018103D02*
X032100Y018103D01*
X032100Y018151D02*
X032100Y017736D01*
X031776Y017736D01*
X031738Y017746D01*
X031704Y017766D01*
X031676Y017794D01*
X031656Y017828D01*
X031646Y017866D01*
X031646Y018151D01*
X032100Y018151D01*
X032100Y018201D02*
X028290Y018201D01*
X028290Y018103D02*
X031646Y018103D01*
X031646Y018004D02*
X028282Y018004D01*
X028241Y017906D02*
X031646Y017906D01*
X031668Y017807D02*
X028201Y017807D01*
X028281Y018300D02*
X031646Y018300D01*
X031646Y018251D02*
X032100Y018251D01*
X032100Y018666D01*
X031776Y018666D01*
X031738Y018656D01*
X031704Y018636D01*
X031676Y018608D01*
X031656Y018574D01*
X031646Y018536D01*
X031646Y018251D01*
X031646Y018398D02*
X028240Y018398D01*
X028199Y018497D02*
X031646Y018497D01*
X031668Y018595D02*
X028110Y018595D01*
X027285Y017610D02*
X026965Y017610D01*
X027223Y017413D02*
X022550Y017413D01*
X022550Y017315D02*
X027178Y017315D01*
X027154Y017216D02*
X022550Y017216D01*
X022550Y017512D02*
X027304Y017512D01*
X027698Y017102D02*
X027698Y016651D01*
X027767Y016662D01*
X027842Y016687D01*
X027912Y016722D01*
X027976Y016769D01*
X028031Y016824D01*
X028078Y016888D01*
X028113Y016958D01*
X028138Y017033D01*
X028149Y017102D01*
X027698Y017102D01*
X027698Y017019D02*
X027602Y017019D01*
X027602Y016921D02*
X027698Y016921D01*
X027698Y016822D02*
X027602Y016822D01*
X027602Y016724D02*
X027698Y016724D01*
X027698Y016625D02*
X027602Y016625D01*
X027602Y016527D02*
X027698Y016527D01*
X027698Y016428D02*
X027602Y016428D01*
X027602Y016330D02*
X027698Y016330D01*
X027981Y016527D02*
X031659Y016527D01*
X031548Y016625D02*
X027806Y016625D01*
X027914Y016724D02*
X031507Y016724D01*
X031506Y016822D02*
X028029Y016822D01*
X028094Y016921D02*
X031506Y016921D01*
X031506Y017019D02*
X028133Y017019D01*
X028066Y016428D02*
X032128Y016428D01*
X032226Y016330D02*
X028117Y016330D01*
X028143Y016231D02*
X032325Y016231D01*
X033021Y016921D02*
X033052Y016921D01*
X033011Y017019D02*
X032923Y017019D01*
X033010Y017118D02*
X032824Y017118D01*
X032794Y017216D02*
X033010Y017216D01*
X033025Y017315D02*
X032794Y017315D01*
X032794Y017413D02*
X033066Y017413D01*
X033107Y017512D02*
X032778Y017512D01*
X032718Y017610D02*
X033205Y017610D01*
X033974Y017709D02*
X038852Y017709D01*
X038852Y017807D02*
X034014Y017807D01*
X034087Y017906D02*
X036274Y017906D01*
X036036Y018004D02*
X034128Y018004D01*
X034095Y017610D02*
X038852Y017610D01*
X038852Y017512D02*
X034193Y017512D01*
X034234Y017413D02*
X038852Y017413D01*
X038852Y017315D02*
X034275Y017315D01*
X034290Y017216D02*
X038852Y017216D01*
X038852Y017118D02*
X034290Y017118D01*
X034289Y017019D02*
X038852Y017019D01*
X038852Y016921D02*
X034248Y016921D01*
X034207Y016822D02*
X038852Y016822D01*
X038852Y016724D02*
X034129Y016724D01*
X034080Y016625D02*
X038852Y016625D01*
X038852Y016527D02*
X034179Y016527D01*
X034228Y016428D02*
X038852Y016428D01*
X038852Y016330D02*
X034268Y016330D01*
X034290Y016231D02*
X038852Y016231D01*
X038852Y016133D02*
X034290Y016133D01*
X034290Y016034D02*
X038852Y016034D01*
X038852Y015936D02*
X034254Y015936D01*
X034213Y015837D02*
X038852Y015837D01*
X038852Y015739D02*
X034144Y015739D01*
X034065Y015640D02*
X038852Y015640D01*
X038852Y015542D02*
X034164Y015542D01*
X034221Y015443D02*
X038852Y015443D01*
X038852Y015345D02*
X034262Y015345D01*
X034290Y015246D02*
X038852Y015246D01*
X038852Y015148D02*
X034290Y015148D01*
X034290Y015049D02*
X038852Y015049D01*
X038852Y014951D02*
X034260Y014951D01*
X034219Y014852D02*
X038852Y014852D01*
X038852Y014754D02*
X034159Y014754D01*
X034060Y014655D02*
X038852Y014655D01*
X038852Y014557D02*
X034149Y014557D01*
X034215Y014458D02*
X038852Y014458D01*
X038852Y014360D02*
X034256Y014360D01*
X034290Y014261D02*
X038852Y014261D01*
X038852Y014163D02*
X034290Y014163D01*
X034290Y014064D02*
X038852Y014064D01*
X038852Y013966D02*
X034266Y013966D01*
X034226Y013867D02*
X038852Y013867D01*
X038852Y013769D02*
X034174Y013769D01*
X034075Y013670D02*
X038852Y013670D01*
X038852Y013572D02*
X037355Y013572D01*
X037489Y013473D02*
X038852Y013473D01*
X038852Y013375D02*
X037564Y013375D01*
X037604Y013276D02*
X038852Y013276D01*
X038852Y013178D02*
X037618Y013178D01*
X037618Y013079D02*
X038852Y013079D01*
X038852Y012981D02*
X037587Y012981D01*
X037544Y012882D02*
X038852Y012882D01*
X038852Y012784D02*
X037520Y012784D01*
X037520Y012685D02*
X038852Y012685D01*
X038852Y012587D02*
X037520Y012587D01*
X037520Y012488D02*
X038852Y012488D01*
X038852Y012390D02*
X037520Y012390D01*
X037520Y012291D02*
X038852Y012291D01*
X038852Y012193D02*
X037520Y012193D01*
X037520Y012094D02*
X038852Y012094D01*
X038852Y011996D02*
X037520Y011996D01*
X037520Y011897D02*
X038852Y011897D01*
X038852Y011799D02*
X037520Y011799D01*
X037520Y011700D02*
X038852Y011700D01*
X038852Y011602D02*
X037520Y011602D01*
X037520Y011503D02*
X038852Y011503D01*
X038852Y011405D02*
X037520Y011405D01*
X037520Y011306D02*
X038852Y011306D01*
X038852Y011208D02*
X037520Y011208D01*
X037520Y011109D02*
X038852Y011109D01*
X038852Y011011D02*
X037520Y011011D01*
X037520Y010912D02*
X038852Y010912D01*
X038852Y010814D02*
X037520Y010814D01*
X037520Y010715D02*
X038852Y010715D01*
X038852Y010617D02*
X037520Y010617D01*
X037616Y010518D02*
X038852Y010518D01*
X038852Y010420D02*
X037715Y010420D01*
X037740Y010321D02*
X038852Y010321D01*
X038852Y010223D02*
X037740Y010223D01*
X037740Y010124D02*
X038852Y010124D01*
X038852Y010026D02*
X037740Y010026D01*
X037740Y009927D02*
X038852Y009927D01*
X038852Y009829D02*
X037663Y009829D01*
X037564Y009730D02*
X038852Y009730D01*
X038852Y009632D02*
X037503Y009632D01*
X037601Y009533D02*
X038852Y009533D01*
X038852Y009435D02*
X037700Y009435D01*
X037740Y009336D02*
X038852Y009336D01*
X038852Y009238D02*
X037740Y009238D01*
X037740Y009139D02*
X038852Y009139D01*
X038852Y009041D02*
X037740Y009041D01*
X037740Y008942D02*
X038852Y008942D01*
X038852Y008844D02*
X037678Y008844D01*
X037579Y008745D02*
X038852Y008745D01*
X038852Y008647D02*
X037488Y008647D01*
X037586Y008548D02*
X038852Y008548D01*
X038852Y008450D02*
X037685Y008450D01*
X037740Y008351D02*
X038852Y008351D01*
X038852Y008253D02*
X037740Y008253D01*
X037740Y008154D02*
X038852Y008154D01*
X038852Y008056D02*
X037740Y008056D01*
X037740Y007957D02*
X038852Y007957D01*
X038852Y007859D02*
X037693Y007859D01*
X037594Y007760D02*
X038852Y007760D01*
X038852Y007662D02*
X037496Y007662D01*
X037397Y007563D02*
X038852Y007563D01*
X038852Y007465D02*
X036158Y007465D01*
X036059Y007366D02*
X038852Y007366D01*
X038852Y007268D02*
X035961Y007268D01*
X035862Y007169D02*
X038852Y007169D01*
X038852Y007071D02*
X035764Y007071D01*
X035665Y006972D02*
X038852Y006972D01*
X038852Y006874D02*
X035567Y006874D01*
X035468Y006775D02*
X038852Y006775D01*
X038852Y006677D02*
X035370Y006677D01*
X035271Y006578D02*
X038852Y006578D01*
X038852Y006480D02*
X035173Y006480D01*
X035074Y006381D02*
X038852Y006381D01*
X038852Y006283D02*
X034976Y006283D01*
X034806Y006184D02*
X038852Y006184D01*
X038852Y006086D02*
X031766Y006086D01*
X031766Y005987D02*
X038852Y005987D01*
X038852Y005889D02*
X031766Y005889D01*
X031766Y005790D02*
X038852Y005790D01*
X038852Y005692D02*
X031766Y005692D01*
X031766Y005593D02*
X038852Y005593D01*
X038852Y005495D02*
X031766Y005495D01*
X031766Y005396D02*
X038852Y005396D01*
X038852Y005298D02*
X031766Y005298D01*
X031766Y005199D02*
X038852Y005199D01*
X038852Y005101D02*
X031766Y005101D01*
X031766Y005002D02*
X038852Y005002D01*
X038852Y004904D02*
X031766Y004904D01*
X031766Y004805D02*
X038852Y004805D01*
X038852Y004707D02*
X031766Y004707D01*
X031737Y004608D02*
X038852Y004608D01*
X038852Y004510D02*
X031696Y004510D01*
X031604Y004411D02*
X038852Y004411D01*
X038852Y004313D02*
X031506Y004313D01*
X031407Y004214D02*
X038852Y004214D01*
X038852Y004116D02*
X031309Y004116D01*
X031210Y004017D02*
X038852Y004017D01*
X038852Y003919D02*
X036936Y003919D01*
X036700Y003919D02*
X036600Y003919D01*
X036600Y003820D02*
X036700Y003820D01*
X036700Y003722D02*
X036600Y003722D01*
X036600Y003623D02*
X036700Y003623D01*
X036700Y003525D02*
X036600Y003525D01*
X036600Y003426D02*
X036700Y003426D01*
X036700Y003328D02*
X036600Y003328D01*
X036600Y003229D02*
X036700Y003229D01*
X036700Y003131D02*
X036600Y003131D01*
X036600Y003032D02*
X036700Y003032D01*
X036700Y002934D02*
X036600Y002934D01*
X036600Y002835D02*
X036700Y002835D01*
X036700Y002737D02*
X036600Y002737D01*
X036600Y002441D02*
X036700Y002441D01*
X036700Y002343D02*
X036600Y002343D01*
X036600Y002244D02*
X036700Y002244D01*
X036700Y002146D02*
X036600Y002146D01*
X036600Y002047D02*
X036700Y002047D01*
X036700Y001949D02*
X036600Y001949D01*
X036600Y001850D02*
X036700Y001850D01*
X036700Y001752D02*
X036600Y001752D01*
X036600Y001653D02*
X036700Y001653D01*
X036700Y001555D02*
X036600Y001555D01*
X036600Y001456D02*
X036700Y001456D01*
X035415Y002244D02*
X029437Y002244D01*
X029536Y002343D02*
X035386Y002343D01*
X035366Y002441D02*
X029634Y002441D01*
X029733Y002540D02*
X035355Y002540D01*
X035352Y002737D02*
X029930Y002737D01*
X030028Y002835D02*
X035362Y002835D01*
X035381Y002934D02*
X030127Y002934D01*
X030225Y003032D02*
X035407Y003032D01*
X035442Y003131D02*
X030324Y003131D01*
X030422Y003229D02*
X035485Y003229D01*
X035539Y003328D02*
X030521Y003328D01*
X030619Y003426D02*
X035605Y003426D01*
X035686Y003525D02*
X030718Y003525D01*
X030816Y003623D02*
X035786Y003623D01*
X035914Y003722D02*
X030915Y003722D01*
X031013Y003820D02*
X036081Y003820D01*
X036364Y003919D02*
X031112Y003919D01*
X030317Y004510D02*
X021073Y004510D01*
X021073Y004608D02*
X030415Y004608D01*
X030514Y004707D02*
X021073Y004707D01*
X021073Y004805D02*
X030612Y004805D01*
X030711Y004904D02*
X021073Y004904D01*
X021073Y005002D02*
X030786Y005002D01*
X030786Y005101D02*
X021073Y005101D01*
X021073Y005199D02*
X030786Y005199D01*
X030786Y005298D02*
X021073Y005298D01*
X021073Y005396D02*
X030786Y005396D01*
X030218Y004411D02*
X021073Y004411D01*
X021073Y004313D02*
X030120Y004313D01*
X030021Y004214D02*
X021073Y004214D01*
X021073Y004116D02*
X029923Y004116D01*
X029824Y004017D02*
X021056Y004017D01*
X020996Y003919D02*
X029726Y003919D01*
X036397Y007563D02*
X036903Y007563D01*
X036804Y007662D02*
X036496Y007662D01*
X036594Y007760D02*
X036706Y007760D01*
X035699Y009533D02*
X034172Y009533D01*
X034074Y009632D02*
X035797Y009632D01*
X035896Y009730D02*
X034135Y009730D01*
X034210Y009829D02*
X035835Y009829D01*
X035737Y009927D02*
X034250Y009927D01*
X034290Y010026D02*
X035700Y010026D01*
X035700Y010223D02*
X034290Y010223D01*
X034290Y010124D02*
X036100Y010124D01*
X036100Y010223D02*
X036200Y010223D01*
X036200Y010321D02*
X036100Y010321D01*
X036100Y010420D02*
X036200Y010420D01*
X036200Y010518D02*
X036100Y010518D01*
X035882Y010518D02*
X034187Y010518D01*
X034231Y010420D02*
X035783Y010420D01*
X035700Y010321D02*
X034272Y010321D01*
X034089Y010617D02*
X036780Y010617D01*
X036780Y010715D02*
X034120Y010715D01*
X034203Y010814D02*
X036780Y010814D01*
X036780Y010912D02*
X034244Y010912D01*
X034285Y011011D02*
X036780Y011011D01*
X036780Y011109D02*
X034290Y011109D01*
X034290Y011208D02*
X036780Y011208D01*
X036780Y011306D02*
X034278Y011306D01*
X034237Y011405D02*
X036780Y011405D01*
X036780Y011503D02*
X034196Y011503D01*
X034104Y011602D02*
X036780Y011602D01*
X036780Y011700D02*
X034105Y011700D01*
X034197Y011799D02*
X036780Y011799D01*
X036780Y011897D02*
X034238Y011897D01*
X034279Y011996D02*
X036780Y011996D01*
X036780Y012094D02*
X034290Y012094D01*
X034290Y012193D02*
X036780Y012193D01*
X036780Y012291D02*
X034284Y012291D01*
X034243Y012390D02*
X036780Y012390D01*
X036780Y012488D02*
X034203Y012488D01*
X034119Y012587D02*
X036780Y012587D01*
X036780Y012685D02*
X034090Y012685D01*
X034189Y012784D02*
X036780Y012784D01*
X036756Y012882D02*
X034232Y012882D01*
X034273Y012981D02*
X036713Y012981D01*
X036682Y013079D02*
X034290Y013079D01*
X034290Y013178D02*
X036682Y013178D01*
X036696Y013276D02*
X034290Y013276D01*
X034250Y013375D02*
X036736Y013375D01*
X036811Y013473D02*
X034209Y013473D01*
X034134Y013572D02*
X036945Y013572D01*
X033245Y013650D02*
X033107Y013513D01*
X033010Y013277D01*
X033010Y013023D01*
X033107Y012787D01*
X033245Y012650D01*
X033107Y012513D01*
X033010Y012277D01*
X033010Y012023D01*
X033107Y011787D01*
X033245Y011650D01*
X033107Y011513D01*
X033010Y011277D01*
X033010Y011023D01*
X033107Y010787D01*
X033245Y010650D01*
X033107Y010513D01*
X033010Y010277D01*
X033010Y010023D01*
X033107Y009787D01*
X033245Y009650D01*
X033107Y009513D01*
X033010Y009277D01*
X033010Y009023D01*
X033107Y008787D01*
X033245Y008650D01*
X033115Y008520D01*
X032570Y008520D01*
X032570Y008523D01*
X032526Y008629D01*
X032444Y008711D01*
X032338Y008755D01*
X031766Y008755D01*
X031766Y014124D01*
X033074Y015433D01*
X033010Y015277D01*
X033010Y015023D01*
X033107Y014787D01*
X033245Y014650D01*
X033107Y014513D01*
X033010Y014277D01*
X033010Y014023D01*
X033107Y013787D01*
X033245Y013650D01*
X033225Y013670D02*
X031766Y013670D01*
X031766Y013572D02*
X033166Y013572D01*
X033091Y013473D02*
X031766Y013473D01*
X031766Y013375D02*
X033050Y013375D01*
X033010Y013276D02*
X031766Y013276D01*
X031766Y013178D02*
X033010Y013178D01*
X033010Y013079D02*
X031766Y013079D01*
X031766Y012981D02*
X033027Y012981D01*
X033068Y012882D02*
X031766Y012882D01*
X031766Y012784D02*
X033111Y012784D01*
X033210Y012685D02*
X031766Y012685D01*
X031766Y012587D02*
X033181Y012587D01*
X033097Y012488D02*
X031766Y012488D01*
X031766Y012390D02*
X033057Y012390D01*
X033016Y012291D02*
X031766Y012291D01*
X031766Y012193D02*
X033010Y012193D01*
X033010Y012094D02*
X031766Y012094D01*
X031766Y011996D02*
X033021Y011996D01*
X033062Y011897D02*
X031766Y011897D01*
X031766Y011799D02*
X033103Y011799D01*
X033195Y011700D02*
X031766Y011700D01*
X031766Y011602D02*
X033196Y011602D01*
X033104Y011503D02*
X031766Y011503D01*
X031766Y011405D02*
X033063Y011405D01*
X033022Y011306D02*
X031766Y011306D01*
X031766Y011208D02*
X033010Y011208D01*
X033010Y011109D02*
X031766Y011109D01*
X031766Y011011D02*
X033015Y011011D01*
X033056Y010912D02*
X031766Y010912D01*
X031766Y010814D02*
X033097Y010814D01*
X033180Y010715D02*
X031766Y010715D01*
X031766Y010617D02*
X033211Y010617D01*
X033113Y010518D02*
X031766Y010518D01*
X031766Y010420D02*
X033069Y010420D01*
X033028Y010321D02*
X031766Y010321D01*
X031766Y010223D02*
X033010Y010223D01*
X033010Y010124D02*
X031766Y010124D01*
X031766Y010026D02*
X033010Y010026D01*
X033050Y009927D02*
X031766Y009927D01*
X031766Y009829D02*
X033090Y009829D01*
X033165Y009730D02*
X031766Y009730D01*
X031766Y009632D02*
X033226Y009632D01*
X033128Y009533D02*
X031766Y009533D01*
X031766Y009435D02*
X033075Y009435D01*
X033034Y009336D02*
X031766Y009336D01*
X031766Y009238D02*
X033010Y009238D01*
X033010Y009139D02*
X031766Y009139D01*
X031766Y009041D02*
X033010Y009041D01*
X033043Y008942D02*
X031766Y008942D01*
X031766Y008844D02*
X033084Y008844D01*
X033150Y008745D02*
X032361Y008745D01*
X032508Y008647D02*
X033241Y008647D01*
X033143Y008548D02*
X032559Y008548D01*
X030741Y008548D02*
X030389Y008548D01*
X030400Y008537D02*
X030372Y008565D01*
X030338Y008585D01*
X030300Y008595D01*
X030074Y008595D01*
X030074Y008200D01*
X030430Y008200D01*
X030430Y008465D01*
X030420Y008503D01*
X030400Y008537D01*
X030430Y008450D02*
X030730Y008450D01*
X030730Y008351D02*
X030430Y008351D01*
X030430Y008253D02*
X030730Y008253D01*
X030730Y008154D02*
X030074Y008154D01*
X030074Y008056D02*
X029974Y008056D01*
X029974Y007957D02*
X030074Y007957D01*
X030074Y007859D02*
X029974Y007859D01*
X029974Y007760D02*
X030074Y007760D01*
X030397Y007760D02*
X030737Y007760D01*
X030730Y007859D02*
X030430Y007859D01*
X030430Y007957D02*
X030730Y007957D01*
X030730Y008056D02*
X030430Y008056D01*
X030074Y008253D02*
X029974Y008253D01*
X029974Y008351D02*
X030074Y008351D01*
X030074Y008450D02*
X029974Y008450D01*
X029974Y008548D02*
X030074Y008548D01*
X029749Y007662D02*
X030783Y007662D01*
X027211Y010617D02*
X026972Y010617D01*
X026955Y011700D02*
X027195Y011700D01*
X027103Y011799D02*
X006280Y011799D01*
X006280Y011897D02*
X027062Y011897D01*
X027021Y011996D02*
X006280Y011996D01*
X006280Y012094D02*
X027010Y012094D01*
X026938Y012587D02*
X027181Y012587D01*
X023826Y014754D02*
X023726Y014754D01*
X023726Y014685D02*
X023726Y015100D01*
X023370Y015100D01*
X023370Y014815D01*
X023380Y014777D01*
X023400Y014743D01*
X023428Y014715D01*
X023462Y014695D01*
X023500Y014685D01*
X023726Y014685D01*
X023726Y014852D02*
X023826Y014852D01*
X023826Y014951D02*
X023726Y014951D01*
X023726Y015049D02*
X023826Y015049D01*
X023726Y015148D02*
X022060Y015148D01*
X022060Y015246D02*
X023370Y015246D01*
X023370Y015345D02*
X022060Y015345D01*
X022060Y015443D02*
X023370Y015443D01*
X023391Y015542D02*
X022060Y015542D01*
X022060Y015640D02*
X024033Y015640D01*
X024171Y015739D02*
X022060Y015739D01*
X022060Y015049D02*
X023370Y015049D01*
X023370Y014951D02*
X022060Y014951D01*
X022060Y014852D02*
X023370Y014852D01*
X023394Y014754D02*
X022060Y014754D01*
X023726Y015246D02*
X023826Y015246D01*
X023826Y015345D02*
X023726Y015345D01*
X023726Y015443D02*
X023826Y015443D01*
X023826Y015542D02*
X023726Y015542D01*
X024877Y015739D02*
X025423Y015739D01*
X025285Y015640D02*
X025015Y015640D01*
X026129Y015739D02*
X026171Y015739D01*
X025335Y017610D02*
X024965Y017610D01*
X024083Y017610D02*
X022550Y017610D01*
X022550Y017709D02*
X023439Y017709D01*
X023428Y017715D02*
X023462Y017695D01*
X023500Y017685D01*
X023726Y017685D01*
X023726Y018100D01*
X023370Y018100D01*
X023370Y017815D01*
X023380Y017777D01*
X023400Y017743D01*
X023428Y017715D01*
X023372Y017807D02*
X022550Y017807D01*
X022550Y017906D02*
X023370Y017906D01*
X023370Y018004D02*
X022550Y018004D01*
X022550Y018103D02*
X023726Y018103D01*
X023726Y018201D02*
X023826Y018201D01*
X023826Y018300D02*
X023726Y018300D01*
X023726Y018398D02*
X023826Y018398D01*
X023826Y018497D02*
X023726Y018497D01*
X023726Y018595D02*
X023826Y018595D01*
X023826Y018694D02*
X023726Y018694D01*
X023726Y018685D02*
X023726Y019100D01*
X023370Y019100D01*
X023370Y018815D01*
X023380Y018777D01*
X023400Y018743D01*
X023428Y018715D01*
X023462Y018695D01*
X023500Y018685D01*
X023726Y018685D01*
X023726Y018792D02*
X023826Y018792D01*
X023826Y018891D02*
X023726Y018891D01*
X023726Y018989D02*
X023826Y018989D01*
X023826Y019088D02*
X023726Y019088D01*
X023726Y019186D02*
X022740Y019186D01*
X022740Y019088D02*
X023370Y019088D01*
X023370Y018989D02*
X022740Y018989D01*
X022740Y018891D02*
X023370Y018891D01*
X023376Y018792D02*
X022740Y018792D01*
X022740Y018694D02*
X023468Y018694D01*
X023445Y018595D02*
X022728Y018595D01*
X022687Y018497D02*
X023373Y018497D01*
X023370Y018398D02*
X022646Y018398D01*
X022561Y018300D02*
X023370Y018300D01*
X023370Y018201D02*
X022550Y018201D01*
X021570Y018201D02*
X020493Y018201D01*
X020591Y018300D02*
X021559Y018300D01*
X021474Y018398D02*
X020676Y018398D01*
X020717Y018497D02*
X021433Y018497D01*
X021392Y018595D02*
X020758Y018595D01*
X020770Y018694D02*
X021380Y018694D01*
X021380Y018792D02*
X020770Y018792D01*
X020770Y018891D02*
X021380Y018891D01*
X021380Y018989D02*
X020770Y018989D01*
X020770Y019088D02*
X021380Y019088D01*
X021380Y019186D02*
X020770Y019186D01*
X020770Y019285D02*
X021380Y019285D01*
X021380Y019383D02*
X020770Y019383D01*
X020770Y019482D02*
X021380Y019482D01*
X021380Y019580D02*
X020770Y019580D01*
X020769Y019679D02*
X021381Y019679D01*
X021422Y019777D02*
X020728Y019777D01*
X020687Y019876D02*
X021463Y019876D01*
X021532Y019974D02*
X020618Y019974D01*
X020519Y020073D02*
X021631Y020073D01*
X021807Y020171D02*
X020343Y020171D01*
X019837Y020171D02*
X018373Y020171D01*
X018549Y020073D02*
X019661Y020073D01*
X019562Y019974D02*
X018648Y019974D01*
X018717Y019876D02*
X019493Y019876D01*
X019452Y019777D02*
X018758Y019777D01*
X018799Y019679D02*
X019411Y019679D01*
X019410Y019580D02*
X018800Y019580D01*
X018800Y019482D02*
X019410Y019482D01*
X019410Y019383D02*
X018800Y019383D01*
X018800Y019285D02*
X019410Y019285D01*
X019410Y019186D02*
X018800Y019186D01*
X018800Y019088D02*
X019393Y019088D01*
X019360Y018989D02*
X018800Y018989D01*
X018800Y018891D02*
X019360Y018891D01*
X019360Y018792D02*
X018800Y018792D01*
X018800Y018694D02*
X019360Y018694D01*
X019360Y018595D02*
X018788Y018595D01*
X018747Y018497D02*
X019360Y018497D01*
X019360Y018398D02*
X018706Y018398D01*
X018621Y018300D02*
X019360Y018300D01*
X019360Y018201D02*
X018610Y018201D01*
X018610Y018103D02*
X019360Y018103D01*
X019360Y018004D02*
X018610Y018004D01*
X018610Y017906D02*
X019360Y017906D01*
X019360Y017807D02*
X018610Y017807D01*
X018610Y017709D02*
X019360Y017709D01*
X019360Y017610D02*
X018610Y017610D01*
X018610Y017512D02*
X019360Y017512D01*
X019360Y017413D02*
X018610Y017413D01*
X018610Y017315D02*
X019360Y017315D01*
X019360Y017216D02*
X018610Y017216D01*
X018610Y017118D02*
X019360Y017118D01*
X020340Y017118D02*
X021570Y017118D01*
X021570Y017216D02*
X020340Y017216D01*
X020340Y017315D02*
X021570Y017315D01*
X021570Y017413D02*
X020340Y017413D01*
X020340Y017512D02*
X021570Y017512D01*
X021570Y017610D02*
X020340Y017610D01*
X020340Y017709D02*
X021570Y017709D01*
X021570Y017807D02*
X020340Y017807D01*
X020340Y017906D02*
X021570Y017906D01*
X021570Y018004D02*
X020340Y018004D01*
X020340Y018103D02*
X021570Y018103D01*
X022740Y019285D02*
X023370Y019285D01*
X023370Y019383D02*
X022740Y019383D01*
X022740Y019482D02*
X023370Y019482D01*
X023423Y019580D02*
X022740Y019580D01*
X022739Y019679D02*
X024072Y019679D01*
X023826Y019580D02*
X023726Y019580D01*
X023726Y019482D02*
X023826Y019482D01*
X023826Y019383D02*
X023726Y019383D01*
X023726Y019285D02*
X023826Y019285D01*
X024976Y019679D02*
X025324Y019679D01*
X026976Y019679D02*
X027273Y019679D01*
X027492Y019777D02*
X022698Y019777D01*
X023726Y018004D02*
X023826Y018004D01*
X023826Y017906D02*
X023726Y017906D01*
X023726Y017807D02*
X023826Y017807D01*
X023826Y017709D02*
X023726Y017709D01*
X018340Y016428D02*
X018301Y016428D01*
X018340Y016330D02*
X018203Y016330D01*
X018104Y016231D02*
X018340Y016231D01*
X018340Y016133D02*
X018060Y016133D01*
X018060Y016034D02*
X018340Y016034D01*
X018340Y015936D02*
X018060Y015936D01*
X018060Y015837D02*
X018340Y015837D01*
X018340Y015739D02*
X018060Y015739D01*
X018060Y015640D02*
X018340Y015640D01*
X018340Y015542D02*
X018060Y015542D01*
X018060Y015443D02*
X018340Y015443D01*
X018340Y015345D02*
X018060Y015345D01*
X018060Y015246D02*
X018340Y015246D01*
X018340Y015148D02*
X018060Y015148D01*
X018060Y015049D02*
X018340Y015049D01*
X018340Y014951D02*
X018060Y014951D01*
X018060Y014852D02*
X018340Y014852D01*
X018340Y014754D02*
X018060Y014754D01*
X018060Y014655D02*
X018340Y014655D01*
X018340Y014557D02*
X018060Y014557D01*
X018060Y014458D02*
X018340Y014458D01*
X018340Y014360D02*
X018060Y014360D01*
X018057Y014261D02*
X018343Y014261D01*
X018384Y014163D02*
X018016Y014163D01*
X017944Y014064D02*
X018456Y014064D01*
X018607Y013966D02*
X017793Y013966D01*
X017540Y013867D02*
X018900Y013867D01*
X018900Y013769D02*
X017540Y013769D01*
X017540Y013670D02*
X018900Y013670D01*
X018900Y013572D02*
X017540Y013572D01*
X017540Y013473D02*
X019200Y013473D01*
X019200Y013375D02*
X019300Y013375D01*
X019300Y013276D02*
X019200Y013276D01*
X019200Y013178D02*
X019300Y013178D01*
X019300Y013079D02*
X019200Y013079D01*
X019200Y012981D02*
X019300Y012981D01*
X019300Y012882D02*
X019200Y012882D01*
X015300Y012882D02*
X015200Y012882D01*
X015200Y012981D02*
X015300Y012981D01*
X015300Y013079D02*
X015200Y013079D01*
X015200Y013178D02*
X015300Y013178D01*
X015300Y013276D02*
X015200Y013276D01*
X015200Y013375D02*
X015300Y013375D01*
X015200Y013473D02*
X013540Y013473D01*
X013540Y013572D02*
X014900Y013572D01*
X014900Y013670D02*
X013540Y013670D01*
X013540Y013769D02*
X014900Y013769D01*
X014900Y013867D02*
X013540Y013867D01*
X013793Y013966D02*
X014607Y013966D01*
X014456Y014064D02*
X013944Y014064D01*
X014016Y014163D02*
X014384Y014163D01*
X014343Y014261D02*
X014057Y014261D01*
X014060Y014360D02*
X014340Y014360D01*
X014340Y014458D02*
X014060Y014458D01*
X014060Y014557D02*
X014340Y014557D01*
X014340Y014655D02*
X014060Y014655D01*
X014060Y014754D02*
X014340Y014754D01*
X014340Y014852D02*
X014060Y014852D01*
X014060Y014951D02*
X014340Y014951D01*
X014340Y015049D02*
X014060Y015049D01*
X014060Y015148D02*
X014340Y015148D01*
X014340Y015246D02*
X014060Y015246D01*
X014060Y015345D02*
X014340Y015345D01*
X014340Y015443D02*
X014060Y015443D01*
X014060Y015542D02*
X014340Y015542D01*
X014340Y015640D02*
X014060Y015640D01*
X014060Y015739D02*
X014340Y015739D01*
X014340Y015837D02*
X014060Y015837D01*
X014060Y015936D02*
X014340Y015936D01*
X014340Y016034D02*
X014060Y016034D01*
X014060Y016133D02*
X014340Y016133D01*
X014340Y016231D02*
X014104Y016231D01*
X014203Y016330D02*
X014340Y016330D01*
X014340Y016428D02*
X014301Y016428D01*
X014670Y017118D02*
X015360Y017118D01*
X015360Y017216D02*
X014670Y017216D01*
X014670Y017315D02*
X015360Y017315D01*
X015360Y017413D02*
X014670Y017413D01*
X014670Y017512D02*
X015360Y017512D01*
X015360Y017610D02*
X014670Y017610D01*
X014670Y017709D02*
X015360Y017709D01*
X015360Y017807D02*
X014670Y017807D01*
X014670Y017906D02*
X015360Y017906D01*
X015360Y018004D02*
X014670Y018004D01*
X014670Y018103D02*
X015360Y018103D01*
X015360Y018201D02*
X014670Y018201D01*
X014681Y018300D02*
X015360Y018300D01*
X015360Y018398D02*
X014766Y018398D01*
X014807Y018497D02*
X015360Y018497D01*
X015360Y018595D02*
X014848Y018595D01*
X014860Y018694D02*
X015360Y018694D01*
X015360Y018792D02*
X014860Y018792D01*
X014860Y018891D02*
X015360Y018891D01*
X015377Y018989D02*
X014860Y018989D01*
X014860Y019088D02*
X015418Y019088D01*
X015470Y019186D02*
X014860Y019186D01*
X014860Y019285D02*
X015470Y019285D01*
X015470Y019383D02*
X014860Y019383D01*
X014860Y019482D02*
X015470Y019482D01*
X015470Y019580D02*
X014860Y019580D01*
X014859Y019679D02*
X015471Y019679D01*
X015512Y019777D02*
X014818Y019777D01*
X014777Y019876D02*
X015553Y019876D01*
X015622Y019974D02*
X014708Y019974D01*
X014609Y020073D02*
X015721Y020073D01*
X015897Y020171D02*
X014433Y020171D01*
X013927Y020171D02*
X012463Y020171D01*
X012639Y020073D02*
X013751Y020073D01*
X013652Y019974D02*
X012738Y019974D01*
X012807Y019876D02*
X013583Y019876D01*
X013542Y019777D02*
X012848Y019777D01*
X012889Y019679D02*
X013501Y019679D01*
X013500Y019580D02*
X012890Y019580D01*
X012890Y019482D02*
X013500Y019482D01*
X013500Y019383D02*
X012890Y019383D01*
X012890Y019285D02*
X013500Y019285D01*
X013500Y019186D02*
X012890Y019186D01*
X012890Y019088D02*
X013500Y019088D01*
X013500Y018989D02*
X012890Y018989D01*
X012890Y018891D02*
X013500Y018891D01*
X013500Y018792D02*
X012890Y018792D01*
X012890Y018694D02*
X013500Y018694D01*
X013512Y018595D02*
X012878Y018595D01*
X012837Y018497D02*
X013553Y018497D01*
X013594Y018398D02*
X012796Y018398D01*
X012711Y018300D02*
X013679Y018300D01*
X013690Y018201D02*
X012613Y018201D01*
X012400Y018103D02*
X013690Y018103D01*
X013690Y018004D02*
X012340Y018004D01*
X012340Y017906D02*
X013690Y017906D01*
X013690Y017807D02*
X012340Y017807D01*
X012340Y017709D02*
X013690Y017709D01*
X013690Y017610D02*
X012340Y017610D01*
X012340Y017512D02*
X013690Y017512D01*
X013690Y017413D02*
X012340Y017413D01*
X012340Y017315D02*
X013690Y017315D01*
X013690Y017216D02*
X012340Y017216D01*
X012340Y017118D02*
X013605Y017118D01*
X011360Y017118D02*
X005840Y017118D01*
X005840Y017121D02*
X005289Y017121D01*
X005289Y016140D01*
X005306Y016140D01*
X005396Y016154D01*
X005483Y016182D01*
X005564Y016224D01*
X005638Y016278D01*
X005703Y016342D01*
X005756Y016416D01*
X005798Y016497D01*
X005826Y016584D01*
X005840Y016674D01*
X005840Y017121D01*
X005840Y017179D02*
X005840Y017626D01*
X005826Y017716D01*
X005798Y017803D01*
X005756Y017884D01*
X005703Y017958D01*
X005638Y018022D01*
X005564Y018076D01*
X005483Y018118D01*
X005396Y018146D01*
X005306Y018160D01*
X005289Y018160D01*
X005289Y017179D01*
X005231Y017179D01*
X005231Y017121D01*
X004680Y017121D01*
X004680Y016674D01*
X004695Y016584D01*
X004723Y016497D01*
X004764Y016416D01*
X004818Y016342D01*
X004882Y016278D01*
X004956Y016224D01*
X005038Y016182D01*
X005124Y016154D01*
X005215Y016140D01*
X005231Y016140D01*
X005231Y017121D01*
X005289Y017121D01*
X005289Y017179D01*
X005840Y017179D01*
X005840Y017216D02*
X011360Y017216D01*
X011360Y017315D02*
X005840Y017315D01*
X005840Y017413D02*
X011360Y017413D01*
X011360Y017512D02*
X005840Y017512D01*
X005840Y017610D02*
X011360Y017610D01*
X011360Y017709D02*
X005827Y017709D01*
X005795Y017807D02*
X006471Y017807D01*
X006497Y017794D02*
X006584Y017765D01*
X006674Y017751D01*
X007121Y017751D01*
X007121Y018302D01*
X007179Y018302D01*
X007179Y017751D01*
X007626Y017751D01*
X007716Y017765D01*
X007803Y017794D01*
X007884Y017835D01*
X007958Y017889D01*
X008022Y017953D01*
X008076Y018027D01*
X008118Y018108D01*
X008146Y018195D01*
X008160Y018285D01*
X008160Y018302D01*
X007179Y018302D01*
X007179Y018360D01*
X008160Y018360D01*
X008160Y018377D01*
X008146Y018467D01*
X008118Y018554D01*
X008076Y018635D01*
X008022Y018709D01*
X007958Y018774D01*
X007884Y018827D01*
X007803Y018869D01*
X007716Y018897D01*
X007626Y018911D01*
X007179Y018911D01*
X007179Y018360D01*
X007121Y018360D01*
X007121Y018302D01*
X006140Y018302D01*
X006140Y018285D01*
X006154Y018195D01*
X006182Y018108D01*
X006224Y018027D01*
X006278Y017953D01*
X006342Y017889D01*
X006416Y017835D01*
X006497Y017794D01*
X006325Y017906D02*
X005741Y017906D01*
X005656Y018004D02*
X006241Y018004D01*
X006185Y018103D02*
X005512Y018103D01*
X005289Y018103D02*
X005231Y018103D01*
X005231Y018160D02*
X005215Y018160D01*
X005124Y018146D01*
X005038Y018118D01*
X004956Y018076D01*
X004882Y018022D01*
X004818Y017958D01*
X004764Y017884D01*
X004723Y017803D01*
X004695Y017716D01*
X004680Y017626D01*
X004680Y017179D01*
X005231Y017179D01*
X005231Y018160D01*
X005231Y018004D02*
X005289Y018004D01*
X005289Y017906D02*
X005231Y017906D01*
X005231Y017807D02*
X005289Y017807D01*
X005289Y017709D02*
X005231Y017709D01*
X005231Y017610D02*
X005289Y017610D01*
X005289Y017512D02*
X005231Y017512D01*
X005231Y017413D02*
X005289Y017413D01*
X005289Y017315D02*
X005231Y017315D01*
X005231Y017216D02*
X005289Y017216D01*
X005289Y017118D02*
X005231Y017118D01*
X005231Y017019D02*
X005289Y017019D01*
X005289Y016921D02*
X005231Y016921D01*
X005231Y016822D02*
X005289Y016822D01*
X005289Y016724D02*
X005231Y016724D01*
X005231Y016625D02*
X005289Y016625D01*
X005289Y016527D02*
X005231Y016527D01*
X005231Y016428D02*
X005289Y016428D01*
X005289Y016330D02*
X005231Y016330D01*
X005231Y016231D02*
X005289Y016231D01*
X005574Y016231D02*
X006049Y016231D01*
X006008Y016133D02*
X000440Y016133D01*
X000440Y016231D02*
X004946Y016231D01*
X004830Y016330D02*
X000440Y016330D01*
X000440Y016428D02*
X004758Y016428D01*
X004713Y016527D02*
X000440Y016527D01*
X000440Y016625D02*
X004688Y016625D01*
X004680Y016724D02*
X000440Y016724D01*
X000440Y016822D02*
X004680Y016822D01*
X004680Y016921D02*
X000440Y016921D01*
X000440Y017019D02*
X004680Y017019D01*
X004680Y017118D02*
X000440Y017118D01*
X000440Y017216D02*
X004680Y017216D01*
X004680Y017315D02*
X000440Y017315D01*
X000440Y017413D02*
X004680Y017413D01*
X004680Y017512D02*
X000440Y017512D01*
X000440Y017610D02*
X004680Y017610D01*
X004693Y017709D02*
X000440Y017709D01*
X000440Y017807D02*
X004725Y017807D01*
X004780Y017906D02*
X003026Y017906D01*
X002966Y017887D02*
X003088Y017925D01*
X003206Y017973D01*
X003319Y018034D01*
X003425Y018105D01*
X003524Y018186D01*
X003614Y018276D01*
X003695Y018375D01*
X003766Y018481D01*
X003827Y018594D01*
X003875Y018712D01*
X003913Y018834D01*
X003937Y018959D01*
X003950Y019086D01*
X003950Y019100D01*
X002700Y019100D01*
X002700Y019200D01*
X002600Y019200D01*
X002600Y020450D01*
X002586Y020450D01*
X002459Y020437D01*
X002334Y020413D01*
X002212Y020375D01*
X002094Y020327D01*
X001981Y020266D01*
X001875Y020195D01*
X001776Y020114D01*
X001686Y020024D01*
X001605Y019925D01*
X001534Y019819D01*
X001473Y019706D01*
X001425Y019588D01*
X001387Y019466D01*
X001363Y019341D01*
X001350Y019214D01*
X001350Y019200D01*
X002600Y019200D01*
X002600Y019100D01*
X002700Y019100D01*
X002700Y017850D01*
X002714Y017850D01*
X002841Y017863D01*
X002966Y017887D01*
X002700Y017906D02*
X002600Y017906D01*
X002600Y017850D02*
X002600Y019100D01*
X001350Y019100D01*
X001350Y019086D01*
X001363Y018959D01*
X001387Y018834D01*
X001425Y018712D01*
X001473Y018594D01*
X001534Y018481D01*
X001605Y018375D01*
X001686Y018276D01*
X001776Y018186D01*
X001875Y018105D01*
X001981Y018034D01*
X002094Y017973D01*
X002212Y017925D01*
X002334Y017887D01*
X002459Y017863D01*
X002586Y017850D01*
X002600Y017850D01*
X002600Y018004D02*
X002700Y018004D01*
X002700Y018103D02*
X002600Y018103D01*
X002600Y018201D02*
X002700Y018201D01*
X002700Y018300D02*
X002600Y018300D01*
X002600Y018398D02*
X002700Y018398D01*
X002700Y018497D02*
X002600Y018497D01*
X002600Y018595D02*
X002700Y018595D01*
X002700Y018694D02*
X002600Y018694D01*
X002600Y018792D02*
X002700Y018792D01*
X002700Y018891D02*
X002600Y018891D01*
X002600Y018989D02*
X002700Y018989D01*
X002700Y019088D02*
X002600Y019088D01*
X002600Y019186D02*
X000440Y019186D01*
X000440Y019088D02*
X001350Y019088D01*
X001360Y018989D02*
X000440Y018989D01*
X000440Y018891D02*
X001376Y018891D01*
X001400Y018792D02*
X000440Y018792D01*
X000440Y018694D02*
X001432Y018694D01*
X001473Y018595D02*
X000440Y018595D01*
X000440Y018497D02*
X001525Y018497D01*
X001589Y018398D02*
X000440Y018398D01*
X000440Y018300D02*
X001666Y018300D01*
X001760Y018201D02*
X000440Y018201D01*
X000440Y018103D02*
X001878Y018103D01*
X002036Y018004D02*
X000440Y018004D01*
X000440Y017906D02*
X002274Y017906D01*
X003264Y018004D02*
X004864Y018004D01*
X005008Y018103D02*
X003422Y018103D01*
X003540Y018201D02*
X006153Y018201D01*
X006140Y018300D02*
X003634Y018300D01*
X003711Y018398D02*
X006143Y018398D01*
X006140Y018377D02*
X006140Y018360D01*
X007121Y018360D01*
X007121Y018911D01*
X006674Y018911D01*
X006584Y018897D01*
X006497Y018869D01*
X006416Y018827D01*
X006342Y018774D01*
X006278Y018709D01*
X006224Y018635D01*
X006182Y018554D01*
X006154Y018467D01*
X006140Y018377D01*
X006164Y018497D02*
X003775Y018497D01*
X003827Y018595D02*
X006204Y018595D01*
X006266Y018694D02*
X003868Y018694D01*
X003900Y018792D02*
X006368Y018792D01*
X006565Y018891D02*
X003924Y018891D01*
X003940Y018989D02*
X009560Y018989D01*
X009560Y018891D02*
X007735Y018891D01*
X007932Y018792D02*
X009560Y018792D01*
X009560Y018694D02*
X008034Y018694D01*
X008096Y018595D02*
X009572Y018595D01*
X009560Y018625D02*
X009664Y018375D01*
X009855Y018184D01*
X010105Y018080D01*
X010375Y018080D01*
X010625Y018184D01*
X010816Y018375D01*
X010920Y018625D01*
X010920Y019675D01*
X010816Y019925D01*
X010625Y020116D01*
X010375Y020220D01*
X010105Y020220D01*
X009855Y020116D01*
X009664Y019925D01*
X009560Y019675D01*
X009560Y018625D01*
X009613Y018497D02*
X008136Y018497D01*
X008157Y018398D02*
X009654Y018398D01*
X009739Y018300D02*
X008160Y018300D01*
X008147Y018201D02*
X009837Y018201D01*
X010050Y018103D02*
X008115Y018103D01*
X008059Y018004D02*
X011360Y018004D01*
X011360Y017906D02*
X007975Y017906D01*
X007829Y017807D02*
X011360Y017807D01*
X011360Y018103D02*
X010430Y018103D01*
X010643Y018201D02*
X011360Y018201D01*
X011360Y018300D02*
X010741Y018300D01*
X010826Y018398D02*
X011360Y018398D01*
X011360Y018497D02*
X010867Y018497D01*
X010908Y018595D02*
X011360Y018595D01*
X011360Y018694D02*
X010920Y018694D01*
X010920Y018792D02*
X011360Y018792D01*
X011361Y018891D02*
X010920Y018891D01*
X010920Y018989D02*
X011402Y018989D01*
X011455Y019088D02*
X010920Y019088D01*
X010920Y019186D02*
X011530Y019186D01*
X011530Y019285D02*
X010920Y019285D01*
X010920Y019383D02*
X011530Y019383D01*
X011530Y019482D02*
X010920Y019482D01*
X010920Y019580D02*
X011530Y019580D01*
X011531Y019679D02*
X010919Y019679D01*
X010878Y019777D02*
X011572Y019777D01*
X011613Y019876D02*
X010837Y019876D01*
X010768Y019974D02*
X011682Y019974D01*
X011781Y020073D02*
X010669Y020073D01*
X010493Y020171D02*
X011957Y020171D01*
X009987Y020171D02*
X003455Y020171D01*
X003566Y020073D02*
X009811Y020073D01*
X009712Y019974D02*
X003655Y019974D01*
X003729Y019876D02*
X009643Y019876D01*
X009602Y019777D02*
X003789Y019777D01*
X003838Y019679D02*
X009561Y019679D01*
X009560Y019580D02*
X003878Y019580D01*
X003908Y019482D02*
X009560Y019482D01*
X009560Y019383D02*
X003929Y019383D01*
X003943Y019285D02*
X009560Y019285D01*
X009560Y019186D02*
X002700Y019186D01*
X002700Y019285D02*
X002600Y019285D01*
X002600Y019383D02*
X002700Y019383D01*
X002700Y019482D02*
X002600Y019482D01*
X002600Y019580D02*
X002700Y019580D01*
X002700Y019679D02*
X002600Y019679D01*
X002600Y019777D02*
X002700Y019777D01*
X002700Y019876D02*
X002600Y019876D01*
X002600Y019974D02*
X002700Y019974D01*
X002700Y020073D02*
X002600Y020073D01*
X002600Y020171D02*
X002700Y020171D01*
X002700Y020270D02*
X002600Y020270D01*
X002600Y020368D02*
X002700Y020368D01*
X002194Y020368D02*
X000440Y020368D01*
X000440Y020270D02*
X001987Y020270D01*
X001845Y020171D02*
X000440Y020171D01*
X000440Y020073D02*
X001734Y020073D01*
X001645Y019974D02*
X000440Y019974D01*
X000440Y019876D02*
X001571Y019876D01*
X001511Y019777D02*
X000440Y019777D01*
X000440Y019679D02*
X001462Y019679D01*
X001422Y019580D02*
X000440Y019580D01*
X000440Y019482D02*
X001392Y019482D01*
X001371Y019383D02*
X000440Y019383D01*
X000440Y019285D02*
X001357Y019285D01*
X003950Y019088D02*
X009560Y019088D01*
X007179Y018891D02*
X007121Y018891D01*
X007121Y018792D02*
X007179Y018792D01*
X007179Y018694D02*
X007121Y018694D01*
X007121Y018595D02*
X007179Y018595D01*
X007179Y018497D02*
X007121Y018497D01*
X007121Y018398D02*
X007179Y018398D01*
X007179Y018300D02*
X007121Y018300D01*
X007121Y018201D02*
X007179Y018201D01*
X007179Y018103D02*
X007121Y018103D01*
X007121Y018004D02*
X007179Y018004D01*
X007179Y017906D02*
X007121Y017906D01*
X007121Y017807D02*
X007179Y017807D01*
X005840Y017019D02*
X010570Y017019D01*
X010441Y016921D02*
X005840Y016921D01*
X005840Y016822D02*
X010378Y016822D01*
X010340Y016724D02*
X005840Y016724D01*
X005832Y016625D02*
X006423Y016625D01*
X006259Y016527D02*
X005807Y016527D01*
X005762Y016428D02*
X006161Y016428D01*
X006090Y016330D02*
X005690Y016330D01*
X006000Y016034D02*
X000440Y016034D01*
X000440Y015936D02*
X006000Y015936D01*
X006000Y015837D02*
X000440Y015837D01*
X000440Y015739D02*
X006015Y015739D01*
X005916Y015640D02*
X000440Y015640D01*
X000440Y015542D02*
X005818Y015542D01*
X005719Y015443D02*
X000440Y015443D01*
X000440Y015345D02*
X005621Y015345D01*
X005522Y015246D02*
X000440Y015246D01*
X000440Y015148D02*
X005424Y015148D01*
X005325Y015049D02*
X000440Y015049D01*
X000440Y014951D02*
X005227Y014951D01*
X005128Y014852D02*
X000440Y014852D01*
X000440Y014754D02*
X003935Y014754D01*
X003750Y014655D02*
X000440Y014655D01*
X000440Y014557D02*
X003651Y014557D01*
X003553Y014458D02*
X000440Y014458D01*
X000440Y014360D02*
X003454Y014360D01*
X003356Y014261D02*
X000440Y014261D01*
X000440Y014163D02*
X003257Y014163D01*
X003159Y014064D02*
X000440Y014064D01*
X000440Y013966D02*
X003060Y013966D01*
X002962Y013867D02*
X000440Y013867D01*
X000440Y013769D02*
X002863Y013769D01*
X002765Y013670D02*
X000440Y013670D01*
X000440Y013572D02*
X002666Y013572D01*
X002568Y013473D02*
X000440Y013473D01*
X000440Y013375D02*
X002469Y013375D01*
X002371Y013276D02*
X000440Y013276D01*
X000440Y013178D02*
X002272Y013178D01*
X002174Y013079D02*
X000440Y013079D01*
X000440Y012981D02*
X002075Y012981D01*
X001000Y012882D02*
X000440Y012882D01*
X000440Y012784D02*
X000914Y012784D01*
X000880Y012685D02*
X000440Y012685D01*
X000440Y012587D02*
X000880Y012587D01*
X000880Y012488D02*
X000440Y012488D01*
X000440Y012390D02*
X000880Y012390D01*
X000880Y012291D02*
X000440Y012291D01*
X000440Y012193D02*
X000880Y012193D01*
X000880Y012094D02*
X000440Y012094D01*
X000440Y011996D02*
X000880Y011996D01*
X000880Y011897D02*
X000440Y011897D01*
X000440Y011799D02*
X000880Y011799D01*
X000880Y011700D02*
X000440Y011700D01*
X000440Y011602D02*
X000880Y011602D01*
X000920Y011503D02*
X000440Y011503D01*
X000440Y011405D02*
X001023Y011405D01*
X001376Y011306D02*
X000440Y011306D01*
X000440Y011208D02*
X001376Y011208D01*
X001376Y011109D02*
X000440Y011109D01*
X000440Y011011D02*
X001376Y011011D01*
X001376Y010912D02*
X000440Y010912D01*
X000440Y010814D02*
X001376Y010814D01*
X001376Y010715D02*
X000440Y010715D01*
X000440Y010617D02*
X001376Y010617D01*
X001376Y010518D02*
X000440Y010518D01*
X000440Y010420D02*
X001376Y010420D01*
X001376Y010321D02*
X000440Y010321D01*
X000440Y010223D02*
X001376Y010223D01*
X001376Y010124D02*
X000440Y010124D01*
X000440Y010026D02*
X001376Y010026D01*
X001376Y009927D02*
X000440Y009927D01*
X000440Y009829D02*
X001376Y009829D01*
X001376Y009730D02*
X000440Y009730D01*
X000440Y009632D02*
X001376Y009632D01*
X001376Y009533D02*
X000440Y009533D01*
X000440Y009435D02*
X001376Y009435D01*
X001376Y009336D02*
X000440Y009336D01*
X000440Y009238D02*
X001376Y009238D01*
X001376Y009139D02*
X000440Y009139D01*
X000440Y009041D02*
X001376Y009041D01*
X001376Y008942D02*
X000440Y008942D01*
X000440Y008844D02*
X001376Y008844D01*
X001376Y008745D02*
X000440Y008745D01*
X000440Y008647D02*
X001376Y008647D01*
X001376Y008548D02*
X000440Y008548D01*
X000440Y008450D02*
X001376Y008450D01*
X001376Y008351D02*
X000440Y008351D01*
X000440Y008253D02*
X001376Y008253D01*
X001376Y008154D02*
X000440Y008154D01*
X000440Y008056D02*
X001376Y008056D01*
X001376Y007957D02*
X000440Y007957D01*
X000440Y007859D02*
X000976Y007859D01*
X000905Y007760D02*
X000440Y007760D01*
X000440Y007662D02*
X000880Y007662D01*
X000880Y007563D02*
X000440Y007563D01*
X000440Y007465D02*
X000880Y007465D01*
X000880Y007366D02*
X000440Y007366D01*
X000440Y007268D02*
X000880Y007268D01*
X000880Y007169D02*
X000440Y007169D01*
X000440Y007071D02*
X000880Y007071D01*
X000880Y006972D02*
X000440Y006972D01*
X000440Y006874D02*
X000880Y006874D01*
X000880Y006775D02*
X000440Y006775D01*
X000440Y006677D02*
X000880Y006677D01*
X000889Y006578D02*
X000440Y006578D01*
X000440Y006480D02*
X000938Y006480D01*
X000440Y001259D02*
X038852Y001259D01*
X038852Y001161D02*
X000440Y001161D01*
X000440Y001062D02*
X038852Y001062D01*
X038852Y000964D02*
X000440Y000964D01*
X000440Y000865D02*
X038852Y000865D01*
X038852Y000767D02*
X000440Y000767D01*
X000440Y000668D02*
X038852Y000668D01*
X038852Y000570D02*
X000440Y000570D01*
X000440Y000471D02*
X038852Y000471D01*
X038852Y002737D02*
X037948Y002737D01*
X037938Y002835D02*
X038852Y002835D01*
X038852Y002934D02*
X037919Y002934D01*
X037893Y003032D02*
X038852Y003032D01*
X038852Y003131D02*
X037858Y003131D01*
X037815Y003229D02*
X038852Y003229D01*
X038852Y003328D02*
X037761Y003328D01*
X037695Y003426D02*
X038852Y003426D01*
X038852Y003525D02*
X037614Y003525D01*
X037514Y003623D02*
X038852Y003623D01*
X038852Y003722D02*
X037386Y003722D01*
X037219Y003820D02*
X038852Y003820D01*
X036585Y010420D02*
X036517Y010420D01*
X036418Y010518D02*
X036684Y010518D01*
X033126Y013769D02*
X031766Y013769D01*
X031766Y013867D02*
X033074Y013867D01*
X033034Y013966D02*
X031766Y013966D01*
X031766Y014064D02*
X033010Y014064D01*
X033010Y014163D02*
X031804Y014163D01*
X031903Y014261D02*
X033010Y014261D01*
X033044Y014360D02*
X032001Y014360D01*
X032100Y014458D02*
X033085Y014458D01*
X033151Y014557D02*
X032198Y014557D01*
X032297Y014655D02*
X033240Y014655D01*
X033141Y014754D02*
X032395Y014754D01*
X032494Y014852D02*
X033081Y014852D01*
X033040Y014951D02*
X032592Y014951D01*
X032691Y015049D02*
X033010Y015049D01*
X033010Y015148D02*
X032789Y015148D01*
X032888Y015246D02*
X033010Y015246D01*
X032986Y015345D02*
X033038Y015345D01*
X032200Y017807D02*
X032100Y017807D01*
X032100Y017906D02*
X032200Y017906D01*
X032200Y018004D02*
X032100Y018004D01*
X032100Y018300D02*
X032200Y018300D01*
X032200Y018398D02*
X032100Y018398D01*
X032100Y018497D02*
X032200Y018497D01*
X032200Y018595D02*
X032100Y018595D01*
X017867Y020171D02*
X016403Y020171D01*
X016579Y020073D02*
X017691Y020073D01*
X017592Y019974D02*
X016678Y019974D01*
X016747Y019876D02*
X017523Y019876D01*
X017482Y019777D02*
X016788Y019777D01*
X016829Y019679D02*
X017441Y019679D01*
X017440Y019580D02*
X016830Y019580D01*
X016830Y019482D02*
X017440Y019482D01*
X017440Y019383D02*
X016830Y019383D01*
X016830Y019285D02*
X017440Y019285D01*
X017440Y019186D02*
X016830Y019186D01*
X016830Y019088D02*
X017440Y019088D01*
X017440Y018989D02*
X016830Y018989D01*
X016830Y018891D02*
X017440Y018891D01*
X017440Y018792D02*
X016830Y018792D01*
X016830Y018694D02*
X017440Y018694D01*
X017452Y018595D02*
X016818Y018595D01*
X016777Y018497D02*
X017493Y018497D01*
X017534Y018398D02*
X016736Y018398D01*
X016651Y018300D02*
X017619Y018300D01*
X017630Y018201D02*
X016553Y018201D01*
X016340Y018103D02*
X017630Y018103D01*
X017630Y018004D02*
X016340Y018004D01*
X016340Y017906D02*
X017630Y017906D01*
X017630Y017807D02*
X016340Y017807D01*
X016340Y017709D02*
X017630Y017709D01*
X017630Y017610D02*
X016340Y017610D01*
X016340Y017512D02*
X017630Y017512D01*
X017630Y017413D02*
X016340Y017413D01*
X016340Y017315D02*
X017630Y017315D01*
X017630Y017216D02*
X016340Y017216D01*
X016340Y017118D02*
X017605Y017118D01*
X011300Y013375D02*
X011200Y013375D01*
X011200Y013380D02*
X011200Y012840D01*
X011030Y012840D01*
X010992Y012850D01*
X010958Y012870D01*
X010930Y012898D01*
X010910Y012932D01*
X010900Y012970D01*
X010900Y013380D01*
X011200Y013380D01*
X011200Y013473D02*
X004378Y013473D01*
X004280Y013375D02*
X010900Y013375D01*
X010900Y013276D02*
X004181Y013276D01*
X004083Y013178D02*
X010900Y013178D01*
X010900Y013079D02*
X003984Y013079D01*
X003886Y012981D02*
X010900Y012981D01*
X010946Y012882D02*
X003787Y012882D01*
X003689Y012784D02*
X004386Y012784D01*
X004294Y012685D02*
X003590Y012685D01*
X003492Y012587D02*
X004287Y012587D01*
X004287Y012488D02*
X003393Y012488D01*
X003295Y012390D02*
X004287Y012390D01*
X004287Y012291D02*
X003196Y012291D01*
X005234Y012390D02*
X005334Y012390D01*
X005334Y012488D02*
X005234Y012488D01*
X005234Y012587D02*
X005334Y012587D01*
X005334Y012685D02*
X005234Y012685D01*
X005234Y012784D02*
X005334Y012784D01*
X006182Y012784D02*
X011399Y012784D01*
X011382Y012685D02*
X006274Y012685D01*
X006280Y012587D02*
X011382Y012587D01*
X011410Y012488D02*
X006280Y012488D01*
X006280Y012390D02*
X011451Y012390D01*
X011547Y012291D02*
X006280Y012291D01*
X005334Y012094D02*
X005234Y012094D01*
X005234Y011996D02*
X005334Y011996D01*
X005334Y011897D02*
X005234Y011897D01*
X005234Y011799D02*
X005334Y011799D01*
X005334Y011700D02*
X005234Y011700D01*
X005234Y011602D02*
X005334Y011602D01*
X005607Y013572D02*
X010900Y013572D01*
X010900Y013670D02*
X005756Y013670D01*
X005855Y013769D02*
X010900Y013769D01*
X010900Y013867D02*
X005953Y013867D01*
X006052Y013966D02*
X010607Y013966D01*
X010456Y014064D02*
X006150Y014064D01*
X006249Y014163D02*
X010384Y014163D01*
X010343Y014261D02*
X006347Y014261D01*
X006446Y014360D02*
X010340Y014360D01*
X010340Y014458D02*
X006544Y014458D01*
X006643Y014557D02*
X010340Y014557D01*
X010340Y014655D02*
X006741Y014655D01*
X006840Y014754D02*
X010340Y014754D01*
X010340Y014852D02*
X006938Y014852D01*
X007037Y014951D02*
X010340Y014951D01*
X010340Y015049D02*
X007135Y015049D01*
X007234Y015148D02*
X010340Y015148D01*
X010340Y015246D02*
X007332Y015246D01*
X007954Y015345D02*
X010340Y015345D01*
X010340Y015443D02*
X008072Y015443D01*
X008171Y015542D02*
X010340Y015542D01*
X010340Y015640D02*
X008223Y015640D01*
X008264Y015739D02*
X010340Y015739D01*
X010340Y015837D02*
X008300Y015837D01*
X008300Y015936D02*
X010340Y015936D01*
X010340Y016034D02*
X008300Y016034D01*
X008292Y016133D02*
X010340Y016133D01*
X010340Y016231D02*
X008251Y016231D01*
X008210Y016330D02*
X010340Y016330D01*
X010340Y016428D02*
X008139Y016428D01*
X008041Y016527D02*
X010340Y016527D01*
X010340Y016625D02*
X007877Y016625D01*
X011200Y013276D02*
X011300Y013276D01*
X011300Y013178D02*
X011200Y013178D01*
X011200Y013079D02*
X011300Y013079D01*
X011300Y012981D02*
X011200Y012981D01*
X011200Y012882D02*
X011300Y012882D01*
X022857Y008548D02*
X022954Y008548D01*
X022954Y008450D02*
X022857Y008450D01*
X022857Y008351D02*
X022954Y008351D01*
X022954Y008253D02*
X022857Y008253D01*
X022857Y008056D02*
X022954Y008056D01*
X022954Y007957D02*
X022857Y007957D01*
X022857Y007859D02*
X022954Y007859D01*
X022954Y007760D02*
X022857Y007760D01*
D28*
X025150Y008150D03*
X025150Y009150D03*
X025150Y011150D03*
X025150Y013150D03*
X025150Y014150D03*
X025150Y015150D03*
X022150Y013650D03*
X019850Y012650D03*
X018650Y012650D03*
X017050Y012650D03*
X015850Y012650D03*
X014650Y012650D03*
X013050Y012650D03*
X011850Y012650D03*
X010650Y012650D03*
X004150Y016150D03*
X003150Y016150D03*
X002150Y016150D03*
X002150Y017150D03*
X003150Y017150D03*
X004150Y017150D03*
X025150Y018150D03*
X025150Y019150D03*
X037150Y013150D03*
X032150Y010150D03*
D29*
X007150Y015969D02*
X005331Y014150D01*
X004150Y014150D01*
X002150Y012150D01*
X002016Y012150D01*
X002016Y009650D01*
X002016Y007150D01*
D30*
X010240Y019059D02*
X010240Y019150D01*
D31*
X011850Y013430D02*
X011850Y012650D01*
X013050Y012650D02*
X013050Y013430D01*
X015850Y013430D02*
X015850Y012650D01*
X017050Y012650D02*
X017050Y013430D01*
X019850Y013430D02*
X019850Y012650D01*
X021050Y013430D02*
X021270Y013650D01*
X022150Y013650D01*
X024524Y013150D02*
X025150Y013150D01*
X025776Y013150D01*
X025776Y014150D02*
X025150Y014150D01*
X024524Y014150D01*
X024524Y015150D02*
X025150Y015150D01*
X025776Y015150D01*
X025776Y018150D02*
X025150Y018150D01*
X024524Y018150D01*
X024524Y019150D02*
X025150Y019150D01*
X025776Y019150D01*
X037150Y013150D02*
X037150Y010150D01*
X036150Y009150D02*
X033650Y009150D01*
X033650Y008150D02*
X032024Y008150D01*
X029276Y008150D02*
X027650Y008150D01*
X026524Y008150D01*
X025776Y008150D02*
X025150Y008150D01*
X025150Y009150D02*
X025776Y009150D01*
X026524Y009150D02*
X027650Y009150D01*
X029276Y009150D01*
X025776Y011150D02*
X025150Y011150D01*
X024524Y011150D01*
X017197Y008134D02*
X014650Y005587D01*
X014650Y005024D01*
X016150Y005024D02*
X016150Y005119D01*
X017197Y006166D01*
D32*
X017650Y014350D02*
X016450Y014350D01*
X016450Y016650D01*
X017650Y016650D01*
X017650Y014350D01*
X017650Y014586D02*
X016450Y014586D01*
X015850Y014586D02*
X014750Y014586D01*
X014750Y014350D02*
X014750Y016650D01*
X015850Y016650D01*
X015850Y014350D01*
X014750Y014350D01*
X014750Y014825D02*
X015850Y014825D01*
X015850Y015063D02*
X014750Y015063D01*
X014750Y015302D02*
X015850Y015302D01*
X015850Y015540D02*
X014750Y015540D01*
X014750Y015779D02*
X015850Y015779D01*
X015850Y016017D02*
X014750Y016017D01*
X014750Y016256D02*
X015850Y016256D01*
X015850Y016494D02*
X014750Y016494D01*
X013650Y016494D02*
X012450Y016494D01*
X012450Y016650D02*
X013650Y016650D01*
X013650Y014350D01*
X012450Y014350D01*
X012450Y016650D01*
X011850Y016650D02*
X010750Y016650D01*
X010750Y014350D01*
X011850Y014350D01*
X011850Y016650D01*
X011850Y016494D02*
X010750Y016494D01*
X010750Y016256D02*
X011850Y016256D01*
X011850Y016017D02*
X010750Y016017D01*
X010750Y015779D02*
X011850Y015779D01*
X011850Y015540D02*
X010750Y015540D01*
X010750Y015302D02*
X011850Y015302D01*
X011850Y015063D02*
X010750Y015063D01*
X010750Y014825D02*
X011850Y014825D01*
X012450Y014825D02*
X013650Y014825D01*
X013650Y015063D02*
X012450Y015063D01*
X012450Y015302D02*
X013650Y015302D01*
X013650Y015540D02*
X012450Y015540D01*
X012450Y015779D02*
X013650Y015779D01*
X013650Y016017D02*
X012450Y016017D01*
X012450Y016256D02*
X013650Y016256D01*
X016450Y016256D02*
X017650Y016256D01*
X017650Y016494D02*
X016450Y016494D01*
X016450Y016017D02*
X017650Y016017D01*
X017650Y015779D02*
X016450Y015779D01*
X016450Y015540D02*
X017650Y015540D01*
X017650Y015302D02*
X016450Y015302D01*
X016450Y015063D02*
X017650Y015063D01*
X017650Y014825D02*
X016450Y014825D01*
X018750Y014825D02*
X019850Y014825D01*
X019850Y015063D02*
X018750Y015063D01*
X018750Y015302D02*
X019850Y015302D01*
X019850Y015540D02*
X018750Y015540D01*
X018750Y015779D02*
X019850Y015779D01*
X019850Y016017D02*
X018750Y016017D01*
X018750Y016256D02*
X019850Y016256D01*
X019850Y016494D02*
X018750Y016494D01*
X018750Y016650D02*
X019850Y016650D01*
X019850Y014350D01*
X018750Y014350D01*
X018750Y016650D01*
X020450Y016650D02*
X021650Y016650D01*
X021650Y014350D01*
X020450Y014350D01*
X020450Y016650D01*
X020450Y016494D02*
X021650Y016494D01*
X021650Y016256D02*
X020450Y016256D01*
X020450Y016017D02*
X021650Y016017D01*
X021650Y015779D02*
X020450Y015779D01*
X020450Y015540D02*
X021650Y015540D01*
X021650Y015302D02*
X020450Y015302D01*
X020450Y015063D02*
X021650Y015063D01*
X021650Y014825D02*
X020450Y014825D01*
X020450Y014586D02*
X021650Y014586D01*
X019850Y014586D02*
X018750Y014586D01*
X013650Y014586D02*
X012450Y014586D01*
X011850Y014586D02*
X010750Y014586D01*
M02*
