%
M48
M72
T01C0.0236
T02C0.0315
T03C0.0394
T04C0.0400
T05C0.0520
T06C0.0866
T07C0.1181
%
T01
X10650Y12650
X11850Y12650
X13050Y12650
X14650Y12650
X15850Y12650
X17050Y12650
X18650Y12650
X19850Y12650
X22150Y13650
X25150Y13150
X25150Y14150
X25150Y15150
X25150Y18150
X25150Y19150
X37150Y13150
X32150Y10150
X25150Y9150
X25150Y8150
X25150Y11150
X4150Y16150
X3150Y16150
X2150Y16150
X2150Y17150
X3150Y17150
X4150Y17150
T02
X5260Y17150
X7150Y18331
T03
X7150Y15969
X17197Y8134
X17197Y7150
X17197Y6166
X22906Y6166
X22906Y8134
X27650Y8150
X27650Y9150
X27650Y10150
X27650Y11150
X27650Y12150
X27650Y13150
X27650Y14150
X27650Y15150
X27650Y16150
X27650Y17150
X27650Y18150
X27650Y19150
X33650Y19150
X33650Y18150
X33650Y17150
X33650Y16150
X33650Y15150
X33650Y14150
X33650Y13150
X33650Y12150
X33650Y11150
X33650Y10150
X33650Y9150
X33650Y8150
T04
X36150Y8150
X37150Y8150
X37150Y9150
X36150Y9150
X36150Y10150
X37150Y10150
T05
X22060Y19150
X20090Y19150
X18120Y19150
X16150Y19150
X14180Y19150
X12210Y19150
X10240Y19150
T06
X20150Y9552
X20150Y4748
T07
X2650Y2650
X2650Y19150
X36650Y19150
X36650Y2650
M30
